<svg viewBox="0 0 1307 400" xmlns="http://www.w3.org/2000/svg"><g><g><g><g><g><line x1="51.41600036621094" y1="377.95999908447266" x2="46.41600036621094" y2="377.95999908447266" style="visibility: inherit;" fill="rgb(0, 0, 0)" stroke="rgb(204, 204, 204)" stroke-width="1px"></line><line x1="51.41600036621094" y1="323.9657135009766" x2="46.41600036621094" y2="323.9657135009766" style="visibility: inherit;" fill="rgb(0, 0, 0)" stroke="rgb(204, 204, 204)" stroke-width="1px"></line><line x1="51.41600036621094" y1="269.9714279174805" x2="46.41600036621094" y2="269.9714279174805" style="visibility: inherit;" fill="rgb(0, 0, 0)" stroke="rgb(204, 204, 204)" stroke-width="1px"></line><line x1="51.41600036621094" y1="215.97714233398438" x2="46.41600036621094" y2="215.97714233398438" style="visibility: inherit;" fill="rgb(0, 0, 0)" stroke="rgb(204, 204, 204)" stroke-width="1px"></line><line x1="51.41600036621094" y1="161.98285675048834" x2="46.41600036621094" y2="161.98285675048834" style="visibility: inherit;" fill="rgb(0, 0, 0)" stroke="rgb(204, 204, 204)" stroke-width="1px"></line><line x1="51.41600036621094" y1="107.98857116699219" x2="46.41600036621094" y2="107.98857116699219" style="visibility: inherit;" fill="rgb(0, 0, 0)" stroke="rgb(204, 204, 204)" stroke-width="1px"></line><line x1="51.41600036621094" y1="53.99428558349615" x2="46.41600036621094" y2="53.99428558349615" style="visibility: inherit;" fill="rgb(0, 0, 0)" stroke="rgb(204, 204, 204)" stroke-width="1px"></line><line x1="51.41600036621094" y1="0" x2="46.41600036621094" y2="0" style="visibility: inherit;" fill="rgb(0, 0, 0)" stroke="rgb(204, 204, 204)" stroke-width="1px"></line></g><g transform="translate(41.41600036621094, 0)"><text style="text-anchor: end; visibility: hidden; font-family: Roboto, sans-serif; font-size: 12px; font-weight: 200;" x="0" y="377.95999908447266" dx="0em" dy="0.3em" fill="rgb(50, 49, 63)" stroke="none" stroke-width="1px">0.65</text><text style="text-anchor: end; visibility: inherit; font-family: Roboto, sans-serif; font-size: 12px; font-weight: 200;" x="0" y="323.9657135009766" dx="0em" dy="0.3em" fill="rgb(50, 49, 63)" stroke="none" stroke-width="1px">0.7</text><text style="text-anchor: end; visibility: inherit; font-family: Roboto, sans-serif; font-size: 12px; font-weight: 200;" x="0" y="269.9714279174805" dx="0em" dy="0.3em" fill="rgb(50, 49, 63)" stroke="none" stroke-width="1px">0.75</text><text style="text-anchor: end; visibility: inherit; font-family: Roboto, sans-serif; font-size: 12px; font-weight: 200;" x="0" y="215.97714233398438" dx="0em" dy="0.3em" fill="rgb(50, 49, 63)" stroke="none" stroke-width="1px">0.8</text><text style="text-anchor: end; visibility: inherit; font-family: Roboto, sans-serif; font-size: 12px; font-weight: 200;" x="0" y="161.98285675048834" dx="0em" dy="0.3em" fill="rgb(50, 49, 63)" stroke="none" stroke-width="1px">0.85</text><text style="text-anchor: end; visibility: inherit; font-family: Roboto, sans-serif; font-size: 12px; font-weight: 200;" x="0" y="107.98857116699219" dx="0em" dy="0.3em" fill="rgb(50, 49, 63)" stroke="none" stroke-width="1px">0.9</text><text style="text-anchor: end; visibility: inherit; font-family: Roboto, sans-serif; font-size: 12px; font-weight: 200;" x="0" y="53.99428558349615" dx="0em" dy="0.3em" fill="rgb(50, 49, 63)" stroke="none" stroke-width="1px">0.95</text><text style="text-anchor: end; visibility: hidden; font-family: Roboto, sans-serif; font-size: 12px; font-weight: 200;" x="0" y="0" dx="0em" dy="0.3em" fill="rgb(50, 49, 63)" stroke="none" stroke-width="1px">1</text></g><line x1="51.41600036621094" y1="0" x2="51.41600036621094" y2="377.95999908447266" fill="rgb(0, 0, 0)" stroke="rgb(204, 204, 204)" stroke-width="1px"></line></g></g><g transform="translate(51, 0)" clip-path="url(#clip_0)"><clipPath id="clip_0"><rect width="1255" height="377"></rect></clipPath><g><g><g><line x1="0" y1="0" x2="0" y2="377.95999908447266" fill="rgb(0, 0, 0)" stroke="rgb(60, 60, 60)" stroke-width="1px" opacity="0.25"></line><line x1="104.63199996948242" y1="0" x2="104.63199996948242" y2="377.95999908447266" fill="rgb(0, 0, 0)" stroke="rgb(60, 60, 60)" stroke-width="1px" opacity="0.25"></line><line x1="209.26399993896484" y1="0" x2="209.26399993896484" y2="377.95999908447266" fill="rgb(0, 0, 0)" stroke="rgb(60, 60, 60)" stroke-width="1px" opacity="0.25"></line><line x1="313.89599990844727" y1="0" x2="313.89599990844727" y2="377.95999908447266" fill="rgb(0, 0, 0)" stroke="rgb(60, 60, 60)" stroke-width="1px" opacity="0.25"></line><line x1="418.5279998779297" y1="0" x2="418.5279998779297" y2="377.95999908447266" fill="rgb(0, 0, 0)" stroke="rgb(60, 60, 60)" stroke-width="1px" opacity="0.25"></line><line x1="523.1599998474121" y1="0" x2="523.1599998474121" y2="377.95999908447266" fill="rgb(0, 0, 0)" stroke="rgb(60, 60, 60)" stroke-width="1px" opacity="0.25"></line><line x1="627.7919998168945" y1="0" x2="627.7919998168945" y2="377.95999908447266" fill="rgb(0, 0, 0)" stroke="rgb(60, 60, 60)" stroke-width="1px" opacity="0.25"></line><line x1="732.423999786377" y1="0" x2="732.423999786377" y2="377.95999908447266" fill="rgb(0, 0, 0)" stroke="rgb(60, 60, 60)" stroke-width="1px" opacity="0.25"></line><line x1="837.0559997558594" y1="0" x2="837.0559997558594" y2="377.95999908447266" fill="rgb(0, 0, 0)" stroke="rgb(60, 60, 60)" stroke-width="1px" opacity="0.25"></line><line x1="941.6879997253418" y1="0" x2="941.6879997253418" y2="377.95999908447266" fill="rgb(0, 0, 0)" stroke="rgb(60, 60, 60)" stroke-width="1px" opacity="0.25"></line><line x1="1046.3199996948242" y1="0" x2="1046.3199996948242" y2="377.95999908447266" fill="rgb(0, 0, 0)" stroke="rgb(60, 60, 60)" stroke-width="1px" opacity="0.25"></line><line x1="1150.9519996643066" y1="0" x2="1150.9519996643066" y2="377.95999908447266" fill="rgb(0, 0, 0)" stroke="rgb(60, 60, 60)" stroke-width="1px" opacity="0.25"></line><line x1="1255.583999633789" y1="0" x2="1255.583999633789" y2="377.95999908447266" fill="rgb(0, 0, 0)" stroke="rgb(60, 60, 60)" stroke-width="1px" opacity="0.25"></line></g><g><line x1="0" y1="377.95999908447266" x2="1255.583999633789" y2="377.95999908447266" fill="rgb(0, 0, 0)" stroke="rgb(60, 60, 60)" stroke-width="1px" opacity="0.25"></line><line x1="0" y1="323.9657135009766" x2="1255.583999633789" y2="323.9657135009766" fill="rgb(0, 0, 0)" stroke="rgb(60, 60, 60)" stroke-width="1px" opacity="0.25"></line><line x1="0" y1="269.9714279174805" x2="1255.583999633789" y2="269.9714279174805" fill="rgb(0, 0, 0)" stroke="rgb(60, 60, 60)" stroke-width="1px" opacity="0.25"></line><line x1="0" y1="215.97714233398438" x2="1255.583999633789" y2="215.97714233398438" fill="rgb(0, 0, 0)" stroke="rgb(60, 60, 60)" stroke-width="1px" opacity="0.25"></line><line x1="0" y1="161.98285675048834" x2="1255.583999633789" y2="161.98285675048834" fill="rgb(0, 0, 0)" stroke="rgb(60, 60, 60)" stroke-width="1px" opacity="0.25"></line><line x1="0" y1="107.98857116699219" x2="1255.583999633789" y2="107.98857116699219" fill="rgb(0, 0, 0)" stroke="rgb(60, 60, 60)" stroke-width="1px" opacity="0.25"></line><line x1="0" y1="53.99428558349615" x2="1255.583999633789" y2="53.99428558349615" fill="rgb(0, 0, 0)" stroke="rgb(60, 60, 60)" stroke-width="1px" opacity="0.25"></line><line x1="0" y1="0" x2="1255.583999633789" y2="0" fill="rgb(0, 0, 0)" stroke="rgb(60, 60, 60)" stroke-width="1px" opacity="0.25"></line></g></g></g><g><g><line x1="0" y1="1079.885711669922" x2="1255.583999633789" y2="1079.885711669922" fill="rgb(0, 0, 0)" stroke="rgb(153, 153, 153)" stroke-width="1.5px"></line></g></g><g><g><line x1="104.63199996948242" y1="0" x2="104.63199996948242" y2="377.95999908447266" fill="rgb(0, 0, 0)" stroke="rgb(153, 153, 153)" stroke-width="1.5px"></line></g></g><g><g><g><g><g><path style="fill: none;" stroke="rgb(0, 119, 187)" stroke-width="2px" d="M104.63199996948242,207.14125877340848L125.55839996337892,179.09915640227157L146.48479995727538,176.9827312405869L167.41119995117188,170.8981295873764L188.33759994506835,160.58074197700083L209.26399993896484,181.74460739662211L230.1903999328613,154.23159522435526L251.11679992675784,170.63358448794133L272.04319992065433,158.1998360820853L292.96959991455077,165.60716323247107L313.89599990844727,162.4325576730462L334.82239990234376,171.4272197862465L355.7487998962402,171.9563099851166L376.6751998901367,157.40620078378018L397.6015998840332,154.76068542322537L418.5279998779297,158.46438118152037L439.4543998718261,165.342618133036L460.3807998657226,173.80819004736625L481.3071998596192,157.40620078378018L502.23359985351567,170.10449428907123L523.1599998474121,162.96171223812053L544.0863998413087,162.96171223812053L565.0127998352051,172.4854001839867L585.9391998291015,152.64432462774496L606.8655998229981,162.6971671386855L627.7919998168945,147.88244847170972L648.7183998107911,153.70250502548515L669.6447998046875,148.41153867057983L690.5711997985841,151.32153476436542L711.4975997924804,154.76068542322537L732.423999786377,158.46438118152037L753.3503997802734,162.96171223812053L774.27679977417,161.10983217587093L795.2031997680664,160.58074197700083L816.1295997619629,149.7342641677551L837.0559997558594,165.078073033601L857.9823997497559,149.20517396888502L878.9087997436523,151.85068932943977L899.8351997375488,149.46971906832005L920.7615997314452,143.9142076139797L941.6879997253418,148.41153867057983L962.6143997192383,152.64432462774496L983.5407997131348,145.50147821059L1004.4671997070313,145.23693311115497L1025.3935997009278,149.20517396888502L1046.3199996948242,148.1469935711448L1067.2463996887207,139.15233145794446L1088.1727996826173,138.8877863585094L1109.0991996765135,149.20517396888502L1130.0255996704102,152.64432462774496" fill="none"></path></g><g><path style="fill: none;" stroke="rgb(51, 187, 238)" stroke-width="2px" d="M104.63199996948242,188.62284434813773L125.55839996337892,161.37437727530596L146.48479995727538,153.70250502548515L167.41119995117188,150.79244456549532L188.33759994506835,144.17875271341472L209.26399993896484,144.17875271341472L230.1903999328613,141.5333017190642L251.11679992675784,141.79784681849924L272.04319992065433,143.1205723156745L292.96959991455077,138.8877863585094L313.89599990844727,133.86136510303913L334.82239990234376,135.71324516528878L355.7487998962402,141.5333017190642L376.6751998901367,143.1205723156745L397.6015998840332,141.26875661962913L418.5279998779297,141.0042115201941L439.4543998718261,142.85602721623948L460.3807998657226,138.3586961596393L481.3071998596192,139.94596675624965L502.23359985351567,138.8877863585094L523.1599998474121,141.0042115201941L544.0863998413087,142.85602721623948L565.0127998352051,142.32693701736935L585.9391998291015,148.41153867057983L606.8655998229981,146.55972297453445L627.7919998168945,136.2423353641589L648.7183998107911,140.73966642075902L669.6447998046875,141.79784681849924L690.5711997985841,143.3851174151096L711.4975997924804,138.09415106020427L732.423999786377,141.0042115201941L753.3503997802734,143.9142076139797L774.27679977417,142.32693701736935L795.2031997680664,139.41687655737954L816.1295997619629,140.73966642075902L837.0559997558594,145.23693311115497L857.9823997497559,142.5914821168044L878.9087997436523,139.68142165681456L899.8351997375488,139.94596675624965L920.7615997314452,142.06239191793432L941.6879997253418,144.17875271341472L962.6143997192383,143.9142076139797L983.5407997131348,147.35335827283964L1004.4671997070313,143.9142076139797L1025.3935997009278,149.20517396888502L1046.3199996948242,147.61790337227467L1067.2463996887207,147.61790337227467L1088.1727996826173,146.03063277566434L1109.0991996765135,141.5333017190642L1130.0255996704102,144.70784291228486" fill="none"></path></g><g><path style="fill: none;" stroke="rgb(0, 153, 136)" stroke-width="2px" d="M104.63199996948242,278.0401178164539L125.55839996337892,228.83421439189988L146.48479995727538,211.37398036436934L167.41119995117188,201.58574731906813L188.33759994506835,195.50108129965338L209.26399993896484,185.9773933537872L230.1903999328613,181.48006229718703L251.11679992675784,175.66000574341163L272.04319992065433,170.63358448794133L292.96959991455077,168.25267859302585L313.89599990844727,166.40079853077626L334.82239990234376,162.96171223812053L355.7487998962402,160.31619687756574L376.6751998901367,158.1998360820853L397.6015998840332,157.6707458832152L418.5279998779297,157.1416556843451L439.4543998718261,154.23159522435526L460.3807998657226,153.17341482661504L481.3071998596192,152.64432462774496L502.23359985351567,151.58614423000475L523.1599998474121,146.03063277566434L544.0863998413087,147.08881317340456L565.0127998352051,146.55972297453445L585.9391998291015,145.23693311115497L606.8655998229981,143.9142076139797L627.7919998168945,143.64966251454462L648.7183998107911,143.3851174151096L669.6447998046875,142.32693701736935L690.5711997985841,141.0042115201941L711.4975997924804,141.0042115201941L732.423999786377,139.15233145794446L753.3503997802734,140.21051185568467L774.27679977417,138.3586961596393L795.2031997680664,137.03597066246402L816.1295997619629,137.03597066246402L837.0559997558594,135.9777902647238L857.9823997497559,136.50688046359392L878.9087997436523,134.39045530190924L899.8351997375488,135.4487000658537L920.7615997314452,135.18415496641865L941.6879997253418,133.33227490416903L962.6143997192383,133.06772980473397L983.5407997131348,133.33227490416903L1004.4671997070313,134.65500040134432L1025.3935997009278,134.12591020247422L1046.3199996948242,133.59682000360408L1067.2463996887207,133.59682000360408L1088.1727996826173,132.53863960586386L1109.0991996765135,132.80318470529895L1130.0255996704102,133.86136510303913" fill="none"></path></g><g><path style="fill: none;" stroke="rgb(255, 112, 67)" stroke-width="2px" d="M188.33759994506835,380.4202942557004L209.26399993896484,349.73267652400864L230.1903999328613,324.8651797122966L251.11679992675784,306.87591985210025L272.04319992065433,289.4157501907739L292.96959991455077,279.36290767983337L313.89599990844727,272.2200612626784L334.82239990234376,263.4900086151174L355.7487998962402,260.05085795625746L376.6751998901367,252.6435308058717L397.6015998840332,249.73347034588187L418.5279998779297,244.97159418984666L439.4543998718261,241.79705299662604L460.3807998657226,239.94523730058066L481.3071998596192,235.44790624398047L502.23359985351567,234.12511638060096L523.1599998474121,231.7442104856855L544.0863998413087,229.09875949133496L565.0127998352051,226.98233432965026L585.9391998291015,226.45324413078018L606.8655998229981,225.39506373303993L627.7919998168945,223.54324803699456L648.7183998107911,221.95591307418L669.6447998046875,220.3686424775697L690.5711997985841,219.83955227869956L711.4975997924804,218.78137188095937L732.423999786377,217.45858201757983L753.3503997802734,216.66494671927467L774.27679977417,215.34222122209943L795.2031997680664,214.28404082435918L816.1295997619629,212.9613153271839L837.0559997558594,212.16768002887878L857.9823997497559,211.37398036436934L878.9087997436523,208.72852937001883L899.8351997375488,208.46398427058375L920.7615997314452,208.46398427058375L941.6879997253418,206.87671367397346L962.6143997192383,205.81846891002897L983.5407997131348,204.23119831341864L1004.4671997070313,203.70210811454854L1025.3935997009278,203.4375630151135L1046.3199996948242,203.4375630151135L1067.2463996887207,202.64392771680835L1088.1727996826173,201.32120221963305L1109.0991996765135,200.7920476545587L1130.0255996704102,199.99841235625357" fill="none"></path></g><g><path style="fill: none;" stroke="rgb(255, 112, 67)" stroke-width="2px" d="M104.63199996948242,274.3138295204699L125.55839996337892,164.761970604568L146.48479995727538,138.2114906505376L167.41119995117188,126.17687707718686L188.33759994506835,121.83453984040172L209.26399993896484,128.5341605751455L230.1903999328613,119.47725634244307L251.11679992675784,108.31113596293106L272.04319992065433,100.37079227521644L292.96959991455077,100.24675859964191L313.89599990844727,96.52471847313794L334.82239990234376,92.43044858750184L355.7487998962402,98.88200197109654L376.6751998901367,104.8372275537804L397.6015998840332,104.46506216085254L418.5279998779297,100.74302203434853L439.4543998718261,98.1376068190366L460.3807998657226,97.39321166697664L481.3071998596192,95.28405988637134L502.23359985351567,87.71588159158453L523.1599998474121,96.15248871400581L544.0863998413087,94.66369840988591L565.0127998352051,98.1376068190366L585.9391998291015,99.00603564667108L606.8655998229981,85.60672981097923L627.7919998168945,88.9566045445554L648.7183998107911,88.58437478542328L669.6447998046875,89.94913141396864L690.5711997985841,92.55454662928061L711.4975997924804,88.2121450262912L732.423999786377,92.18231687014848L753.3503997802734,92.67858030485515L774.27679977417,92.30641491192729L795.2031997680664,87.83997963336334L816.1295997619629,85.4826961354047L837.0559997558594,95.40809356194588L857.9823997497559,89.70099969661533L878.9087997436523,86.22709128746467L899.8351997375488,84.24197318243387L920.7615997314452,86.84745276395006L941.6879997253418,81.76065600890072L962.6143997192383,83.86980778950601L983.5407997131348,80.147767663002L1004.4671997070313,80.27186570478081L1025.3935997009278,83.62167607215271L1046.3199996948242,82.50505116096065L1067.2463996887207,81.3884262497686L1088.1727996826173,80.51999742213413L1109.0991996765135,81.51252429154736L1130.0255996704102,83.12541263744609" fill="none"></path></g><g><path style="fill: none;" stroke="rgb(204, 51, 17)" stroke-width="2px" d="M104.63199996948242,258.55717582061516L125.55839996337892,149.50164470562416L146.48479995727538,114.39045958739374L167.41119995117188,97.14507994962332L188.33759994506835,89.82503337218988L209.26399993896484,82.25691944360734L230.1903999328613,79.52740618651661L251.11679992675784,80.147767663002L272.04319992065433,77.29422073033678L292.96959991455077,78.78301103445664L313.89599990844727,75.92946410179141L334.82239990234376,74.4406737976715L355.7487998962402,76.05356214357018L376.6751998901367,72.57965373441947L397.6015998840332,75.92946410179141L418.5279998779297,74.68880551502481L439.4543998718261,74.06844403853938L460.3807998657226,72.82778545177283L481.3071998596192,70.9667653885208L502.23359985351567,73.82031232118607L523.1599998474121,71.83525858235953L544.0863998413087,72.95181912734732L565.0127998352051,71.71116054058076L585.9391998291015,74.56470747324605L606.8655998229981,75.8053660600126L627.7919998168945,71.83525858235953L648.7183998107911,72.57965373441947L669.6447998046875,72.70368740999402L690.5711997985841,71.58706249880196L711.4975997924804,71.83525858235953L732.423999786377,73.94441036296483L753.3503997802734,72.70368740999402L774.27679977417,70.71863367116748L795.2031997680664,71.46302882322746L816.1295997619629,71.46302882322746L837.0559997558594,72.57965373441947L857.9823997497559,70.84266734674202L878.9087997436523,76.67385925385133L899.8351997375488,71.95929225793408L920.7615997314452,73.07591716912613L941.6879997253418,72.95181912734732L962.6143997192383,70.22237023646086L983.5407997131348,71.09079906409534L1004.4671997070313,74.93693723237811L1025.3935997009278,73.57218060383275L1046.3199996948242,76.5498255782768L1067.2463996887207,73.6962142794073L1088.1727996826173,69.35387704262212L1109.0991996765135,73.07591716912613L1130.0255996704102,72.20742397528738" fill="none"></path></g><g><path style="fill: none;" stroke="rgb(238, 51, 119)" stroke-width="2px" d="M104.63199996948242,465.0059186025829L125.55839996337892,232.1307939083636L146.48479995727538,198.75653081160638L167.41119995117188,181.13892141470387L188.33759994506835,169.3525039249107L209.26399993896484,162.52878514838815L230.1903999328613,151.4866984444507L251.11679992675784,142.67792592910155L272.04319992065433,139.4521492373042L292.96959991455077,130.5192786801763L313.89599990844727,127.66573174751103L334.82239990234376,124.43995505571364L355.7487998962402,119.60129001801761L376.6751998901367,114.14232787004038L397.6015998840332,110.17215602618309L418.5279998779297,109.92402430882979L439.4543998718261,107.19451105173906L460.3807998657226,105.20945731291248L481.3071998596192,101.11518742727638L502.23359985351567,101.11518742727638L523.1599998474121,96.52471847313794L544.0863998413087,96.40062043135913L565.0127998352051,94.91183012723921L585.9391998291015,91.06575632516069L606.8655998229981,91.43792171808855L627.7919998168945,89.70099969661533L648.7183998107911,88.46027674364451L669.6447998046875,88.58437478542328L690.5711997985841,85.73082785275801L711.4975997924804,84.73830098334476L732.423999786377,83.74570974772725L753.3503997802734,83.24944631302058L774.27679977417,83.12541263744609L795.2031997680664,78.41084564152878L816.1295997619629,80.02366962122323L837.0559997558594,80.02366962122323L857.9823997497559,78.65897735888214L878.9087997436523,77.91451784061793L899.8351997375488,77.17012268855797L920.7615997314452,75.8053660600126L941.6879997253418,77.29422073033678L962.6143997192383,73.6962142794073L983.5407997131348,74.93693723237811L1004.4671997070313,73.6962142794073L1025.3935997009278,75.8053660600126L1046.3199996948242,73.44808256205398L1067.2463996887207,72.70368740999402L1088.1727996826173,72.33152201706616L1109.0991996765135,70.0982721946821L1130.0255996704102,72.4555556926407" fill="none"></path></g><g><path style="fill: none;" stroke="rgb(187, 187, 187)" stroke-width="2px" d="M188.33759994506835,380.01955026808906L209.26399993896484,338.9530752009705L230.1903999328613,310.6656732254669L251.11679992675784,291.55920915824026L272.04319992065433,273.56937000220574L292.96959991455077,261.2866890777059L313.89599990844727,249.62430526348726L334.82239990234376,240.69143470635936L355.7487998962402,232.2548275839381L376.6751998901367,225.80333856654764L397.6015998840332,228.2846557400808L418.5279998779297,218.23516027176083L439.4543998718261,216.25010653293432L460.3807998657226,214.51312014525686L481.3071998596192,212.77619812378364L502.23359985351567,208.93012432170508L523.1599998474121,205.70434762990774L544.0863998413087,202.10634117897825L565.0127998352051,202.72670265546367L585.9391998291015,198.50839909425306L606.8655998229981,195.03449068510236L627.7919998168945,194.29009553304243L648.7183998107911,194.29009553304243L669.6447998046875,189.57552853712517L690.5711997985841,190.4440217309639L711.4975997924804,187.71450847387314L732.423999786377,187.59041043209436L753.3503997802734,181.13892141470387L774.27679977417,184.11656638914792L795.2031997680664,179.02976963409859L816.1295997619629,179.52603306880522L837.0559997558594,179.65013111058397L857.9823997497559,176.42435441878663L878.9087997436523,172.20605085757597L899.8351997375488,174.06707092082797L920.7615997314452,170.8412942290306L941.6879997253418,169.1043722075574L962.6143997192383,167.24335214430542L983.5407997131348,170.345030794324L1004.4671997070313,165.75449747398125L1025.3935997009278,167.36738581987996L1046.3199996948242,164.63793692899344L1067.2463996887207,165.63046379840674L1088.1727996826173,164.88606864634676L1109.0991996765135,162.77691686574147L1130.0255996704102,160.17143728422528" fill="none"></path></g></g></g></g></g></g><g transform="translate(51, 377)" clip-path="url(#clip_1)"><clipPath id="clip_1"><rect width="1255" height="22"></rect></clipPath><g><g><line x1="0" y1="0" x2="0" y2="5" style="visibility: inherit;" fill="rgb(0, 0, 0)" stroke="rgb(204, 204, 204)" stroke-width="1px"></line><line x1="104.63199996948242" y1="0" x2="104.63199996948242" y2="5" style="visibility: inherit;" fill="rgb(0, 0, 0)" stroke="rgb(204, 204, 204)" stroke-width="1px"></line><line x1="209.26399993896484" y1="0" x2="209.26399993896484" y2="5" style="visibility: inherit;" fill="rgb(0, 0, 0)" stroke="rgb(204, 204, 204)" stroke-width="1px"></line><line x1="313.89599990844727" y1="0" x2="313.89599990844727" y2="5" style="visibility: inherit;" fill="rgb(0, 0, 0)" stroke="rgb(204, 204, 204)" stroke-width="1px"></line><line x1="418.5279998779297" y1="0" x2="418.5279998779297" y2="5" style="visibility: inherit;" fill="rgb(0, 0, 0)" stroke="rgb(204, 204, 204)" stroke-width="1px"></line><line x1="523.1599998474121" y1="0" x2="523.1599998474121" y2="5" style="visibility: inherit;" fill="rgb(0, 0, 0)" stroke="rgb(204, 204, 204)" stroke-width="1px"></line><line x1="627.7919998168945" y1="0" x2="627.7919998168945" y2="5" style="visibility: inherit;" fill="rgb(0, 0, 0)" stroke="rgb(204, 204, 204)" stroke-width="1px"></line><line x1="732.423999786377" y1="0" x2="732.423999786377" y2="5" style="visibility: inherit;" fill="rgb(0, 0, 0)" stroke="rgb(204, 204, 204)" stroke-width="1px"></line><line x1="837.0559997558594" y1="0" x2="837.0559997558594" y2="5" style="visibility: inherit;" fill="rgb(0, 0, 0)" stroke="rgb(204, 204, 204)" stroke-width="1px"></line><line x1="941.6879997253418" y1="0" x2="941.6879997253418" y2="5" style="visibility: inherit;" fill="rgb(0, 0, 0)" stroke="rgb(204, 204, 204)" stroke-width="1px"></line><line x1="1046.3199996948242" y1="0" x2="1046.3199996948242" y2="5" style="visibility: inherit;" fill="rgb(0, 0, 0)" stroke="rgb(204, 204, 204)" stroke-width="1px"></line><line x1="1150.9519996643066" y1="0" x2="1150.9519996643066" y2="5" style="visibility: inherit;" fill="rgb(0, 0, 0)" stroke="rgb(204, 204, 204)" stroke-width="1px"></line><line x1="1255.583999633789" y1="0" x2="1255.583999633789" y2="5" style="visibility: inherit;" fill="rgb(0, 0, 0)" stroke="rgb(204, 204, 204)" stroke-width="1px"></line></g><g transform="translate(0, 8)"><text style="text-anchor: middle; visibility: hidden; font-family: Roboto, sans-serif; font-size: 12px; font-weight: 200;" x="0" y="0" dx="0em" dy="0.95em" fill="rgb(50, 49, 63)" stroke="none" stroke-width="1px">-5</text><text style="text-anchor: middle; visibility: inherit; font-family: Roboto, sans-serif; font-size: 12px; font-weight: 200;" x="104.63199996948242" y="0" dx="0em" dy="0.95em" fill="rgb(50, 49, 63)" stroke="none" stroke-width="1px">0</text><text style="text-anchor: middle; visibility: inherit; font-family: Roboto, sans-serif; font-size: 12px; font-weight: 200;" x="209.26399993896484" y="0" dx="0em" dy="0.95em" fill="rgb(50, 49, 63)" stroke="none" stroke-width="1px">5</text><text style="text-anchor: middle; visibility: inherit; font-family: Roboto, sans-serif; font-size: 12px; font-weight: 200;" x="313.89599990844727" y="0" dx="0em" dy="0.95em" fill="rgb(50, 49, 63)" stroke="none" stroke-width="1px">10</text><text style="text-anchor: middle; visibility: inherit; font-family: Roboto, sans-serif; font-size: 12px; font-weight: 200;" x="418.5279998779297" y="0" dx="0em" dy="0.95em" fill="rgb(50, 49, 63)" stroke="none" stroke-width="1px">15</text><text style="text-anchor: middle; visibility: inherit; font-family: Roboto, sans-serif; font-size: 12px; font-weight: 200;" x="523.1599998474121" y="0" dx="0em" dy="0.95em" fill="rgb(50, 49, 63)" stroke="none" stroke-width="1px">20</text><text style="text-anchor: middle; visibility: inherit; font-family: Roboto, sans-serif; font-size: 12px; font-weight: 200;" x="627.7919998168945" y="0" dx="0em" dy="0.95em" fill="rgb(50, 49, 63)" stroke="none" stroke-width="1px">25</text><text style="text-anchor: middle; visibility: inherit; font-family: Roboto, sans-serif; font-size: 12px; font-weight: 200;" x="732.423999786377" y="0" dx="0em" dy="0.95em" fill="rgb(50, 49, 63)" stroke="none" stroke-width="1px">30</text><text style="text-anchor: middle; visibility: inherit; font-family: Roboto, sans-serif; font-size: 12px; font-weight: 200;" x="837.0559997558594" y="0" dx="0em" dy="0.95em" fill="rgb(50, 49, 63)" stroke="none" stroke-width="1px">35</text><text style="text-anchor: middle; visibility: inherit; font-family: Roboto, sans-serif; font-size: 12px; font-weight: 200;" x="941.6879997253418" y="0" dx="0em" dy="0.95em" fill="rgb(50, 49, 63)" stroke="none" stroke-width="1px">40</text><text style="text-anchor: middle; visibility: inherit; font-family: Roboto, sans-serif; font-size: 12px; font-weight: 200;" x="1046.3199996948242" y="0" dx="0em" dy="0.95em" fill="rgb(50, 49, 63)" stroke="none" stroke-width="1px">45</text><text style="text-anchor: middle; visibility: inherit; font-family: Roboto, sans-serif; font-size: 12px; font-weight: 200;" x="1150.9519996643066" y="0" dx="0em" dy="0.95em" fill="rgb(50, 49, 63)" stroke="none" stroke-width="1px">50</text><text style="text-anchor: middle; visibility: hidden; font-family: Roboto, sans-serif; font-size: 12px; font-weight: 200;" x="1255.583999633789" y="0" dx="0em" dy="0.95em" fill="rgb(50, 49, 63)" stroke="none" stroke-width="1px">55</text></g><line x1="0" y1="0" x2="1255.583999633789" y2="0" fill="rgb(0, 0, 0)" stroke="rgb(204, 204, 204)" stroke-width="1px"></line></g></g></g></g></svg>