<svg viewBox="0 0 1073 400" xmlns="http://www.w3.org/2000/svg"><g><g><g><g><g><line x1="50" y1="378" x2="45" y2="378" style="visibility: inherit;" fill="rgb(0, 0, 0)" stroke="rgb(204, 204, 204)" stroke-width="1px"></line><line x1="50" y1="336" x2="45" y2="336" style="visibility: inherit;" fill="rgb(0, 0, 0)" stroke="rgb(204, 204, 204)" stroke-width="1px"></line><line x1="50" y1="294" x2="45" y2="294" style="visibility: inherit;" fill="rgb(0, 0, 0)" stroke="rgb(204, 204, 204)" stroke-width="1px"></line><line x1="50" y1="252.00000000000003" x2="45" y2="252.00000000000003" style="visibility: inherit;" fill="rgb(0, 0, 0)" stroke="rgb(204, 204, 204)" stroke-width="1px"></line><line x1="50" y1="210" x2="45" y2="210" style="visibility: inherit;" fill="rgb(0, 0, 0)" stroke="rgb(204, 204, 204)" stroke-width="1px"></line><line x1="50" y1="168" x2="45" y2="168" style="visibility: inherit;" fill="rgb(0, 0, 0)" stroke="rgb(204, 204, 204)" stroke-width="1px"></line><line x1="50" y1="126.00000000000001" x2="45" y2="126.00000000000001" style="visibility: inherit;" fill="rgb(0, 0, 0)" stroke="rgb(204, 204, 204)" stroke-width="1px"></line><line x1="50" y1="84" x2="45" y2="84" style="visibility: inherit;" fill="rgb(0, 0, 0)" stroke="rgb(204, 204, 204)" stroke-width="1px"></line><line x1="50" y1="42.00000000000002" x2="45" y2="42.00000000000002" style="visibility: inherit;" fill="rgb(0, 0, 0)" stroke="rgb(204, 204, 204)" stroke-width="1px"></line><line x1="50" y1="0" x2="45" y2="0" style="visibility: inherit;" fill="rgb(0, 0, 0)" stroke="rgb(204, 204, 204)" stroke-width="1px"></line></g><g transform="translate(40, 0)"><text x="0" y="378" dx="0em" dy="0.3em" style="text-anchor: end; visibility: hidden; font-family: Roboto, sans-serif; font-size: 12px; font-weight: 200;" fill="rgb(50, 49, 63)" stroke="none" stroke-width="1px">-0.5</text><text x="0" y="336" dx="0em" dy="0.3em" style="text-anchor: end; visibility: inherit; font-family: Roboto, sans-serif; font-size: 12px; font-weight: 200;" fill="rgb(50, 49, 63)" stroke="none" stroke-width="1px">0</text><text x="0" y="294" dx="0em" dy="0.3em" style="text-anchor: end; visibility: inherit; font-family: Roboto, sans-serif; font-size: 12px; font-weight: 200;" fill="rgb(50, 49, 63)" stroke="none" stroke-width="1px">0.5</text><text x="0" y="252.00000000000003" dx="0em" dy="0.3em" style="text-anchor: end; visibility: inherit; font-family: Roboto, sans-serif; font-size: 12px; font-weight: 200;" fill="rgb(50, 49, 63)" stroke="none" stroke-width="1px">1</text><text x="0" y="210" dx="0em" dy="0.3em" style="text-anchor: end; visibility: inherit; font-family: Roboto, sans-serif; font-size: 12px; font-weight: 200;" fill="rgb(50, 49, 63)" stroke="none" stroke-width="1px">1.5</text><text x="0" y="168" dx="0em" dy="0.3em" style="text-anchor: end; visibility: inherit; font-family: Roboto, sans-serif; font-size: 12px; font-weight: 200;" fill="rgb(50, 49, 63)" stroke="none" stroke-width="1px">2</text><text x="0" y="126.00000000000001" dx="0em" dy="0.3em" style="text-anchor: end; visibility: inherit; font-family: Roboto, sans-serif; font-size: 12px; font-weight: 200;" fill="rgb(50, 49, 63)" stroke="none" stroke-width="1px">2.5</text><text x="0" y="84" dx="0em" dy="0.3em" style="text-anchor: end; visibility: inherit; font-family: Roboto, sans-serif; font-size: 12px; font-weight: 200;" fill="rgb(50, 49, 63)" stroke="none" stroke-width="1px">3</text><text x="0" y="42.00000000000002" dx="0em" dy="0.3em" style="text-anchor: end; visibility: inherit; font-family: Roboto, sans-serif; font-size: 12px; font-weight: 200;" fill="rgb(50, 49, 63)" stroke="none" stroke-width="1px">3.5</text><text x="0" y="0" dx="0em" dy="0.3em" style="text-anchor: end; visibility: hidden; font-family: Roboto, sans-serif; font-size: 12px; font-weight: 200;" fill="rgb(50, 49, 63)" stroke="none" stroke-width="1px">4</text></g><line x1="50" y1="0" x2="50" y2="378" fill="rgb(0, 0, 0)" stroke="rgb(204, 204, 204)" stroke-width="1px"></line></g></g><g transform="translate(50, 0)" clip-path="url(#clip_0)"><clipPath id="clip_0"><rect width="1023" height="378"></rect></clipPath><g><g><g><line x1="0" y1="0" x2="0" y2="378" fill="rgb(0, 0, 0)" stroke="rgb(60, 60, 60)" stroke-width="1px" opacity="0.25"></line><line x1="85.25" y1="0" x2="85.25" y2="378" fill="rgb(0, 0, 0)" stroke="rgb(60, 60, 60)" stroke-width="1px" opacity="0.25"></line><line x1="170.5" y1="0" x2="170.5" y2="378" fill="rgb(0, 0, 0)" stroke="rgb(60, 60, 60)" stroke-width="1px" opacity="0.25"></line><line x1="255.75" y1="0" x2="255.75" y2="378" fill="rgb(0, 0, 0)" stroke="rgb(60, 60, 60)" stroke-width="1px" opacity="0.25"></line><line x1="341" y1="0" x2="341" y2="378" fill="rgb(0, 0, 0)" stroke="rgb(60, 60, 60)" stroke-width="1px" opacity="0.25"></line><line x1="426.25" y1="0" x2="426.25" y2="378" fill="rgb(0, 0, 0)" stroke="rgb(60, 60, 60)" stroke-width="1px" opacity="0.25"></line><line x1="511.5" y1="0" x2="511.5" y2="378" fill="rgb(0, 0, 0)" stroke="rgb(60, 60, 60)" stroke-width="1px" opacity="0.25"></line><line x1="596.75" y1="0" x2="596.75" y2="378" fill="rgb(0, 0, 0)" stroke="rgb(60, 60, 60)" stroke-width="1px" opacity="0.25"></line><line x1="682" y1="0" x2="682" y2="378" fill="rgb(0, 0, 0)" stroke="rgb(60, 60, 60)" stroke-width="1px" opacity="0.25"></line><line x1="767.25" y1="0" x2="767.25" y2="378" fill="rgb(0, 0, 0)" stroke="rgb(60, 60, 60)" stroke-width="1px" opacity="0.25"></line><line x1="852.5" y1="0" x2="852.5" y2="378" fill="rgb(0, 0, 0)" stroke="rgb(60, 60, 60)" stroke-width="1px" opacity="0.25"></line><line x1="937.75" y1="0" x2="937.75" y2="378" fill="rgb(0, 0, 0)" stroke="rgb(60, 60, 60)" stroke-width="1px" opacity="0.25"></line><line x1="1023" y1="0" x2="1023" y2="378" fill="rgb(0, 0, 0)" stroke="rgb(60, 60, 60)" stroke-width="1px" opacity="0.25"></line></g><g><line x1="0" y1="378" x2="1023" y2="378" fill="rgb(0, 0, 0)" stroke="rgb(60, 60, 60)" stroke-width="1px" opacity="0.25"></line><line x1="0" y1="336" x2="1023" y2="336" fill="rgb(0, 0, 0)" stroke="rgb(60, 60, 60)" stroke-width="1px" opacity="0.25"></line><line x1="0" y1="294" x2="1023" y2="294" fill="rgb(0, 0, 0)" stroke="rgb(60, 60, 60)" stroke-width="1px" opacity="0.25"></line><line x1="0" y1="252.00000000000003" x2="1023" y2="252.00000000000003" fill="rgb(0, 0, 0)" stroke="rgb(60, 60, 60)" stroke-width="1px" opacity="0.25"></line><line x1="0" y1="210" x2="1023" y2="210" fill="rgb(0, 0, 0)" stroke="rgb(60, 60, 60)" stroke-width="1px" opacity="0.25"></line><line x1="0" y1="168" x2="1023" y2="168" fill="rgb(0, 0, 0)" stroke="rgb(60, 60, 60)" stroke-width="1px" opacity="0.25"></line><line x1="0" y1="126.00000000000001" x2="1023" y2="126.00000000000001" fill="rgb(0, 0, 0)" stroke="rgb(60, 60, 60)" stroke-width="1px" opacity="0.25"></line><line x1="0" y1="84" x2="1023" y2="84" fill="rgb(0, 0, 0)" stroke="rgb(60, 60, 60)" stroke-width="1px" opacity="0.25"></line><line x1="0" y1="42.00000000000002" x2="1023" y2="42.00000000000002" fill="rgb(0, 0, 0)" stroke="rgb(60, 60, 60)" stroke-width="1px" opacity="0.25"></line><line x1="0" y1="0" x2="1023" y2="0" fill="rgb(0, 0, 0)" stroke="rgb(60, 60, 60)" stroke-width="1px" opacity="0.25"></line></g></g></g><g><g><line x1="0" y1="336" x2="1023" y2="336" fill="rgb(0, 0, 0)" stroke="rgb(153, 153, 153)" stroke-width="1.5px"></line></g></g><g><g><line x1="85.25" y1="0" x2="85.25" y2="378" fill="rgb(0, 0, 0)" stroke="rgb(153, 153, 153)" stroke-width="1.5px"></line></g></g><g><g><g><g><g><path stroke="rgb(255, 112, 67)" stroke-width="2px" d="M85.25,234.8693175315857L102.30000000000001,257.85950660705566L119.35000000000001,255.01940989494327L136.4,253.43430519104007L153.45,245.98062658309937L170.5,225.31104469299316L187.54999999999998,230.72086143493652L204.60000000000002,226.6475872993469L221.65,223.77106618881223L238.70000000000002,216.64240837097165L255.75,213.30488204956055L272.8,201.39325761795044L289.84999999999997,190.110746383667L306.9,195.9794855117798L323.95,191.31066370010373L341,182.79594612121582L358.04999999999995,174.80808305740356L375.09999999999997,162.77855873107913L392.15000000000003,161.89932632446292L409.20000000000005,148.4576768875122L426.25,146.99665546417236L443.3,147.10187816619873L460.35,124.35210514068602L477.40000000000003,153.3519945144653L494.45,128.01088714599607L511.5,146.95984554290771L528.5500000000001,137.51663875579834L545.6,136.93432903289795L562.6500000000001,118.83968925476073L579.6999999999999,121.6078233718872L596.75,101.01233196258544L613.8,83.71609497070314L630.85,82.2803077697754L647.9,68.96739292144774L664.95,96.19325637817383L682,54.801200866699226L699.0500000000001,77.09870052337646L716.0999999999999,71.60863494873047L733.15,78.4628505706787L750.1999999999999,80.82653617858885L767.25,64.73365116119386L784.3000000000001,60.99257755279539L801.35,66.2369499206543L818.4000000000001,59.26687717437746L835.4499999999999,45.50749683380126L852.5,35.19457054138184L869.55,56.17686653137208L886.6,55.31529808044434L903.65,41.79215812683105L920.7,41.2739953994751" style="fill: none;" fill="none"></path></g><g><path stroke="rgb(0, 119, 187)" stroke-width="2px" d="M85.25,305.83767914772034L102.30000000000001,310.7599346637726L119.35000000000001,312.2935094833374L136.4,312.69546461105347L153.45,313.2014808654785L170.5,313.20879077911377L187.54999999999998,312.91579592227936L204.60000000000002,311.73372530937195L221.65,312.5046533346176L238.70000000000002,312.4832442998886L255.75,312.0485122203827L272.8,310.8404188156128L289.84999999999997,310.56400895118713L306.9,309.20106053352356L323.95,308.3413345813751L341,308.0537645816803L358.04999999999995,307.5477283000946L375.09999999999997,307.5101373195648L392.15000000000003,307.00545036792755L409.20000000000005,306.0540050268173L426.25,305.6550689935684L443.3,304.0555522441864L460.35,304.0802056789398L477.40000000000003,302.2773381471634L494.45,300.9045263528824L511.5,302.09564423561096L528.5500000000001,300.8395582437515L545.6,301.5021218061447L562.6500000000001,299.3819239139557L579.6999999999999,299.69517374038696L596.75,298.7907671928406L613.8,296.29521775245667L630.85,298.0882269144058L647.9,297.4862279891968L664.95,296.02319383621216L682,294.3326486349106L699.0500000000001,294.077742934227L716.0999999999999,293.0940263271332L733.15,293.90304350852966L750.1999999999999,292.8447082042694L767.25,291.4551086425781L784.3000000000001,290.98753452301025L801.35,290.850093126297L818.4000000000001,288.53865337371826L835.4499999999999,288.4969367980957L852.5,289.0883688926697L869.55,288.11699652671814L886.6,285.96507811546326L903.65,285.92547941207886L920.7,286.3553774356842" style="fill: none;" fill="none"></path></g><g><path stroke="rgb(204, 51, 17)" stroke-width="2px" d="M85.25,264.195219039917L102.30000000000001,287.9399313926697L119.35000000000001,295.0454578399658L136.4,298.89951968193054L153.45,301.530840754509L170.5,303.4086323976517L187.54999999999998,304.85837602615356L204.60000000000002,306.1102488040924L221.65,307.0889661312103L238.70000000000002,307.93766713142395L255.75,308.61970710754395L272.8,309.32096314430237L289.84999999999997,309.83958899974823L306.9,310.36391508579254L323.95,310.79783856868744L341,311.1235227584839L358.04999999999995,311.563637137413L375.09999999999997,311.8035525083542L392.15000000000003,312.0987228155136L409.20000000000005,312.4030530452728L426.25,312.7507846355438L443.3,312.93156230449677L460.35,313.18994522094727L477.40000000000003,313.4299832582474L494.45,313.4876664876938L511.5,313.6199508905411L528.5500000000001,313.8046864271164L545.6,313.94037795066833L562.6500000000001,313.9857770204544L579.6999999999999,314.1258044242859L596.75,314.2279204130173L613.8,314.3789652585983L630.85,314.48930990695953L647.9,314.6115481853485L664.95,314.69665360450745L682,314.7481759786606L699.0500000000001,314.76062536239624L716.0999999999999,314.7745918035507L733.15,314.878910779953L750.1999999999999,314.88003981113434L767.25,314.9784733057022L784.3000000000001,315.06972455978394L801.35,315.0755737423897L818.4000000000001,315.0349561572075L835.4499999999999,315.0538955926895L852.5,315.0168904066086L869.55,315.19634503126144L886.6,315.15740847587585L903.65,315.19917011260986L920.7,315.1731823682785" style="fill: none;" fill="none"></path></g><g><path stroke="rgb(51, 187, 238)" stroke-width="2px" d="M85.25,123.21982955932617L102.30000000000001,150.50933933258057L119.35000000000001,173.8370761871338L136.4,193.43936061859128L153.45,209.66354370117188L170.5,222.96221923828122L187.54999999999998,233.81419658660886L204.60000000000002,242.67911911010745L221.65,249.94902849197388L238.70000000000002,255.97249245643616L255.75,260.9935419559479L272.8,265.22235202789307L289.84999999999997,268.839772939682L306.9,271.9376542568207L323.95,274.63095688819885L341,276.98183012008667L358.04999999999995,279.05196261405945L375.09999999999997,280.89408588409424L392.15000000000003,282.54078912734985L409.20000000000005,284.02101159095764L426.25,285.3614344596863L443.3,286.5711851119995L460.35,287.6718227863312L477.40000000000003,288.6861984729767L494.45,289.61164355278015L511.5,290.4739279747009L528.5500000000001,291.27531480789185L545.6,292.02500653266907L562.6500000000001,292.7173454761505L579.6999999999999,293.355961561203L596.75,293.9820907115936L613.8,294.56047010421753L630.85,295.11226093769073L647.9,295.62556207180023L664.95,296.11084020137787L682,296.58781456947327L699.0500000000001,297.019122004509L716.0999999999999,297.43706130981445L733.15,297.8453675508499L750.1999999999999,298.22992408275604L767.25,298.6004390716553L784.3000000000001,298.95246148109436L801.35,299.28279197216034L818.4000000000001,299.6010285615921L835.4499999999999,299.91929519176483L852.5,300.20959889888763L869.55,300.50282657146454L886.6,300.7831918001175L903.65,301.0563873052597L920.7,301.32119393348694" style="fill: none;" fill="none"></path></g></g></g></g></g></g><g transform="translate(50, 378)" clip-path="url(#clip_1)"><clipPath id="clip_1"><rect width="1023" height="22"></rect></clipPath><g><g><line x1="0" y1="0" x2="0" y2="5" style="visibility: inherit;" fill="rgb(0, 0, 0)" stroke="rgb(204, 204, 204)" stroke-width="1px"></line><line x1="85.25" y1="0" x2="85.25" y2="5" style="visibility: inherit;" fill="rgb(0, 0, 0)" stroke="rgb(204, 204, 204)" stroke-width="1px"></line><line x1="170.5" y1="0" x2="170.5" y2="5" style="visibility: inherit;" fill="rgb(0, 0, 0)" stroke="rgb(204, 204, 204)" stroke-width="1px"></line><line x1="255.75" y1="0" x2="255.75" y2="5" style="visibility: inherit;" fill="rgb(0, 0, 0)" stroke="rgb(204, 204, 204)" stroke-width="1px"></line><line x1="341" y1="0" x2="341" y2="5" style="visibility: inherit;" fill="rgb(0, 0, 0)" stroke="rgb(204, 204, 204)" stroke-width="1px"></line><line x1="426.25" y1="0" x2="426.25" y2="5" style="visibility: inherit;" fill="rgb(0, 0, 0)" stroke="rgb(204, 204, 204)" stroke-width="1px"></line><line x1="511.5" y1="0" x2="511.5" y2="5" style="visibility: inherit;" fill="rgb(0, 0, 0)" stroke="rgb(204, 204, 204)" stroke-width="1px"></line><line x1="596.75" y1="0" x2="596.75" y2="5" style="visibility: inherit;" fill="rgb(0, 0, 0)" stroke="rgb(204, 204, 204)" stroke-width="1px"></line><line x1="682" y1="0" x2="682" y2="5" style="visibility: inherit;" fill="rgb(0, 0, 0)" stroke="rgb(204, 204, 204)" stroke-width="1px"></line><line x1="767.25" y1="0" x2="767.25" y2="5" style="visibility: inherit;" fill="rgb(0, 0, 0)" stroke="rgb(204, 204, 204)" stroke-width="1px"></line><line x1="852.5" y1="0" x2="852.5" y2="5" style="visibility: inherit;" fill="rgb(0, 0, 0)" stroke="rgb(204, 204, 204)" stroke-width="1px"></line><line x1="937.75" y1="0" x2="937.75" y2="5" style="visibility: inherit;" fill="rgb(0, 0, 0)" stroke="rgb(204, 204, 204)" stroke-width="1px"></line><line x1="1023" y1="0" x2="1023" y2="5" style="visibility: inherit;" fill="rgb(0, 0, 0)" stroke="rgb(204, 204, 204)" stroke-width="1px"></line></g><g transform="translate(0, 8)"><text x="0" y="0" dx="0em" dy="0.95em" style="text-anchor: middle; visibility: hidden; font-family: Roboto, sans-serif; font-size: 12px; font-weight: 200;" fill="rgb(50, 49, 63)" stroke="none" stroke-width="1px">-5</text><text x="85.25" y="0" dx="0em" dy="0.95em" style="text-anchor: middle; visibility: inherit; font-family: Roboto, sans-serif; font-size: 12px; font-weight: 200;" fill="rgb(50, 49, 63)" stroke="none" stroke-width="1px">0</text><text x="170.5" y="0" dx="0em" dy="0.95em" style="text-anchor: middle; visibility: inherit; font-family: Roboto, sans-serif; font-size: 12px; font-weight: 200;" fill="rgb(50, 49, 63)" stroke="none" stroke-width="1px">5</text><text x="255.75" y="0" dx="0em" dy="0.95em" style="text-anchor: middle; visibility: inherit; font-family: Roboto, sans-serif; font-size: 12px; font-weight: 200;" fill="rgb(50, 49, 63)" stroke="none" stroke-width="1px">10</text><text x="341" y="0" dx="0em" dy="0.95em" style="text-anchor: middle; visibility: inherit; font-family: Roboto, sans-serif; font-size: 12px; font-weight: 200;" fill="rgb(50, 49, 63)" stroke="none" stroke-width="1px">15</text><text x="426.25" y="0" dx="0em" dy="0.95em" style="text-anchor: middle; visibility: inherit; font-family: Roboto, sans-serif; font-size: 12px; font-weight: 200;" fill="rgb(50, 49, 63)" stroke="none" stroke-width="1px">20</text><text x="511.5" y="0" dx="0em" dy="0.95em" style="text-anchor: middle; visibility: inherit; font-family: Roboto, sans-serif; font-size: 12px; font-weight: 200;" fill="rgb(50, 49, 63)" stroke="none" stroke-width="1px">25</text><text x="596.75" y="0" dx="0em" dy="0.95em" style="text-anchor: middle; visibility: inherit; font-family: Roboto, sans-serif; font-size: 12px; font-weight: 200;" fill="rgb(50, 49, 63)" stroke="none" stroke-width="1px">30</text><text x="682" y="0" dx="0em" dy="0.95em" style="text-anchor: middle; visibility: inherit; font-family: Roboto, sans-serif; font-size: 12px; font-weight: 200;" fill="rgb(50, 49, 63)" stroke="none" stroke-width="1px">35</text><text x="767.25" y="0" dx="0em" dy="0.95em" style="text-anchor: middle; visibility: inherit; font-family: Roboto, sans-serif; font-size: 12px; font-weight: 200;" fill="rgb(50, 49, 63)" stroke="none" stroke-width="1px">40</text><text x="852.5" y="0" dx="0em" dy="0.95em" style="text-anchor: middle; visibility: inherit; font-family: Roboto, sans-serif; font-size: 12px; font-weight: 200;" fill="rgb(50, 49, 63)" stroke="none" stroke-width="1px">45</text><text x="937.75" y="0" dx="0em" dy="0.95em" style="text-anchor: middle; visibility: inherit; font-family: Roboto, sans-serif; font-size: 12px; font-weight: 200;" fill="rgb(50, 49, 63)" stroke="none" stroke-width="1px">50</text><text x="1023" y="0" dx="0em" dy="0.95em" style="text-anchor: middle; visibility: hidden; font-family: Roboto, sans-serif; font-size: 12px; font-weight: 200;" fill="rgb(50, 49, 63)" stroke="none" stroke-width="1px">55</text></g><line x1="0" y1="0" x2="1023" y2="0" fill="rgb(0, 0, 0)" stroke="rgb(204, 204, 204)" stroke-width="1px"></line></g></g></g></g></svg>