<svg viewBox="0 0 1006 400" xmlns="http://www.w3.org/2000/svg"><g><g><g><g><g><line x1="51.41600036621094" y1="377.95999908447266" x2="46.41600036621094" y2="377.95999908447266" style="visibility: inherit;" fill="rgb(0, 0, 0)" stroke="rgb(204, 204, 204)" stroke-width="1px"></line><line x1="51.41600036621094" y1="335.96444363064256" x2="46.41600036621094" y2="335.96444363064256" style="visibility: inherit;" fill="rgb(0, 0, 0)" stroke="rgb(204, 204, 204)" stroke-width="1px"></line><line x1="51.41600036621094" y1="293.9688881768122" x2="46.41600036621094" y2="293.9688881768122" style="visibility: inherit;" fill="rgb(0, 0, 0)" stroke="rgb(204, 204, 204)" stroke-width="1px"></line><line x1="51.41600036621094" y1="251.97333272298184" x2="46.41600036621094" y2="251.97333272298184" style="visibility: inherit;" fill="rgb(0, 0, 0)" stroke="rgb(204, 204, 204)" stroke-width="1px"></line><line x1="51.41600036621094" y1="209.9777772691515" x2="46.41600036621094" y2="209.9777772691515" style="visibility: inherit;" fill="rgb(0, 0, 0)" stroke="rgb(204, 204, 204)" stroke-width="1px"></line><line x1="51.41600036621094" y1="167.98222181532117" x2="46.41600036621094" y2="167.98222181532117" style="visibility: inherit;" fill="rgb(0, 0, 0)" stroke="rgb(204, 204, 204)" stroke-width="1px"></line><line x1="51.41600036621094" y1="125.98666636149082" x2="46.41600036621094" y2="125.98666636149082" style="visibility: inherit;" fill="rgb(0, 0, 0)" stroke="rgb(204, 204, 204)" stroke-width="1px"></line><line x1="51.41600036621094" y1="83.99111090766071" x2="46.41600036621094" y2="83.99111090766071" style="visibility: inherit;" fill="rgb(0, 0, 0)" stroke="rgb(204, 204, 204)" stroke-width="1px"></line><line x1="51.41600036621094" y1="41.995555453830356" x2="46.41600036621094" y2="41.995555453830356" style="visibility: inherit;" fill="rgb(0, 0, 0)" stroke="rgb(204, 204, 204)" stroke-width="1px"></line><line x1="51.41600036621094" y1="0" x2="46.41600036621094" y2="0" style="visibility: inherit;" fill="rgb(0, 0, 0)" stroke="rgb(204, 204, 204)" stroke-width="1px"></line></g><g transform="translate(41.41600036621094, 0)"><text style="text-anchor: end; visibility: hidden; font-family: Roboto, sans-serif; font-size: 12px; font-weight: 200;" x="0" y="377.95999908447266" dx="0em" dy="0.3em" fill="rgb(50, 49, 63)" stroke="none" stroke-width="1px">0.8</text><text style="text-anchor: end; visibility: inherit; font-family: Roboto, sans-serif; font-size: 12px; font-weight: 200;" x="0" y="335.96444363064256" dx="0em" dy="0.3em" fill="rgb(50, 49, 63)" stroke="none" stroke-width="1px">0.82</text><text style="text-anchor: end; visibility: inherit; font-family: Roboto, sans-serif; font-size: 12px; font-weight: 200;" x="0" y="293.9688881768122" dx="0em" dy="0.3em" fill="rgb(50, 49, 63)" stroke="none" stroke-width="1px">0.84</text><text style="text-anchor: end; visibility: inherit; font-family: Roboto, sans-serif; font-size: 12px; font-weight: 200;" x="0" y="251.97333272298184" dx="0em" dy="0.3em" fill="rgb(50, 49, 63)" stroke="none" stroke-width="1px">0.86</text><text style="text-anchor: end; visibility: inherit; font-family: Roboto, sans-serif; font-size: 12px; font-weight: 200;" x="0" y="209.9777772691515" dx="0em" dy="0.3em" fill="rgb(50, 49, 63)" stroke="none" stroke-width="1px">0.88</text><text style="text-anchor: end; visibility: inherit; font-family: Roboto, sans-serif; font-size: 12px; font-weight: 200;" x="0" y="167.98222181532117" dx="0em" dy="0.3em" fill="rgb(50, 49, 63)" stroke="none" stroke-width="1px">0.9</text><text style="text-anchor: end; visibility: inherit; font-family: Roboto, sans-serif; font-size: 12px; font-weight: 200;" x="0" y="125.98666636149082" dx="0em" dy="0.3em" fill="rgb(50, 49, 63)" stroke="none" stroke-width="1px">0.92</text><text style="text-anchor: end; visibility: inherit; font-family: Roboto, sans-serif; font-size: 12px; font-weight: 200;" x="0" y="83.99111090766071" dx="0em" dy="0.3em" fill="rgb(50, 49, 63)" stroke="none" stroke-width="1px">0.94</text><text style="text-anchor: end; visibility: inherit; font-family: Roboto, sans-serif; font-size: 12px; font-weight: 200;" x="0" y="41.995555453830356" dx="0em" dy="0.3em" fill="rgb(50, 49, 63)" stroke="none" stroke-width="1px">0.96</text><text style="text-anchor: end; visibility: hidden; font-family: Roboto, sans-serif; font-size: 12px; font-weight: 200;" x="0" y="0" dx="0em" dy="0.3em" fill="rgb(50, 49, 63)" stroke="none" stroke-width="1px">0.98</text></g><line x1="51.41600036621094" y1="0" x2="51.41600036621094" y2="377.95999908447266" fill="rgb(0, 0, 0)" stroke="rgb(204, 204, 204)" stroke-width="1px"></line></g></g><g transform="translate(51, 0)" clip-path="url(#clip_0)"><clipPath id="clip_0"><rect width="954" height="377"></rect></clipPath><g><g><g><line x1="0" y1="0" x2="0" y2="377.95999908447266" fill="rgb(0, 0, 0)" stroke="rgb(60, 60, 60)" stroke-width="1px" opacity="0.25"></line><line x1="79.54866663614908" y1="0" x2="79.54866663614908" y2="377.95999908447266" fill="rgb(0, 0, 0)" stroke="rgb(60, 60, 60)" stroke-width="1px" opacity="0.25"></line><line x1="159.09733327229816" y1="0" x2="159.09733327229816" y2="377.95999908447266" fill="rgb(0, 0, 0)" stroke="rgb(60, 60, 60)" stroke-width="1px" opacity="0.25"></line><line x1="238.64599990844727" y1="0" x2="238.64599990844727" y2="377.95999908447266" fill="rgb(0, 0, 0)" stroke="rgb(60, 60, 60)" stroke-width="1px" opacity="0.25"></line><line x1="318.1946665445963" y1="0" x2="318.1946665445963" y2="377.95999908447266" fill="rgb(0, 0, 0)" stroke="rgb(60, 60, 60)" stroke-width="1px" opacity="0.25"></line><line x1="397.7433331807455" y1="0" x2="397.7433331807455" y2="377.95999908447266" fill="rgb(0, 0, 0)" stroke="rgb(60, 60, 60)" stroke-width="1px" opacity="0.25"></line><line x1="477.29199981689453" y1="0" x2="477.29199981689453" y2="377.95999908447266" fill="rgb(0, 0, 0)" stroke="rgb(60, 60, 60)" stroke-width="1px" opacity="0.25"></line><line x1="556.8406664530437" y1="0" x2="556.8406664530437" y2="377.95999908447266" fill="rgb(0, 0, 0)" stroke="rgb(60, 60, 60)" stroke-width="1px" opacity="0.25"></line><line x1="636.3893330891926" y1="0" x2="636.3893330891926" y2="377.95999908447266" fill="rgb(0, 0, 0)" stroke="rgb(60, 60, 60)" stroke-width="1px" opacity="0.25"></line><line x1="715.9379997253418" y1="0" x2="715.9379997253418" y2="377.95999908447266" fill="rgb(0, 0, 0)" stroke="rgb(60, 60, 60)" stroke-width="1px" opacity="0.25"></line><line x1="795.486666361491" y1="0" x2="795.486666361491" y2="377.95999908447266" fill="rgb(0, 0, 0)" stroke="rgb(60, 60, 60)" stroke-width="1px" opacity="0.25"></line><line x1="875.0353329976399" y1="0" x2="875.0353329976399" y2="377.95999908447266" fill="rgb(0, 0, 0)" stroke="rgb(60, 60, 60)" stroke-width="1px" opacity="0.25"></line><line x1="954.5839996337891" y1="0" x2="954.5839996337891" y2="377.95999908447266" fill="rgb(0, 0, 0)" stroke="rgb(60, 60, 60)" stroke-width="1px" opacity="0.25"></line></g><g><line x1="0" y1="377.95999908447266" x2="954.5839996337891" y2="377.95999908447266" fill="rgb(0, 0, 0)" stroke="rgb(60, 60, 60)" stroke-width="1px" opacity="0.25"></line><line x1="0" y1="335.96444363064256" x2="954.5839996337891" y2="335.96444363064256" fill="rgb(0, 0, 0)" stroke="rgb(60, 60, 60)" stroke-width="1px" opacity="0.25"></line><line x1="0" y1="293.9688881768122" x2="954.5839996337891" y2="293.9688881768122" fill="rgb(0, 0, 0)" stroke="rgb(60, 60, 60)" stroke-width="1px" opacity="0.25"></line><line x1="0" y1="251.97333272298184" x2="954.5839996337891" y2="251.97333272298184" fill="rgb(0, 0, 0)" stroke="rgb(60, 60, 60)" stroke-width="1px" opacity="0.25"></line><line x1="0" y1="209.9777772691515" x2="954.5839996337891" y2="209.9777772691515" fill="rgb(0, 0, 0)" stroke="rgb(60, 60, 60)" stroke-width="1px" opacity="0.25"></line><line x1="0" y1="167.98222181532117" x2="954.5839996337891" y2="167.98222181532117" fill="rgb(0, 0, 0)" stroke="rgb(60, 60, 60)" stroke-width="1px" opacity="0.25"></line><line x1="0" y1="125.98666636149082" x2="954.5839996337891" y2="125.98666636149082" fill="rgb(0, 0, 0)" stroke="rgb(60, 60, 60)" stroke-width="1px" opacity="0.25"></line><line x1="0" y1="83.99111090766071" x2="954.5839996337891" y2="83.99111090766071" fill="rgb(0, 0, 0)" stroke="rgb(60, 60, 60)" stroke-width="1px" opacity="0.25"></line><line x1="0" y1="41.995555453830356" x2="954.5839996337891" y2="41.995555453830356" fill="rgb(0, 0, 0)" stroke="rgb(60, 60, 60)" stroke-width="1px" opacity="0.25"></line><line x1="0" y1="0" x2="954.5839996337891" y2="0" fill="rgb(0, 0, 0)" stroke="rgb(60, 60, 60)" stroke-width="1px" opacity="0.25"></line></g></g></g><g><g><line x1="0" y1="2057.782217237685" x2="954.5839996337891" y2="2057.782217237685" fill="rgb(0, 0, 0)" stroke="rgb(153, 153, 153)" stroke-width="1.5px"></line></g></g><g><g><line x1="79.54866663614908" y1="0" x2="79.54866663614908" y2="377.95999908447266" fill="rgb(0, 0, 0)" stroke="rgb(153, 153, 153)" stroke-width="1.5px"></line></g></g><g><g><g><g><g><path style="fill: none;" stroke="rgb(0, 119, 187)" stroke-width="2px" d="M79.54866663614908,334.23717367908534L95.45839996337891,328.2994986147582L111.36813329060872,322.9014984139987L127.27786661783854,325.60049851437844L143.18759994506834,267.84314793133456L159.09733327229816,281.3377729637085L175.00706659952797,275.9398979194573L190.91679992675782,268.92274797148644L206.82653325398763,252.18919766214856L222.73626658121745,225.73962246096838L238.64599990844727,220.88154743679308L254.55573323567708,217.10294729626148L270.4654665629069,221.96102232043677L286.3751998901367,220.88154743679308L302.28493321736653,231.1374975052196L318.1946665445963,215.48367239254188L334.10439987182616,216.02347241261782L350.01413319905595,226.8192225011203L365.92386652628585,239.77404751341828L381.83359985351564,198.2104472196363L397.7433331807455,207.38679724791095L413.65306650797527,206.30719720775903L429.5627998352051,203.60832226388754L445.4725331624349,206.84699722783498L461.38226648966474,205.76739718768306L477.29199981689453,210.62547221185835L493.2017331441244,207.38679724791095L509.11146647135416,207.92659726798686L525.021199798584,209.00619730813878L540.9309331258138,194.4318470791047L556.8406664530437,200.9093221635078L572.7503997802734,191.19317211515727L588.6601331075033,199.28992210327996L604.5698664347331,198.2104472196363L620.479599761963,201.9889222036597L636.3893330891926,197.67064719956034L652.2990664164225,197.67064719956034L668.2087997436523,199.28992210327996L684.1185330708822,198.2104472196363L700.0282663981119,204.6877971475312L715.9379997253418,197.67064719956034L731.8477330525717,201.44912218358377L747.7574663798014,204.6877971475312L763.6671997070313,201.44912218358377L779.5769330342611,203.60832226388754L795.486666361491,204.1481222839635L811.3963996887206,204.6877971475312L827.3061330159505,198.2104472196363L843.2158663431803,203.60832226388754L859.1255996704102,204.6877971475312" fill="none"></path></g><g><path style="fill: none;" stroke="rgb(0, 153, 136)" stroke-width="2px" d="M79.54866663614908,349.3511987716871L95.45839996337891,315.8843484660279L111.36813329060872,307.78747332139693L127.27786661783854,237.0751725695468L143.18759994506834,224.12022240074054L159.09733327229816,247.87092265804924L175.00706659952797,221.96102232043677L190.91679992675782,210.08579734829067L206.82653325398763,206.84699722783498L222.73626658121745,207.92659726798686L238.64599990844727,210.62547221185835L254.55573323567708,209.00619730813878L270.4654665629069,206.30719720775903L286.3751998901367,207.38679724791095L302.28493321736653,200.9093221635078L318.1946665445963,201.44912218358377L334.10439987182616,201.44912218358377L350.01413319905595,199.8297221233559L365.92386652628585,205.76739718768306L381.83359985351564,204.1481222839635L397.7433331807455,201.9889222036597L413.65306650797527,203.06852224381157L429.5627998352051,204.6877971475312L445.4725331624349,203.06852224381157L461.38226648966474,205.22759716760714L477.29199981689453,203.60832226388754L493.2017331441244,203.60832226388754L509.11146647135416,203.60832226388754L525.021199798584,204.1481222839635L540.9309331258138,203.60832226388754L556.8406664530437,203.60832226388754L572.7503997802734,204.6877971475312L588.6601331075033,204.1481222839635L604.5698664347331,204.1481222839635L620.479599761963,204.1481222839635L636.3893330891926,204.1481222839635L652.2990664164225,204.1481222839635L668.2087997436523,204.1481222839635L684.1185330708822,204.1481222839635L700.0282663981119,204.1481222839635L715.9379997253418,204.1481222839635L731.8477330525717,204.1481222839635L747.7574663798014,204.1481222839635L763.6671997070313,204.1481222839635L779.5769330342611,204.1481222839635L795.486666361491,204.1481222839635L811.3963996887206,204.1481222839635L827.3061330159505,204.1481222839635L843.2158663431803,204.1481222839635L859.1255996704102,204.1481222839635" fill="none"></path></g><g><path style="fill: none;" stroke="rgb(51, 187, 238)" stroke-width="2px" d="M79.54866663614908,384.4374491375742L95.45839996337891,261.9054728670074L111.36813329060872,241.3934475736461L127.27786661783854,215.48367239254188L143.18759994506834,216.02347241261782L159.09733327229816,204.6877971475312L175.00706659952797,206.30719720775903L190.91679992675782,206.30719720775903L206.82653325398763,206.30719720775903L222.73626658121745,205.22759716760714L238.64599990844727,203.60832226388754L254.55573323567708,204.1481222839635L270.4654665629069,204.1481222839635L286.3751998901367,204.1481222839635L302.28493321736653,204.1481222839635L318.1946665445963,204.1481222839635L334.10439987182616,204.1481222839635L350.01413319905595,204.1481222839635L365.92386652628585,204.1481222839635L381.83359985351564,204.1481222839635L397.7433331807455,204.1481222839635L413.65306650797527,204.1481222839635L429.5627998352051,204.1481222839635L445.4725331624349,204.1481222839635L461.38226648966474,204.1481222839635L477.29199981689453,204.1481222839635L493.2017331441244,204.1481222839635L509.11146647135416,204.1481222839635L525.021199798584,204.1481222839635L540.9309331258138,204.1481222839635L556.8406664530437,204.1481222839635L572.7503997802734,204.1481222839635L588.6601331075033,204.1481222839635L604.5698664347331,204.1481222839635L620.479599761963,204.1481222839635L636.3893330891926,204.1481222839635L652.2990664164225,204.1481222839635L668.2087997436523,204.1481222839635L684.1185330708822,204.1481222839635L700.0282663981119,204.1481222839635L715.9379997253418,204.1481222839635L731.8477330525717,204.1481222839635L747.7574663798014,204.1481222839635L763.6671997070313,204.1481222839635L779.5769330342611,204.1481222839635L795.486666361491,204.1481222839635L811.3963996887206,204.1481222839635L827.3061330159505,204.1481222839635L843.2158663431803,204.1481222839635L859.1255996704102,204.1481222839635" fill="none"></path></g><g><path style="fill: none;" stroke="rgb(255, 112, 67)" stroke-width="2px" d="M79.54866663614908,492.6263644063503L95.45839996337891,296.7163789147477L111.36813329060872,267.9199940273992L127.27786661783854,240.3037098563261L143.18759994506834,215.9919329725392L159.09733327229816,197.58116029616266L175.00706659952797,207.96677250713466L190.91679992675782,194.2766530088765L206.82653325398763,170.43696647420307L222.73626658121745,131.96310489955283L238.64599990844727,116.14870398679221L254.55573323567708,114.73243293945171L270.4654665629069,113.08024187406278L286.3751998901367,117.5648498776244L302.28493321736653,115.67661363767871L318.1946665445963,120.39739197230534L334.10439987182616,121.57749268858083L350.01413319905595,114.96847811400846L365.92386652628585,127.71441691403965L381.83359985351564,106.47122729949047L397.7433331807455,103.87485553587453L413.65306650797527,100.3343030740316L429.5627998352051,102.69462966309078L445.4725331624349,106.94331764860391L461.38226648966474,107.88737319032265L477.29199981689453,99.8622127249181L493.2017331441244,103.87485553587453L509.11146647135416,106.47122729949047L525.021199798584,101.27835861575034L540.9309331258138,97.50176097935065L556.8406664530437,94.43329886662123L572.7503997802734,93.72528849945928L588.6601331075033,92.78110780123228L604.5698664347331,90.4207812121731L620.479599761963,92.54506262667553L636.3893330891926,91.12879157933509L652.2990664164225,93.96133367401599L668.2087997436523,96.79375061218866L684.1185330708822,93.48924332490253L700.0282663981119,91.36483675389184L715.9379997253418,97.26584096130216L731.8477330525717,94.66934404117796L747.7574663798014,88.53241981571915L763.6671997070313,89.24055533938936L779.5769330342611,90.89274640477834L795.486666361491,89.4766005139461L811.3963996887206,92.30901745211878L827.3061330159505,87.58836427400041L843.2158663431803,93.01715297578903L859.1255996704102,85.46395770298972" fill="none"></path></g><g><path style="fill: none;" stroke="rgb(238, 51, 119)" stroke-width="2px" d="M79.54866663614908,490.7381281664046L95.45839996337891,311.11450878016785L111.36813329060872,280.4298876528736L127.27786661783854,172.32532787065705L143.18759994506834,140.46035571407083L159.09733327229816,142.58476228508152L175.00706659952797,140.93244606318433L190.91679992675782,114.26034259033827L206.82653325398763,110.48387011044684L222.73626658121745,101.75044896486384L238.64599990844727,103.63881036131778L254.55573323567708,98.44594167757765L270.4654665629069,96.08561508851847L286.3751998901367,92.07297227756203L302.28493321736653,92.07297227756203L318.1946665445963,93.48924332490253L334.10439987182616,88.53241981571915L350.01413319905595,92.07297227756203L365.92386652628585,91.8369271030053L381.83359985351564,91.8369271030053L397.7433331807455,89.9486908630596L413.65306650797527,90.18473603761635L429.5627998352051,85.93604805210322L445.4725331624349,86.64418357577343L461.38226648966474,88.2963746411624L477.29199981689453,89.00451016483265L493.2017331441244,87.8242842920489L509.11146647135416,88.06032946660565L525.021199798584,86.88022875033016L540.9309331258138,89.71264568850285L556.8406664530437,83.81176663760074L572.7503997802734,89.24055533938936L588.6601331075033,85.70000287754647L604.5698664347331,89.24055533938936L620.479599761963,91.36483675389184L636.3893330891926,82.39549559026028L652.2990664164225,82.63154076481703L668.2087997436523,87.35231909944366L684.1185330708822,84.04781181215749L700.0282663981119,84.28385698671423L715.9379997253418,84.51977700476273L731.8477330525717,84.28385698671423L747.7574663798014,83.10363111393053L763.6671997070313,83.33967628848728L779.5769330342611,86.40813840121668L795.486666361491,86.17209322665997L811.3963996887206,89.71264568850285L827.3061330159505,84.75582217931947L843.2158663431803,87.58836427400041L859.1255996704102,87.58836427400041" fill="none"></path></g><g><path style="fill: none;" stroke="rgb(204, 51, 17)" stroke-width="2px" d="M79.54866663614908,492.3903192317935L95.45839996337891,236.2910670453697L111.36813329060872,184.12708597246126L127.27786661783854,141.64058158685458L143.18759994506834,133.37937594689328L159.09733327229816,126.5343161977642L175.00706659952797,123.22980891047803L190.91679992675782,124.88199997586696L206.82653325398763,122.75771856136453L222.73626658121745,128.18650726315315L238.64599990844727,127.4783717394829L254.55573323567708,121.57749268858083L270.4654665629069,127.00628139036944L286.3751998901367,124.17386445219677L302.28493321736653,125.35409032498046L318.1946665445963,122.28562821225103L334.10439987182616,121.57749268858083L350.01413319905595,130.31078867765558L365.92386652628585,126.5343161977642L381.83359985351564,122.28562821225103L397.7433331807455,127.9504620885964L413.65306650797527,123.93781927764002L429.5627998352051,122.99376373592128L445.4725331624349,126.06222584865071L461.38226648966474,124.64595480131021L477.29199981689453,125.59013549953721L493.2017331441244,123.22980891047803L509.11146647135416,125.11804515042371L525.021199798584,127.24232656492615L540.9309331258138,123.93781927764002L556.8406664530437,125.35409032498046L572.7503997802734,124.4099096267535L588.6601331075033,122.52167338680778L604.5698664347331,126.5343161977642L620.479599761963,126.29827102320746L636.3893330891926,125.82618067409396L652.2990664164225,126.5343161977642L668.2087997436523,124.64595480131021L684.1185330708822,127.24232656492615L700.0282663981119,124.88199997586696L715.9379997253418,119.45321127407834L731.8477330525717,122.99376373592128L747.7574663798014,126.06222584865071L763.6671997070313,127.00628139036944L779.5769330342611,123.22980891047803L795.486666361491,125.11804515042371L811.3963996887206,124.17386445219677L827.3061330159505,125.82618067409396L843.2158663431803,121.10540233946733L859.1255996704102,123.22980891047803" fill="none"></path></g></g></g></g></g></g><g transform="translate(51, 377)" clip-path="url(#clip_1)"><clipPath id="clip_1"><rect width="954" height="22"></rect></clipPath><g><g><line x1="0" y1="0" x2="0" y2="5" style="visibility: inherit;" fill="rgb(0, 0, 0)" stroke="rgb(204, 204, 204)" stroke-width="1px"></line><line x1="79.54866663614908" y1="0" x2="79.54866663614908" y2="5" style="visibility: inherit;" fill="rgb(0, 0, 0)" stroke="rgb(204, 204, 204)" stroke-width="1px"></line><line x1="159.09733327229816" y1="0" x2="159.09733327229816" y2="5" style="visibility: inherit;" fill="rgb(0, 0, 0)" stroke="rgb(204, 204, 204)" stroke-width="1px"></line><line x1="238.64599990844727" y1="0" x2="238.64599990844727" y2="5" style="visibility: inherit;" fill="rgb(0, 0, 0)" stroke="rgb(204, 204, 204)" stroke-width="1px"></line><line x1="318.1946665445963" y1="0" x2="318.1946665445963" y2="5" style="visibility: inherit;" fill="rgb(0, 0, 0)" stroke="rgb(204, 204, 204)" stroke-width="1px"></line><line x1="397.7433331807455" y1="0" x2="397.7433331807455" y2="5" style="visibility: inherit;" fill="rgb(0, 0, 0)" stroke="rgb(204, 204, 204)" stroke-width="1px"></line><line x1="477.29199981689453" y1="0" x2="477.29199981689453" y2="5" style="visibility: inherit;" fill="rgb(0, 0, 0)" stroke="rgb(204, 204, 204)" stroke-width="1px"></line><line x1="556.8406664530437" y1="0" x2="556.8406664530437" y2="5" style="visibility: inherit;" fill="rgb(0, 0, 0)" stroke="rgb(204, 204, 204)" stroke-width="1px"></line><line x1="636.3893330891926" y1="0" x2="636.3893330891926" y2="5" style="visibility: inherit;" fill="rgb(0, 0, 0)" stroke="rgb(204, 204, 204)" stroke-width="1px"></line><line x1="715.9379997253418" y1="0" x2="715.9379997253418" y2="5" style="visibility: inherit;" fill="rgb(0, 0, 0)" stroke="rgb(204, 204, 204)" stroke-width="1px"></line><line x1="795.486666361491" y1="0" x2="795.486666361491" y2="5" style="visibility: inherit;" fill="rgb(0, 0, 0)" stroke="rgb(204, 204, 204)" stroke-width="1px"></line><line x1="875.0353329976399" y1="0" x2="875.0353329976399" y2="5" style="visibility: inherit;" fill="rgb(0, 0, 0)" stroke="rgb(204, 204, 204)" stroke-width="1px"></line><line x1="954.5839996337891" y1="0" x2="954.5839996337891" y2="5" style="visibility: inherit;" fill="rgb(0, 0, 0)" stroke="rgb(204, 204, 204)" stroke-width="1px"></line></g><g transform="translate(0, 8)"><text style="text-anchor: middle; visibility: hidden; font-family: Roboto, sans-serif; font-size: 12px; font-weight: 200;" x="0" y="0" dx="0em" dy="0.95em" fill="rgb(50, 49, 63)" stroke="none" stroke-width="1px">-5</text><text style="text-anchor: middle; visibility: inherit; font-family: Roboto, sans-serif; font-size: 12px; font-weight: 200;" x="79.54866663614908" y="0" dx="0em" dy="0.95em" fill="rgb(50, 49, 63)" stroke="none" stroke-width="1px">0</text><text style="text-anchor: middle; visibility: inherit; font-family: Roboto, sans-serif; font-size: 12px; font-weight: 200;" x="159.09733327229816" y="0" dx="0em" dy="0.95em" fill="rgb(50, 49, 63)" stroke="none" stroke-width="1px">5</text><text style="text-anchor: middle; visibility: inherit; font-family: Roboto, sans-serif; font-size: 12px; font-weight: 200;" x="238.64599990844727" y="0" dx="0em" dy="0.95em" fill="rgb(50, 49, 63)" stroke="none" stroke-width="1px">10</text><text style="text-anchor: middle; visibility: inherit; font-family: Roboto, sans-serif; font-size: 12px; font-weight: 200;" x="318.1946665445963" y="0" dx="0em" dy="0.95em" fill="rgb(50, 49, 63)" stroke="none" stroke-width="1px">15</text><text style="text-anchor: middle; visibility: inherit; font-family: Roboto, sans-serif; font-size: 12px; font-weight: 200;" x="397.7433331807455" y="0" dx="0em" dy="0.95em" fill="rgb(50, 49, 63)" stroke="none" stroke-width="1px">20</text><text style="text-anchor: middle; visibility: inherit; font-family: Roboto, sans-serif; font-size: 12px; font-weight: 200;" x="477.29199981689453" y="0" dx="0em" dy="0.95em" fill="rgb(50, 49, 63)" stroke="none" stroke-width="1px">25</text><text style="text-anchor: middle; visibility: inherit; font-family: Roboto, sans-serif; font-size: 12px; font-weight: 200;" x="556.8406664530437" y="0" dx="0em" dy="0.95em" fill="rgb(50, 49, 63)" stroke="none" stroke-width="1px">30</text><text style="text-anchor: middle; visibility: inherit; font-family: Roboto, sans-serif; font-size: 12px; font-weight: 200;" x="636.3893330891926" y="0" dx="0em" dy="0.95em" fill="rgb(50, 49, 63)" stroke="none" stroke-width="1px">35</text><text style="text-anchor: middle; visibility: inherit; font-family: Roboto, sans-serif; font-size: 12px; font-weight: 200;" x="715.9379997253418" y="0" dx="0em" dy="0.95em" fill="rgb(50, 49, 63)" stroke="none" stroke-width="1px">40</text><text style="text-anchor: middle; visibility: inherit; font-family: Roboto, sans-serif; font-size: 12px; font-weight: 200;" x="795.486666361491" y="0" dx="0em" dy="0.95em" fill="rgb(50, 49, 63)" stroke="none" stroke-width="1px">45</text><text style="text-anchor: middle; visibility: inherit; font-family: Roboto, sans-serif; font-size: 12px; font-weight: 200;" x="875.0353329976399" y="0" dx="0em" dy="0.95em" fill="rgb(50, 49, 63)" stroke="none" stroke-width="1px">50</text><text style="text-anchor: middle; visibility: hidden; font-family: Roboto, sans-serif; font-size: 12px; font-weight: 200;" x="954.5839996337891" y="0" dx="0em" dy="0.95em" fill="rgb(50, 49, 63)" stroke="none" stroke-width="1px">55</text></g><line x1="0" y1="0" x2="954.5839996337891" y2="0" fill="rgb(0, 0, 0)" stroke="rgb(204, 204, 204)" stroke-width="1px"></line></g></g></g></g></svg>