<svg viewBox="0 0 1073 400" xmlns="http://www.w3.org/2000/svg"><g><g><g><g><g><line x1="50" y1="378" x2="45" y2="378" style="visibility: inherit;" fill="rgb(0, 0, 0)" stroke="rgb(204, 204, 204)" stroke-width="1px"></line><line x1="50" y1="324.00000000000006" x2="45" y2="324.00000000000006" style="visibility: inherit;" fill="rgb(0, 0, 0)" stroke="rgb(204, 204, 204)" stroke-width="1px"></line><line x1="50" y1="270.00000000000006" x2="45" y2="270.00000000000006" style="visibility: inherit;" fill="rgb(0, 0, 0)" stroke="rgb(204, 204, 204)" stroke-width="1px"></line><line x1="50" y1="216" x2="45" y2="216" style="visibility: inherit;" fill="rgb(0, 0, 0)" stroke="rgb(204, 204, 204)" stroke-width="1px"></line><line x1="50" y1="162.00000000000006" x2="45" y2="162.00000000000006" style="visibility: inherit;" fill="rgb(0, 0, 0)" stroke="rgb(204, 204, 204)" stroke-width="1px"></line><line x1="50" y1="108" x2="45" y2="108" style="visibility: inherit;" fill="rgb(0, 0, 0)" stroke="rgb(204, 204, 204)" stroke-width="1px"></line><line x1="50" y1="54.00000000000006" x2="45" y2="54.00000000000006" style="visibility: inherit;" fill="rgb(0, 0, 0)" stroke="rgb(204, 204, 204)" stroke-width="1px"></line><line x1="50" y1="0" x2="45" y2="0" style="visibility: inherit;" fill="rgb(0, 0, 0)" stroke="rgb(204, 204, 204)" stroke-width="1px"></line></g><g transform="translate(40, 0)"><text x="0" y="378" dx="0em" dy="0.3em" style="text-anchor: end; visibility: hidden; font-family: Roboto, sans-serif; font-size: 12px; font-weight: 200;" fill="rgb(50, 49, 63)" stroke="none" stroke-width="1px">0.65</text><text x="0" y="324.00000000000006" dx="0em" dy="0.3em" style="text-anchor: end; visibility: inherit; font-family: Roboto, sans-serif; font-size: 12px; font-weight: 200;" fill="rgb(50, 49, 63)" stroke="none" stroke-width="1px">0.7</text><text x="0" y="270.00000000000006" dx="0em" dy="0.3em" style="text-anchor: end; visibility: inherit; font-family: Roboto, sans-serif; font-size: 12px; font-weight: 200;" fill="rgb(50, 49, 63)" stroke="none" stroke-width="1px">0.75</text><text x="0" y="216" dx="0em" dy="0.3em" style="text-anchor: end; visibility: inherit; font-family: Roboto, sans-serif; font-size: 12px; font-weight: 200;" fill="rgb(50, 49, 63)" stroke="none" stroke-width="1px">0.8</text><text x="0" y="162.00000000000006" dx="0em" dy="0.3em" style="text-anchor: end; visibility: inherit; font-family: Roboto, sans-serif; font-size: 12px; font-weight: 200;" fill="rgb(50, 49, 63)" stroke="none" stroke-width="1px">0.85</text><text x="0" y="108" dx="0em" dy="0.3em" style="text-anchor: end; visibility: inherit; font-family: Roboto, sans-serif; font-size: 12px; font-weight: 200;" fill="rgb(50, 49, 63)" stroke="none" stroke-width="1px">0.9</text><text x="0" y="54.00000000000006" dx="0em" dy="0.3em" style="text-anchor: end; visibility: inherit; font-family: Roboto, sans-serif; font-size: 12px; font-weight: 200;" fill="rgb(50, 49, 63)" stroke="none" stroke-width="1px">0.95</text><text x="0" y="0" dx="0em" dy="0.3em" style="text-anchor: end; visibility: hidden; font-family: Roboto, sans-serif; font-size: 12px; font-weight: 200;" fill="rgb(50, 49, 63)" stroke="none" stroke-width="1px">1</text></g><line x1="50" y1="0" x2="50" y2="378" fill="rgb(0, 0, 0)" stroke="rgb(204, 204, 204)" stroke-width="1px"></line></g></g><g transform="translate(50, 0)" clip-path="url(#clip_0)"><clipPath id="clip_0"><rect width="1023" height="378"></rect></clipPath><g><g><g><line x1="0" y1="0" x2="0" y2="378" fill="rgb(0, 0, 0)" stroke="rgb(60, 60, 60)" stroke-width="1px" opacity="0.25"></line><line x1="85.25" y1="0" x2="85.25" y2="378" fill="rgb(0, 0, 0)" stroke="rgb(60, 60, 60)" stroke-width="1px" opacity="0.25"></line><line x1="170.5" y1="0" x2="170.5" y2="378" fill="rgb(0, 0, 0)" stroke="rgb(60, 60, 60)" stroke-width="1px" opacity="0.25"></line><line x1="255.75" y1="0" x2="255.75" y2="378" fill="rgb(0, 0, 0)" stroke="rgb(60, 60, 60)" stroke-width="1px" opacity="0.25"></line><line x1="341" y1="0" x2="341" y2="378" fill="rgb(0, 0, 0)" stroke="rgb(60, 60, 60)" stroke-width="1px" opacity="0.25"></line><line x1="426.25" y1="0" x2="426.25" y2="378" fill="rgb(0, 0, 0)" stroke="rgb(60, 60, 60)" stroke-width="1px" opacity="0.25"></line><line x1="511.5" y1="0" x2="511.5" y2="378" fill="rgb(0, 0, 0)" stroke="rgb(60, 60, 60)" stroke-width="1px" opacity="0.25"></line><line x1="596.75" y1="0" x2="596.75" y2="378" fill="rgb(0, 0, 0)" stroke="rgb(60, 60, 60)" stroke-width="1px" opacity="0.25"></line><line x1="682" y1="0" x2="682" y2="378" fill="rgb(0, 0, 0)" stroke="rgb(60, 60, 60)" stroke-width="1px" opacity="0.25"></line><line x1="767.25" y1="0" x2="767.25" y2="378" fill="rgb(0, 0, 0)" stroke="rgb(60, 60, 60)" stroke-width="1px" opacity="0.25"></line><line x1="852.5" y1="0" x2="852.5" y2="378" fill="rgb(0, 0, 0)" stroke="rgb(60, 60, 60)" stroke-width="1px" opacity="0.25"></line><line x1="937.75" y1="0" x2="937.75" y2="378" fill="rgb(0, 0, 0)" stroke="rgb(60, 60, 60)" stroke-width="1px" opacity="0.25"></line><line x1="1023" y1="0" x2="1023" y2="378" fill="rgb(0, 0, 0)" stroke="rgb(60, 60, 60)" stroke-width="1px" opacity="0.25"></line></g><g><line x1="0" y1="378" x2="1023" y2="378" fill="rgb(0, 0, 0)" stroke="rgb(60, 60, 60)" stroke-width="1px" opacity="0.25"></line><line x1="0" y1="324.00000000000006" x2="1023" y2="324.00000000000006" fill="rgb(0, 0, 0)" stroke="rgb(60, 60, 60)" stroke-width="1px" opacity="0.25"></line><line x1="0" y1="270.00000000000006" x2="1023" y2="270.00000000000006" fill="rgb(0, 0, 0)" stroke="rgb(60, 60, 60)" stroke-width="1px" opacity="0.25"></line><line x1="0" y1="216" x2="1023" y2="216" fill="rgb(0, 0, 0)" stroke="rgb(60, 60, 60)" stroke-width="1px" opacity="0.25"></line><line x1="0" y1="162.00000000000006" x2="1023" y2="162.00000000000006" fill="rgb(0, 0, 0)" stroke="rgb(60, 60, 60)" stroke-width="1px" opacity="0.25"></line><line x1="0" y1="108" x2="1023" y2="108" fill="rgb(0, 0, 0)" stroke="rgb(60, 60, 60)" stroke-width="1px" opacity="0.25"></line><line x1="0" y1="54.00000000000006" x2="1023" y2="54.00000000000006" fill="rgb(0, 0, 0)" stroke="rgb(60, 60, 60)" stroke-width="1px" opacity="0.25"></line><line x1="0" y1="0" x2="1023" y2="0" fill="rgb(0, 0, 0)" stroke="rgb(60, 60, 60)" stroke-width="1px" opacity="0.25"></line></g></g></g><g><g><line x1="0" y1="1080.0000000000002" x2="1023" y2="1080.0000000000002" fill="rgb(0, 0, 0)" stroke="rgb(153, 153, 153)" stroke-width="1.5px"></line></g></g><g><g><line x1="85.25" y1="0" x2="85.25" y2="378" fill="rgb(0, 0, 0)" stroke="rgb(153, 153, 153)" stroke-width="1.5px"></line></g></g><g><g><g><g><g><path stroke="rgb(204, 51, 17)" stroke-width="2px" d="M85.25,465.0551319122315L102.30000000000001,232.15536117553714L119.35000000000001,198.77756595611575L136.4,181.15809202194214L153.45,169.37042713165283L170.5,162.54598617553714L187.54999999999998,151.50273084640506L204.60000000000002,142.69302606582642L221.65,139.4669079780579L238.70000000000002,130.53309202194217L255.75,127.67924308776857L272.8,124.45312499999999L289.84999999999997,119.61394786834717L306.9,114.15440797805785L323.95,110.18381595611574L341,109.93565797805789L358.04999999999995,107.20585584640506L375.09999999999997,105.22059202194212L392.15000000000003,101.12588882446288L409.20000000000005,101.12588882446288L426.25,96.5349340438843L443.3,96.41082286834717L460.35,94.92187499999999L477.40000000000003,91.07539415359497L494.45,91.44759893417358L511.5,89.71049308776855L528.5500000000001,88.4696388244629L545.6,88.59375L562.6500000000001,85.73990106582642L579.6999999999999,84.74726915359498L596.75,83.75457286834718L613.8,83.25825691223143L630.85,83.13421010971072L647.9,78.41914415359496L664.95,80.03213882446289L682,80.03213882446289L699.0500000000001,78.66730213165286L716.0999999999999,77.9227638244629L733.15,77.1782898902893L750.1999999999999,75.81338882446289L767.25,77.30240106582644L784.3000000000001,73.7040138244629L801.35,74.94486808776855L818.4000000000001,73.7040138244629L835.4499999999999,75.81338882446289L852.5,73.45585584640504L869.55,72.71138191223145L886.6,72.33917713165283L903.65,70.10569095611575L920.7,72.46322393417358" style="fill: none;" fill="none"></path></g><g><path stroke="rgb(255, 112, 67)" stroke-width="2px" d="M85.25,274.3428611755371L102.30000000000001,164.7794079780579L119.35000000000001,138.22611808776855L136.4,126.19023084640502L153.45,121.84743404388429L170.5,128.5477638244629L187.54999999999998,119.48990106582642L204.60000000000002,108.32259893417357L221.65,100.3814148902893L238.70000000000002,100.25736808776855L255.75,96.5349340438843L272.8,92.44023084640506L289.84999999999997,98.89246702194214L306.9,104.84832286834717L323.95,104.47611808776855L341,100.75368404388426L358.04999999999995,98.14799308776857L375.09999999999997,97.40351915359497L392.15000000000003,95.29414415359498L409.20000000000005,87.72516489028929L426.25,96.1626648902893L443.3,94.67371702194214L460.35,98.14799308776857L477.40000000000003,99.01651382446289L494.45,85.6157898902893L511.5,88.966019153595L528.5500000000001,88.59375L545.6,89.95865106582642L562.6500000000001,92.56434202194215L579.6999999999999,88.22148084640504L596.75,92.19207286834715L613.8,92.6883888244629L630.85,92.31618404388429L647.9,87.84927606582643L664.95,85.49174308776855L682,95.41819095611574L699.0500000000001,89.71049308776855L716.0999999999999,86.23621702194217L733.15,84.25088882446289L750.1999999999999,86.85664415359497L767.25,81.7693090438843L784.3000000000001,83.87868404388428L801.35,80.15624999999999L818.4000000000001,80.28036117553712L835.4499999999999,83.63052606582643L852.5,82.51378297805786L869.55,81.3970398902893L886.6,80.52851915359498L903.65,81.5211510658264L920.7,83.13421010971072" style="fill: none;" fill="none"></path></g><g><path stroke="rgb(0, 119, 187)" stroke-width="2px" d="M85.25,258.5845398902893L102.30000000000001,149.51746702194217L119.35000000000001,114.40256595611575L136.4,97.15536117553711L153.45,89.83453989028932L170.5,82.26562500000001L187.54999999999998,79.53582286834718L204.60000000000002,80.15624999999999L221.65,77.30240106582644L238.70000000000002,78.79134893417357L255.75,75.93750000000003L272.8,74.44855213165285L289.84999999999997,76.06161117553712L306.9,72.58733510971068L323.95,75.93750000000003L341,74.69671010971071L358.04999999999995,74.07628297805786L375.09999999999997,72.83549308776858L392.15000000000003,70.97427606582642L409.20000000000005,73.828125L426.25,71.84286117553711L443.3,72.95953989028929L460.35,71.71875000000001L477.40000000000003,74.57259893417361L494.45,75.81338882446289L511.5,71.84286117553711L528.5500000000001,72.58733510971068L545.6,72.71138191223145L562.6500000000001,71.59463882446288L579.6999999999999,71.84286117553711L596.75,73.9522361755371L613.8,72.71138191223145L630.85,70.72611808776855L647.9,71.47059202194217L664.95,71.47059202194217L682,72.58733510971068L699.0500000000001,70.8501648902893L716.0999999999999,76.68197393417358L733.15,71.96690797805788L750.1999999999999,73.08365106582643L767.25,72.95953989028929L784.3000000000001,70.22980213165285L801.35,71.09832286834717L818.4000000000001,74.94486808776855L835.4499999999999,73.57996702194214L852.5,76.55792713165283L869.55,73.7040138244629L886.6,69.36121702194214L903.65,73.08365106582643L920.7,72.21506595611572" style="fill: none;" fill="none"></path></g><g><path stroke="rgb(51, 187, 238)" stroke-width="2px" d="M153.45,380.059769153595L170.5,338.98894786834717L187.54999999999998,310.69855213165283L204.60000000000002,291.5900659561157L221.65,273.5983228683472L238.70000000000002,261.31434202194214L255.75,249.65072393417358L272.8,240.71690797805786L289.84999999999997,232.27940797805786L306.9,225.82723617553714L323.95,228.30881595611575L341,218.25825691223145L358.04999999999995,216.27299308776858L375.09999999999997,214.5358228683472L392.15000000000003,212.79871702194217L409.20000000000005,208.9522361755371L426.25,205.72611808776858L443.3,202.12773084640503L460.35,202.74815797805786L477.40000000000003,198.5294079780579L494.45,195.05513191223145L511.5,194.3106579780579L528.5500000000001,194.3106579780579L545.6,189.59559202194217L562.6500000000001,190.46417713165286L579.6999999999999,187.734375L596.75,187.6102638244629L613.8,181.15809202194214L630.85,184.13605213165283L647.9,179.04871702194217L664.95,179.5450329780579L682,179.66914415359497L699.0500000000001,176.44302606582644L716.0999999999999,172.22427606582642L733.15,174.08549308776855L750.1999999999999,170.859375L767.25,169.12226915359497L784.3000000000001,167.26105213165286L801.35,170.3630590438843L818.4000000000001,165.7720398902893L835.4499999999999,167.3850989341736L852.5,164.6553611755371L869.55,165.64799308776858L886.6,164.90351915359497L903.65,162.794144153595L920.7,160.18838882446292" style="fill: none;" fill="none"></path></g></g></g></g></g></g><g transform="translate(50, 378)" clip-path="url(#clip_1)"><clipPath id="clip_1"><rect width="1023" height="22"></rect></clipPath><g><g><line x1="0" y1="0" x2="0" y2="5" style="visibility: inherit;" fill="rgb(0, 0, 0)" stroke="rgb(204, 204, 204)" stroke-width="1px"></line><line x1="85.25" y1="0" x2="85.25" y2="5" style="visibility: inherit;" fill="rgb(0, 0, 0)" stroke="rgb(204, 204, 204)" stroke-width="1px"></line><line x1="170.5" y1="0" x2="170.5" y2="5" style="visibility: inherit;" fill="rgb(0, 0, 0)" stroke="rgb(204, 204, 204)" stroke-width="1px"></line><line x1="255.75" y1="0" x2="255.75" y2="5" style="visibility: inherit;" fill="rgb(0, 0, 0)" stroke="rgb(204, 204, 204)" stroke-width="1px"></line><line x1="341" y1="0" x2="341" y2="5" style="visibility: inherit;" fill="rgb(0, 0, 0)" stroke="rgb(204, 204, 204)" stroke-width="1px"></line><line x1="426.25" y1="0" x2="426.25" y2="5" style="visibility: inherit;" fill="rgb(0, 0, 0)" stroke="rgb(204, 204, 204)" stroke-width="1px"></line><line x1="511.5" y1="0" x2="511.5" y2="5" style="visibility: inherit;" fill="rgb(0, 0, 0)" stroke="rgb(204, 204, 204)" stroke-width="1px"></line><line x1="596.75" y1="0" x2="596.75" y2="5" style="visibility: inherit;" fill="rgb(0, 0, 0)" stroke="rgb(204, 204, 204)" stroke-width="1px"></line><line x1="682" y1="0" x2="682" y2="5" style="visibility: inherit;" fill="rgb(0, 0, 0)" stroke="rgb(204, 204, 204)" stroke-width="1px"></line><line x1="767.25" y1="0" x2="767.25" y2="5" style="visibility: inherit;" fill="rgb(0, 0, 0)" stroke="rgb(204, 204, 204)" stroke-width="1px"></line><line x1="852.5" y1="0" x2="852.5" y2="5" style="visibility: inherit;" fill="rgb(0, 0, 0)" stroke="rgb(204, 204, 204)" stroke-width="1px"></line><line x1="937.75" y1="0" x2="937.75" y2="5" style="visibility: inherit;" fill="rgb(0, 0, 0)" stroke="rgb(204, 204, 204)" stroke-width="1px"></line><line x1="1023" y1="0" x2="1023" y2="5" style="visibility: inherit;" fill="rgb(0, 0, 0)" stroke="rgb(204, 204, 204)" stroke-width="1px"></line></g><g transform="translate(0, 8)"><text x="0" y="0" dx="0em" dy="0.95em" style="text-anchor: middle; visibility: hidden; font-family: Roboto, sans-serif; font-size: 12px; font-weight: 200;" fill="rgb(50, 49, 63)" stroke="none" stroke-width="1px">-5</text><text x="85.25" y="0" dx="0em" dy="0.95em" style="text-anchor: middle; visibility: inherit; font-family: Roboto, sans-serif; font-size: 12px; font-weight: 200;" fill="rgb(50, 49, 63)" stroke="none" stroke-width="1px">0</text><text x="170.5" y="0" dx="0em" dy="0.95em" style="text-anchor: middle; visibility: inherit; font-family: Roboto, sans-serif; font-size: 12px; font-weight: 200;" fill="rgb(50, 49, 63)" stroke="none" stroke-width="1px">5</text><text x="255.75" y="0" dx="0em" dy="0.95em" style="text-anchor: middle; visibility: inherit; font-family: Roboto, sans-serif; font-size: 12px; font-weight: 200;" fill="rgb(50, 49, 63)" stroke="none" stroke-width="1px">10</text><text x="341" y="0" dx="0em" dy="0.95em" style="text-anchor: middle; visibility: inherit; font-family: Roboto, sans-serif; font-size: 12px; font-weight: 200;" fill="rgb(50, 49, 63)" stroke="none" stroke-width="1px">15</text><text x="426.25" y="0" dx="0em" dy="0.95em" style="text-anchor: middle; visibility: inherit; font-family: Roboto, sans-serif; font-size: 12px; font-weight: 200;" fill="rgb(50, 49, 63)" stroke="none" stroke-width="1px">20</text><text x="511.5" y="0" dx="0em" dy="0.95em" style="text-anchor: middle; visibility: inherit; font-family: Roboto, sans-serif; font-size: 12px; font-weight: 200;" fill="rgb(50, 49, 63)" stroke="none" stroke-width="1px">25</text><text x="596.75" y="0" dx="0em" dy="0.95em" style="text-anchor: middle; visibility: inherit; font-family: Roboto, sans-serif; font-size: 12px; font-weight: 200;" fill="rgb(50, 49, 63)" stroke="none" stroke-width="1px">30</text><text x="682" y="0" dx="0em" dy="0.95em" style="text-anchor: middle; visibility: inherit; font-family: Roboto, sans-serif; font-size: 12px; font-weight: 200;" fill="rgb(50, 49, 63)" stroke="none" stroke-width="1px">35</text><text x="767.25" y="0" dx="0em" dy="0.95em" style="text-anchor: middle; visibility: inherit; font-family: Roboto, sans-serif; font-size: 12px; font-weight: 200;" fill="rgb(50, 49, 63)" stroke="none" stroke-width="1px">40</text><text x="852.5" y="0" dx="0em" dy="0.95em" style="text-anchor: middle; visibility: inherit; font-family: Roboto, sans-serif; font-size: 12px; font-weight: 200;" fill="rgb(50, 49, 63)" stroke="none" stroke-width="1px">45</text><text x="937.75" y="0" dx="0em" dy="0.95em" style="text-anchor: middle; visibility: inherit; font-family: Roboto, sans-serif; font-size: 12px; font-weight: 200;" fill="rgb(50, 49, 63)" stroke="none" stroke-width="1px">50</text><text x="1023" y="0" dx="0em" dy="0.95em" style="text-anchor: middle; visibility: hidden; font-family: Roboto, sans-serif; font-size: 12px; font-weight: 200;" fill="rgb(50, 49, 63)" stroke="none" stroke-width="1px">55</text></g><line x1="0" y1="0" x2="1023" y2="0" fill="rgb(0, 0, 0)" stroke="rgb(204, 204, 204)" stroke-width="1px"></line></g></g></g></g></svg>