<svg viewBox="0 0 1374 400" xmlns="http://www.w3.org/2000/svg"><g><g><g><g><g><line x1="51.5625" y1="378" x2="46.5625" y2="378" style="visibility: inherit;" fill="rgb(0, 0, 0)" stroke="rgb(204, 204, 204)" stroke-width="1px"></line><line x1="51.5625" y1="336" x2="46.5625" y2="336" style="visibility: inherit;" fill="rgb(0, 0, 0)" stroke="rgb(204, 204, 204)" stroke-width="1px"></line><line x1="51.5625" y1="294" x2="46.5625" y2="294" style="visibility: inherit;" fill="rgb(0, 0, 0)" stroke="rgb(204, 204, 204)" stroke-width="1px"></line><line x1="51.5625" y1="252" x2="46.5625" y2="252" style="visibility: inherit;" fill="rgb(0, 0, 0)" stroke="rgb(204, 204, 204)" stroke-width="1px"></line><line x1="51.5625" y1="210" x2="46.5625" y2="210" style="visibility: inherit;" fill="rgb(0, 0, 0)" stroke="rgb(204, 204, 204)" stroke-width="1px"></line><line x1="51.5625" y1="168" x2="46.5625" y2="168" style="visibility: inherit;" fill="rgb(0, 0, 0)" stroke="rgb(204, 204, 204)" stroke-width="1px"></line><line x1="51.5625" y1="126.00000000000001" x2="46.5625" y2="126.00000000000001" style="visibility: inherit;" fill="rgb(0, 0, 0)" stroke="rgb(204, 204, 204)" stroke-width="1px"></line><line x1="51.5625" y1="84.00000000000004" x2="46.5625" y2="84.00000000000004" style="visibility: inherit;" fill="rgb(0, 0, 0)" stroke="rgb(204, 204, 204)" stroke-width="1px"></line><line x1="51.5625" y1="42.00000000000002" x2="46.5625" y2="42.00000000000002" style="visibility: inherit;" fill="rgb(0, 0, 0)" stroke="rgb(204, 204, 204)" stroke-width="1px"></line><line x1="51.5625" y1="0" x2="46.5625" y2="0" style="visibility: inherit;" fill="rgb(0, 0, 0)" stroke="rgb(204, 204, 204)" stroke-width="1px"></line></g><g transform="translate(41.5625, 0)"><text x="0" y="378" dx="0em" dy="0.3em" style="text-anchor: end; visibility: hidden; font-family: Roboto, sans-serif; font-size: 12px; font-weight: 200;" fill="rgb(50, 49, 63)" stroke="none" stroke-width="1px">-0.2</text><text x="0" y="336" dx="0em" dy="0.3em" style="text-anchor: end; visibility: inherit; font-family: Roboto, sans-serif; font-size: 12px; font-weight: 200;" fill="rgb(50, 49, 63)" stroke="none" stroke-width="1px">0</text><text x="0" y="294" dx="0em" dy="0.3em" style="text-anchor: end; visibility: inherit; font-family: Roboto, sans-serif; font-size: 12px; font-weight: 200;" fill="rgb(50, 49, 63)" stroke="none" stroke-width="1px">0.2</text><text x="0" y="252" dx="0em" dy="0.3em" style="text-anchor: end; visibility: inherit; font-family: Roboto, sans-serif; font-size: 12px; font-weight: 200;" fill="rgb(50, 49, 63)" stroke="none" stroke-width="1px">0.4</text><text x="0" y="210" dx="0em" dy="0.3em" style="text-anchor: end; visibility: inherit; font-family: Roboto, sans-serif; font-size: 12px; font-weight: 200;" fill="rgb(50, 49, 63)" stroke="none" stroke-width="1px">0.6</text><text x="0" y="168" dx="0em" dy="0.3em" style="text-anchor: end; visibility: inherit; font-family: Roboto, sans-serif; font-size: 12px; font-weight: 200;" fill="rgb(50, 49, 63)" stroke="none" stroke-width="1px">0.8</text><text x="0" y="126.00000000000001" dx="0em" dy="0.3em" style="text-anchor: end; visibility: inherit; font-family: Roboto, sans-serif; font-size: 12px; font-weight: 200;" fill="rgb(50, 49, 63)" stroke="none" stroke-width="1px">1</text><text x="0" y="84.00000000000004" dx="0em" dy="0.3em" style="text-anchor: end; visibility: inherit; font-family: Roboto, sans-serif; font-size: 12px; font-weight: 200;" fill="rgb(50, 49, 63)" stroke="none" stroke-width="1px">1.2</text><text x="0" y="42.00000000000002" dx="0em" dy="0.3em" style="text-anchor: end; visibility: inherit; font-family: Roboto, sans-serif; font-size: 12px; font-weight: 200;" fill="rgb(50, 49, 63)" stroke="none" stroke-width="1px">1.4</text><text x="0" y="0" dx="0em" dy="0.3em" style="text-anchor: end; visibility: hidden; font-family: Roboto, sans-serif; font-size: 12px; font-weight: 200;" fill="rgb(50, 49, 63)" stroke="none" stroke-width="1px">1.6</text></g><line x1="51.5625" y1="0" x2="51.5625" y2="378" fill="rgb(0, 0, 0)" stroke="rgb(204, 204, 204)" stroke-width="1px"></line></g></g><g transform="translate(51, 0)" clip-path="url(#clip_0)"><clipPath id="clip_0"><rect width="1322" height="378"></rect></clipPath><g><g><g><line x1="0" y1="0" x2="0" y2="378" fill="rgb(0, 0, 0)" stroke="rgb(60, 60, 60)" stroke-width="1px" opacity="0.25"></line><line x1="110.203125" y1="0" x2="110.203125" y2="378" fill="rgb(0, 0, 0)" stroke="rgb(60, 60, 60)" stroke-width="1px" opacity="0.25"></line><line x1="220.40625" y1="0" x2="220.40625" y2="378" fill="rgb(0, 0, 0)" stroke="rgb(60, 60, 60)" stroke-width="1px" opacity="0.25"></line><line x1="330.609375" y1="0" x2="330.609375" y2="378" fill="rgb(0, 0, 0)" stroke="rgb(60, 60, 60)" stroke-width="1px" opacity="0.25"></line><line x1="440.8125" y1="0" x2="440.8125" y2="378" fill="rgb(0, 0, 0)" stroke="rgb(60, 60, 60)" stroke-width="1px" opacity="0.25"></line><line x1="551.015625" y1="0" x2="551.015625" y2="378" fill="rgb(0, 0, 0)" stroke="rgb(60, 60, 60)" stroke-width="1px" opacity="0.25"></line><line x1="661.21875" y1="0" x2="661.21875" y2="378" fill="rgb(0, 0, 0)" stroke="rgb(60, 60, 60)" stroke-width="1px" opacity="0.25"></line><line x1="771.421875" y1="0" x2="771.421875" y2="378" fill="rgb(0, 0, 0)" stroke="rgb(60, 60, 60)" stroke-width="1px" opacity="0.25"></line><line x1="881.625" y1="0" x2="881.625" y2="378" fill="rgb(0, 0, 0)" stroke="rgb(60, 60, 60)" stroke-width="1px" opacity="0.25"></line><line x1="991.828125" y1="0" x2="991.828125" y2="378" fill="rgb(0, 0, 0)" stroke="rgb(60, 60, 60)" stroke-width="1px" opacity="0.25"></line><line x1="1102.03125" y1="0" x2="1102.03125" y2="378" fill="rgb(0, 0, 0)" stroke="rgb(60, 60, 60)" stroke-width="1px" opacity="0.25"></line><line x1="1212.234375" y1="0" x2="1212.234375" y2="378" fill="rgb(0, 0, 0)" stroke="rgb(60, 60, 60)" stroke-width="1px" opacity="0.25"></line><line x1="1322.4375" y1="0" x2="1322.4375" y2="378" fill="rgb(0, 0, 0)" stroke="rgb(60, 60, 60)" stroke-width="1px" opacity="0.25"></line></g><g><line x1="0" y1="378" x2="1322.4375" y2="378" fill="rgb(0, 0, 0)" stroke="rgb(60, 60, 60)" stroke-width="1px" opacity="0.25"></line><line x1="0" y1="336" x2="1322.4375" y2="336" fill="rgb(0, 0, 0)" stroke="rgb(60, 60, 60)" stroke-width="1px" opacity="0.25"></line><line x1="0" y1="294" x2="1322.4375" y2="294" fill="rgb(0, 0, 0)" stroke="rgb(60, 60, 60)" stroke-width="1px" opacity="0.25"></line><line x1="0" y1="252" x2="1322.4375" y2="252" fill="rgb(0, 0, 0)" stroke="rgb(60, 60, 60)" stroke-width="1px" opacity="0.25"></line><line x1="0" y1="210" x2="1322.4375" y2="210" fill="rgb(0, 0, 0)" stroke="rgb(60, 60, 60)" stroke-width="1px" opacity="0.25"></line><line x1="0" y1="168" x2="1322.4375" y2="168" fill="rgb(0, 0, 0)" stroke="rgb(60, 60, 60)" stroke-width="1px" opacity="0.25"></line><line x1="0" y1="126.00000000000001" x2="1322.4375" y2="126.00000000000001" fill="rgb(0, 0, 0)" stroke="rgb(60, 60, 60)" stroke-width="1px" opacity="0.25"></line><line x1="0" y1="84.00000000000004" x2="1322.4375" y2="84.00000000000004" fill="rgb(0, 0, 0)" stroke="rgb(60, 60, 60)" stroke-width="1px" opacity="0.25"></line><line x1="0" y1="42.00000000000002" x2="1322.4375" y2="42.00000000000002" fill="rgb(0, 0, 0)" stroke="rgb(60, 60, 60)" stroke-width="1px" opacity="0.25"></line><line x1="0" y1="0" x2="1322.4375" y2="0" fill="rgb(0, 0, 0)" stroke="rgb(60, 60, 60)" stroke-width="1px" opacity="0.25"></line></g></g></g><g><g><line x1="0" y1="336" x2="1322.4375" y2="336" fill="rgb(0, 0, 0)" stroke="rgb(153, 153, 153)" stroke-width="1.5px"></line></g></g><g><g><line x1="110.203125" y1="0" x2="110.203125" y2="378" fill="rgb(0, 0, 0)" stroke="rgb(153, 153, 153)" stroke-width="1.5px"></line></g></g><g><g><g><g><g><path stroke="rgb(204, 51, 17)" stroke-width="2px" d="M110.203125,-9.571060180664071L132.24375,191.673565864563L154.284375,227.33216321468356L176.325,242.59649580717087L198.365625,252.70502364635468L220.40625,260.1507777571678L242.44687499999998,266.05934089422226L264.4875,271.21496415138245L286.528125,275.5540237426758L308.56875,279.141313791275L330.609375,281.8483350276947L352.65,283.97536969184875L374.690625,287.2556277215481L396.73125,289.3976858854294L418.77187499999997,291.47414258122444L440.8125,292.8709556758404L462.853125,294.47031220793724L484.89374999999995,295.97640788555145L506.93437500000005,297.38543754816055L528.975,298.38163858652115L551.015625,300.2063695192337L573.05625,301.56911766529083L595.0968750000001,302.0368613898754L617.1375,303.77592301368713L639.178125,304.2090103626251L661.21875,305.5690579712391L683.2593750000001,305.7252416610718L705.3,306.7170148193836L727.340625,307.3026402890682L749.38125,308.08227574825287L771.421875,308.37994506955147L793.4625,308.8369680047035L815.5031250000001,309.7663456052542L837.5437499999999,311.17810083925724L859.584375,311.01783192157745L881.625,311.19990384578705L903.665625,311.9959224611521L925.70625,312.6224581003189L947.746875,312.9248588383198L969.7874999999999,313.66909316182137L991.828125,313.30908304452896L1013.8687500000001,314.3974403142929L1035.909375,314.6096280813217L1057.95,314.8775148242712L1079.990625,314.94791811704636L1102.03125,315.082890227437L1124.0718749999999,315.6080383658409L1146.1125,316.09948141872883L1168.153125,316.7128304243088L1190.1937500000001,316.47795094549656" style="fill: none;" fill="none"></path></g><g><path stroke="rgb(255, 112, 67)" stroke-width="2px" d="M110.203125,9.543362617492713L132.24375,201.36626100540164L154.284375,240.25333052873611L176.325,261.12500524520874L198.365625,259.60630184412L220.40625,237.33437812328341L242.44687499999998,257.3684105873108L264.4875,262.94999903440475L286.528125,279.0770954489708L308.56875,280.29374545812607L330.609375,278.22251147031784L352.65,281.2418875694275L374.690625,273.00149953365326L396.73125,257.15880131721497L418.77187499999997,260.6527272462845L440.8125,256.1631823182106L462.853125,267.179059445858L484.89374999999995,265.2396730184555L506.93437500000005,269.20090770721436L528.975,277.7221140861511L551.015625,263.27180421352386L573.05625,255.4859826564789L595.0968750000001,256.94755858182907L617.1375,258.90948808193207L639.178125,272.75580382347107L661.21875,268.7099543809891L683.2593750000001,268.57810682058334L705.3,270.30984914302826L727.340625,264.1815129518509L749.38125,262.27736181020737L771.421875,254.76434147357944L793.4625,256.9336584806442L815.5031250000001,252.516749560833L837.5437499999999,258.9860919713974L859.584375,276.6670832633972L881.625,240.62745666503906L903.665625,247.9122612476349L925.70625,250.99449133872986L947.746875,263.6064330339432L969.7874999999999,252.74390763044354L991.828125,278.3221591114998L1013.8687500000001,257.0651931166649L1035.909375,264.6292952299118L1057.95,271.026915371418L1079.990625,263.5662910938263L1102.03125,255.83917415142062L1124.0718749999999,264.3398526906967L1146.1125,271.91153383255005L1168.153125,263.96792954206467L1190.1937500000001,249.98747563362122" style="fill: none;" fill="none"></path></g><g><path stroke="rgb(0, 119, 187)" stroke-width="2px" d="M110.203125,205.09476757049563L132.24375,281.0053542852402L154.284375,297.8967841565609L176.325,306.2871975302696L198.365625,310.21566747128963L220.40625,313.248128503561L242.44687499999998,315.5485170185566L264.4875,316.172294229269L286.528125,317.37573570013046L308.56875,318.27166168391705L330.609375,319.33367854356766L352.65,320.34041261672974L374.690625,320.1486994922161L396.73125,321.50428479909897L418.77187499999997,320.48112688958645L440.8125,321.2456387132406L462.853125,322.15648806095123L484.89374999999995,322.20147094130516L506.93437500000005,321.94537675380707L528.975,321.9625343978405L551.015625,322.73810340464115L573.05625,323.0671355724335L595.0968750000001,323.3379176482558L617.1375,321.57846665382385L639.178125,321.7842566817999L661.21875,323.5561589375138L683.2593750000001,322.67080745100975L705.3,323.0046156272292L727.340625,323.60450575500727L749.38125,323.7609569951892L771.421875,322.17007054388523L793.4625,323.9592149332166L815.5031250000001,324.2093831151724L837.5437499999999,323.260611243546L859.584375,323.5309716537595L881.625,323.474807202816L903.665625,323.9831340909004L925.70625,321.7869681715965L947.746875,323.16616831719875L969.7874999999999,323.80786514282227L991.828125,323.6069974154234L1013.8687500000001,324.5266814008355L1035.909375,323.7317564561963L1057.95,322.4299151301384L1079.990625,322.5183600783348L1102.03125,321.6077329069376L1124.0718749999999,321.74711568653584L1146.1125,325.1284138709307L1168.153125,323.08074778318405L1190.1937500000001,322.92428559064865" style="fill: none;" fill="none"></path></g><g><path stroke="rgb(51, 187, 238)" stroke-width="2px" d="M198.365625,-2.882589340209933L220.40625,34.18087577819825L242.44687499999998,64.70246887207033L264.4875,89.45636487007144L286.528125,110.13848876953126L308.56875,126.84936439991L330.609375,140.68615472316745L352.65,152.8801546096802L374.690625,163.23107993602756L396.73125,171.632398724556L418.77187499999997,178.64065325260162L440.8125,186.03379225730896L462.853125,191.70147871971133L484.89374999999995,196.6808316707611L506.93437500000005,201.5040979385376L528.975,205.71033990383148L551.015625,209.39687705039978L573.05625,213.102427482605L595.0968750000001,215.5369917154312L617.1375,219.448446393013L639.178125,221.82594573497772L661.21875,224.34003031253818L683.2593750000001,226.08937776088717L705.3,228.91448414325717L727.340625,230.80707585811615L749.38125,232.5977919101715L771.421875,234.3408808708191L793.4625,236.5670312047005L815.5031250000001,237.41256541013718L837.5437499999999,239.6096262931824L859.584375,241.13434410095215L881.625,242.19717299938202L903.665625,243.99645692110062L925.70625,245.12080049514773L947.746875,246.42120158672333L969.7874999999999,247.5718433260918L991.828125,248.59570062160495L1013.8687500000001,250.1333484649658L1035.909375,250.81141179800036L1057.95,252.02186590433124L1079.990625,252.66127681732175L1102.03125,254.060662150383L1124.0718749999999,254.87330174446106L1146.1125,255.77518737316134L1168.153125,256.5402249097824L1190.1937500000001,257.54633313417435" style="fill: none;" fill="none"></path></g></g></g></g></g><g><g opacity="0.281231"><span fill="rgb(0, 0, 0)" stroke="none" stroke-width="1px">Alt + Scroll to Zoom</span></g></g></g><g transform="translate(51, 378)" clip-path="url(#clip_1)"><clipPath id="clip_1"><rect width="1322" height="22"></rect></clipPath><g><g><line x1="0" y1="0" x2="0" y2="5" style="visibility: inherit;" fill="rgb(0, 0, 0)" stroke="rgb(204, 204, 204)" stroke-width="1px"></line><line x1="110.203125" y1="0" x2="110.203125" y2="5" style="visibility: inherit;" fill="rgb(0, 0, 0)" stroke="rgb(204, 204, 204)" stroke-width="1px"></line><line x1="220.40625" y1="0" x2="220.40625" y2="5" style="visibility: inherit;" fill="rgb(0, 0, 0)" stroke="rgb(204, 204, 204)" stroke-width="1px"></line><line x1="330.609375" y1="0" x2="330.609375" y2="5" style="visibility: inherit;" fill="rgb(0, 0, 0)" stroke="rgb(204, 204, 204)" stroke-width="1px"></line><line x1="440.8125" y1="0" x2="440.8125" y2="5" style="visibility: inherit;" fill="rgb(0, 0, 0)" stroke="rgb(204, 204, 204)" stroke-width="1px"></line><line x1="551.015625" y1="0" x2="551.015625" y2="5" style="visibility: inherit;" fill="rgb(0, 0, 0)" stroke="rgb(204, 204, 204)" stroke-width="1px"></line><line x1="661.21875" y1="0" x2="661.21875" y2="5" style="visibility: inherit;" fill="rgb(0, 0, 0)" stroke="rgb(204, 204, 204)" stroke-width="1px"></line><line x1="771.421875" y1="0" x2="771.421875" y2="5" style="visibility: inherit;" fill="rgb(0, 0, 0)" stroke="rgb(204, 204, 204)" stroke-width="1px"></line><line x1="881.625" y1="0" x2="881.625" y2="5" style="visibility: inherit;" fill="rgb(0, 0, 0)" stroke="rgb(204, 204, 204)" stroke-width="1px"></line><line x1="991.828125" y1="0" x2="991.828125" y2="5" style="visibility: inherit;" fill="rgb(0, 0, 0)" stroke="rgb(204, 204, 204)" stroke-width="1px"></line><line x1="1102.03125" y1="0" x2="1102.03125" y2="5" style="visibility: inherit;" fill="rgb(0, 0, 0)" stroke="rgb(204, 204, 204)" stroke-width="1px"></line><line x1="1212.234375" y1="0" x2="1212.234375" y2="5" style="visibility: inherit;" fill="rgb(0, 0, 0)" stroke="rgb(204, 204, 204)" stroke-width="1px"></line><line x1="1322.4375" y1="0" x2="1322.4375" y2="5" style="visibility: inherit;" fill="rgb(0, 0, 0)" stroke="rgb(204, 204, 204)" stroke-width="1px"></line></g><g transform="translate(0, 8)"><text x="0" y="0" dx="0em" dy="0.95em" style="text-anchor: middle; visibility: hidden; font-family: Roboto, sans-serif; font-size: 12px; font-weight: 200;" fill="rgb(50, 49, 63)" stroke="none" stroke-width="1px">-5</text><text x="110.203125" y="0" dx="0em" dy="0.95em" style="text-anchor: middle; visibility: inherit; font-family: Roboto, sans-serif; font-size: 12px; font-weight: 200;" fill="rgb(50, 49, 63)" stroke="none" stroke-width="1px">0</text><text x="220.40625" y="0" dx="0em" dy="0.95em" style="text-anchor: middle; visibility: inherit; font-family: Roboto, sans-serif; font-size: 12px; font-weight: 200;" fill="rgb(50, 49, 63)" stroke="none" stroke-width="1px">5</text><text x="330.609375" y="0" dx="0em" dy="0.95em" style="text-anchor: middle; visibility: inherit; font-family: Roboto, sans-serif; font-size: 12px; font-weight: 200;" fill="rgb(50, 49, 63)" stroke="none" stroke-width="1px">10</text><text x="440.8125" y="0" dx="0em" dy="0.95em" style="text-anchor: middle; visibility: inherit; font-family: Roboto, sans-serif; font-size: 12px; font-weight: 200;" fill="rgb(50, 49, 63)" stroke="none" stroke-width="1px">15</text><text x="551.015625" y="0" dx="0em" dy="0.95em" style="text-anchor: middle; visibility: inherit; font-family: Roboto, sans-serif; font-size: 12px; font-weight: 200;" fill="rgb(50, 49, 63)" stroke="none" stroke-width="1px">20</text><text x="661.21875" y="0" dx="0em" dy="0.95em" style="text-anchor: middle; visibility: inherit; font-family: Roboto, sans-serif; font-size: 12px; font-weight: 200;" fill="rgb(50, 49, 63)" stroke="none" stroke-width="1px">25</text><text x="771.421875" y="0" dx="0em" dy="0.95em" style="text-anchor: middle; visibility: inherit; font-family: Roboto, sans-serif; font-size: 12px; font-weight: 200;" fill="rgb(50, 49, 63)" stroke="none" stroke-width="1px">30</text><text x="881.625" y="0" dx="0em" dy="0.95em" style="text-anchor: middle; visibility: inherit; font-family: Roboto, sans-serif; font-size: 12px; font-weight: 200;" fill="rgb(50, 49, 63)" stroke="none" stroke-width="1px">35</text><text x="991.828125" y="0" dx="0em" dy="0.95em" style="text-anchor: middle; visibility: inherit; font-family: Roboto, sans-serif; font-size: 12px; font-weight: 200;" fill="rgb(50, 49, 63)" stroke="none" stroke-width="1px">40</text><text x="1102.03125" y="0" dx="0em" dy="0.95em" style="text-anchor: middle; visibility: inherit; font-family: Roboto, sans-serif; font-size: 12px; font-weight: 200;" fill="rgb(50, 49, 63)" stroke="none" stroke-width="1px">45</text><text x="1212.234375" y="0" dx="0em" dy="0.95em" style="text-anchor: middle; visibility: inherit; font-family: Roboto, sans-serif; font-size: 12px; font-weight: 200;" fill="rgb(50, 49, 63)" stroke="none" stroke-width="1px">50</text><text x="1322.4375" y="0" dx="0em" dy="0.95em" style="text-anchor: middle; visibility: hidden; font-family: Roboto, sans-serif; font-size: 12px; font-weight: 200;" fill="rgb(50, 49, 63)" stroke="none" stroke-width="1px">55</text></g><line x1="0" y1="0" x2="1322.4375" y2="0" fill="rgb(0, 0, 0)" stroke="rgb(204, 204, 204)" stroke-width="1px"></line></g></g></g></g></svg>