<svg viewBox="0 0 1006 400" xmlns="http://www.w3.org/2000/svg"><g><g><g><g><g><line x1="51.41600036621094" y1="377.95999908447266" x2="46.41600036621094" y2="377.95999908447266" style="visibility: inherit;" fill="rgb(0, 0, 0)" stroke="rgb(204, 204, 204)" stroke-width="1px"></line><line x1="51.41600036621094" y1="330.7149991989136" x2="46.41600036621094" y2="330.7149991989136" style="visibility: inherit;" fill="rgb(0, 0, 0)" stroke="rgb(204, 204, 204)" stroke-width="1px"></line><line x1="51.41600036621094" y1="283.4699993133545" x2="46.41600036621094" y2="283.4699993133545" style="visibility: inherit;" fill="rgb(0, 0, 0)" stroke="rgb(204, 204, 204)" stroke-width="1px"></line><line x1="51.41600036621094" y1="236.2249994277954" x2="46.41600036621094" y2="236.2249994277954" style="visibility: inherit;" fill="rgb(0, 0, 0)" stroke="rgb(204, 204, 204)" stroke-width="1px"></line><line x1="51.41600036621094" y1="188.97999954223633" x2="46.41600036621094" y2="188.97999954223633" style="visibility: inherit;" fill="rgb(0, 0, 0)" stroke="rgb(204, 204, 204)" stroke-width="1px"></line><line x1="51.41600036621094" y1="141.73499965667725" x2="46.41600036621094" y2="141.73499965667725" style="visibility: inherit;" fill="rgb(0, 0, 0)" stroke="rgb(204, 204, 204)" stroke-width="1px"></line><line x1="51.41600036621094" y1="94.48999977111816" x2="46.41600036621094" y2="94.48999977111816" style="visibility: inherit;" fill="rgb(0, 0, 0)" stroke="rgb(204, 204, 204)" stroke-width="1px"></line><line x1="51.41600036621094" y1="47.24499988555908" x2="46.41600036621094" y2="47.24499988555908" style="visibility: inherit;" fill="rgb(0, 0, 0)" stroke="rgb(204, 204, 204)" stroke-width="1px"></line><line x1="51.41600036621094" y1="0" x2="46.41600036621094" y2="0" style="visibility: inherit;" fill="rgb(0, 0, 0)" stroke="rgb(204, 204, 204)" stroke-width="1px"></line></g><g transform="translate(41.41600036621094, 0)"><text style="text-anchor: end; visibility: hidden; font-family: Roboto, sans-serif; font-size: 12px; font-weight: 200;" x="0" y="377.95999908447266" dx="0em" dy="0.3em" fill="rgb(50, 49, 63)" stroke="none" stroke-width="1px">-0.5</text><text style="text-anchor: end; visibility: inherit; font-family: Roboto, sans-serif; font-size: 12px; font-weight: 200;" x="0" y="330.7149991989136" dx="0em" dy="0.3em" fill="rgb(50, 49, 63)" stroke="none" stroke-width="1px">0</text><text style="text-anchor: end; visibility: inherit; font-family: Roboto, sans-serif; font-size: 12px; font-weight: 200;" x="0" y="283.4699993133545" dx="0em" dy="0.3em" fill="rgb(50, 49, 63)" stroke="none" stroke-width="1px">0.5</text><text style="text-anchor: end; visibility: inherit; font-family: Roboto, sans-serif; font-size: 12px; font-weight: 200;" x="0" y="236.2249994277954" dx="0em" dy="0.3em" fill="rgb(50, 49, 63)" stroke="none" stroke-width="1px">1</text><text style="text-anchor: end; visibility: inherit; font-family: Roboto, sans-serif; font-size: 12px; font-weight: 200;" x="0" y="188.97999954223633" dx="0em" dy="0.3em" fill="rgb(50, 49, 63)" stroke="none" stroke-width="1px">1.5</text><text style="text-anchor: end; visibility: inherit; font-family: Roboto, sans-serif; font-size: 12px; font-weight: 200;" x="0" y="141.73499965667725" dx="0em" dy="0.3em" fill="rgb(50, 49, 63)" stroke="none" stroke-width="1px">2</text><text style="text-anchor: end; visibility: inherit; font-family: Roboto, sans-serif; font-size: 12px; font-weight: 200;" x="0" y="94.48999977111816" dx="0em" dy="0.3em" fill="rgb(50, 49, 63)" stroke="none" stroke-width="1px">2.5</text><text style="text-anchor: end; visibility: inherit; font-family: Roboto, sans-serif; font-size: 12px; font-weight: 200;" x="0" y="47.24499988555908" dx="0em" dy="0.3em" fill="rgb(50, 49, 63)" stroke="none" stroke-width="1px">3</text><text style="text-anchor: end; visibility: hidden; font-family: Roboto, sans-serif; font-size: 12px; font-weight: 200;" x="0" y="0" dx="0em" dy="0.3em" fill="rgb(50, 49, 63)" stroke="none" stroke-width="1px">3.5</text></g><line x1="51.41600036621094" y1="0" x2="51.41600036621094" y2="377.95999908447266" fill="rgb(0, 0, 0)" stroke="rgb(204, 204, 204)" stroke-width="1px"></line></g></g><g transform="translate(51, 0)" clip-path="url(#clip_0)"><clipPath id="clip_0"><rect width="954" height="377"></rect></clipPath><g><g><g><line x1="0" y1="0" x2="0" y2="377.95999908447266" fill="rgb(0, 0, 0)" stroke="rgb(60, 60, 60)" stroke-width="1px" opacity="0.25"></line><line x1="79.54866663614908" y1="0" x2="79.54866663614908" y2="377.95999908447266" fill="rgb(0, 0, 0)" stroke="rgb(60, 60, 60)" stroke-width="1px" opacity="0.25"></line><line x1="159.09733327229816" y1="0" x2="159.09733327229816" y2="377.95999908447266" fill="rgb(0, 0, 0)" stroke="rgb(60, 60, 60)" stroke-width="1px" opacity="0.25"></line><line x1="238.64599990844727" y1="0" x2="238.64599990844727" y2="377.95999908447266" fill="rgb(0, 0, 0)" stroke="rgb(60, 60, 60)" stroke-width="1px" opacity="0.25"></line><line x1="318.1946665445963" y1="0" x2="318.1946665445963" y2="377.95999908447266" fill="rgb(0, 0, 0)" stroke="rgb(60, 60, 60)" stroke-width="1px" opacity="0.25"></line><line x1="397.7433331807455" y1="0" x2="397.7433331807455" y2="377.95999908447266" fill="rgb(0, 0, 0)" stroke="rgb(60, 60, 60)" stroke-width="1px" opacity="0.25"></line><line x1="477.29199981689453" y1="0" x2="477.29199981689453" y2="377.95999908447266" fill="rgb(0, 0, 0)" stroke="rgb(60, 60, 60)" stroke-width="1px" opacity="0.25"></line><line x1="556.8406664530437" y1="0" x2="556.8406664530437" y2="377.95999908447266" fill="rgb(0, 0, 0)" stroke="rgb(60, 60, 60)" stroke-width="1px" opacity="0.25"></line><line x1="636.3893330891926" y1="0" x2="636.3893330891926" y2="377.95999908447266" fill="rgb(0, 0, 0)" stroke="rgb(60, 60, 60)" stroke-width="1px" opacity="0.25"></line><line x1="715.9379997253418" y1="0" x2="715.9379997253418" y2="377.95999908447266" fill="rgb(0, 0, 0)" stroke="rgb(60, 60, 60)" stroke-width="1px" opacity="0.25"></line><line x1="795.486666361491" y1="0" x2="795.486666361491" y2="377.95999908447266" fill="rgb(0, 0, 0)" stroke="rgb(60, 60, 60)" stroke-width="1px" opacity="0.25"></line><line x1="875.0353329976399" y1="0" x2="875.0353329976399" y2="377.95999908447266" fill="rgb(0, 0, 0)" stroke="rgb(60, 60, 60)" stroke-width="1px" opacity="0.25"></line><line x1="954.5839996337891" y1="0" x2="954.5839996337891" y2="377.95999908447266" fill="rgb(0, 0, 0)" stroke="rgb(60, 60, 60)" stroke-width="1px" opacity="0.25"></line></g><g><line x1="0" y1="377.95999908447266" x2="954.5839996337891" y2="377.95999908447266" fill="rgb(0, 0, 0)" stroke="rgb(60, 60, 60)" stroke-width="1px" opacity="0.25"></line><line x1="0" y1="330.7149991989136" x2="954.5839996337891" y2="330.7149991989136" fill="rgb(0, 0, 0)" stroke="rgb(60, 60, 60)" stroke-width="1px" opacity="0.25"></line><line x1="0" y1="283.4699993133545" x2="954.5839996337891" y2="283.4699993133545" fill="rgb(0, 0, 0)" stroke="rgb(60, 60, 60)" stroke-width="1px" opacity="0.25"></line><line x1="0" y1="236.2249994277954" x2="954.5839996337891" y2="236.2249994277954" fill="rgb(0, 0, 0)" stroke="rgb(60, 60, 60)" stroke-width="1px" opacity="0.25"></line><line x1="0" y1="188.97999954223633" x2="954.5839996337891" y2="188.97999954223633" fill="rgb(0, 0, 0)" stroke="rgb(60, 60, 60)" stroke-width="1px" opacity="0.25"></line><line x1="0" y1="141.73499965667725" x2="954.5839996337891" y2="141.73499965667725" fill="rgb(0, 0, 0)" stroke="rgb(60, 60, 60)" stroke-width="1px" opacity="0.25"></line><line x1="0" y1="94.48999977111816" x2="954.5839996337891" y2="94.48999977111816" fill="rgb(0, 0, 0)" stroke="rgb(60, 60, 60)" stroke-width="1px" opacity="0.25"></line><line x1="0" y1="47.24499988555908" x2="954.5839996337891" y2="47.24499988555908" fill="rgb(0, 0, 0)" stroke="rgb(60, 60, 60)" stroke-width="1px" opacity="0.25"></line><line x1="0" y1="0" x2="954.5839996337891" y2="0" fill="rgb(0, 0, 0)" stroke="rgb(60, 60, 60)" stroke-width="1px" opacity="0.25"></line></g></g></g><g><g><line x1="0" y1="330.7149991989136" x2="954.5839996337891" y2="330.7149991989136" fill="rgb(0, 0, 0)" stroke="rgb(153, 153, 153)" stroke-width="1.5px"></line></g></g><g><g><line x1="79.54866663614908" y1="0" x2="79.54866663614908" y2="377.95999908447266" fill="rgb(0, 0, 0)" stroke="rgb(153, 153, 153)" stroke-width="1.5px"></line></g></g><g><g><g><g><g><path style="fill: none;" stroke="rgb(0, 119, 187)" stroke-width="2px" d="M79.54866663614908,216.95502106446725L95.45839996337891,242.81624678445678L111.36813329060872,239.6214760978204L127.27786661783854,237.8384220131893L143.18759994506834,229.45392094225713L159.09733327229816,206.20310203671852L175.00706659952797,212.2885018308616L190.91679992675782,207.70655335300967L206.82653325398763,204.4708095544854L222.73626658121745,196.45191817857904L238.64599990844727,192.69759840064762L254.55573323567708,179.29843899807042L270.4654665629069,166.60695704634327L286.3751998901367,173.2085898900591L302.28493321736653,167.95672117676554L318.1946665445963,158.378677580572L334.10439987182616,149.39328259162744L350.01413319905595,135.8614998435196L365.92386652628585,134.87246805899667L381.83359985351564,119.75221267541428L397.7433331807455,118.10873750925975L413.65306650797527,118.22710052224056L429.5627998352051,92.63631423683955L445.4725331624349,125.25773733554024L461.38226648966474,96.75200841355763L477.29199981689453,118.06733073007081L493.2017331441244,107.44484731158764L509.11146647135416,106.78981819749742L525.021199798584,86.43550262018016L540.9309331258138,89.54932395462902L556.8406664530437,66.3818480194982L572.7503997802734,46.92564052659145L588.6601331075033,45.31055085650769L604.5698664347331,30.33510655922919L620.479599761963,60.96096169964039L636.3893330891926,14.399826987671986L652.2990664164225,39.48185957643318L668.2087997436523,33.30618939915075L684.1185330708822,41.01636597711604L700.0282663981119,43.67523088843063L715.9379997253418,25.572651107355796L731.8477330525717,21.364388674006932L747.7574663798014,27.263683243514606L763.6671997070313,19.423181193510118L779.5769330342611,3.9455163693223767L795.486666361491,-7.655297952228466L811.3963996887206,15.947287086958568L827.3061330159505,14.978125149685184L843.2158663431803,-0.23379736366860016" fill="none"></path></g><g><path style="fill: none;" stroke="rgb(51, 187, 238)" stroke-width="2px" d="M79.54866663614908,296.78597907476717L95.45839996337891,302.32293053411433L111.36813329060872,304.0480196335152L127.27786661783854,304.5001712992996L143.18759994506834,305.0693793441187L159.09733327229816,305.07760212671064L175.00706659952797,304.7480177939104L190.91679992675782,303.41832908030244L206.82653325398763,304.28553132945734L222.73626658121745,304.26144871414016L238.64599990844727,303.77242687969954L254.55573323567708,302.4134656232686L270.4654665629069,302.10253743247915L286.3751998901367,300.5693827220854L302.28493321736653,299.6022933765886L318.1946665445963,299.27881136223925L334.10439987182616,298.70958078924866L350.01413319905595,298.6672954113718L365.92386652628585,298.099582673935L381.83359985351564,297.029319935081L397.7433331807455,296.5805643911479L413.65306650797527,294.7812984711121L429.5627998352051,294.8090306502098L445.4725331624349,292.7810193089609L461.38226648966474,291.2367694741109L477.29199981689453,292.57663528918704L493.2017331441244,291.1636880858144L509.11146647135416,291.9089932150868L525.021199798584,289.5240229966622L540.9309331258138,289.87639175889785L556.8406664530437,288.8590420628186L572.7503997802734,286.05184603840564L588.6601331075033,288.0687678872412L604.5698664347331,287.3915907645601L620.479599761963,285.74585151717133L636.3893330891926,283.84418942569454L652.2990664164225,283.5574508590368L668.2087997436523,282.4508867878566L684.1185330708822,283.360934803154L700.0282663981119,282.1704335810431L715.9379997253418,280.607299506446L731.8477330525717,280.08133428679184L747.7574663798014,279.92672907793497L763.6671997070313,277.3266345339812L779.5769330342611,277.27970835277847L795.486666361491,277.94499904898L811.3963996887206,276.85232077949865L827.3061330159505,274.43166875346367L843.2158663431803,274.3871249263955L859.1255996704102,274.87070902344396" fill="none"></path></g><g><path style="fill: none;" stroke="rgb(0, 153, 136)" stroke-width="2px" d="M79.54866663614908,249.94316900268223L95.45839996337891,276.6531435833592L111.36813329060872,284.64601492120073L127.27786661783854,288.9813756660236L143.18759994506834,291.9412986129959L159.09733327229816,294.0535906597907L175.00706659952797,295.6843796493779L190.91679992675782,297.09258748867444L206.82653325398763,298.1935279650478L222.73626658121745,299.14821555214223L238.64599990844727,299.91542932818356L254.55573323567708,300.7042588847645L270.4654665629069,301.2876512295547L286.3751998901367,301.8774556551537L302.28493321736653,302.36556791467063L318.1946665445963,302.73192385537686L334.10439987182616,303.227000135904L350.01413319905595,303.4968763662054L365.92386652628585,303.8289078216332L381.83359985351564,304.17124309949384L397.7433331807455,304.5623997409833L413.65306650797527,304.76575309691174L429.5627998352051,305.0564031173435L445.4725331624349,305.32641733269526L461.38226648966474,305.39130409861417L477.29199981689453,305.54010830331373L493.2017331441244,305.7479137891318L509.11146647135416,305.9005505990052L525.021199798584,305.9516191477397L540.9309331258138,306.1091333067395L556.8406664530437,306.22400163711876L572.7503997802734,306.39390910645665L588.6601331075033,306.5180336992947L604.5698664347331,306.6555372099732L620.479599761963,306.7512706746976L636.3893330891926,306.8092272118635L652.2990664164225,306.8232312864627L668.2087997436523,306.8389418700519L684.1185330708822,306.95628829929444L700.0282663981119,306.9575583249619L715.9379997253418,307.0682842878094L731.8477330525717,307.17093108515814L747.7574663798014,307.1775107192424L763.6671997070313,307.13182077144995L779.5769330342611,307.1531253816209L795.486666361491,307.11149895276L811.3963996887206,307.3133640413597L827.3061330159505,307.2695650519612L843.2158663431803,307.31654192154974L859.1255996704102,307.28730880302686" fill="none"></path></g><g><path style="fill: none;" stroke="rgb(255, 112, 67)" stroke-width="2px" d="M79.54866663614908,91.36263900560698L95.45839996337891,122.06008867499668L111.36813329060872,148.3010154612757L127.27786661783854,170.35125178796397L143.18759994506834,188.60152626129275L159.09733327229816,203.5609530286456L175.00706659952797,215.76813561387962L190.91679992675782,225.740118080741L206.82653325398763,233.91790065012924L222.73626658121745,240.69358051469328L238.64599990844727,246.34166344397465L254.55573323567708,251.09857133361993L270.4654665629069,255.16773920417916L286.3751998901367,258.6524868821242L302.28493321736653,261.68213170382035L318.1946665445963,264.3265842174276L334.10439987182616,266.6552368231618L350.01413319905595,268.72740619654223L365.92386652628585,270.5797513046175L381.83359985351564,272.244825355183L397.7433331807455,273.75264150469934L413.65306650797527,275.1134669673206L429.5627998352051,276.3515533196502L445.4725331624349,277.4926052053521L461.38226648966474,278.53362074557606L477.29199981689453,279.50358806498L493.2017331441244,280.40505284694177L509.11146647135416,281.24836678625854L525.021199798584,282.0271656744859L540.9309331258138,282.74553274270545L556.8406664530437,283.44985349600427L572.7503997802734,284.1004614564406L588.6601331075033,284.7211604532095L604.5698664347331,285.2985631204062L620.479599761963,285.84444324365285L636.3893330891926,286.38098262379765L652.2990664164225,286.8661521409144L668.2087997436523,287.33628410356505L684.1185330708822,287.79558001573156L700.0282663981119,288.2281603325386L715.9379997253418,288.6449455851134L731.8477330525717,289.0409288873435L747.7574663798014,289.4125113638342L763.6671997070313,289.77048964076954L779.5769330342611,290.1285017099621L795.486666361491,290.4550588197191L811.3963996887206,290.7849050425129L827.3061330159505,291.1002825471706L843.2158663431803,291.40759496643676L859.1255996704102,291.70547089787226" fill="none"></path></g><g><path style="fill: none;" stroke="rgb(255, 112, 67)" stroke-width="2px" d="M79.54866663614908,183.82505828675585L95.45839996337891,270.13622792851174L111.36813329060872,287.63355740641333L127.27786661783854,297.0248171168055L143.18759994506834,296.3414729071804L159.09733327229816,286.3201678248746L175.00706659952797,295.33452841030567L190.91679992675782,297.84597741548845L206.82653325398763,305.1024028274939L222.73626658121745,305.649837394573L238.64599990844727,304.71788073250667L254.55573323567708,306.0764561940009L270.4654665629069,302.3686739863141L286.3751998901367,295.2402142203848L302.28493321736653,296.8123145072328L318.1946665445963,294.7922330823465L334.10439987182616,299.748853212204L350.01413319905595,298.87622167372126L365.92386652628585,300.65858864912207L381.83359985351564,304.4927257386239L397.7433331807455,297.99077442168516L413.65306650797527,294.48752548290827L429.5627998352051,295.1451650488693L445.4725331624349,296.027939896563L461.38226648966474,302.2581226167956L477.29199981689453,300.4376830315856L493.2017331441244,300.378357908002L509.11146647135416,301.15755948729463L525.021199798584,298.4001000334771L540.9309331258138,297.54332269567675L556.8406664530437,294.1628213152559L572.7503997802734,295.1389106652608L588.6601331075033,293.151511985156L604.5698664347331,296.06240799893465L620.479599761963,304.0180121090975L636.3893330891926,287.8018963518116L652.2990664164225,291.0797115105836L668.2087997436523,292.4665682753555L684.1185330708822,298.1413414558034L700.0282663981119,293.25372229918224L715.9379997253418,304.76271742580417L731.8477330525717,295.19809498777266L747.7574663798014,298.60158073515083L763.6671997070313,301.4802051432776L779.5769330342611,298.1232794943155L795.486666361491,294.6464448366045L811.3963996887206,298.47134537579757L827.3061330159505,301.87824132513424L843.2158663431803,298.30399766994464L859.1255996704102,292.01345916228297" fill="none"></path></g><g><path style="fill: none;" stroke="rgb(204, 51, 17)" stroke-width="2px" d="M79.54866663614908,271.8138783308086L95.45839996337891,305.97002747986414L111.36813329060872,313.5703665497449L127.27786661783854,317.345653015275L143.18759994506834,319.1132774144551L159.09733327229816,320.47774047276584L175.00706659952797,321.51280575969633L190.91679992675782,321.7934758001604L206.82653325398763,322.3349671539997L222.73626658121745,322.7380911825851L238.64599990844727,323.21594819603894L254.55573323567708,323.66893058814685L270.4654665629069,323.5826688115211L286.3751998901367,324.1926176464596L302.28493321736653,323.73224531009936L318.1946665445963,324.07623922458555L334.10439987182616,324.4860780562841L350.01413319905595,324.50631821035245L365.92386652628585,324.3910880212187L381.83359985351564,324.3988081439844L397.7433331807455,324.7477772643419L413.65306650797527,324.89582607129137L429.5627998352051,325.01766511073174L445.4725331624349,324.2259959485357L461.38226648966474,324.3185916613755L477.29199981689453,325.1158632982176L493.2017331441244,324.71749728985037L509.11146647135416,324.86769507315785L525.021199798584,325.13761706380757L540.9309331258138,325.20801267165984L556.8406664530437,324.4921895268047L572.7503997802734,325.29721930270193L588.6601331075033,325.4097830715388L604.5698664347331,324.98288090995396L620.479599761963,325.1045302199501L636.3893330891926,325.0792588915844L652.2990664164225,325.30798178462607L668.2087997436523,324.31981170266243L684.1185330708822,324.94038609048283L700.0282663981119,325.2291191043223L715.9379997253418,325.13873819234163L731.8477330525717,325.5525521902992L747.7574663798014,325.1948738196468L763.6671997070313,324.6091072167837L779.5769330342611,324.6489032317115L795.486666361491,324.23916436877386L811.3963996887206,324.30187998216593L827.3061330159505,325.823303147259L843.2158663431803,324.9019509179138L859.1255996704102,324.831550382024" fill="none"></path></g><g><path style="fill: none;" stroke="rgb(238, 51, 119)" stroke-width="2px" d="M79.54866663614908,175.22447825902782L95.45839996337891,265.77497668261003L111.36813329060872,281.81964742285425L127.27786661783854,288.68787019985615L143.18759994506834,293.2362263580029L159.09733327229816,296.58646114003403L175.00706659952797,299.2450331851193L190.91679992675782,301.56481813935284L206.82653325398763,303.51718832882034L222.73626658121745,305.1312980234445L238.64599990844727,306.3493286711098L254.55573323567708,307.30639298029587L270.4654665629069,308.7823528873221L286.3751998901367,309.74617705596427L302.28493321736653,310.6804836879186L318.1946665445963,311.30898306406414L334.10439987182616,312.0286173419297L350.01413319905595,312.70628867637276L365.92386652628585,313.34028492636054L381.83359985351564,313.78852795439235L397.7433331807455,314.609569980175L413.65306650797527,315.2227417516466L429.5627998352051,315.4332041536892L445.4725331624349,316.21569907005073L461.38226648966474,316.4105677533937L477.29199981689453,317.0225244116158L493.2017331441244,317.09279963455174L509.11146647135416,317.53905032741784L525.021199798584,317.80255390121056L540.9309331258138,318.15335273149583L556.8406664530437,318.28728975102615L572.7503997802734,318.4929283083496L588.6601331075033,318.9111039715082L604.5698664347331,319.5463265988312L620.479599761963,319.4742132179032L636.3893330891926,319.55613691350743L652.2990664164225,319.91430738390574L668.2087997436523,320.1962185858175L684.1185330708822,320.33228451755315L700.0282663981119,320.667154522588L715.9379997253418,320.50516711353777L731.8477330525717,320.99487605720867L747.7574663798014,321.090350447961L763.6671997070313,321.2108867254847L779.5769330342611,321.24256485461905L795.486666361491,321.3032958769044L811.3963996887206,321.53958753155956L827.3061330159505,321.76071350277334L843.2158663431803,322.03669134752033L859.1255996704102,321.9310067670479" fill="none"></path></g><g><path style="fill: none;" stroke="rgb(187, 187, 187)" stroke-width="2px" d="M79.54866663614908,72.5321514756888L95.45839996337891,105.58377253706203L111.36813329060872,134.14692576815924L127.27786661783854,158.11182012524955L143.18759994506834,178.23397163133086L159.09733327229816,194.91076596730818L175.00706659952797,208.64402941708977L190.91679992675782,219.78210383225837L206.82653325398763,229.08807470143074L222.73626658121745,236.60717296090536L238.64599990844727,242.833069696513L254.55573323567708,248.31978896549208L270.4654665629069,252.97721244986076L286.3751998901367,256.7574058327424L302.28493321736653,259.91078663631845L318.1946665445963,263.23734712614055L334.10439987182616,265.7875361382128L350.01413319905595,268.02800784871283L365.92386652628585,270.1982479846092L381.83359985351564,272.0908565671706L397.7433331807455,273.7496227297204L413.65306650797527,275.4169439653915L429.5627998352051,276.5123819358797L445.4725331624349,278.2723502767818L461.38226648966474,279.3421117638203L477.29199981689453,280.47333010266914L493.2017331441244,281.2604531502601L509.11146647135416,282.53161649037213L525.021199798584,283.38319263658093L540.9309331258138,284.18892958586116L556.8406664530437,284.97323661201654L572.7503997802734,285.9748982526781L588.6601331075033,286.35534838066945L604.5698664347331,287.3439211536984L620.479599761963,288.02997155992307L636.3893330891926,288.5081939521582L652.2990664164225,289.31778603478375L668.2087997436523,289.8236871017093L684.1185330708822,290.4088056676395L700.0282663981119,290.92653965663743L715.9379997253418,291.3872266833931L731.8477330525717,292.07909498990375L747.7574663798014,292.3841912003001L763.6671997070313,292.928837906158L779.5769330342611,293.2165423681681L795.486666361491,293.84619912912365L811.3963996887206,294.21184824844954L827.3061330159505,294.617653833447L843.2158663431803,294.96188429373376L859.1255996704102,295.4145850836981" fill="none"></path></g></g></g></g></g></g><g transform="translate(51, 377)" clip-path="url(#clip_1)"><clipPath id="clip_1"><rect width="954" height="22"></rect></clipPath><g><g><line x1="0" y1="0" x2="0" y2="5" style="visibility: inherit;" fill="rgb(0, 0, 0)" stroke="rgb(204, 204, 204)" stroke-width="1px"></line><line x1="79.54866663614908" y1="0" x2="79.54866663614908" y2="5" style="visibility: inherit;" fill="rgb(0, 0, 0)" stroke="rgb(204, 204, 204)" stroke-width="1px"></line><line x1="159.09733327229816" y1="0" x2="159.09733327229816" y2="5" style="visibility: inherit;" fill="rgb(0, 0, 0)" stroke="rgb(204, 204, 204)" stroke-width="1px"></line><line x1="238.64599990844727" y1="0" x2="238.64599990844727" y2="5" style="visibility: inherit;" fill="rgb(0, 0, 0)" stroke="rgb(204, 204, 204)" stroke-width="1px"></line><line x1="318.1946665445963" y1="0" x2="318.1946665445963" y2="5" style="visibility: inherit;" fill="rgb(0, 0, 0)" stroke="rgb(204, 204, 204)" stroke-width="1px"></line><line x1="397.7433331807455" y1="0" x2="397.7433331807455" y2="5" style="visibility: inherit;" fill="rgb(0, 0, 0)" stroke="rgb(204, 204, 204)" stroke-width="1px"></line><line x1="477.29199981689453" y1="0" x2="477.29199981689453" y2="5" style="visibility: inherit;" fill="rgb(0, 0, 0)" stroke="rgb(204, 204, 204)" stroke-width="1px"></line><line x1="556.8406664530437" y1="0" x2="556.8406664530437" y2="5" style="visibility: inherit;" fill="rgb(0, 0, 0)" stroke="rgb(204, 204, 204)" stroke-width="1px"></line><line x1="636.3893330891926" y1="0" x2="636.3893330891926" y2="5" style="visibility: inherit;" fill="rgb(0, 0, 0)" stroke="rgb(204, 204, 204)" stroke-width="1px"></line><line x1="715.9379997253418" y1="0" x2="715.9379997253418" y2="5" style="visibility: inherit;" fill="rgb(0, 0, 0)" stroke="rgb(204, 204, 204)" stroke-width="1px"></line><line x1="795.486666361491" y1="0" x2="795.486666361491" y2="5" style="visibility: inherit;" fill="rgb(0, 0, 0)" stroke="rgb(204, 204, 204)" stroke-width="1px"></line><line x1="875.0353329976399" y1="0" x2="875.0353329976399" y2="5" style="visibility: inherit;" fill="rgb(0, 0, 0)" stroke="rgb(204, 204, 204)" stroke-width="1px"></line><line x1="954.5839996337891" y1="0" x2="954.5839996337891" y2="5" style="visibility: inherit;" fill="rgb(0, 0, 0)" stroke="rgb(204, 204, 204)" stroke-width="1px"></line></g><g transform="translate(0, 8)"><text style="text-anchor: middle; visibility: hidden; font-family: Roboto, sans-serif; font-size: 12px; font-weight: 200;" x="0" y="0" dx="0em" dy="0.95em" fill="rgb(50, 49, 63)" stroke="none" stroke-width="1px">-5</text><text style="text-anchor: middle; visibility: inherit; font-family: Roboto, sans-serif; font-size: 12px; font-weight: 200;" x="79.54866663614908" y="0" dx="0em" dy="0.95em" fill="rgb(50, 49, 63)" stroke="none" stroke-width="1px">0</text><text style="text-anchor: middle; visibility: inherit; font-family: Roboto, sans-serif; font-size: 12px; font-weight: 200;" x="159.09733327229816" y="0" dx="0em" dy="0.95em" fill="rgb(50, 49, 63)" stroke="none" stroke-width="1px">5</text><text style="text-anchor: middle; visibility: inherit; font-family: Roboto, sans-serif; font-size: 12px; font-weight: 200;" x="238.64599990844727" y="0" dx="0em" dy="0.95em" fill="rgb(50, 49, 63)" stroke="none" stroke-width="1px">10</text><text style="text-anchor: middle; visibility: inherit; font-family: Roboto, sans-serif; font-size: 12px; font-weight: 200;" x="318.1946665445963" y="0" dx="0em" dy="0.95em" fill="rgb(50, 49, 63)" stroke="none" stroke-width="1px">15</text><text style="text-anchor: middle; visibility: inherit; font-family: Roboto, sans-serif; font-size: 12px; font-weight: 200;" x="397.7433331807455" y="0" dx="0em" dy="0.95em" fill="rgb(50, 49, 63)" stroke="none" stroke-width="1px">20</text><text style="text-anchor: middle; visibility: inherit; font-family: Roboto, sans-serif; font-size: 12px; font-weight: 200;" x="477.29199981689453" y="0" dx="0em" dy="0.95em" fill="rgb(50, 49, 63)" stroke="none" stroke-width="1px">25</text><text style="text-anchor: middle; visibility: inherit; font-family: Roboto, sans-serif; font-size: 12px; font-weight: 200;" x="556.8406664530437" y="0" dx="0em" dy="0.95em" fill="rgb(50, 49, 63)" stroke="none" stroke-width="1px">30</text><text style="text-anchor: middle; visibility: inherit; font-family: Roboto, sans-serif; font-size: 12px; font-weight: 200;" x="636.3893330891926" y="0" dx="0em" dy="0.95em" fill="rgb(50, 49, 63)" stroke="none" stroke-width="1px">35</text><text style="text-anchor: middle; visibility: inherit; font-family: Roboto, sans-serif; font-size: 12px; font-weight: 200;" x="715.9379997253418" y="0" dx="0em" dy="0.95em" fill="rgb(50, 49, 63)" stroke="none" stroke-width="1px">40</text><text style="text-anchor: middle; visibility: inherit; font-family: Roboto, sans-serif; font-size: 12px; font-weight: 200;" x="795.486666361491" y="0" dx="0em" dy="0.95em" fill="rgb(50, 49, 63)" stroke="none" stroke-width="1px">45</text><text style="text-anchor: middle; visibility: inherit; font-family: Roboto, sans-serif; font-size: 12px; font-weight: 200;" x="875.0353329976399" y="0" dx="0em" dy="0.95em" fill="rgb(50, 49, 63)" stroke="none" stroke-width="1px">50</text><text style="text-anchor: middle; visibility: hidden; font-family: Roboto, sans-serif; font-size: 12px; font-weight: 200;" x="954.5839996337891" y="0" dx="0em" dy="0.95em" fill="rgb(50, 49, 63)" stroke="none" stroke-width="1px">55</text></g><line x1="0" y1="0" x2="954.5839996337891" y2="0" fill="rgb(0, 0, 0)" stroke="rgb(204, 204, 204)" stroke-width="1px"></line></g></g></g></g></svg>