<svg viewBox="0 0 1006 400" xmlns="http://www.w3.org/2000/svg"><g><g><g><g><g><line x1="51.41600036621094" y1="377.95999908447266" x2="46.41600036621094" y2="377.95999908447266" style="visibility: inherit;" fill="rgb(0, 0, 0)" stroke="rgb(204, 204, 204)" stroke-width="1px"></line><line x1="51.41600036621094" y1="323.9657135009766" x2="46.41600036621094" y2="323.9657135009766" style="visibility: inherit;" fill="rgb(0, 0, 0)" stroke="rgb(204, 204, 204)" stroke-width="1px"></line><line x1="51.41600036621094" y1="269.9714279174805" x2="46.41600036621094" y2="269.9714279174805" style="visibility: inherit;" fill="rgb(0, 0, 0)" stroke="rgb(204, 204, 204)" stroke-width="1px"></line><line x1="51.41600036621094" y1="215.97714233398438" x2="46.41600036621094" y2="215.97714233398438" style="visibility: inherit;" fill="rgb(0, 0, 0)" stroke="rgb(204, 204, 204)" stroke-width="1px"></line><line x1="51.41600036621094" y1="161.98285675048834" x2="46.41600036621094" y2="161.98285675048834" style="visibility: inherit;" fill="rgb(0, 0, 0)" stroke="rgb(204, 204, 204)" stroke-width="1px"></line><line x1="51.41600036621094" y1="107.98857116699219" x2="46.41600036621094" y2="107.98857116699219" style="visibility: inherit;" fill="rgb(0, 0, 0)" stroke="rgb(204, 204, 204)" stroke-width="1px"></line><line x1="51.41600036621094" y1="53.99428558349615" x2="46.41600036621094" y2="53.99428558349615" style="visibility: inherit;" fill="rgb(0, 0, 0)" stroke="rgb(204, 204, 204)" stroke-width="1px"></line><line x1="51.41600036621094" y1="0" x2="46.41600036621094" y2="0" style="visibility: inherit;" fill="rgb(0, 0, 0)" stroke="rgb(204, 204, 204)" stroke-width="1px"></line></g><g transform="translate(41.41600036621094, 0)"><text style="text-anchor: end; visibility: hidden; font-family: Roboto, sans-serif; font-size: 12px; font-weight: 200;" x="0" y="377.95999908447266" dx="0em" dy="0.3em" fill="rgb(50, 49, 63)" stroke="none" stroke-width="1px">0.65</text><text style="text-anchor: end; visibility: inherit; font-family: Roboto, sans-serif; font-size: 12px; font-weight: 200;" x="0" y="323.9657135009766" dx="0em" dy="0.3em" fill="rgb(50, 49, 63)" stroke="none" stroke-width="1px">0.7</text><text style="text-anchor: end; visibility: inherit; font-family: Roboto, sans-serif; font-size: 12px; font-weight: 200;" x="0" y="269.9714279174805" dx="0em" dy="0.3em" fill="rgb(50, 49, 63)" stroke="none" stroke-width="1px">0.75</text><text style="text-anchor: end; visibility: inherit; font-family: Roboto, sans-serif; font-size: 12px; font-weight: 200;" x="0" y="215.97714233398438" dx="0em" dy="0.3em" fill="rgb(50, 49, 63)" stroke="none" stroke-width="1px">0.8</text><text style="text-anchor: end; visibility: inherit; font-family: Roboto, sans-serif; font-size: 12px; font-weight: 200;" x="0" y="161.98285675048834" dx="0em" dy="0.3em" fill="rgb(50, 49, 63)" stroke="none" stroke-width="1px">0.85</text><text style="text-anchor: end; visibility: inherit; font-family: Roboto, sans-serif; font-size: 12px; font-weight: 200;" x="0" y="107.98857116699219" dx="0em" dy="0.3em" fill="rgb(50, 49, 63)" stroke="none" stroke-width="1px">0.9</text><text style="text-anchor: end; visibility: inherit; font-family: Roboto, sans-serif; font-size: 12px; font-weight: 200;" x="0" y="53.99428558349615" dx="0em" dy="0.3em" fill="rgb(50, 49, 63)" stroke="none" stroke-width="1px">0.95</text><text style="text-anchor: end; visibility: hidden; font-family: Roboto, sans-serif; font-size: 12px; font-weight: 200;" x="0" y="0" dx="0em" dy="0.3em" fill="rgb(50, 49, 63)" stroke="none" stroke-width="1px">1</text></g><line x1="51.41600036621094" y1="0" x2="51.41600036621094" y2="377.95999908447266" fill="rgb(0, 0, 0)" stroke="rgb(204, 204, 204)" stroke-width="1px"></line></g></g><g transform="translate(51, 0)" clip-path="url(#clip_0)"><clipPath id="clip_0"><rect width="954" height="377"></rect></clipPath><g><g><g><line x1="0" y1="0" x2="0" y2="377.95999908447266" fill="rgb(0, 0, 0)" stroke="rgb(60, 60, 60)" stroke-width="1px" opacity="0.25"></line><line x1="79.54866663614908" y1="0" x2="79.54866663614908" y2="377.95999908447266" fill="rgb(0, 0, 0)" stroke="rgb(60, 60, 60)" stroke-width="1px" opacity="0.25"></line><line x1="159.09733327229816" y1="0" x2="159.09733327229816" y2="377.95999908447266" fill="rgb(0, 0, 0)" stroke="rgb(60, 60, 60)" stroke-width="1px" opacity="0.25"></line><line x1="238.64599990844727" y1="0" x2="238.64599990844727" y2="377.95999908447266" fill="rgb(0, 0, 0)" stroke="rgb(60, 60, 60)" stroke-width="1px" opacity="0.25"></line><line x1="318.1946665445963" y1="0" x2="318.1946665445963" y2="377.95999908447266" fill="rgb(0, 0, 0)" stroke="rgb(60, 60, 60)" stroke-width="1px" opacity="0.25"></line><line x1="397.7433331807455" y1="0" x2="397.7433331807455" y2="377.95999908447266" fill="rgb(0, 0, 0)" stroke="rgb(60, 60, 60)" stroke-width="1px" opacity="0.25"></line><line x1="477.29199981689453" y1="0" x2="477.29199981689453" y2="377.95999908447266" fill="rgb(0, 0, 0)" stroke="rgb(60, 60, 60)" stroke-width="1px" opacity="0.25"></line><line x1="556.8406664530437" y1="0" x2="556.8406664530437" y2="377.95999908447266" fill="rgb(0, 0, 0)" stroke="rgb(60, 60, 60)" stroke-width="1px" opacity="0.25"></line><line x1="636.3893330891926" y1="0" x2="636.3893330891926" y2="377.95999908447266" fill="rgb(0, 0, 0)" stroke="rgb(60, 60, 60)" stroke-width="1px" opacity="0.25"></line><line x1="715.9379997253418" y1="0" x2="715.9379997253418" y2="377.95999908447266" fill="rgb(0, 0, 0)" stroke="rgb(60, 60, 60)" stroke-width="1px" opacity="0.25"></line><line x1="795.486666361491" y1="0" x2="795.486666361491" y2="377.95999908447266" fill="rgb(0, 0, 0)" stroke="rgb(60, 60, 60)" stroke-width="1px" opacity="0.25"></line><line x1="875.0353329976399" y1="0" x2="875.0353329976399" y2="377.95999908447266" fill="rgb(0, 0, 0)" stroke="rgb(60, 60, 60)" stroke-width="1px" opacity="0.25"></line><line x1="954.5839996337891" y1="0" x2="954.5839996337891" y2="377.95999908447266" fill="rgb(0, 0, 0)" stroke="rgb(60, 60, 60)" stroke-width="1px" opacity="0.25"></line></g><g><line x1="0" y1="377.95999908447266" x2="954.5839996337891" y2="377.95999908447266" fill="rgb(0, 0, 0)" stroke="rgb(60, 60, 60)" stroke-width="1px" opacity="0.25"></line><line x1="0" y1="323.9657135009766" x2="954.5839996337891" y2="323.9657135009766" fill="rgb(0, 0, 0)" stroke="rgb(60, 60, 60)" stroke-width="1px" opacity="0.25"></line><line x1="0" y1="269.9714279174805" x2="954.5839996337891" y2="269.9714279174805" fill="rgb(0, 0, 0)" stroke="rgb(60, 60, 60)" stroke-width="1px" opacity="0.25"></line><line x1="0" y1="215.97714233398438" x2="954.5839996337891" y2="215.97714233398438" fill="rgb(0, 0, 0)" stroke="rgb(60, 60, 60)" stroke-width="1px" opacity="0.25"></line><line x1="0" y1="161.98285675048834" x2="954.5839996337891" y2="161.98285675048834" fill="rgb(0, 0, 0)" stroke="rgb(60, 60, 60)" stroke-width="1px" opacity="0.25"></line><line x1="0" y1="107.98857116699219" x2="954.5839996337891" y2="107.98857116699219" fill="rgb(0, 0, 0)" stroke="rgb(60, 60, 60)" stroke-width="1px" opacity="0.25"></line><line x1="0" y1="53.99428558349615" x2="954.5839996337891" y2="53.99428558349615" fill="rgb(0, 0, 0)" stroke="rgb(60, 60, 60)" stroke-width="1px" opacity="0.25"></line><line x1="0" y1="0" x2="954.5839996337891" y2="0" fill="rgb(0, 0, 0)" stroke="rgb(60, 60, 60)" stroke-width="1px" opacity="0.25"></line></g></g></g><g><g><line x1="0" y1="1079.885711669922" x2="954.5839996337891" y2="1079.885711669922" fill="rgb(0, 0, 0)" stroke="rgb(153, 153, 153)" stroke-width="1.5px"></line></g></g><g><g><line x1="79.54866663614908" y1="0" x2="79.54866663614908" y2="377.95999908447266" fill="rgb(0, 0, 0)" stroke="rgb(153, 153, 153)" stroke-width="1.5px"></line></g></g><g><g><g><g><g><path style="fill: none;" stroke="rgb(0, 119, 187)" stroke-width="2px" d="M79.54866663614908,207.14125877340848L95.45839996337891,179.09915640227157L111.36813329060872,176.9827312405869L127.27786661783854,170.8981295873764L143.18759994506834,160.58074197700083L159.09733327229816,181.74460739662211L175.00706659952797,154.23159522435526L190.91679992675782,170.63358448794133L206.82653325398763,158.1998360820853L222.73626658121745,165.60716323247107L238.64599990844727,162.4325576730462L254.55573323567708,171.4272197862465L270.4654665629069,171.9563099851166L286.3751998901367,157.40620078378018L302.28493321736653,154.76068542322537L318.1946665445963,158.46438118152037L334.10439987182616,165.342618133036L350.01413319905595,173.80819004736625L365.92386652628585,157.40620078378018L381.83359985351564,170.10449428907123L397.7433331807455,162.96171223812053L413.65306650797527,162.96171223812053L429.5627998352051,172.4854001839867L445.4725331624349,152.64432462774496L461.38226648966474,162.6971671386855L477.29199981689453,147.88244847170972L493.2017331441244,153.70250502548515L509.11146647135416,148.41153867057983L525.021199798584,151.32153476436542L540.9309331258138,154.76068542322537L556.8406664530437,158.46438118152037L572.7503997802734,162.96171223812053L588.6601331075033,161.10983217587093L604.5698664347331,160.58074197700083L620.479599761963,149.7342641677551L636.3893330891926,165.078073033601L652.2990664164225,149.20517396888502L668.2087997436523,151.85068932943977L684.1185330708822,149.46971906832005L700.0282663981119,143.9142076139797L715.9379997253418,148.41153867057983L731.8477330525717,152.64432462774496L747.7574663798014,145.50147821059L763.6671997070313,145.23693311115497L779.5769330342611,149.20517396888502L795.486666361491,148.1469935711448L811.3963996887206,139.15233145794446L827.3061330159505,138.8877863585094L843.2158663431803,149.20517396888502L859.1255996704102,152.64432462774496" fill="none"></path></g><g><path style="fill: none;" stroke="rgb(51, 187, 238)" stroke-width="2px" d="M79.54866663614908,188.62284434813773L95.45839996337891,161.37437727530596L111.36813329060872,153.70250502548515L127.27786661783854,150.79244456549532L143.18759994506834,144.17875271341472L159.09733327229816,144.17875271341472L175.00706659952797,141.5333017190642L190.91679992675782,141.79784681849924L206.82653325398763,143.1205723156745L222.73626658121745,138.8877863585094L238.64599990844727,133.86136510303913L254.55573323567708,135.71324516528878L270.4654665629069,141.5333017190642L286.3751998901367,143.1205723156745L302.28493321736653,141.26875661962913L318.1946665445963,141.0042115201941L334.10439987182616,142.85602721623948L350.01413319905595,138.3586961596393L365.92386652628585,139.94596675624965L381.83359985351564,138.8877863585094L397.7433331807455,141.0042115201941L413.65306650797527,142.85602721623948L429.5627998352051,142.32693701736935L445.4725331624349,148.41153867057983L461.38226648966474,146.55972297453445L477.29199981689453,136.2423353641589L493.2017331441244,140.73966642075902L509.11146647135416,141.79784681849924L525.021199798584,143.3851174151096L540.9309331258138,138.09415106020427L556.8406664530437,141.0042115201941L572.7503997802734,143.9142076139797L588.6601331075033,142.32693701736935L604.5698664347331,139.41687655737954L620.479599761963,140.73966642075902L636.3893330891926,145.23693311115497L652.2990664164225,142.5914821168044L668.2087997436523,139.68142165681456L684.1185330708822,139.94596675624965L700.0282663981119,142.06239191793432L715.9379997253418,144.17875271341472L731.8477330525717,143.9142076139797L747.7574663798014,147.35335827283964L763.6671997070313,143.9142076139797L779.5769330342611,149.20517396888502L795.486666361491,147.61790337227467L811.3963996887206,147.61790337227467L827.3061330159505,146.03063277566434L843.2158663431803,141.5333017190642L859.1255996704102,144.70784291228486" fill="none"></path></g><g><path style="fill: none;" stroke="rgb(0, 153, 136)" stroke-width="2px" d="M79.54866663614908,278.0401178164539L95.45839996337891,228.83421439189988L111.36813329060872,211.37398036436934L127.27786661783854,201.58574731906813L143.18759994506834,195.50108129965338L159.09733327229816,185.9773933537872L175.00706659952797,181.48006229718703L190.91679992675782,175.66000574341163L206.82653325398763,170.63358448794133L222.73626658121745,168.25267859302585L238.64599990844727,166.40079853077626L254.55573323567708,162.96171223812053L270.4654665629069,160.31619687756574L286.3751998901367,158.1998360820853L302.28493321736653,157.6707458832152L318.1946665445963,157.1416556843451L334.10439987182616,154.23159522435526L350.01413319905595,153.17341482661504L365.92386652628585,152.64432462774496L381.83359985351564,151.58614423000475L397.7433331807455,146.03063277566434L413.65306650797527,147.08881317340456L429.5627998352051,146.55972297453445L445.4725331624349,145.23693311115497L461.38226648966474,143.9142076139797L477.29199981689453,143.64966251454462L493.2017331441244,143.3851174151096L509.11146647135416,142.32693701736935L525.021199798584,141.0042115201941L540.9309331258138,141.0042115201941L556.8406664530437,139.15233145794446L572.7503997802734,140.21051185568467L588.6601331075033,138.3586961596393L604.5698664347331,137.03597066246402L620.479599761963,137.03597066246402L636.3893330891926,135.9777902647238L652.2990664164225,136.50688046359392L668.2087997436523,134.39045530190924L684.1185330708822,135.4487000658537L700.0282663981119,135.18415496641865L715.9379997253418,133.33227490416903L731.8477330525717,133.06772980473397L747.7574663798014,133.33227490416903L763.6671997070313,134.65500040134432L779.5769330342611,134.12591020247422L795.486666361491,133.59682000360408L811.3963996887206,133.59682000360408L827.3061330159505,132.53863960586386L843.2158663431803,132.80318470529895L859.1255996704102,133.86136510303913" fill="none"></path></g><g><path style="fill: none;" stroke="rgb(255, 112, 67)" stroke-width="2px" d="M143.18759994506834,380.4202942557004L159.09733327229816,349.73267652400864L175.00706659952797,324.8651797122966L190.91679992675782,306.87591985210025L206.82653325398763,289.4157501907739L222.73626658121745,279.36290767983337L238.64599990844727,272.2200612626784L254.55573323567708,263.4900086151174L270.4654665629069,260.05085795625746L286.3751998901367,252.6435308058717L302.28493321736653,249.73347034588187L318.1946665445963,244.97159418984666L334.10439987182616,241.79705299662604L350.01413319905595,239.94523730058066L365.92386652628585,235.44790624398047L381.83359985351564,234.12511638060096L397.7433331807455,231.7442104856855L413.65306650797527,229.09875949133496L429.5627998352051,226.98233432965026L445.4725331624349,226.45324413078018L461.38226648966474,225.39506373303993L477.29199981689453,223.54324803699456L493.2017331441244,221.95591307418L509.11146647135416,220.3686424775697L525.021199798584,219.83955227869956L540.9309331258138,218.78137188095937L556.8406664530437,217.45858201757983L572.7503997802734,216.66494671927467L588.6601331075033,215.34222122209943L604.5698664347331,214.28404082435918L620.479599761963,212.9613153271839L636.3893330891926,212.16768002887878L652.2990664164225,211.37398036436934L668.2087997436523,208.72852937001883L684.1185330708822,208.46398427058375L700.0282663981119,208.46398427058375L715.9379997253418,206.87671367397346L731.8477330525717,205.81846891002897L747.7574663798014,204.23119831341864L763.6671997070313,203.70210811454854L779.5769330342611,203.4375630151135L795.486666361491,203.4375630151135L811.3963996887206,202.64392771680835L827.3061330159505,201.32120221963305L843.2158663431803,200.7920476545587L859.1255996704102,199.99841235625357" fill="none"></path></g><g><path style="fill: none;" stroke="rgb(255, 112, 67)" stroke-width="2px" d="M79.54866663614908,274.3138295204699L95.45839996337891,164.761970604568L111.36813329060872,138.2114906505376L127.27786661783854,126.17687707718686L143.18759994506834,121.83453984040172L159.09733327229816,128.5341605751455L175.00706659952797,119.47725634244307L190.91679992675782,108.31113596293106L206.82653325398763,100.37079227521644L222.73626658121745,100.24675859964191L238.64599990844727,96.52471847313794L254.55573323567708,92.43044858750184L270.4654665629069,98.88200197109654L286.3751998901367,104.8372275537804L302.28493321736653,104.46506216085254L318.1946665445963,100.74302203434853L334.10439987182616,98.1376068190366L350.01413319905595,97.39321166697664L365.92386652628585,95.28405988637134L381.83359985351564,87.71588159158453L397.7433331807455,96.15248871400581L413.65306650797527,94.66369840988591L429.5627998352051,98.1376068190366L445.4725331624349,99.00603564667108L461.38226648966474,85.60672981097923L477.29199981689453,88.9566045445554L493.2017331441244,88.58437478542328L509.11146647135416,89.94913141396864L525.021199798584,92.55454662928061L540.9309331258138,88.2121450262912L556.8406664530437,92.18231687014848L572.7503997802734,92.67858030485515L588.6601331075033,92.30641491192729L604.5698664347331,87.83997963336334L620.479599761963,85.4826961354047L636.3893330891926,95.40809356194588L652.2990664164225,89.70099969661533L668.2087997436523,86.22709128746467L684.1185330708822,84.24197318243387L700.0282663981119,86.84745276395006L715.9379997253418,81.76065600890072L731.8477330525717,83.86980778950601L747.7574663798014,80.147767663002L763.6671997070313,80.27186570478081L779.5769330342611,83.62167607215271L795.486666361491,82.50505116096065L811.3963996887206,81.3884262497686L827.3061330159505,80.51999742213413L843.2158663431803,81.51252429154736L859.1255996704102,83.12541263744609" fill="none"></path></g><g><path style="fill: none;" stroke="rgb(204, 51, 17)" stroke-width="2px" d="M79.54866663614908,258.55717582061516L95.45839996337891,149.50164470562416L111.36813329060872,114.39045958739374L127.27786661783854,97.14507994962332L143.18759994506834,89.82503337218988L159.09733327229816,82.25691944360734L175.00706659952797,79.52740618651661L190.91679992675782,80.147767663002L206.82653325398763,77.29422073033678L222.73626658121745,78.78301103445664L238.64599990844727,75.92946410179141L254.55573323567708,74.4406737976715L270.4654665629069,76.05356214357018L286.3751998901367,72.57965373441947L302.28493321736653,75.92946410179141L318.1946665445963,74.68880551502481L334.10439987182616,74.06844403853938L350.01413319905595,72.82778545177283L365.92386652628585,70.9667653885208L381.83359985351564,73.82031232118607L397.7433331807455,71.83525858235953L413.65306650797527,72.95181912734732L429.5627998352051,71.71116054058076L445.4725331624349,74.56470747324605L461.38226648966474,75.8053660600126L477.29199981689453,71.83525858235953L493.2017331441244,72.57965373441947L509.11146647135416,72.70368740999402L525.021199798584,71.58706249880196L540.9309331258138,71.83525858235953L556.8406664530437,73.94441036296483L572.7503997802734,72.70368740999402L588.6601331075033,70.71863367116748L604.5698664347331,71.46302882322746L620.479599761963,71.46302882322746L636.3893330891926,72.57965373441947L652.2990664164225,70.84266734674202L668.2087997436523,76.67385925385133L684.1185330708822,71.95929225793408L700.0282663981119,73.07591716912613L715.9379997253418,72.95181912734732L731.8477330525717,70.22237023646086L747.7574663798014,71.09079906409534L763.6671997070313,74.93693723237811L779.5769330342611,73.57218060383275L795.486666361491,76.5498255782768L811.3963996887206,73.6962142794073L827.3061330159505,69.35387704262212L843.2158663431803,73.07591716912613L859.1255996704102,72.20742397528738" fill="none"></path></g><g><path style="fill: none;" stroke="rgb(238, 51, 119)" stroke-width="2px" d="M79.54866663614908,465.0059186025829L95.45839996337891,232.1307939083636L111.36813329060872,198.75653081160638L127.27786661783854,181.13892141470387L143.18759994506834,169.3525039249107L159.09733327229816,162.52878514838815L175.00706659952797,151.4866984444507L190.91679992675782,142.67792592910155L206.82653325398763,139.4521492373042L222.73626658121745,130.5192786801763L238.64599990844727,127.66573174751103L254.55573323567708,124.43995505571364L270.4654665629069,119.60129001801761L286.3751998901367,114.14232787004038L302.28493321736653,110.17215602618309L318.1946665445963,109.92402430882979L334.10439987182616,107.19451105173906L350.01413319905595,105.20945731291248L365.92386652628585,101.11518742727638L381.83359985351564,101.11518742727638L397.7433331807455,96.52471847313794L413.65306650797527,96.40062043135913L429.5627998352051,94.91183012723921L445.4725331624349,91.06575632516069L461.38226648966474,91.43792171808855L477.29199981689453,89.70099969661533L493.2017331441244,88.46027674364451L509.11146647135416,88.58437478542328L525.021199798584,85.73082785275801L540.9309331258138,84.73830098334476L556.8406664530437,83.74570974772725L572.7503997802734,83.24944631302058L588.6601331075033,83.12541263744609L604.5698664347331,78.41084564152878L620.479599761963,80.02366962122323L636.3893330891926,80.02366962122323L652.2990664164225,78.65897735888214L668.2087997436523,77.91451784061793L684.1185330708822,77.17012268855797L700.0282663981119,75.8053660600126L715.9379997253418,77.29422073033678L731.8477330525717,73.6962142794073L747.7574663798014,74.93693723237811L763.6671997070313,73.6962142794073L779.5769330342611,75.8053660600126L795.486666361491,73.44808256205398L811.3963996887206,72.70368740999402L827.3061330159505,72.33152201706616L843.2158663431803,70.0982721946821L859.1255996704102,72.4555556926407" fill="none"></path></g><g><path style="fill: none;" stroke="rgb(187, 187, 187)" stroke-width="2px" d="M143.18759994506834,380.01955026808906L159.09733327229816,338.9530752009705L175.00706659952797,310.6656732254669L190.91679992675782,291.55920915824026L206.82653325398763,273.56937000220574L222.73626658121745,261.2866890777059L238.64599990844727,249.62430526348726L254.55573323567708,240.69143470635936L270.4654665629069,232.2548275839381L286.3751998901367,225.80333856654764L302.28493321736653,228.2846557400808L318.1946665445963,218.23516027176083L334.10439987182616,216.25010653293432L350.01413319905595,214.51312014525686L365.92386652628585,212.77619812378364L381.83359985351564,208.93012432170508L397.7433331807455,205.70434762990774L413.65306650797527,202.10634117897825L429.5627998352051,202.72670265546367L445.4725331624349,198.50839909425306L461.38226648966474,195.03449068510236L477.29199981689453,194.29009553304243L493.2017331441244,194.29009553304243L509.11146647135416,189.57552853712517L525.021199798584,190.4440217309639L540.9309331258138,187.71450847387314L556.8406664530437,187.59041043209436L572.7503997802734,181.13892141470387L588.6601331075033,184.11656638914792L604.5698664347331,179.02976963409859L620.479599761963,179.52603306880522L636.3893330891926,179.65013111058397L652.2990664164225,176.42435441878663L668.2087997436523,172.20605085757597L684.1185330708822,174.06707092082797L700.0282663981119,170.8412942290306L715.9379997253418,169.1043722075574L731.8477330525717,167.24335214430542L747.7574663798014,170.345030794324L763.6671997070313,165.75449747398125L779.5769330342611,167.36738581987996L795.486666361491,164.63793692899344L811.3963996887206,165.63046379840674L827.3061330159505,164.88606864634676L843.2158663431803,162.77691686574147L859.1255996704102,160.17143728422528" fill="none"></path></g></g></g></g></g></g><g transform="translate(51, 377)" clip-path="url(#clip_1)"><clipPath id="clip_1"><rect width="954" height="22"></rect></clipPath><g><g><line x1="0" y1="0" x2="0" y2="5" style="visibility: inherit;" fill="rgb(0, 0, 0)" stroke="rgb(204, 204, 204)" stroke-width="1px"></line><line x1="79.54866663614908" y1="0" x2="79.54866663614908" y2="5" style="visibility: inherit;" fill="rgb(0, 0, 0)" stroke="rgb(204, 204, 204)" stroke-width="1px"></line><line x1="159.09733327229816" y1="0" x2="159.09733327229816" y2="5" style="visibility: inherit;" fill="rgb(0, 0, 0)" stroke="rgb(204, 204, 204)" stroke-width="1px"></line><line x1="238.64599990844727" y1="0" x2="238.64599990844727" y2="5" style="visibility: inherit;" fill="rgb(0, 0, 0)" stroke="rgb(204, 204, 204)" stroke-width="1px"></line><line x1="318.1946665445963" y1="0" x2="318.1946665445963" y2="5" style="visibility: inherit;" fill="rgb(0, 0, 0)" stroke="rgb(204, 204, 204)" stroke-width="1px"></line><line x1="397.7433331807455" y1="0" x2="397.7433331807455" y2="5" style="visibility: inherit;" fill="rgb(0, 0, 0)" stroke="rgb(204, 204, 204)" stroke-width="1px"></line><line x1="477.29199981689453" y1="0" x2="477.29199981689453" y2="5" style="visibility: inherit;" fill="rgb(0, 0, 0)" stroke="rgb(204, 204, 204)" stroke-width="1px"></line><line x1="556.8406664530437" y1="0" x2="556.8406664530437" y2="5" style="visibility: inherit;" fill="rgb(0, 0, 0)" stroke="rgb(204, 204, 204)" stroke-width="1px"></line><line x1="636.3893330891926" y1="0" x2="636.3893330891926" y2="5" style="visibility: inherit;" fill="rgb(0, 0, 0)" stroke="rgb(204, 204, 204)" stroke-width="1px"></line><line x1="715.9379997253418" y1="0" x2="715.9379997253418" y2="5" style="visibility: inherit;" fill="rgb(0, 0, 0)" stroke="rgb(204, 204, 204)" stroke-width="1px"></line><line x1="795.486666361491" y1="0" x2="795.486666361491" y2="5" style="visibility: inherit;" fill="rgb(0, 0, 0)" stroke="rgb(204, 204, 204)" stroke-width="1px"></line><line x1="875.0353329976399" y1="0" x2="875.0353329976399" y2="5" style="visibility: inherit;" fill="rgb(0, 0, 0)" stroke="rgb(204, 204, 204)" stroke-width="1px"></line><line x1="954.5839996337891" y1="0" x2="954.5839996337891" y2="5" style="visibility: inherit;" fill="rgb(0, 0, 0)" stroke="rgb(204, 204, 204)" stroke-width="1px"></line></g><g transform="translate(0, 8)"><text style="text-anchor: middle; visibility: hidden; font-family: Roboto, sans-serif; font-size: 12px; font-weight: 200;" x="0" y="0" dx="0em" dy="0.95em" fill="rgb(50, 49, 63)" stroke="none" stroke-width="1px">-5</text><text style="text-anchor: middle; visibility: hidden; font-family: Roboto, sans-serif; font-size: 12px; font-weight: 200;" x="79.54866663614908" y="0" dx="0em" dy="0.95em" fill="rgb(50, 49, 63)" stroke="none" stroke-width="1px">0</text><text style="text-anchor: middle; visibility: hidden; font-family: Roboto, sans-serif; font-size: 12px; font-weight: 200;" x="159.09733327229816" y="0" dx="0em" dy="0.95em" fill="rgb(50, 49, 63)" stroke="none" stroke-width="1px">5</text><text style="text-anchor: middle; visibility: hidden; font-family: Roboto, sans-serif; font-size: 12px; font-weight: 200;" x="238.64599990844727" y="0" dx="0em" dy="0.95em" fill="rgb(50, 49, 63)" stroke="none" stroke-width="1px">10</text><text style="text-anchor: middle; visibility: hidden; font-family: Roboto, sans-serif; font-size: 12px; font-weight: 200;" x="318.1946665445963" y="0" dx="0em" dy="0.95em" fill="rgb(50, 49, 63)" stroke="none" stroke-width="1px">15</text><text style="text-anchor: middle; visibility: hidden; font-family: Roboto, sans-serif; font-size: 12px; font-weight: 200;" x="397.7433331807455" y="0" dx="0em" dy="0.95em" fill="rgb(50, 49, 63)" stroke="none" stroke-width="1px">20</text><text style="text-anchor: middle; visibility: hidden; font-family: Roboto, sans-serif; font-size: 12px; font-weight: 200;" x="477.29199981689453" y="0" dx="0em" dy="0.95em" fill="rgb(50, 49, 63)" stroke="none" stroke-width="1px">25</text><text style="text-anchor: middle; visibility: hidden; font-family: Roboto, sans-serif; font-size: 12px; font-weight: 200;" x="556.8406664530437" y="0" dx="0em" dy="0.95em" fill="rgb(50, 49, 63)" stroke="none" stroke-width="1px">30</text><text style="text-anchor: middle; visibility: hidden; font-family: Roboto, sans-serif; font-size: 12px; font-weight: 200;" x="636.3893330891926" y="0" dx="0em" dy="0.95em" fill="rgb(50, 49, 63)" stroke="none" stroke-width="1px">35</text><text style="text-anchor: middle; visibility: hidden; font-family: Roboto, sans-serif; font-size: 12px; font-weight: 200;" x="715.9379997253418" y="0" dx="0em" dy="0.95em" fill="rgb(50, 49, 63)" stroke="none" stroke-width="1px">40</text><text style="text-anchor: middle; visibility: hidden; font-family: Roboto, sans-serif; font-size: 12px; font-weight: 200;" x="795.486666361491" y="0" dx="0em" dy="0.95em" fill="rgb(50, 49, 63)" stroke="none" stroke-width="1px">45</text><text style="text-anchor: middle; visibility: hidden; font-family: Roboto, sans-serif; font-size: 12px; font-weight: 200;" x="875.0353329976399" y="0" dx="0em" dy="0.95em" fill="rgb(50, 49, 63)" stroke="none" stroke-width="1px">50</text><text style="text-anchor: middle; visibility: hidden; font-family: Roboto, sans-serif; font-size: 12px; font-weight: 200;" x="954.5839996337891" y="0" dx="0em" dy="0.95em" fill="rgb(50, 49, 63)" stroke="none" stroke-width="1px">55</text></g><line x1="0" y1="0" x2="954.5839996337891" y2="0" fill="rgb(0, 0, 0)" stroke="rgb(204, 204, 204)" stroke-width="1px"></line></g></g></g></g></svg>