<svg viewBox="0 0 1006 400" xmlns="http://www.w3.org/2000/svg"><g><g><g><g><g><line x1="51.41600036621094" y1="377.95999908447266" x2="46.41600036621094" y2="377.95999908447266" style="visibility: inherit;" fill="rgb(0, 0, 0)" stroke="rgb(204, 204, 204)" stroke-width="1px"></line><line x1="51.41600036621094" y1="323.96571350097656" x2="46.41600036621094" y2="323.96571350097656" style="visibility: inherit;" fill="rgb(0, 0, 0)" stroke="rgb(204, 204, 204)" stroke-width="1px"></line><line x1="51.41600036621094" y1="269.97142791748047" x2="46.41600036621094" y2="269.97142791748047" style="visibility: inherit;" fill="rgb(0, 0, 0)" stroke="rgb(204, 204, 204)" stroke-width="1px"></line><line x1="51.41600036621094" y1="215.97714233398438" x2="46.41600036621094" y2="215.97714233398438" style="visibility: inherit;" fill="rgb(0, 0, 0)" stroke="rgb(204, 204, 204)" stroke-width="1px"></line><line x1="51.41600036621094" y1="161.98285675048828" x2="46.41600036621094" y2="161.98285675048828" style="visibility: inherit;" fill="rgb(0, 0, 0)" stroke="rgb(204, 204, 204)" stroke-width="1px"></line><line x1="51.41600036621094" y1="107.98857116699219" x2="46.41600036621094" y2="107.98857116699219" style="visibility: inherit;" fill="rgb(0, 0, 0)" stroke="rgb(204, 204, 204)" stroke-width="1px"></line><line x1="51.41600036621094" y1="53.994285583496115" x2="46.41600036621094" y2="53.994285583496115" style="visibility: inherit;" fill="rgb(0, 0, 0)" stroke="rgb(204, 204, 204)" stroke-width="1px"></line><line x1="51.41600036621094" y1="0" x2="46.41600036621094" y2="0" style="visibility: inherit;" fill="rgb(0, 0, 0)" stroke="rgb(204, 204, 204)" stroke-width="1px"></line></g><g transform="translate(41.41600036621094, 0)"><text style="text-anchor: end; visibility: hidden; font-family: Roboto, sans-serif; font-size: 12px; font-weight: 200;" x="0" y="377.95999908447266" dx="0em" dy="0.3em" fill="rgb(50, 49, 63)" stroke="none" stroke-width="1px">-0.5</text><text style="text-anchor: end; visibility: inherit; font-family: Roboto, sans-serif; font-size: 12px; font-weight: 200;" x="0" y="323.96571350097656" dx="0em" dy="0.3em" fill="rgb(50, 49, 63)" stroke="none" stroke-width="1px">0</text><text style="text-anchor: end; visibility: inherit; font-family: Roboto, sans-serif; font-size: 12px; font-weight: 200;" x="0" y="269.97142791748047" dx="0em" dy="0.3em" fill="rgb(50, 49, 63)" stroke="none" stroke-width="1px">0.5</text><text style="text-anchor: end; visibility: inherit; font-family: Roboto, sans-serif; font-size: 12px; font-weight: 200;" x="0" y="215.97714233398438" dx="0em" dy="0.3em" fill="rgb(50, 49, 63)" stroke="none" stroke-width="1px">1</text><text style="text-anchor: end; visibility: inherit; font-family: Roboto, sans-serif; font-size: 12px; font-weight: 200;" x="0" y="161.98285675048828" dx="0em" dy="0.3em" fill="rgb(50, 49, 63)" stroke="none" stroke-width="1px">1.5</text><text style="text-anchor: end; visibility: inherit; font-family: Roboto, sans-serif; font-size: 12px; font-weight: 200;" x="0" y="107.98857116699219" dx="0em" dy="0.3em" fill="rgb(50, 49, 63)" stroke="none" stroke-width="1px">2</text><text style="text-anchor: end; visibility: inherit; font-family: Roboto, sans-serif; font-size: 12px; font-weight: 200;" x="0" y="53.994285583496115" dx="0em" dy="0.3em" fill="rgb(50, 49, 63)" stroke="none" stroke-width="1px">2.5</text><text style="text-anchor: end; visibility: hidden; font-family: Roboto, sans-serif; font-size: 12px; font-weight: 200;" x="0" y="0" dx="0em" dy="0.3em" fill="rgb(50, 49, 63)" stroke="none" stroke-width="1px">3</text></g><line x1="51.41600036621094" y1="0" x2="51.41600036621094" y2="377.95999908447266" fill="rgb(0, 0, 0)" stroke="rgb(204, 204, 204)" stroke-width="1px"></line></g></g><g transform="translate(51, 0)" clip-path="url(#clip_0)"><clipPath id="clip_0"><rect width="954" height="377"></rect></clipPath><g><g><g><line x1="0" y1="0" x2="0" y2="377.95999908447266" fill="rgb(0, 0, 0)" stroke="rgb(60, 60, 60)" stroke-width="1px" opacity="0.25"></line><line x1="79.54866663614908" y1="0" x2="79.54866663614908" y2="377.95999908447266" fill="rgb(0, 0, 0)" stroke="rgb(60, 60, 60)" stroke-width="1px" opacity="0.25"></line><line x1="159.09733327229816" y1="0" x2="159.09733327229816" y2="377.95999908447266" fill="rgb(0, 0, 0)" stroke="rgb(60, 60, 60)" stroke-width="1px" opacity="0.25"></line><line x1="238.64599990844727" y1="0" x2="238.64599990844727" y2="377.95999908447266" fill="rgb(0, 0, 0)" stroke="rgb(60, 60, 60)" stroke-width="1px" opacity="0.25"></line><line x1="318.1946665445963" y1="0" x2="318.1946665445963" y2="377.95999908447266" fill="rgb(0, 0, 0)" stroke="rgb(60, 60, 60)" stroke-width="1px" opacity="0.25"></line><line x1="397.7433331807455" y1="0" x2="397.7433331807455" y2="377.95999908447266" fill="rgb(0, 0, 0)" stroke="rgb(60, 60, 60)" stroke-width="1px" opacity="0.25"></line><line x1="477.29199981689453" y1="0" x2="477.29199981689453" y2="377.95999908447266" fill="rgb(0, 0, 0)" stroke="rgb(60, 60, 60)" stroke-width="1px" opacity="0.25"></line><line x1="556.8406664530437" y1="0" x2="556.8406664530437" y2="377.95999908447266" fill="rgb(0, 0, 0)" stroke="rgb(60, 60, 60)" stroke-width="1px" opacity="0.25"></line><line x1="636.3893330891926" y1="0" x2="636.3893330891926" y2="377.95999908447266" fill="rgb(0, 0, 0)" stroke="rgb(60, 60, 60)" stroke-width="1px" opacity="0.25"></line><line x1="715.9379997253418" y1="0" x2="715.9379997253418" y2="377.95999908447266" fill="rgb(0, 0, 0)" stroke="rgb(60, 60, 60)" stroke-width="1px" opacity="0.25"></line><line x1="795.486666361491" y1="0" x2="795.486666361491" y2="377.95999908447266" fill="rgb(0, 0, 0)" stroke="rgb(60, 60, 60)" stroke-width="1px" opacity="0.25"></line><line x1="875.0353329976399" y1="0" x2="875.0353329976399" y2="377.95999908447266" fill="rgb(0, 0, 0)" stroke="rgb(60, 60, 60)" stroke-width="1px" opacity="0.25"></line><line x1="954.5839996337891" y1="0" x2="954.5839996337891" y2="377.95999908447266" fill="rgb(0, 0, 0)" stroke="rgb(60, 60, 60)" stroke-width="1px" opacity="0.25"></line></g><g><line x1="0" y1="377.95999908447266" x2="954.5839996337891" y2="377.95999908447266" fill="rgb(0, 0, 0)" stroke="rgb(60, 60, 60)" stroke-width="1px" opacity="0.25"></line><line x1="0" y1="323.96571350097656" x2="954.5839996337891" y2="323.96571350097656" fill="rgb(0, 0, 0)" stroke="rgb(60, 60, 60)" stroke-width="1px" opacity="0.25"></line><line x1="0" y1="269.97142791748047" x2="954.5839996337891" y2="269.97142791748047" fill="rgb(0, 0, 0)" stroke="rgb(60, 60, 60)" stroke-width="1px" opacity="0.25"></line><line x1="0" y1="215.97714233398438" x2="954.5839996337891" y2="215.97714233398438" fill="rgb(0, 0, 0)" stroke="rgb(60, 60, 60)" stroke-width="1px" opacity="0.25"></line><line x1="0" y1="161.98285675048828" x2="954.5839996337891" y2="161.98285675048828" fill="rgb(0, 0, 0)" stroke="rgb(60, 60, 60)" stroke-width="1px" opacity="0.25"></line><line x1="0" y1="107.98857116699219" x2="954.5839996337891" y2="107.98857116699219" fill="rgb(0, 0, 0)" stroke="rgb(60, 60, 60)" stroke-width="1px" opacity="0.25"></line><line x1="0" y1="53.994285583496115" x2="954.5839996337891" y2="53.994285583496115" fill="rgb(0, 0, 0)" stroke="rgb(60, 60, 60)" stroke-width="1px" opacity="0.25"></line><line x1="0" y1="0" x2="954.5839996337891" y2="0" fill="rgb(0, 0, 0)" stroke="rgb(60, 60, 60)" stroke-width="1px" opacity="0.25"></line></g></g></g><g><g><line x1="0" y1="323.96571350097656" x2="954.5839996337891" y2="323.96571350097656" fill="rgb(0, 0, 0)" stroke="rgb(153, 153, 153)" stroke-width="1.5px"></line></g></g><g><g><line x1="79.54866663614908" y1="0" x2="79.54866663614908" y2="377.95999908447266" fill="rgb(0, 0, 0)" stroke="rgb(153, 153, 153)" stroke-width="1.5px"></line></g></g><g><g><g><g><g><path style="fill: none;" stroke="rgb(0, 119, 187)" stroke-width="2px" d="M79.54866663614908,140.10045851967152L95.45839996337891,132.90072042374206L111.36813329060872,120.18467350424474L127.27786661783854,105.84234781303796L143.18759994506834,116.53325573929342L159.09733327229816,96.00815875816491L175.00706659952797,95.66953979337545L190.91679992675782,85.90267797835179L206.82653325398763,82.46814814195221L222.73626658121745,97.50449116391297L238.64599990844727,103.74286904100586L254.55573323567708,111.42769935744617L270.4654665629069,111.68354027657143L286.3751998901367,111.52122512943035L302.28493321736653,97.3715643565336L318.1946665445963,99.12901331881748L334.10439987182616,99.39671406510656L350.01413319905595,94.617753279204L365.92386652628585,79.65649847210635L381.83359985351564,90.63420089579898L397.7433331807455,89.37192850428254L413.65306650797527,87.09529380517331L429.5627998352051,87.36195005860874L445.4725331624349,85.31706511439887L461.38226648966474,83.67585768363001L477.29199981689453,82.16844054697391L493.2017331441244,81.9921237554719L509.11146647135416,76.79354270727049L525.021199798584,73.85351960995878L540.9309331258138,74.4312112644389L556.8406664530437,74.29273150009928L572.7503997802734,73.65919412935719L588.6601331075033,73.49045036400624L604.5698664347331,75.04026423691992L620.479599761963,73.60605904924172L636.3893330891926,72.1077749970197L652.2990664164225,68.72600953862928L668.2087997436523,67.87374986957296L684.1185330708822,69.57675627850924L700.0282663981119,69.50051386997524L715.9379997253418,68.3703575107574L731.8477330525717,68.74974378975378L747.7574663798014,68.64305234280833L763.6671997070313,68.58631857968594L779.5769330342611,68.19772867163107L795.486666361491,67.63957173904816L811.3963996887206,66.39993591406714L827.3061330159505,67.00232466254683L843.2158663431803,66.69015786027875L859.1255996704102,66.01544598461743" fill="none"></path></g><g><path style="fill: none;" stroke="rgb(0, 153, 136)" stroke-width="2px" d="M79.54866663614908,117.05613444311713L95.45839996337891,131.4732952495915L111.36813329060872,114.88289625421874L127.27786661783854,149.68753250500788L143.18759994506834,172.00587250732937L159.09733327229816,175.09187766290586L175.00706659952797,186.72496465194894L190.91679992675782,196.66615396196264L206.82653325398763,202.04140381210064L222.73626658121745,204.9312704089613L238.64599990844727,206.6017845799453L254.55573323567708,209.0383267843008L270.4654665629069,210.5043500899417L286.3751998901367,210.49892532398155L302.28493321736653,210.96550477098214L318.1946665445963,211.308403526901L334.10439987182616,211.39708964089598L350.01413319905595,211.25853302740018L365.92386652628585,210.13822508833863L381.83359985351564,209.8915395855993L397.7433331807455,209.96966521645362L413.65306650797527,210.31549613058831L429.5627998352051,210.45991753686226L445.4725331624349,210.51912892046076L461.38226648966474,210.5916276238863L477.29199981689453,210.5389325450218L493.2017331441244,210.5637879459844L509.11146647135416,210.5807402928834L525.021199798584,210.5431519532152L540.9309331258138,210.49497605402883L556.8406664530437,210.47211064674053L572.7503997802734,210.43989513038557L588.6601331075033,210.42683251615773L604.5698664347331,210.3958849053871L620.479599761963,210.3573885623162L636.3893330891926,210.33067595082971L652.2990664164225,210.31408196151327L668.2087997436523,210.2867157970011L684.1185330708822,210.2645237371496L700.0282663981119,210.250430957522L715.9379997253418,210.2407394586351L731.8477330525717,210.23579993968602L747.7574663798014,210.2294479913258L763.6671997070313,210.22602816883273L779.5769330342611,210.22479501345526L795.486666361491,210.22359168355837L811.3963996887206,210.2230499109921L827.3061330159505,210.22224081359647L843.2158663431803,210.22270797498192L859.1255996704102,210.22241669991942" fill="none"></path></g><g><path style="fill: none;" stroke="rgb(51, 187, 238)" stroke-width="2px" d="M79.54866663614908,85.14842956353459L95.45839996337891,168.83136214768695L111.36813329060872,203.73156905166854L127.27786661783854,223.66468188585483L143.18759994506834,234.60256729798212L159.09733327229816,241.51886019124947L175.00706659952797,245.6838912313499L190.91679992675782,248.2042053077818L206.82653325398763,249.76164690430437L222.73626658121745,250.69873447054698L238.64599990844727,251.28083361589842L254.55573323567708,251.63118982952523L270.4654665629069,251.8451711270376L286.3751998901367,251.97391427178007L302.28493321736653,252.05160042804184L318.1946665445963,252.0983509866158L334.10439987182616,252.1264521064025L350.01413319905595,252.14332775812133L365.92386652628585,252.15347522544153L381.83359985351564,252.15956331007786L397.7433331807455,252.16321601839888L413.65306650797527,252.1654075921081L429.5627998352051,252.16672251787213L445.4725331624349,252.16751146668454L461.38226648966474,252.16798483357945L477.29199981689453,252.16826885285502L493.2017331441244,252.16843926411036L509.11146647135416,252.16854151075188L525.021199798584,252.16860285869663L540.9309331258138,252.16863966744904L556.8406664530437,252.16866175269524L572.7503997802734,252.1686750038411L588.6601331075033,252.16868295452792L604.5698664347331,252.16868772493982L620.479599761963,252.16869058718686L636.3893330891926,252.16869230453503L652.2990664164225,252.16869333494395L668.2087997436523,252.16869395318923L684.1185330708822,252.16869432413645L700.0282663981119,252.16869454670478L715.9379997253418,252.16869468024575L731.8477330525717,252.16869476037036L747.7574663798014,252.16869480844517L763.6671997070313,252.16869483729L779.5769330342611,252.16869485459688L795.486666361491,252.16869486498106L811.3963996887206,252.16869487121156L827.3061330159505,252.16869487494984L843.2158663431803,252.16869487719282L859.1255996704102,252.1686948785386" fill="none"></path></g><g><path style="fill: none;" stroke="rgb(255, 112, 67)" stroke-width="2px" d="M79.54866663614908,55.35140838021834L95.45839996337891,136.3674680926708L111.36813329060872,170.77155646800512L127.27786661783854,193.6523918370184L143.18759994506834,211.65991872644517L159.09733327229816,224.1586559481306L175.00706659952797,227.9947255876711L190.91679992675782,231.2466434373828L206.82653325398763,240.09661838377082L222.73626658121745,257.1693057058639L238.64599990844727,272.40093205286723L254.55573323567708,281.1265987824228L270.4654665629069,288.10972956661425L286.3751998901367,292.19103593009925L302.28493321736653,293.86423360969883L318.1946665445963,293.91083764059715L334.10439987182616,293.5940973306997L350.01413319905595,294.91562510175095L365.92386652628585,292.7857547198971L381.83359985351564,295.453067030322L397.7433331807455,298.19820932129414L413.65306650797527,299.3267486589054L429.5627998352051,300.4340203455578L445.4725331624349,300.5579063436533L461.38226648966474,300.62190997998493L477.29199981689453,301.8032994415317L493.2017331441244,300.9549604937619L509.11146647135416,301.6618366692508L525.021199798584,302.7327107369406L540.9309331258138,304.37217946743806L556.8406664530437,305.02380033133795L572.7503997802734,307.57862346937503L588.6601331075033,307.6534955031058L604.5698664347331,308.25085069606035L620.479599761963,307.9682220956132L636.3893330891926,307.10670115543235L652.2990664164225,308.3298722972052L668.2087997436523,308.0026774993678L684.1185330708822,308.30511181105464L700.0282663981119,307.90766468689435L715.9379997253418,307.2598852830139L731.8477330525717,307.2859033486679L747.7574663798014,308.6470462409342L763.6671997070313,308.9303527350602L779.5769330342611,308.2362834183445L795.486666361491,308.83730416536133L811.3963996887206,307.7361330813487L827.3061330159505,309.4224356116545L843.2158663431803,309.2229851624552L859.1255996704102,308.8089006564214" fill="none"></path></g><g><path style="fill: none;" stroke="rgb(238, 51, 119)" stroke-width="2px" d="M79.54866663614908,56.13816936791046L95.45839996337891,130.3994304170326L111.36813329060872,164.45904301802616L127.27786661783854,212.25145295133242L143.18759994506834,248.08792887716763L159.09733327229816,268.80297740020063L175.00706659952797,280.10273894837684L190.91679992675782,291.00250436242396L206.82653325398763,298.73659760552886L222.73626658121745,303.7673237629494L238.64599990844727,307.0236450523165L254.55573323567708,309.7359640077385L270.4654665629069,311.73419414803516L286.3751998901367,313.588306285018L302.28493321736653,314.6249208261658L318.1946665445963,315.203492795219L334.10439987182616,315.31489971916733L350.01413319905595,315.75745200215306L365.92386652628585,315.4747914800746L381.83359985351564,315.94446417606196L397.7433331807455,316.0141371859822L413.65306650797527,315.95722766913565L429.5627998352051,316.6057166891169L445.4725331624349,316.8390937780517L461.38226648966474,316.39429566236487L477.29199981689453,316.50939080349514L493.2017331441244,316.58459538498033L509.11146647135416,315.95499249767647L525.021199798584,316.47971407874866L540.9309331258138,315.92128462468963L556.8406664530437,316.95514350733845L572.7503997802734,316.6146495377445L588.6601331075033,316.5724440185663L604.5698664347331,316.59883927677055L620.479599761963,316.1532521621093L636.3893330891926,317.0070927295711L652.2990664164225,317.478705071669L668.2087997436523,317.009831598617L684.1185330708822,317.534438048335L700.0282663981119,317.4228487084703L715.9379997253418,317.3279687005055L731.8477330525717,317.6735648918742L747.7574663798014,317.48005230018606L763.6671997070313,317.5365758705092L779.5769330342611,317.78465085662856L795.486666361491,317.3672966016465L811.3963996887206,316.77431133996464L827.3061330159505,317.1487151848972L843.2158663431803,316.4554922010363L859.1255996704102,316.71863956619165" fill="none"></path></g><g><path style="fill: none;" stroke="rgb(204, 51, 17)" stroke-width="2px" d="M79.54866663614908,56.57377409173933L95.45839996337891,171.78918715868974L111.36813329060872,228.08811353542754L127.27786661783854,261.26695728649884L143.18759994506834,280.47110413585375L159.09733327229816,292.28328457996867L175.00706659952797,299.15639477466516L190.91679992675782,302.784740963901L206.82653325398763,305.5069754544896L222.73626658121745,306.6691899241017L238.64599990844727,307.42078665042413L254.55573323567708,308.2050760342963L270.4654665629069,307.8539211556644L286.3751998901367,308.2062699985842L302.28493321736653,308.4649137737412L318.1946665445963,308.50501882847556L334.10439987182616,309.3200342156083L350.01413319905595,308.5117272394174L365.92386652628585,308.44061890976275L381.83359985351564,308.46341757730875L397.7433331807455,308.5451521250328L413.65306650797527,308.5996107681896L429.5627998352051,308.968869977678L445.4725331624349,308.2175882164449L461.38226648966474,308.9796251359659L477.29199981689453,309.2363029947842L493.2017331441244,309.08532723778137L509.11146647135416,309.2283443599976L525.021199798584,308.9006228033421L540.9309331258138,308.9519974920367L556.8406664530437,308.89982142294275L572.7503997802734,308.6127643769499L588.6601331075033,309.10532881229096L604.5698664347331,308.5812507183118L620.479599761963,308.5371445086466L636.3893330891926,308.62683346205785L652.2990664164225,308.32536791206894L668.2087997436523,308.63881910269845L684.1185330708822,308.6072555917547L700.0282663981119,308.38115228195517L715.9379997253418,308.7239802913819L731.8477330525717,308.8472780567997L747.7574663798014,308.7646621086528L763.6671997070313,309.36203854605344L779.5769330342611,309.6277603390962L795.486666361491,309.04127793305355L811.3963996887206,308.82860357796363L827.3061330159505,308.89639738212304L843.2158663431803,309.174687300539L859.1255996704102,309.53082644557287" fill="none"></path></g></g></g></g><g opacity="0.2"><g><g><g><path style="fill: none;" stroke="rgb(0, 119, 187)" stroke-width="2px" d="M79.54866663614908,140.10045851967152L95.45839996337891,128.58087756618443L111.36813329060872,107.97726846152726L127.27786661783854,88.97577280017867L143.18759994506834,130.4913051278127L159.09733327229816,67.61456059835109L175.00706659952797,95.18530925582309L190.91679992675782,71.66249969017373L206.82653325398763,77.40288375633827L222.73626658121745,119.8317081559635L238.64599990844727,113.0438542284446L254.55573323567708,122.91312432488667L270.4654665629069,112.0664662902691L286.3751998901367,111.27807040098925L302.28493321736653,76.16370559226924L318.1946665445963,101.76394727307343L334.10439987182616,99.79815190255611L350.01413319905595,87.45052547797604L365.92386652628585,57.21689545804477L381.83359985351564,107.09975112585379L397.7433331807455,87.47858914302562L413.65306650797527,83.68041667014403L429.5627998352051,87.76192917409934L445.4725331624349,82.24976192169561L461.38226648966474,81.21405820247674L477.29199981689453,79.90732127043522L493.2017331441244,81.72764901936534L509.11146647135416,68.9956791160148L525.021199798584,69.44348767216798L540.9309331258138,75.29774842687766L556.8406664530437,74.0850118995113L572.7503997802734,72.7088881992968L588.6601331075033,73.23733473612447L604.5698664347331,77.36498493528052L620.479599761963,71.45475132936191L636.3893330891926,69.86034895732155L652.2990664164225,63.65336140336511L668.2087997436523,66.59536037389988L684.1185330708822,72.13126588242814L700.0282663981119,69.3861502574291L715.9379997253418,66.67512297419673L731.8477330525717,69.31882320779187L747.7574663798014,68.48301517246729L763.6671997070313,68.50121793502696L779.5769330342611,67.61484380964976L795.486666361491,66.80233634026081L811.3963996887206,64.5404821767115L827.3061330159505,67.90590778523256L843.2158663431803,66.22190765688721L859.1255996704102,65.00337817113905" fill="none"></path></g><g><path style="fill: none;" stroke="rgb(0, 153, 136)" stroke-width="2px" d="M79.54866663614908,117.05613444311713L95.45839996337891,140.12359173347613L111.36813329060872,98.9561132186609L127.27786661783854,190.61778473593586L143.18759994506834,201.14469721436032L159.09733327229816,179.3609337549242L175.00706659952797,203.3604651756723L190.91679992675782,211.16050341137998L206.82653325398763,209.96885325252333L222.73626658121745,209.22238550868678L238.64599990844727,209.0924043958403L254.55573323567708,212.67988053575576L270.4654665629069,212.69859822794933L286.3751998901367,210.49079880272257L302.28493321736653,211.66482549485772L318.1946665445963,211.82250982201L334.10439987182616,211.5300812828973L350.01413319905595,211.05073328666552L365.92386652628585,208.457933847385L381.83359985351564,209.5215338795224L397.7433331807455,210.08684937813993L413.65306650797527,210.83423112207674L429.5627998352051,210.6765467949244L445.4725331624349,210.6079452944432L461.38226648966474,210.7003751637349L477.29199981689453,210.4598901514455L493.2017331441244,210.60107098383017L509.11146647135416,210.6061687872061L525.021199798584,210.48676947833698L540.9309331258138,210.42271223187527L556.8406664530437,210.43781254339046L572.7503997802734,210.39157186226294L588.6601331075033,210.4072385963755L604.5698664347331,210.34946349144775L620.479599761963,210.2996440493644L636.3893330891926,210.29060703428877L652.2990664164225,210.28919097779547L668.2087997436523,210.24566655048696L684.1185330708822,210.23123564749585L700.0282663981119,210.22929178812774L715.9379997253418,210.22620221032415L731.8477330525717,210.22839066126835L747.7574663798014,210.2199200687901L763.6671997070313,210.22089843509457L779.5769330342611,210.22294528038947L795.486666361491,210.22178668871314L811.3963996887206,210.22223725214283L827.3061330159505,210.22102716750302L843.2158663431803,210.22340871706004L859.1255996704102,210.22197978732584" fill="none"></path></g><g><path style="fill: none;" stroke="rgb(51, 187, 238)" stroke-width="2px" d="M79.54866663614908,85.14842956353459L95.45839996337891,219.04112169817833L111.36813329060872,237.23576767949092L127.27786661783854,247.10602257885785L143.18759994506834,248.8830704920556L159.09733327229816,251.08658312807987L175.00706659952797,251.63995225919007L190.91679992675782,251.87884742623464L206.82653325398763,252.05857074171945L222.73626658121745,252.09020029448402L238.64599990844727,252.14870273751964L254.55573323567708,252.15481752692267L270.4654665629069,252.16544438724304L286.3751998901367,252.16677676767085L302.28493321736653,252.168038345274L318.1946665445963,252.16844385236072L334.10439987182616,252.16859189463048L350.01413319905595,252.16863695097345L365.92386652628585,252.16869488055727L381.83359985351564,252.16869488055727L397.7433331807455,252.16869488055727L413.65306650797527,252.16869488055727L429.5627998352051,252.16869488055727L445.4725331624349,252.16869488055727L461.38226648966474,252.16869488055727L477.29199981689453,252.16869488055727L493.2017331441244,252.16869488055727L509.11146647135416,252.16869488055727L525.021199798584,252.16869488055727L540.9309331258138,252.16869488055727L556.8406664530437,252.16869488055727L572.7503997802734,252.16869488055727L588.6601331075033,252.16869488055727L604.5698664347331,252.16869488055727L620.479599761963,252.16869488055727L636.3893330891926,252.16869488055727L652.2990664164225,252.16869488055727L668.2087997436523,252.16869488055727L684.1185330708822,252.16869488055727L700.0282663981119,252.16869488055727L715.9379997253418,252.16869488055727L731.8477330525717,252.16869488055727L747.7574663798014,252.16869488055727L763.6671997070313,252.16869488055727L779.5769330342611,252.16869488055727L795.486666361491,252.16869488055727L811.3963996887206,252.16869488055727L827.3061330159505,252.16869488055727L843.2158663431803,252.16869488055727L859.1255996704102,252.16869488055727" fill="none"></path></g><g><path style="fill: none;" stroke="rgb(255, 112, 67)" stroke-width="2px" d="M79.54866663614908,55.35140838021834L95.45839996337891,184.97710392014233L111.36813329060872,203.799481308326L127.27786661783854,220.560254230978L143.18759994506834,235.1705458332808L159.09733327229816,241.4489090711213L175.00706659952797,233.48036654932824L190.91679992675782,235.98797088067386L206.82653325398763,253.1486124105595L222.73626658121745,282.52025665990095L238.64599990844727,295.11022184345256L254.55573323567708,294.16761418373926L270.4654665629069,298.56162460929L286.3751998901367,298.30499977128693L302.28493321736653,296.3720633480352L318.1946665445963,293.98071081817125L334.10439987182616,293.1191208997375L350.01413319905595,296.8975812225699L365.92386652628585,289.5912736114319L381.83359985351564,299.45379169304897L397.7433331807455,302.31577220762506L413.65306650797527,301.01952053025457L429.5627998352051,302.0949060143887L445.4725331624349,300.74373387324863L461.38226648966474,300.717914979572L477.29199981689453,303.5753785957654L493.2017331441244,299.68245424277416L509.11146647135416,302.7221498472627L525.021199798584,304.33902085204886L540.9309331258138,306.83138165707487L556.8406664530437,306.00123141110316L572.7503997802734,311.41085766810636L588.6601331075033,307.7658035447637L604.5698664347331,309.14688344270485L620.479599761963,307.54427920708895L636.3893330891926,305.8144197673762L652.2990664164225,310.1646289909402L668.2087997436523,307.511885305649L684.1185330708822,308.7587632769005L700.0282663981119,307.31149400198206L715.9379997253418,306.2882161784921L731.8477330525717,307.3249304471176L747.7574663798014,310.688760578351L763.6671997070313,309.3553124761265L779.5769330342611,307.19517944345125L795.486666361491,309.7388352857929L811.3963996887206,306.0843764554329L827.3061330159505,311.9518894070185L843.2158663431803,308.923809488663L859.1255996704102,308.187773897379" fill="none"></path></g><g><path style="fill: none;" stroke="rgb(238, 51, 119)" stroke-width="2px" d="M79.54866663614908,56.13816936791046L95.45839996337891,174.95618704650585L111.36813329060872,197.15627111497997L127.27786661783854,268.45532703290064L143.18759994506834,294.8760318459381L159.09733327229816,297.4593469250235L175.00706659952797,296.26157875845365L190.91679992675782,306.89446697385256L206.82653325398763,310.142882868837L222.73626658121745,311.23736580576974L238.64599990844727,311.8785923919378L254.55573323567708,313.78968212089217L270.4654665629069,314.725014790371L286.3751998901367,316.3658420917985L302.28493321736653,316.1786241364073L318.1946665445963,316.07094269502045L334.10439987182616,315.4819629614133L350.01413319905595,316.42116806265483L365.92386652628585,315.0508437574425L381.83359985351564,316.6489302900982L397.7433331807455,316.11864287982917L413.65306650797527,315.8718652664976L429.5627998352051,317.57843741580433L445.4725331624349,317.1891566468797L461.38226648966474,315.72710165026933L477.29199981689453,316.68203302436234L493.2017331441244,316.69740206478025L509.11146647135416,315.0105891333095L525.021199798584,317.2667959670141L540.9309331258138,315.08364075223653L556.8406664530437,318.5059314884728L572.7503997802734,316.1039086511006L588.6601331075033,316.5091357448374L604.5698664347331,316.6384321621863L620.479599761963,315.48487150926746L636.3893330891926,318.28785355874646L652.2990664164225,318.18612357751937L668.2087997436523,316.30652139339145L684.1185330708822,318.3213477199902L700.0282663981119,317.25546469904606L715.9379997253418,317.18564868874853L731.8477330525717,318.19195917851147L747.7574663798014,317.18978341279353L763.6671997070313,317.6213612259695L779.5769330342611,318.1567633357431L795.486666361491,316.7412652192386L811.3963996887206,315.8848334474973L827.3061330159505,317.71032095227497L843.2158663431803,315.4156577252684L859.1255996704102,317.1133606139193" fill="none"></path></g><g><path style="fill: none;" stroke="rgb(204, 51, 17)" stroke-width="2px" d="M79.54866663614908,56.57377409173933L95.45839996337891,240.91843499886L111.36813329060872,282.13508285709577L127.27786661783854,300.2852775377587L143.18759994506834,305.5440382623715L159.09733327229816,308.62378251913947L175.00706659952797,308.98505232284424L190.91679992675782,308.07490453993023L206.82653325398763,309.52174256128023L222.73626658121745,308.3949429623526L238.64599990844727,308.54136481291766L254.55573323567708,309.3772420419118L270.4654665629069,307.328335419322L286.3751998901367,308.7341029749002L302.28493321736653,308.85257541042824L318.1946665445963,308.5651481253851L334.10439987182616,310.5422124091101L350.01413319905595,307.29947200418474L365.92386652628585,308.33396724791896L381.83359985351564,308.4976134947392L397.7433331807455,308.66774946410214L413.65306650797527,308.68129694094L429.5627998352051,309.52275150153173L445.4725331624349,307.09067447424377L461.38226648966474,310.12267509901517L477.29199981689453,309.6213186883979L493.2017331441244,308.8588639885827L509.11146647135416,309.44286982375706L525.021199798584,308.40904077023674L540.9309331258138,309.02905949668457L556.8406664530437,308.821557336604L572.7503997802734,308.18217886507523L588.6601331075033,309.8441754065004L604.5698664347331,307.7951336148817L620.479599761963,308.47098519604424L636.3893330891926,308.7613668898621L652.2990664164225,307.87316959174973L668.2087997436523,309.10899588573284L684.1185330708822,308.5599103255149L700.0282663981119,308.04199731801145L715.9379997253418,309.2382223048346L731.8477330525717,309.0322247047782L747.7574663798014,308.64073818649194L763.6671997070313,310.25810320189566L779.5769330342611,310.0263430285913L795.486666361491,308.16155432408095L811.3963996887206,308.50959204534865L827.3061330159505,308.9980880883584L843.2158663431803,309.59212217815366L859.1255996704102,310.06503516311636" fill="none"></path></g></g></g></g></g><g><g opacity="0.844077"><span fill="rgb(0, 0, 0)" stroke="none" stroke-width="1px">Alt + Scroll to Zoom</span></g></g></g><g transform="translate(51, 377)" clip-path="url(#clip_1)"><clipPath id="clip_1"><rect width="954" height="22"></rect></clipPath><g><g><line x1="0" y1="0" x2="0" y2="5" style="visibility: inherit;" fill="rgb(0, 0, 0)" stroke="rgb(204, 204, 204)" stroke-width="1px"></line><line x1="79.54866663614908" y1="0" x2="79.54866663614908" y2="5" style="visibility: inherit;" fill="rgb(0, 0, 0)" stroke="rgb(204, 204, 204)" stroke-width="1px"></line><line x1="159.09733327229816" y1="0" x2="159.09733327229816" y2="5" style="visibility: inherit;" fill="rgb(0, 0, 0)" stroke="rgb(204, 204, 204)" stroke-width="1px"></line><line x1="238.64599990844727" y1="0" x2="238.64599990844727" y2="5" style="visibility: inherit;" fill="rgb(0, 0, 0)" stroke="rgb(204, 204, 204)" stroke-width="1px"></line><line x1="318.1946665445963" y1="0" x2="318.1946665445963" y2="5" style="visibility: inherit;" fill="rgb(0, 0, 0)" stroke="rgb(204, 204, 204)" stroke-width="1px"></line><line x1="397.7433331807455" y1="0" x2="397.7433331807455" y2="5" style="visibility: inherit;" fill="rgb(0, 0, 0)" stroke="rgb(204, 204, 204)" stroke-width="1px"></line><line x1="477.29199981689453" y1="0" x2="477.29199981689453" y2="5" style="visibility: inherit;" fill="rgb(0, 0, 0)" stroke="rgb(204, 204, 204)" stroke-width="1px"></line><line x1="556.8406664530437" y1="0" x2="556.8406664530437" y2="5" style="visibility: inherit;" fill="rgb(0, 0, 0)" stroke="rgb(204, 204, 204)" stroke-width="1px"></line><line x1="636.3893330891926" y1="0" x2="636.3893330891926" y2="5" style="visibility: inherit;" fill="rgb(0, 0, 0)" stroke="rgb(204, 204, 204)" stroke-width="1px"></line><line x1="715.9379997253418" y1="0" x2="715.9379997253418" y2="5" style="visibility: inherit;" fill="rgb(0, 0, 0)" stroke="rgb(204, 204, 204)" stroke-width="1px"></line><line x1="795.486666361491" y1="0" x2="795.486666361491" y2="5" style="visibility: inherit;" fill="rgb(0, 0, 0)" stroke="rgb(204, 204, 204)" stroke-width="1px"></line><line x1="875.0353329976399" y1="0" x2="875.0353329976399" y2="5" style="visibility: inherit;" fill="rgb(0, 0, 0)" stroke="rgb(204, 204, 204)" stroke-width="1px"></line><line x1="954.5839996337891" y1="0" x2="954.5839996337891" y2="5" style="visibility: inherit;" fill="rgb(0, 0, 0)" stroke="rgb(204, 204, 204)" stroke-width="1px"></line></g><g transform="translate(0, 8)"><text style="text-anchor: middle; visibility: hidden; font-family: Roboto, sans-serif; font-size: 12px; font-weight: 200;" x="0" y="0" dx="0em" dy="0.95em" fill="rgb(50, 49, 63)" stroke="none" stroke-width="1px">-5</text><text style="text-anchor: middle; visibility: inherit; font-family: Roboto, sans-serif; font-size: 12px; font-weight: 200;" x="79.54866663614908" y="0" dx="0em" dy="0.95em" fill="rgb(50, 49, 63)" stroke="none" stroke-width="1px">0</text><text style="text-anchor: middle; visibility: inherit; font-family: Roboto, sans-serif; font-size: 12px; font-weight: 200;" x="159.09733327229816" y="0" dx="0em" dy="0.95em" fill="rgb(50, 49, 63)" stroke="none" stroke-width="1px">5</text><text style="text-anchor: middle; visibility: inherit; font-family: Roboto, sans-serif; font-size: 12px; font-weight: 200;" x="238.64599990844727" y="0" dx="0em" dy="0.95em" fill="rgb(50, 49, 63)" stroke="none" stroke-width="1px">10</text><text style="text-anchor: middle; visibility: inherit; font-family: Roboto, sans-serif; font-size: 12px; font-weight: 200;" x="318.1946665445963" y="0" dx="0em" dy="0.95em" fill="rgb(50, 49, 63)" stroke="none" stroke-width="1px">15</text><text style="text-anchor: middle; visibility: inherit; font-family: Roboto, sans-serif; font-size: 12px; font-weight: 200;" x="397.7433331807455" y="0" dx="0em" dy="0.95em" fill="rgb(50, 49, 63)" stroke="none" stroke-width="1px">20</text><text style="text-anchor: middle; visibility: inherit; font-family: Roboto, sans-serif; font-size: 12px; font-weight: 200;" x="477.29199981689453" y="0" dx="0em" dy="0.95em" fill="rgb(50, 49, 63)" stroke="none" stroke-width="1px">25</text><text style="text-anchor: middle; visibility: inherit; font-family: Roboto, sans-serif; font-size: 12px; font-weight: 200;" x="556.8406664530437" y="0" dx="0em" dy="0.95em" fill="rgb(50, 49, 63)" stroke="none" stroke-width="1px">30</text><text style="text-anchor: middle; visibility: inherit; font-family: Roboto, sans-serif; font-size: 12px; font-weight: 200;" x="636.3893330891926" y="0" dx="0em" dy="0.95em" fill="rgb(50, 49, 63)" stroke="none" stroke-width="1px">35</text><text style="text-anchor: middle; visibility: inherit; font-family: Roboto, sans-serif; font-size: 12px; font-weight: 200;" x="715.9379997253418" y="0" dx="0em" dy="0.95em" fill="rgb(50, 49, 63)" stroke="none" stroke-width="1px">40</text><text style="text-anchor: middle; visibility: inherit; font-family: Roboto, sans-serif; font-size: 12px; font-weight: 200;" x="795.486666361491" y="0" dx="0em" dy="0.95em" fill="rgb(50, 49, 63)" stroke="none" stroke-width="1px">45</text><text style="text-anchor: middle; visibility: inherit; font-family: Roboto, sans-serif; font-size: 12px; font-weight: 200;" x="875.0353329976399" y="0" dx="0em" dy="0.95em" fill="rgb(50, 49, 63)" stroke="none" stroke-width="1px">50</text><text style="text-anchor: middle; visibility: hidden; font-family: Roboto, sans-serif; font-size: 12px; font-weight: 200;" x="954.5839996337891" y="0" dx="0em" dy="0.95em" fill="rgb(50, 49, 63)" stroke="none" stroke-width="1px">55</text></g><line x1="0" y1="0" x2="954.5839996337891" y2="0" fill="rgb(0, 0, 0)" stroke="rgb(204, 204, 204)" stroke-width="1px"></line></g></g></g></g></svg>