<svg viewBox="0 0 1006 400" xmlns="http://www.w3.org/2000/svg"><g><g><g><g><g><line x1="51.41600036621094" y1="377.95999908447266" x2="46.41600036621094" y2="377.95999908447266" style="visibility: inherit;" fill="rgb(0, 0, 0)" stroke="rgb(204, 204, 204)" stroke-width="1px"></line><line x1="51.41600036621094" y1="340.1639991760254" x2="46.41600036621094" y2="340.1639991760254" style="visibility: inherit;" fill="rgb(0, 0, 0)" stroke="rgb(204, 204, 204)" stroke-width="1px"></line><line x1="51.41600036621094" y1="302.3679992675781" x2="46.41600036621094" y2="302.3679992675781" style="visibility: inherit;" fill="rgb(0, 0, 0)" stroke="rgb(204, 204, 204)" stroke-width="1px"></line><line x1="51.41600036621094" y1="264.57199935913087" x2="46.41600036621094" y2="264.57199935913087" style="visibility: inherit;" fill="rgb(0, 0, 0)" stroke="rgb(204, 204, 204)" stroke-width="1px"></line><line x1="51.41600036621094" y1="226.7759994506836" x2="46.41600036621094" y2="226.7759994506836" style="visibility: inherit;" fill="rgb(0, 0, 0)" stroke="rgb(204, 204, 204)" stroke-width="1px"></line><line x1="51.41600036621094" y1="188.97999954223633" x2="46.41600036621094" y2="188.97999954223633" style="visibility: inherit;" fill="rgb(0, 0, 0)" stroke="rgb(204, 204, 204)" stroke-width="1px"></line><line x1="51.41600036621094" y1="151.18399963378906" x2="46.41600036621094" y2="151.18399963378906" style="visibility: inherit;" fill="rgb(0, 0, 0)" stroke="rgb(204, 204, 204)" stroke-width="1px"></line><line x1="51.41600036621094" y1="113.38799972534181" x2="46.41600036621094" y2="113.38799972534181" style="visibility: inherit;" fill="rgb(0, 0, 0)" stroke="rgb(204, 204, 204)" stroke-width="1px"></line><line x1="51.41600036621094" y1="75.59199981689456" x2="46.41600036621094" y2="75.59199981689456" style="visibility: inherit;" fill="rgb(0, 0, 0)" stroke="rgb(204, 204, 204)" stroke-width="1px"></line><line x1="51.41600036621094" y1="37.79599990844726" x2="46.41600036621094" y2="37.79599990844726" style="visibility: inherit;" fill="rgb(0, 0, 0)" stroke="rgb(204, 204, 204)" stroke-width="1px"></line><line x1="51.41600036621094" y1="0" x2="46.41600036621094" y2="0" style="visibility: inherit;" fill="rgb(0, 0, 0)" stroke="rgb(204, 204, 204)" stroke-width="1px"></line></g><g transform="translate(41.41600036621094, 0)"><text style="text-anchor: end; visibility: hidden; font-family: Roboto, sans-serif; font-size: 12px; font-weight: 200;" x="0" y="377.95999908447266" dx="0em" dy="0.3em" fill="rgb(50, 49, 63)" stroke="none" stroke-width="1px">-0.2</text><text style="text-anchor: end; visibility: inherit; font-family: Roboto, sans-serif; font-size: 12px; font-weight: 200;" x="0" y="340.1639991760254" dx="0em" dy="0.3em" fill="rgb(50, 49, 63)" stroke="none" stroke-width="1px">0</text><text style="text-anchor: end; visibility: inherit; font-family: Roboto, sans-serif; font-size: 12px; font-weight: 200;" x="0" y="302.3679992675781" dx="0em" dy="0.3em" fill="rgb(50, 49, 63)" stroke="none" stroke-width="1px">0.2</text><text style="text-anchor: end; visibility: inherit; font-family: Roboto, sans-serif; font-size: 12px; font-weight: 200;" x="0" y="264.57199935913087" dx="0em" dy="0.3em" fill="rgb(50, 49, 63)" stroke="none" stroke-width="1px">0.4</text><text style="text-anchor: end; visibility: inherit; font-family: Roboto, sans-serif; font-size: 12px; font-weight: 200;" x="0" y="226.7759994506836" dx="0em" dy="0.3em" fill="rgb(50, 49, 63)" stroke="none" stroke-width="1px">0.6</text><text style="text-anchor: end; visibility: inherit; font-family: Roboto, sans-serif; font-size: 12px; font-weight: 200;" x="0" y="188.97999954223633" dx="0em" dy="0.3em" fill="rgb(50, 49, 63)" stroke="none" stroke-width="1px">0.8</text><text style="text-anchor: end; visibility: inherit; font-family: Roboto, sans-serif; font-size: 12px; font-weight: 200;" x="0" y="151.18399963378906" dx="0em" dy="0.3em" fill="rgb(50, 49, 63)" stroke="none" stroke-width="1px">1</text><text style="text-anchor: end; visibility: inherit; font-family: Roboto, sans-serif; font-size: 12px; font-weight: 200;" x="0" y="113.38799972534181" dx="0em" dy="0.3em" fill="rgb(50, 49, 63)" stroke="none" stroke-width="1px">1.2</text><text style="text-anchor: end; visibility: inherit; font-family: Roboto, sans-serif; font-size: 12px; font-weight: 200;" x="0" y="75.59199981689456" dx="0em" dy="0.3em" fill="rgb(50, 49, 63)" stroke="none" stroke-width="1px">1.4</text><text style="text-anchor: end; visibility: inherit; font-family: Roboto, sans-serif; font-size: 12px; font-weight: 200;" x="0" y="37.79599990844726" dx="0em" dy="0.3em" fill="rgb(50, 49, 63)" stroke="none" stroke-width="1px">1.6</text><text style="text-anchor: end; visibility: hidden; font-family: Roboto, sans-serif; font-size: 12px; font-weight: 200;" x="0" y="0" dx="0em" dy="0.3em" fill="rgb(50, 49, 63)" stroke="none" stroke-width="1px">1.8</text></g><line x1="51.41600036621094" y1="0" x2="51.41600036621094" y2="377.95999908447266" fill="rgb(0, 0, 0)" stroke="rgb(204, 204, 204)" stroke-width="1px"></line></g></g><g transform="translate(51, 0)" clip-path="url(#clip_0)"><clipPath id="clip_0"><rect width="954" height="377"></rect></clipPath><g><g><g><line x1="0" y1="0" x2="0" y2="377.95999908447266" fill="rgb(0, 0, 0)" stroke="rgb(60, 60, 60)" stroke-width="1px" opacity="0.25"></line><line x1="79.54866663614908" y1="0" x2="79.54866663614908" y2="377.95999908447266" fill="rgb(0, 0, 0)" stroke="rgb(60, 60, 60)" stroke-width="1px" opacity="0.25"></line><line x1="159.09733327229816" y1="0" x2="159.09733327229816" y2="377.95999908447266" fill="rgb(0, 0, 0)" stroke="rgb(60, 60, 60)" stroke-width="1px" opacity="0.25"></line><line x1="238.64599990844727" y1="0" x2="238.64599990844727" y2="377.95999908447266" fill="rgb(0, 0, 0)" stroke="rgb(60, 60, 60)" stroke-width="1px" opacity="0.25"></line><line x1="318.1946665445963" y1="0" x2="318.1946665445963" y2="377.95999908447266" fill="rgb(0, 0, 0)" stroke="rgb(60, 60, 60)" stroke-width="1px" opacity="0.25"></line><line x1="397.7433331807455" y1="0" x2="397.7433331807455" y2="377.95999908447266" fill="rgb(0, 0, 0)" stroke="rgb(60, 60, 60)" stroke-width="1px" opacity="0.25"></line><line x1="477.29199981689453" y1="0" x2="477.29199981689453" y2="377.95999908447266" fill="rgb(0, 0, 0)" stroke="rgb(60, 60, 60)" stroke-width="1px" opacity="0.25"></line><line x1="556.8406664530437" y1="0" x2="556.8406664530437" y2="377.95999908447266" fill="rgb(0, 0, 0)" stroke="rgb(60, 60, 60)" stroke-width="1px" opacity="0.25"></line><line x1="636.3893330891926" y1="0" x2="636.3893330891926" y2="377.95999908447266" fill="rgb(0, 0, 0)" stroke="rgb(60, 60, 60)" stroke-width="1px" opacity="0.25"></line><line x1="715.9379997253418" y1="0" x2="715.9379997253418" y2="377.95999908447266" fill="rgb(0, 0, 0)" stroke="rgb(60, 60, 60)" stroke-width="1px" opacity="0.25"></line><line x1="795.486666361491" y1="0" x2="795.486666361491" y2="377.95999908447266" fill="rgb(0, 0, 0)" stroke="rgb(60, 60, 60)" stroke-width="1px" opacity="0.25"></line><line x1="875.0353329976399" y1="0" x2="875.0353329976399" y2="377.95999908447266" fill="rgb(0, 0, 0)" stroke="rgb(60, 60, 60)" stroke-width="1px" opacity="0.25"></line><line x1="954.5839996337891" y1="0" x2="954.5839996337891" y2="377.95999908447266" fill="rgb(0, 0, 0)" stroke="rgb(60, 60, 60)" stroke-width="1px" opacity="0.25"></line></g><g><line x1="0" y1="377.95999908447266" x2="954.5839996337891" y2="377.95999908447266" fill="rgb(0, 0, 0)" stroke="rgb(60, 60, 60)" stroke-width="1px" opacity="0.25"></line><line x1="0" y1="340.1639991760254" x2="954.5839996337891" y2="340.1639991760254" fill="rgb(0, 0, 0)" stroke="rgb(60, 60, 60)" stroke-width="1px" opacity="0.25"></line><line x1="0" y1="302.3679992675781" x2="954.5839996337891" y2="302.3679992675781" fill="rgb(0, 0, 0)" stroke="rgb(60, 60, 60)" stroke-width="1px" opacity="0.25"></line><line x1="0" y1="264.57199935913087" x2="954.5839996337891" y2="264.57199935913087" fill="rgb(0, 0, 0)" stroke="rgb(60, 60, 60)" stroke-width="1px" opacity="0.25"></line><line x1="0" y1="226.7759994506836" x2="954.5839996337891" y2="226.7759994506836" fill="rgb(0, 0, 0)" stroke="rgb(60, 60, 60)" stroke-width="1px" opacity="0.25"></line><line x1="0" y1="188.97999954223633" x2="954.5839996337891" y2="188.97999954223633" fill="rgb(0, 0, 0)" stroke="rgb(60, 60, 60)" stroke-width="1px" opacity="0.25"></line><line x1="0" y1="151.18399963378906" x2="954.5839996337891" y2="151.18399963378906" fill="rgb(0, 0, 0)" stroke="rgb(60, 60, 60)" stroke-width="1px" opacity="0.25"></line><line x1="0" y1="113.38799972534181" x2="954.5839996337891" y2="113.38799972534181" fill="rgb(0, 0, 0)" stroke="rgb(60, 60, 60)" stroke-width="1px" opacity="0.25"></line><line x1="0" y1="75.59199981689456" x2="954.5839996337891" y2="75.59199981689456" fill="rgb(0, 0, 0)" stroke="rgb(60, 60, 60)" stroke-width="1px" opacity="0.25"></line><line x1="0" y1="37.79599990844726" x2="954.5839996337891" y2="37.79599990844726" fill="rgb(0, 0, 0)" stroke="rgb(60, 60, 60)" stroke-width="1px" opacity="0.25"></line><line x1="0" y1="0" x2="954.5839996337891" y2="0" fill="rgb(0, 0, 0)" stroke="rgb(60, 60, 60)" stroke-width="1px" opacity="0.25"></line></g></g></g><g><g><line x1="0" y1="340.1639991760254" x2="954.5839996337891" y2="340.1639991760254" fill="rgb(0, 0, 0)" stroke="rgb(153, 153, 153)" stroke-width="1.5px"></line></g></g><g><g><line x1="79.54866663614908" y1="0" x2="79.54866663614908" y2="377.95999908447266" fill="rgb(0, 0, 0)" stroke="rgb(153, 153, 153)" stroke-width="1.5px"></line></g></g><g><g><g><g><g><path style="fill: none;" stroke="rgb(0, 153, 136)" stroke-width="2px" d="M79.54866663614908,27.793577376275707L95.45839996337891,113.03476447331039L111.36813329060872,162.2664892340086L127.27786661783854,188.09302259422674L143.18759994506834,202.93368324002157L159.09733327229816,211.60496956393737L175.00706659952797,216.98373555057668L190.91679992675782,220.21493725163845L206.82653325398763,222.1620421357849L222.73626658121745,223.3278787920515L238.64599990844727,224.02896203868096L254.55573323567708,224.45120011491943L270.4654665629069,224.7048652827185L286.3751998901367,224.8571001865802L302.28493321736653,224.9486036534613L318.1946665445963,225.00361790482194L334.10439987182616,225.03663454666503L350.01413319905595,225.05644095469432L365.92386652628585,225.06831450023148L381.83359985351564,225.07543816448006L397.7433331807455,225.07971219633606L413.65306650797527,225.08227655544295L429.5627998352051,225.08381514930528L445.4725331624349,225.0847382978462L461.38226648966474,225.0852921841712L477.29199981689453,225.08562451495843L493.2017331441244,225.08582391306788L509.11146647135416,225.085943551803L525.021199798584,225.08601533499703L540.9309331258138,225.0860584048965L556.8406664530437,225.08608424683013L572.7503997802734,225.0860997519881L588.6601331075033,225.0861090550821L604.5698664347331,225.08611463693816L620.479599761963,225.08611798605173L636.3893330891926,225.08611999551985L652.2990664164225,225.08612120120068L668.2087997436523,225.08612192460916L684.1185330708822,225.08612235865428L700.0282663981119,225.08612261908135L715.9379997253418,225.0861227753376L731.8477330525717,225.0861228690913L747.7574663798014,225.08612292534357L763.6671997070313,225.0861229590949L779.5769330342611,225.0861229793457L795.486666361491,225.08612299149624L811.3963996887206,225.0861229987865L827.3061330159505,225.0861230031607L843.2158663431803,225.0861230057852L859.1255996704102,225.08612300735987" fill="none"></path></g><g><path style="fill: none;" stroke="rgb(0, 119, 187)" stroke-width="2px" d="M79.54866663614908,-37.58644285729628L95.45839996337891,53.23293774102062L111.36813329060872,105.46115427431879L127.27786661783854,141.9731217501128L143.18759994506834,164.29583633188798L159.09733327229816,179.15377991098498L175.00706659952797,189.22946749587845L190.91679992675782,197.64943769027178L206.82653325398763,202.95441343734683L222.73626658121745,206.63777001890958L238.64599990844727,209.35578276189335L254.55573323567708,211.21954460836582L270.4654665629069,211.95863373057335L286.3751998901367,212.56761372559822L302.28493321736653,212.7297480663459L318.1946665445963,212.88020191775973L334.10439987182616,212.8906477799281L350.01413319905595,212.88923127875753L365.92386652628585,212.90084931997131L381.83359985351564,212.9072204203189L397.7433331807455,212.90400047054797L413.65306650797527,212.918604441411L429.5627998352051,212.92722702514087L445.4725331624349,212.93349540611973L461.38226648966474,212.93436379025525L477.29199981689453,212.93694840318466L493.2017331441244,212.93605711183224L509.11146647135416,212.93558541652348L525.021199798584,212.9354195460585L540.9309331258138,212.93567146337148L556.8406664530437,212.9357685461049L572.7503997802734,212.93606559437347L588.6601331075033,212.9363834979893L604.5698664347331,212.93657874578355L620.479599761963,212.9367364451659L636.3893330891926,212.93684007606223L652.2990664164225,212.9369067602337L668.2087997436523,212.93695578200493L684.1185330708822,212.93698068943326L700.0282663981119,212.9370001395245L715.9379997253418,212.93701180957925L731.8477330525717,212.93701881161206L747.7574663798014,212.93702301283182L763.6671997070313,212.93702553356363L779.5769330342611,212.9370270460027L795.486666361491,212.93702795346618L811.3963996887206,212.93702849794423L827.3061330159505,212.93702882463106L843.2158663431803,212.93702902064317L859.1255996704102,212.93702913825044" fill="none"></path></g><g><path style="fill: none;" stroke="rgb(51, 187, 238)" stroke-width="2px" d="M111.36813329060872,-9.460255695247678L127.27786661783854,33.70172717366011L143.18759994506834,60.429355860463474L159.09733327229816,67.4931325840837L175.00706659952797,79.47610087336678L190.91679992675782,84.31941295940128L206.82653325398763,97.76216063191787L222.73626658121745,91.7601284697707L238.64599990844727,95.68393247034764L254.55573323567708,94.93314708591753L270.4654665629069,97.29693073932862L286.3751998901367,90.12076968142968L302.28493321736653,89.44844336123944L318.1946665445963,93.60322794206053L334.10439987182616,95.45377266070479L350.01413319905595,91.63454984992615L365.92386652628585,88.3709613824876L381.83359985351564,89.35866478447727L397.7433331807455,88.55266612420733L413.65306650797527,83.31668890640003L429.5627998352051,81.07562283094599L445.4725331624349,79.76982425304912L461.38226648966474,77.86405545103754L477.29199981689453,79.38520727220222L493.2017331441244,78.64588617589293L509.11146647135416,76.06926233745051L525.021199798584,76.39288466489683L540.9309331258138,74.7717195029492L556.8406664530437,74.13117603958449L572.7503997802734,74.53265973367623L588.6601331075033,74.14820390447811L604.5698664347331,73.40195067133706L620.479599761963,73.23799964311114L636.3893330891926,73.1605531938702L652.2990664164225,72.08627804519371L668.2087997436523,71.61477437423109L684.1185330708822,71.574482557668L700.0282663981119,71.59002012853392L715.9379997253418,70.69881055465561L731.8477330525717,70.39611596592201L747.7574663798014,69.64822208290259L763.6671997070313,69.50932020134671L779.5769330342611,69.56391456080965L795.486666361491,69.20978137064944L811.3963996887206,69.05519885728538L827.3061330159505,69.05447242415354L843.2158663431803,68.5858470932037L859.1255996704102,68.27994497361601" fill="none"></path></g><g><path style="fill: none;" stroke="rgb(238, 51, 119)" stroke-width="2px" d="M79.54866663614908,-130.41580099558854L95.45839996337891,78.09991358876708L111.36813329060872,186.1160247557615L127.27786661783854,243.0763761682357L143.18759994506834,275.432845259098L159.09733327229816,293.5818774746754L175.00706659952797,303.9244010179486L190.91679992675782,310.0734399447153L206.82653325398763,313.03630971792586L222.73626658121745,315.8313949095234L238.64599990844727,317.673866592744L254.55573323567708,318.4992503860003L270.4654665629069,319.0580414930061L286.3751998901367,319.4942892010739L302.28493321736653,320.3061542491899L318.1946665445963,320.45532363973723L334.10439987182616,321.1270101936907L350.01413319905595,320.6267088586051L365.92386652628585,320.37405567397906L381.83359985351564,320.7797908305423L397.7433331807455,320.57373218201116L413.65306650797527,321.5155573094227L429.5627998352051,320.94852393052474L445.4725331624349,320.97587590395176L461.38226648966474,321.4176369881039L477.29199981689453,322.0155662852465L493.2017331441244,320.85690287508146L509.11146647135416,320.18173314469533L525.021199798584,319.5074620637209L540.9309331258138,318.3781422298514L556.8406664530437,318.9037954944334L572.7503997802734,320.09051576166695L588.6601331075033,320.26330451188386L604.5698664347331,321.4776836640641L620.479599761963,322.13378844221404L636.3893330891926,320.67220961502585L652.2990664164225,321.01337070575653L668.2087997436523,320.308356136332L684.1185330708822,320.4333964205301L700.0282663981119,321.0101939342466L715.9379997253418,320.64996188737143L731.8477330525717,319.92975369580904L747.7574663798014,320.4549989104839L763.6671997070313,320.46123468290085L779.5769330342611,320.19910824093273L795.486666361491,320.87987584941953L811.3963996887206,321.9835107301864L827.3061330159505,321.2078930660461L843.2158663431803,320.74506871415514L859.1255996704102,320.14388814624266" fill="none"></path></g><g><path style="fill: none;" stroke="rgb(255, 112, 67)" stroke-width="2px" d="M79.54866663614908,-117.94871089593511L95.45839996337891,45.51123800334089L111.36813329060872,149.91765651779724L127.27786661783854,217.0146566896144L143.18759994506834,258.2488892674239L159.09733327229816,285.23051805490945L175.00706659952797,301.5289526578067L190.91679992675782,312.09389223411966L206.82653325398763,318.5756436459001L222.73626658121745,321.8982226754364L238.64599990844727,324.69694659054255L254.55573323567708,326.36300301440434L270.4654665629069,327.82059734259525L286.3751998901367,328.4447131773245L302.28493321736653,328.7789108160936L318.1946665445963,328.5722994430656L334.10439987182616,329.3076885922425L350.01413319905595,330.2991401555579L365.92386652628585,329.2654083906181L381.83359985351564,330.0499065777835L397.7433331807455,329.772525604564L413.65306650797527,330.4557815167505L429.5627998352051,330.5735335190742L445.4725331624349,331.11572661463356L461.38226648966474,330.6417725417631L477.29199981689453,330.9455471894591L493.2017331441244,330.8237136860019L509.11146647135416,329.82676376004855L525.021199798584,329.4406004194069L540.9309331258138,330.1453115050556L556.8406664530437,329.7445688240763L572.7503997802734,330.1815800570349L588.6601331075033,329.56711420344516L604.5698664347331,329.4056753079259L620.479599761963,329.6150627580242L636.3893330891926,329.4935009191836L652.2990664164225,330.0011798495317L668.2087997436523,329.6014675762243L684.1185330708822,329.8277855353325L700.0282663981119,329.99570120145285L715.9379997253418,329.7993924419325L731.8477330525717,329.2849094592619L747.7574663798014,329.5376059336596L763.6671997070313,329.5929826248457L779.5769330342611,330.05139830814477L795.486666361491,330.63122768930185L811.3963996887206,330.82418274974225L827.3061330159505,330.36474426507135L843.2158663431803,330.9250115053993L859.1255996704102,330.68338901949613" fill="none"></path></g><g><path style="fill: none;" stroke="rgb(204, 51, 17)" stroke-width="2px" d="M79.54866663614908,-111.6146451449435L95.45839996337891,13.816483078450503L111.36813329060872,102.40144721693142L127.27786661783854,153.60442178136836L143.18759994506834,197.4569297946887L159.09733327229816,228.54828552350781L175.00706659952797,246.51626391689004L190.91679992675782,259.6598043604515L206.82653325398763,269.73782158182485L222.73626658121745,278.9852171004739L238.64599990844727,284.7220574034184L254.55573323567708,292.09413592625936L270.4654665629069,297.302302083701L286.3751998901367,299.60572284746655L302.28493321736653,304.17569078904336L318.1946665445963,308.4650389280623L334.10439987182616,312.3876152048628L350.01413319905595,312.4044225153223L365.92386652628585,312.9280746577562L381.83359985351564,314.82077674071127L397.7433331807455,316.5174239251431L413.65306650797527,318.4686639951034L429.5627998352051,319.1376649835088L445.4725331624349,317.684042651466L461.38226648966474,319.0954719099216L477.29199981689453,318.2821662245668L493.2017331441244,318.59557128083844L509.11146647135416,319.865317317912L525.021199798584,321.74883575418073L540.9309331258138,322.11609050187013L556.8406664530437,323.56139814217636L572.7503997802734,324.4801997174826L588.6601331075033,324.5494481236113L604.5698664347331,324.7133403463553L620.479599761963,324.0927177951204L636.3893330891926,323.36955641978767L652.2990664164225,322.22946844025506L668.2087997436523,323.72186118586455L684.1185330708822,324.3097748977375L700.0282663981119,325.64143131279354L715.9379997253418,325.2141176618356L731.8477330525717,326.96224984448014L747.7574663798014,324.7617020243083L763.6671997070313,324.93025793347897L779.5769330342611,324.7997720262482L795.486666361491,325.00244338862933L811.3963996887206,326.14919064950124L827.3061330159505,326.1329086782094L843.2158663431803,325.8639320439405L859.1255996704102,325.2210137195471" fill="none"></path></g></g></g></g><g opacity="0.2"><g><g><g><path style="fill: none;" stroke="rgb(0, 153, 136)" stroke-width="2px" d="M79.54866663614908,27.793577376275707L95.45839996337891,164.17947673153125L111.36813329060872,209.52894500427882L127.27786661783854,218.4650258258433L143.18759994506834,222.30964977917128L159.09733327229816,223.60048021298948L175.00706659952797,224.67545697172667L190.91679992675782,224.9260603513229L206.82653325398763,225.03364363424825L222.73626658121745,225.05901035534006L238.64599990844727,225.074228135178L254.55573323567708,225.0822594283123L270.4654665629069,225.08453477363227L286.3751998901367,225.0851542983481L302.28493321736653,225.08575129489245L318.1946665445963,225.08610048155046L334.10439987182616,225.08614553789343L350.01413319905595,225.08614553789343L365.92386652628585,225.08612300972194L381.83359985351564,225.08612300972194L397.7433331807455,225.08612300972194L413.65306650797527,225.08612300972194L429.5627998352051,225.08612300972194L445.4725331624349,225.08612300972194L461.38226648966474,225.08612300972194L477.29199981689453,225.08612300972194L493.2017331441244,225.08612300972194L509.11146647135416,225.08612300972194L525.021199798584,225.08612300972194L540.9309331258138,225.08612300972194L556.8406664530437,225.08612300972194L572.7503997802734,225.08612300972194L588.6601331075033,225.08612300972194L604.5698664347331,225.08612300972194L620.479599761963,225.08612300972194L636.3893330891926,225.08612300972194L652.2990664164225,225.08612300972194L668.2087997436523,225.08612300972194L684.1185330708822,225.08612300972194L700.0282663981119,225.08612300972194L715.9379997253418,225.08612300972194L731.8477330525717,225.08612300972194L747.7574663798014,225.08612300972194L763.6671997070313,225.08612300972194L779.5769330342611,225.08612300972194L795.486666361491,225.08612300972194L811.3963996887206,225.08612300972194L827.3061330159505,225.08612300972194L843.2158663431803,225.08612300972194L859.1255996704102,225.08612300972194" fill="none"></path></g><g><path style="fill: none;" stroke="rgb(0, 119, 187)" stroke-width="2px" d="M79.54866663614908,-37.58644285729628L95.45839996337891,107.72456610001073L111.36813329060872,155.600242146285L127.27786661783854,184.91119550164657L143.18759994506834,193.44037248985373L159.09733327229816,199.70766474056458L175.00706659952797,203.63786195327734L190.91679992675782,209.92583506541118L206.82653325398763,210.77822222579343L222.73626658121745,212.10712526942083L238.64599990844727,213.40814970083588L254.55573323567708,214.00504486840973L270.4654665629069,213.0648541596657L286.3751998901367,213.47989066292902L302.28493321736653,212.9727589946361L318.1946665445963,213.10577658316774L334.10439987182616,212.90631215284188L350.01413319905595,212.88710688665114L365.92386652628585,212.91827461190027L381.83359985351564,212.91677648849654L397.7433331807455,212.89917072248122L413.65306650797527,212.9405099171557L429.5627998352051,212.9401607304977L445.4725331624349,212.9428979033331L461.38226648966474,212.9356663602865L477.29199981689453,212.9408253115565L493.2017331441244,212.93472017708413L509.11146647135416,212.93487787428452L525.021199798584,212.93517074051383L540.9309331258138,212.93604933920173L556.8406664530437,212.93591417017282L572.7503997802734,212.93651116671717L588.6601331075033,212.93686035337518L604.5698664347331,212.93687161746092L620.479599761963,212.9369729942326L636.3893330891926,212.9369955224041L652.2990664164225,212.93700678648983L668.2087997436523,212.93702931466132L684.1185330708822,212.93701805057557L700.0282663981119,212.93702931466132L715.9379997253418,212.93702931466132L731.8477330525717,212.93702931466132L747.7574663798014,212.93702931466132L763.6671997070313,212.93702931466132L779.5769330342611,212.93702931466132L795.486666361491,212.93702931466132L811.3963996887206,212.93702931466132L827.3061330159505,212.93702931466132L843.2158663431803,212.93702931466132L859.1255996704102,212.93702931466132" fill="none"></path></g><g><path style="fill: none;" stroke="rgb(51, 187, 238)" stroke-width="2px" d="M79.54866663614908,-15.55736048363218L95.45839996337891,1.0751659953776735L111.36813329060872,-13.586550985804422L127.27786661783854,84.46021902749554L143.18759994506834,95.32494787395409L159.09733327229816,77.26487875247095L175.00706659952797,96.61193725453414L190.91679992675782,91.38100847663564L206.82653325398763,117.58760232957194L222.73626658121745,82.84781020981846L238.64599990844727,101.53404985771986L254.55573323567708,93.81105475017976L270.4654665629069,100.83488805569105L286.3751998901367,79.37058694114931L302.28493321736653,88.4407441753052L318.1946665445963,99.8324745373062L334.10439987182616,98.2288066501652L350.01413319905595,85.90668533401605L365.92386652628585,83.4760758561848L381.83359985351564,90.84012960745859L397.7433331807455,87.34371233668445L413.65306650797527,75.46289537174981L429.5627998352051,77.71406796370512L445.4725331624349,77.81114185463285L461.38226648966474,75.00541579340926L477.29199981689453,81.66692851693152L493.2017331441244,77.53690642314915L509.11146647135416,72.20433053551152L525.021199798584,76.87831785796435L540.9309331258138,72.33997265602112L556.8406664530437,73.17036105694852L572.7503997802734,75.13488519493204L588.6601331075033,73.57152020657723L604.5698664347331,72.28257087507801L620.479599761963,72.99207310781831L636.3893330891926,73.04438352200587L652.2990664164225,70.47486533879975L668.2087997436523,70.90751887216412L684.1185330708822,71.51404483304769L700.0282663981119,71.61332648478093L715.9379997253418,69.36199619562522L731.8477330525717,69.94207408318572L747.7574663798014,68.52638125891336L763.6671997070313,69.30096737907307L779.5769330342611,69.64580609998994L795.486666361491,68.67858158546424L811.3963996887206,68.82332508725368L827.3061330159505,69.05338277445581L843.2158663431803,67.88290909679482L859.1255996704102,67.8210917942407" fill="none"></path></g><g><path style="fill: none;" stroke="rgb(238, 51, 119)" stroke-width="2px" d="M79.54866663614908,-130.41580099558854L95.45839996337891,203.2093423393804L111.36813329060872,289.81149147607607L127.27786661783854,310.06174942930534L143.18759994506834,317.67745130412794L159.09733327229816,318.6885226804165L175.00706659952797,318.714375165206L190.91679992675782,319.0387977307148L206.82653325398763,317.4059671255868L222.73626658121745,319.9817706686372L238.64599990844727,320.420863035014L254.55573323567708,319.73283437373084L270.4654665629069,319.89440360359794L286.3751998901367,320.14780610850113L302.28493321736653,321.52299750447605L318.1946665445963,320.6789725197468L334.10439987182616,322.13425578938217L350.01413319905595,319.8763838824316L365.92386652628585,319.9951143862097L381.83359985351564,321.38835647958683L397.7433331807455,320.2646555099603L413.65306650797527,322.92826400938316L429.5627998352051,320.09798505726263L445.4725331624349,321.0169035400822L461.38226648966474,322.0802754744833L477.29199981689453,322.9124576810652L493.2017331441244,319.11891072453597L509.11146647135416,319.1689795856608L525.021199798584,318.4960560633581L540.9309331258138,316.6841631032051L556.8406664530437,319.692275216994L572.7503997802734,321.8705959263998L588.6601331075033,320.52248761658166L604.5698664347331,323.29925230535093L620.479599761963,323.11794558124177L636.3893330891926,318.47984141193194L652.2990664164225,321.5251123365742L668.2087997436523,319.25083428873984L684.1185330708822,320.62095684613075L700.0282663981119,321.8753902028939L715.9379997253418,320.1096138177809L731.8477330525717,318.849441409332L747.7574663798014,321.24286673211697L763.6671997070313,320.4705883415237L779.5769330342611,319.80591857804876L795.486666361491,321.90102726204356L811.3963996887206,323.6389630512336L827.3061330159505,320.0444665698792L843.2158663431803,320.05083218633433L859.1255996704102,319.242117294386" fill="none"></path></g><g><path style="fill: none;" stroke="rgb(255, 112, 67)" stroke-width="2px" d="M79.54866663614908,-117.94871089593511L95.45839996337891,143.58720734290645L111.36813329060872,250.1478182916753L127.27786661783854,295.92072889167144L143.18759994506834,312.0843033210121L159.09733327229816,322.5558240543653L175.00706659952797,324.8359749149036L190.91679992675782,327.49767555980384L206.82653325398763,328.13496796288194L222.73626658121745,326.83186530764743L238.64599990844727,328.8696482432779L254.55573323567708,328.85302104471145L270.4654665629069,330.00222953650155L286.3751998901367,329.3796642215262L302.28493321736653,329.27981443746836L318.1946665445963,328.2625281018714L334.10439987182616,330.4104611239658L350.01413319905595,331.7860657710864L365.92386652628585,327.71496822183843L381.83359985351564,331.2265821522897L397.7433331807455,329.3564693569666L413.65306650797527,331.4806429022035L429.5627998352051,330.75015919775194L445.4725331624349,331.9290098351785L461.38226648966474,329.93084480112003L477.29199981689453,331.401207865543L493.2017331441244,330.64096374255473L509.11146647135416,328.3313404016715L525.021199798584,328.8613557641554L540.9309331258138,331.20237774404546L556.8406664530437,329.143454935498L572.7503997802734,330.8370968195223L588.6601331075033,328.6454154964153L604.5698664347331,329.16351697621053L620.479599761963,329.92914392417293L636.3893330891926,329.3111581640572L652.2990664164225,330.7626982371993L668.2087997436523,329.0018991699737L684.1185330708822,330.1672624727344L700.0282663981119,330.24757470007216L715.9379997253418,329.5049293030456L731.8477330525717,328.5131849858749L747.7574663798014,329.9166506450739L763.6671997070313,329.6760476616008L779.5769330342611,330.7390218329742L795.486666361491,331.50097176094704L811.3963996887206,331.11361534038485L827.3061330159505,329.6755865380908L843.2158663431803,331.7654123658724L859.1255996704102,330.32095529064617" fill="none"></path></g><g><path style="fill: none;" stroke="rgb(204, 51, 17)" stroke-width="2px" d="M79.54866663614908,-111.6146451449435L95.45839996337891,89.07516001248688L111.36813329060872,187.443012789873L127.27786661783854,213.8191198691462L143.18759994506834,254.71076425687986L159.09733327229816,271.55882338452705L175.00706659952797,272.210760507081L190.91679992675782,278.82321250515236L206.82653325398763,284.6009394292855L222.73626658121745,292.7165217172044L238.64599990844727,293.2752851385189L254.55573323567708,303.1121351847505L270.4654665629069,305.0975457537218L286.3751998901367,303.0563413520471L302.28493321736653,311.02527087564323L318.1946665445963,314.8960359559578L334.10439987182616,318.26981971724405L350.01413319905595,312.4296292136373L365.92386652628585,313.7134730982738L381.83359985351564,317.65965686467644L397.7433331807455,319.06230165362695L413.65306650797527,321.3954598936581L429.5627998352051,320.1411532578595L445.4725331624349,315.50362637294404L461.38226648966474,321.2126057657701L477.29199981689453,317.0622111649119L493.2017331441244,319.0656780633282L509.11146647135416,321.7699344241631L525.021199798584,324.57411167359714L540.9309331258138,322.6669724204281L556.8406664530437,325.7293591233559L572.7503997802734,325.8584018976312L588.6601331075033,324.6533207245375L604.5698664347331,324.9591786687322L620.479599761963,323.1617839949403L636.3893330891926,322.2848143754361L652.2990664164225,320.51933648859523L668.2087997436523,325.9604502904249L684.1185330708822,325.19164546227245L700.0282663981119,327.6389159309274L715.9379997253418,324.5731471862555L731.8477330525717,329.5844481163439L747.7574663798014,321.4608802956391L763.6671997070313,325.18309179716186L779.5769330342611,324.60404316543605L795.486666361491,325.3064504321694L811.3963996887206,327.8693115407018L827.3061330159505,326.10848572127253L843.2158663431803,325.46046709254625L859.1255996704102,324.2566362329699" fill="none"></path></g></g></g></g></g><g><g opacity="0.0594142"><span fill="rgb(0, 0, 0)" stroke="none" stroke-width="1px">Alt + Scroll to Zoom</span></g></g></g><g transform="translate(51, 377)" clip-path="url(#clip_1)"><clipPath id="clip_1"><rect width="954" height="22"></rect></clipPath><g><g><line x1="0" y1="0" x2="0" y2="5" style="visibility: inherit;" fill="rgb(0, 0, 0)" stroke="rgb(204, 204, 204)" stroke-width="1px"></line><line x1="79.54866663614908" y1="0" x2="79.54866663614908" y2="5" style="visibility: inherit;" fill="rgb(0, 0, 0)" stroke="rgb(204, 204, 204)" stroke-width="1px"></line><line x1="159.09733327229816" y1="0" x2="159.09733327229816" y2="5" style="visibility: inherit;" fill="rgb(0, 0, 0)" stroke="rgb(204, 204, 204)" stroke-width="1px"></line><line x1="238.64599990844727" y1="0" x2="238.64599990844727" y2="5" style="visibility: inherit;" fill="rgb(0, 0, 0)" stroke="rgb(204, 204, 204)" stroke-width="1px"></line><line x1="318.1946665445963" y1="0" x2="318.1946665445963" y2="5" style="visibility: inherit;" fill="rgb(0, 0, 0)" stroke="rgb(204, 204, 204)" stroke-width="1px"></line><line x1="397.7433331807455" y1="0" x2="397.7433331807455" y2="5" style="visibility: inherit;" fill="rgb(0, 0, 0)" stroke="rgb(204, 204, 204)" stroke-width="1px"></line><line x1="477.29199981689453" y1="0" x2="477.29199981689453" y2="5" style="visibility: inherit;" fill="rgb(0, 0, 0)" stroke="rgb(204, 204, 204)" stroke-width="1px"></line><line x1="556.8406664530437" y1="0" x2="556.8406664530437" y2="5" style="visibility: inherit;" fill="rgb(0, 0, 0)" stroke="rgb(204, 204, 204)" stroke-width="1px"></line><line x1="636.3893330891926" y1="0" x2="636.3893330891926" y2="5" style="visibility: inherit;" fill="rgb(0, 0, 0)" stroke="rgb(204, 204, 204)" stroke-width="1px"></line><line x1="715.9379997253418" y1="0" x2="715.9379997253418" y2="5" style="visibility: inherit;" fill="rgb(0, 0, 0)" stroke="rgb(204, 204, 204)" stroke-width="1px"></line><line x1="795.486666361491" y1="0" x2="795.486666361491" y2="5" style="visibility: inherit;" fill="rgb(0, 0, 0)" stroke="rgb(204, 204, 204)" stroke-width="1px"></line><line x1="875.0353329976399" y1="0" x2="875.0353329976399" y2="5" style="visibility: inherit;" fill="rgb(0, 0, 0)" stroke="rgb(204, 204, 204)" stroke-width="1px"></line><line x1="954.5839996337891" y1="0" x2="954.5839996337891" y2="5" style="visibility: inherit;" fill="rgb(0, 0, 0)" stroke="rgb(204, 204, 204)" stroke-width="1px"></line></g><g transform="translate(0, 8)"><text style="text-anchor: middle; visibility: hidden; font-family: Roboto, sans-serif; font-size: 12px; font-weight: 200;" x="0" y="0" dx="0em" dy="0.95em" fill="rgb(50, 49, 63)" stroke="none" stroke-width="1px">-5</text><text style="text-anchor: middle; visibility: inherit; font-family: Roboto, sans-serif; font-size: 12px; font-weight: 200;" x="79.54866663614908" y="0" dx="0em" dy="0.95em" fill="rgb(50, 49, 63)" stroke="none" stroke-width="1px">0</text><text style="text-anchor: middle; visibility: inherit; font-family: Roboto, sans-serif; font-size: 12px; font-weight: 200;" x="159.09733327229816" y="0" dx="0em" dy="0.95em" fill="rgb(50, 49, 63)" stroke="none" stroke-width="1px">5</text><text style="text-anchor: middle; visibility: inherit; font-family: Roboto, sans-serif; font-size: 12px; font-weight: 200;" x="238.64599990844727" y="0" dx="0em" dy="0.95em" fill="rgb(50, 49, 63)" stroke="none" stroke-width="1px">10</text><text style="text-anchor: middle; visibility: inherit; font-family: Roboto, sans-serif; font-size: 12px; font-weight: 200;" x="318.1946665445963" y="0" dx="0em" dy="0.95em" fill="rgb(50, 49, 63)" stroke="none" stroke-width="1px">15</text><text style="text-anchor: middle; visibility: inherit; font-family: Roboto, sans-serif; font-size: 12px; font-weight: 200;" x="397.7433331807455" y="0" dx="0em" dy="0.95em" fill="rgb(50, 49, 63)" stroke="none" stroke-width="1px">20</text><text style="text-anchor: middle; visibility: inherit; font-family: Roboto, sans-serif; font-size: 12px; font-weight: 200;" x="477.29199981689453" y="0" dx="0em" dy="0.95em" fill="rgb(50, 49, 63)" stroke="none" stroke-width="1px">25</text><text style="text-anchor: middle; visibility: inherit; font-family: Roboto, sans-serif; font-size: 12px; font-weight: 200;" x="556.8406664530437" y="0" dx="0em" dy="0.95em" fill="rgb(50, 49, 63)" stroke="none" stroke-width="1px">30</text><text style="text-anchor: middle; visibility: inherit; font-family: Roboto, sans-serif; font-size: 12px; font-weight: 200;" x="636.3893330891926" y="0" dx="0em" dy="0.95em" fill="rgb(50, 49, 63)" stroke="none" stroke-width="1px">35</text><text style="text-anchor: middle; visibility: inherit; font-family: Roboto, sans-serif; font-size: 12px; font-weight: 200;" x="715.9379997253418" y="0" dx="0em" dy="0.95em" fill="rgb(50, 49, 63)" stroke="none" stroke-width="1px">40</text><text style="text-anchor: middle; visibility: inherit; font-family: Roboto, sans-serif; font-size: 12px; font-weight: 200;" x="795.486666361491" y="0" dx="0em" dy="0.95em" fill="rgb(50, 49, 63)" stroke="none" stroke-width="1px">45</text><text style="text-anchor: middle; visibility: inherit; font-family: Roboto, sans-serif; font-size: 12px; font-weight: 200;" x="875.0353329976399" y="0" dx="0em" dy="0.95em" fill="rgb(50, 49, 63)" stroke="none" stroke-width="1px">50</text><text style="text-anchor: middle; visibility: hidden; font-family: Roboto, sans-serif; font-size: 12px; font-weight: 200;" x="954.5839996337891" y="0" dx="0em" dy="0.95em" fill="rgb(50, 49, 63)" stroke="none" stroke-width="1px">55</text></g><line x1="0" y1="0" x2="954.5839996337891" y2="0" fill="rgb(0, 0, 0)" stroke="rgb(204, 204, 204)" stroke-width="1px"></line></g></g></g></g></svg>