<svg viewBox="0 0 1006 400" xmlns="http://www.w3.org/2000/svg"><g><g><g><g><g><line x1="51.41600036621094" y1="377.95999908447266" x2="46.41600036621094" y2="377.95999908447266" style="visibility: inherit;" fill="rgb(0, 0, 0)" stroke="rgb(204, 204, 204)" stroke-width="1px"></line><line x1="51.41600036621094" y1="323.96571350097656" x2="46.41600036621094" y2="323.96571350097656" style="visibility: inherit;" fill="rgb(0, 0, 0)" stroke="rgb(204, 204, 204)" stroke-width="1px"></line><line x1="51.41600036621094" y1="269.97142791748047" x2="46.41600036621094" y2="269.97142791748047" style="visibility: inherit;" fill="rgb(0, 0, 0)" stroke="rgb(204, 204, 204)" stroke-width="1px"></line><line x1="51.41600036621094" y1="215.97714233398438" x2="46.41600036621094" y2="215.97714233398438" style="visibility: inherit;" fill="rgb(0, 0, 0)" stroke="rgb(204, 204, 204)" stroke-width="1px"></line><line x1="51.41600036621094" y1="161.98285675048828" x2="46.41600036621094" y2="161.98285675048828" style="visibility: inherit;" fill="rgb(0, 0, 0)" stroke="rgb(204, 204, 204)" stroke-width="1px"></line><line x1="51.41600036621094" y1="107.98857116699219" x2="46.41600036621094" y2="107.98857116699219" style="visibility: inherit;" fill="rgb(0, 0, 0)" stroke="rgb(204, 204, 204)" stroke-width="1px"></line><line x1="51.41600036621094" y1="53.994285583496115" x2="46.41600036621094" y2="53.994285583496115" style="visibility: inherit;" fill="rgb(0, 0, 0)" stroke="rgb(204, 204, 204)" stroke-width="1px"></line><line x1="51.41600036621094" y1="0" x2="46.41600036621094" y2="0" style="visibility: inherit;" fill="rgb(0, 0, 0)" stroke="rgb(204, 204, 204)" stroke-width="1px"></line></g><g transform="translate(41.41600036621094, 0)"><text style="text-anchor: end; visibility: hidden; font-family: Roboto, sans-serif; font-size: 12px; font-weight: 200;" x="0" y="377.95999908447266" dx="0em" dy="0.3em" fill="rgb(50, 49, 63)" stroke="none" stroke-width="1px">-0.5</text><text style="text-anchor: end; visibility: inherit; font-family: Roboto, sans-serif; font-size: 12px; font-weight: 200;" x="0" y="323.96571350097656" dx="0em" dy="0.3em" fill="rgb(50, 49, 63)" stroke="none" stroke-width="1px">0</text><text style="text-anchor: end; visibility: inherit; font-family: Roboto, sans-serif; font-size: 12px; font-weight: 200;" x="0" y="269.97142791748047" dx="0em" dy="0.3em" fill="rgb(50, 49, 63)" stroke="none" stroke-width="1px">0.5</text><text style="text-anchor: end; visibility: inherit; font-family: Roboto, sans-serif; font-size: 12px; font-weight: 200;" x="0" y="215.97714233398438" dx="0em" dy="0.3em" fill="rgb(50, 49, 63)" stroke="none" stroke-width="1px">1</text><text style="text-anchor: end; visibility: inherit; font-family: Roboto, sans-serif; font-size: 12px; font-weight: 200;" x="0" y="161.98285675048828" dx="0em" dy="0.3em" fill="rgb(50, 49, 63)" stroke="none" stroke-width="1px">1.5</text><text style="text-anchor: end; visibility: inherit; font-family: Roboto, sans-serif; font-size: 12px; font-weight: 200;" x="0" y="107.98857116699219" dx="0em" dy="0.3em" fill="rgb(50, 49, 63)" stroke="none" stroke-width="1px">2</text><text style="text-anchor: end; visibility: inherit; font-family: Roboto, sans-serif; font-size: 12px; font-weight: 200;" x="0" y="53.994285583496115" dx="0em" dy="0.3em" fill="rgb(50, 49, 63)" stroke="none" stroke-width="1px">2.5</text><text style="text-anchor: end; visibility: hidden; font-family: Roboto, sans-serif; font-size: 12px; font-weight: 200;" x="0" y="0" dx="0em" dy="0.3em" fill="rgb(50, 49, 63)" stroke="none" stroke-width="1px">3</text></g><line x1="51.41600036621094" y1="0" x2="51.41600036621094" y2="377.95999908447266" fill="rgb(0, 0, 0)" stroke="rgb(204, 204, 204)" stroke-width="1px"></line></g></g><g transform="translate(51, 0)" clip-path="url(#clip_0)"><clipPath id="clip_0"><rect width="954" height="377"></rect></clipPath><g><g><g><line x1="0" y1="0" x2="0" y2="377.95999908447266" fill="rgb(0, 0, 0)" stroke="rgb(60, 60, 60)" stroke-width="1px" opacity="0.25"></line><line x1="79.54866663614908" y1="0" x2="79.54866663614908" y2="377.95999908447266" fill="rgb(0, 0, 0)" stroke="rgb(60, 60, 60)" stroke-width="1px" opacity="0.25"></line><line x1="159.09733327229816" y1="0" x2="159.09733327229816" y2="377.95999908447266" fill="rgb(0, 0, 0)" stroke="rgb(60, 60, 60)" stroke-width="1px" opacity="0.25"></line><line x1="238.64599990844727" y1="0" x2="238.64599990844727" y2="377.95999908447266" fill="rgb(0, 0, 0)" stroke="rgb(60, 60, 60)" stroke-width="1px" opacity="0.25"></line><line x1="318.1946665445963" y1="0" x2="318.1946665445963" y2="377.95999908447266" fill="rgb(0, 0, 0)" stroke="rgb(60, 60, 60)" stroke-width="1px" opacity="0.25"></line><line x1="397.7433331807455" y1="0" x2="397.7433331807455" y2="377.95999908447266" fill="rgb(0, 0, 0)" stroke="rgb(60, 60, 60)" stroke-width="1px" opacity="0.25"></line><line x1="477.29199981689453" y1="0" x2="477.29199981689453" y2="377.95999908447266" fill="rgb(0, 0, 0)" stroke="rgb(60, 60, 60)" stroke-width="1px" opacity="0.25"></line><line x1="556.8406664530437" y1="0" x2="556.8406664530437" y2="377.95999908447266" fill="rgb(0, 0, 0)" stroke="rgb(60, 60, 60)" stroke-width="1px" opacity="0.25"></line><line x1="636.3893330891926" y1="0" x2="636.3893330891926" y2="377.95999908447266" fill="rgb(0, 0, 0)" stroke="rgb(60, 60, 60)" stroke-width="1px" opacity="0.25"></line><line x1="715.9379997253418" y1="0" x2="715.9379997253418" y2="377.95999908447266" fill="rgb(0, 0, 0)" stroke="rgb(60, 60, 60)" stroke-width="1px" opacity="0.25"></line><line x1="795.486666361491" y1="0" x2="795.486666361491" y2="377.95999908447266" fill="rgb(0, 0, 0)" stroke="rgb(60, 60, 60)" stroke-width="1px" opacity="0.25"></line><line x1="875.0353329976399" y1="0" x2="875.0353329976399" y2="377.95999908447266" fill="rgb(0, 0, 0)" stroke="rgb(60, 60, 60)" stroke-width="1px" opacity="0.25"></line><line x1="954.5839996337891" y1="0" x2="954.5839996337891" y2="377.95999908447266" fill="rgb(0, 0, 0)" stroke="rgb(60, 60, 60)" stroke-width="1px" opacity="0.25"></line></g><g><line x1="0" y1="377.95999908447266" x2="954.5839996337891" y2="377.95999908447266" fill="rgb(0, 0, 0)" stroke="rgb(60, 60, 60)" stroke-width="1px" opacity="0.25"></line><line x1="0" y1="323.96571350097656" x2="954.5839996337891" y2="323.96571350097656" fill="rgb(0, 0, 0)" stroke="rgb(60, 60, 60)" stroke-width="1px" opacity="0.25"></line><line x1="0" y1="269.97142791748047" x2="954.5839996337891" y2="269.97142791748047" fill="rgb(0, 0, 0)" stroke="rgb(60, 60, 60)" stroke-width="1px" opacity="0.25"></line><line x1="0" y1="215.97714233398438" x2="954.5839996337891" y2="215.97714233398438" fill="rgb(0, 0, 0)" stroke="rgb(60, 60, 60)" stroke-width="1px" opacity="0.25"></line><line x1="0" y1="161.98285675048828" x2="954.5839996337891" y2="161.98285675048828" fill="rgb(0, 0, 0)" stroke="rgb(60, 60, 60)" stroke-width="1px" opacity="0.25"></line><line x1="0" y1="107.98857116699219" x2="954.5839996337891" y2="107.98857116699219" fill="rgb(0, 0, 0)" stroke="rgb(60, 60, 60)" stroke-width="1px" opacity="0.25"></line><line x1="0" y1="53.994285583496115" x2="954.5839996337891" y2="53.994285583496115" fill="rgb(0, 0, 0)" stroke="rgb(60, 60, 60)" stroke-width="1px" opacity="0.25"></line><line x1="0" y1="0" x2="954.5839996337891" y2="0" fill="rgb(0, 0, 0)" stroke="rgb(60, 60, 60)" stroke-width="1px" opacity="0.25"></line></g></g></g><g><g><line x1="0" y1="323.96571350097656" x2="954.5839996337891" y2="323.96571350097656" fill="rgb(0, 0, 0)" stroke="rgb(153, 153, 153)" stroke-width="1.5px"></line></g></g><g><g><line x1="79.54866663614908" y1="0" x2="79.54866663614908" y2="377.95999908447266" fill="rgb(0, 0, 0)" stroke="rgb(153, 153, 153)" stroke-width="1.5px"></line></g></g><g><g><g><g><g><path style="fill: none;" stroke="rgb(0, 119, 187)" stroke-width="2px" d="M79.54866663614908,140.10045851967152L95.45839996337891,128.58087756618443L111.36813329060872,107.97726846152726L127.27786661783854,88.97577280017867L143.18759994506834,130.4913051278127L159.09733327229816,67.61456059835109L175.00706659952797,95.18530925582309L190.91679992675782,71.66249969017373L206.82653325398763,77.40288375633827L222.73626658121745,119.8317081559635L238.64599990844727,113.0438542284446L254.55573323567708,122.91312432488667L270.4654665629069,112.0664662902691L286.3751998901367,111.27807040098925L302.28493321736653,76.16370559226924L318.1946665445963,101.76394727307343L334.10439987182616,99.79815190255611L350.01413319905595,87.45052547797604L365.92386652628585,57.21689545804477L381.83359985351564,107.09975112585379L397.7433331807455,87.47858914302562L413.65306650797527,83.68041667014403L429.5627998352051,87.76192917409934L445.4725331624349,82.24976192169561L461.38226648966474,81.21405820247674L477.29199981689453,79.90732127043522L493.2017331441244,81.72764901936534L509.11146647135416,68.9956791160148L525.021199798584,69.44348767216798L540.9309331258138,75.29774842687766L556.8406664530437,74.0850118995113L572.7503997802734,72.7088881992968L588.6601331075033,73.23733473612447L604.5698664347331,77.36498493528052L620.479599761963,71.45475132936191L636.3893330891926,69.86034895732155L652.2990664164225,63.65336140336511L668.2087997436523,66.59536037389988L684.1185330708822,72.13126588242814L700.0282663981119,69.3861502574291L715.9379997253418,66.67512297419673L731.8477330525717,69.31882320779187L747.7574663798014,68.48301517246729L763.6671997070313,68.50121793502696L779.5769330342611,67.61484380964976L795.486666361491,66.80233634026081L811.3963996887206,64.5404821767115L827.3061330159505,67.90590778523256L843.2158663431803,66.22190765688721L859.1255996704102,65.00337817113905" fill="none"></path></g><g><path style="fill: none;" stroke="rgb(0, 153, 136)" stroke-width="2px" d="M79.54866663614908,117.05613444311713L95.45839996337891,140.12359173347613L111.36813329060872,98.9561132186609L127.27786661783854,190.61778473593586L143.18759994506834,201.14469721436032L159.09733327229816,179.3609337549242L175.00706659952797,203.3604651756723L190.91679992675782,211.16050341137998L206.82653325398763,209.96885325252333L222.73626658121745,209.22238550868678L238.64599990844727,209.0924043958403L254.55573323567708,212.67988053575576L270.4654665629069,212.69859822794933L286.3751998901367,210.49079880272257L302.28493321736653,211.66482549485772L318.1946665445963,211.82250982201L334.10439987182616,211.5300812828973L350.01413319905595,211.05073328666552L365.92386652628585,208.457933847385L381.83359985351564,209.5215338795224L397.7433331807455,210.08684937813993L413.65306650797527,210.83423112207674L429.5627998352051,210.6765467949244L445.4725331624349,210.6079452944432L461.38226648966474,210.7003751637349L477.29199981689453,210.4598901514455L493.2017331441244,210.60107098383017L509.11146647135416,210.6061687872061L525.021199798584,210.48676947833698L540.9309331258138,210.42271223187527L556.8406664530437,210.43781254339046L572.7503997802734,210.39157186226294L588.6601331075033,210.4072385963755L604.5698664347331,210.34946349144775L620.479599761963,210.2996440493644L636.3893330891926,210.29060703428877L652.2990664164225,210.28919097779547L668.2087997436523,210.24566655048696L684.1185330708822,210.23123564749585L700.0282663981119,210.22929178812774L715.9379997253418,210.22620221032415L731.8477330525717,210.22839066126835L747.7574663798014,210.2199200687901L763.6671997070313,210.22089843509457L779.5769330342611,210.22294528038947L795.486666361491,210.22178668871314L811.3963996887206,210.22223725214283L827.3061330159505,210.22102716750302L843.2158663431803,210.22340871706004L859.1255996704102,210.22197978732584" fill="none"></path></g><g><path style="fill: none;" stroke="rgb(51, 187, 238)" stroke-width="2px" d="M79.54866663614908,85.14842956353459L95.45839996337891,219.04112169817833L111.36813329060872,237.23576767949092L127.27786661783854,247.10602257885785L143.18759994506834,248.8830704920556L159.09733327229816,251.08658312807987L175.00706659952797,251.63995225919007L190.91679992675782,251.87884742623464L206.82653325398763,252.05857074171945L222.73626658121745,252.09020029448402L238.64599990844727,252.14870273751964L254.55573323567708,252.15481752692267L270.4654665629069,252.16544438724304L286.3751998901367,252.16677676767085L302.28493321736653,252.168038345274L318.1946665445963,252.16844385236072L334.10439987182616,252.16859189463048L350.01413319905595,252.16863695097345L365.92386652628585,252.16869488055727L381.83359985351564,252.16869488055727L397.7433331807455,252.16869488055727L413.65306650797527,252.16869488055727L429.5627998352051,252.16869488055727L445.4725331624349,252.16869488055727L461.38226648966474,252.16869488055727L477.29199981689453,252.16869488055727L493.2017331441244,252.16869488055727L509.11146647135416,252.16869488055727L525.021199798584,252.16869488055727L540.9309331258138,252.16869488055727L556.8406664530437,252.16869488055727L572.7503997802734,252.16869488055727L588.6601331075033,252.16869488055727L604.5698664347331,252.16869488055727L620.479599761963,252.16869488055727L636.3893330891926,252.16869488055727L652.2990664164225,252.16869488055727L668.2087997436523,252.16869488055727L684.1185330708822,252.16869488055727L700.0282663981119,252.16869488055727L715.9379997253418,252.16869488055727L731.8477330525717,252.16869488055727L747.7574663798014,252.16869488055727L763.6671997070313,252.16869488055727L779.5769330342611,252.16869488055727L795.486666361491,252.16869488055727L811.3963996887206,252.16869488055727L827.3061330159505,252.16869488055727L843.2158663431803,252.16869488055727L859.1255996704102,252.16869488055727" fill="none"></path></g><g><path style="fill: none;" stroke="rgb(255, 112, 67)" stroke-width="2px" d="M79.54866663614908,55.35140838021834L95.45839996337891,184.97710392014233L111.36813329060872,203.799481308326L127.27786661783854,220.560254230978L143.18759994506834,235.1705458332808L159.09733327229816,241.4489090711213L175.00706659952797,233.48036654932824L190.91679992675782,235.98797088067386L206.82653325398763,253.1486124105595L222.73626658121745,282.52025665990095L238.64599990844727,295.11022184345256L254.55573323567708,294.16761418373926L270.4654665629069,298.56162460929L286.3751998901367,298.30499977128693L302.28493321736653,296.3720633480352L318.1946665445963,293.98071081817125L334.10439987182616,293.1191208997375L350.01413319905595,296.8975812225699L365.92386652628585,289.5912736114319L381.83359985351564,299.45379169304897L397.7433331807455,302.31577220762506L413.65306650797527,301.01952053025457L429.5627998352051,302.0949060143887L445.4725331624349,300.74373387324863L461.38226648966474,300.717914979572L477.29199981689453,303.5753785957654L493.2017331441244,299.68245424277416L509.11146647135416,302.7221498472627L525.021199798584,304.33902085204886L540.9309331258138,306.83138165707487L556.8406664530437,306.00123141110316L572.7503997802734,311.41085766810636L588.6601331075033,307.7658035447637L604.5698664347331,309.14688344270485L620.479599761963,307.54427920708895L636.3893330891926,305.8144197673762L652.2990664164225,310.1646289909402L668.2087997436523,307.511885305649L684.1185330708822,308.7587632769005L700.0282663981119,307.31149400198206L715.9379997253418,306.2882161784921L731.8477330525717,307.3249304471176L747.7574663798014,310.688760578351L763.6671997070313,309.3553124761265L779.5769330342611,307.19517944345125L795.486666361491,309.7388352857929L811.3963996887206,306.0843764554329L827.3061330159505,311.9518894070185L843.2158663431803,308.923809488663L859.1255996704102,308.187773897379" fill="none"></path></g><g><path style="fill: none;" stroke="rgb(238, 51, 119)" stroke-width="2px" d="M79.54866663614908,56.13816936791046L95.45839996337891,174.95618704650585L111.36813329060872,197.15627111497997L127.27786661783854,268.45532703290064L143.18759994506834,294.8760318459381L159.09733327229816,297.4593469250235L175.00706659952797,296.26157875845365L190.91679992675782,306.89446697385256L206.82653325398763,310.142882868837L222.73626658121745,311.23736580576974L238.64599990844727,311.8785923919378L254.55573323567708,313.78968212089217L270.4654665629069,314.725014790371L286.3751998901367,316.3658420917985L302.28493321736653,316.1786241364073L318.1946665445963,316.07094269502045L334.10439987182616,315.4819629614133L350.01413319905595,316.42116806265483L365.92386652628585,315.0508437574425L381.83359985351564,316.6489302900982L397.7433331807455,316.11864287982917L413.65306650797527,315.8718652664976L429.5627998352051,317.57843741580433L445.4725331624349,317.1891566468797L461.38226648966474,315.72710165026933L477.29199981689453,316.68203302436234L493.2017331441244,316.69740206478025L509.11146647135416,315.0105891333095L525.021199798584,317.2667959670141L540.9309331258138,315.08364075223653L556.8406664530437,318.5059314884728L572.7503997802734,316.1039086511006L588.6601331075033,316.5091357448374L604.5698664347331,316.6384321621863L620.479599761963,315.48487150926746L636.3893330891926,318.28785355874646L652.2990664164225,318.18612357751937L668.2087997436523,316.30652139339145L684.1185330708822,318.3213477199902L700.0282663981119,317.25546469904606L715.9379997253418,317.18564868874853L731.8477330525717,318.19195917851147L747.7574663798014,317.18978341279353L763.6671997070313,317.6213612259695L779.5769330342611,318.1567633357431L795.486666361491,316.7412652192386L811.3963996887206,315.8848334474973L827.3061330159505,317.71032095227497L843.2158663431803,315.4156577252684L859.1255996704102,317.1133606139193" fill="none"></path></g><g><path style="fill: none;" stroke="rgb(204, 51, 17)" stroke-width="2px" d="M79.54866663614908,56.57377409173933L95.45839996337891,240.91843499886L111.36813329060872,282.13508285709577L127.27786661783854,300.2852775377587L143.18759994506834,305.5440382623715L159.09733327229816,308.62378251913947L175.00706659952797,308.98505232284424L190.91679992675782,308.07490453993023L206.82653325398763,309.52174256128023L222.73626658121745,308.3949429623526L238.64599990844727,308.54136481291766L254.55573323567708,309.3772420419118L270.4654665629069,307.328335419322L286.3751998901367,308.7341029749002L302.28493321736653,308.85257541042824L318.1946665445963,308.5651481253851L334.10439987182616,310.5422124091101L350.01413319905595,307.29947200418474L365.92386652628585,308.33396724791896L381.83359985351564,308.4976134947392L397.7433331807455,308.66774946410214L413.65306650797527,308.68129694094L429.5627998352051,309.52275150153173L445.4725331624349,307.09067447424377L461.38226648966474,310.12267509901517L477.29199981689453,309.6213186883979L493.2017331441244,308.8588639885827L509.11146647135416,309.44286982375706L525.021199798584,308.40904077023674L540.9309331258138,309.02905949668457L556.8406664530437,308.821557336604L572.7503997802734,308.18217886507523L588.6601331075033,309.8441754065004L604.5698664347331,307.7951336148817L620.479599761963,308.47098519604424L636.3893330891926,308.7613668898621L652.2990664164225,307.87316959174973L668.2087997436523,309.10899588573284L684.1185330708822,308.5599103255149L700.0282663981119,308.04199731801145L715.9379997253418,309.2382223048346L731.8477330525717,309.0322247047782L747.7574663798014,308.64073818649194L763.6671997070313,310.25810320189566L779.5769330342611,310.0263430285913L795.486666361491,308.16155432408095L811.3963996887206,308.50959204534865L827.3061330159505,308.9980880883584L843.2158663431803,309.59212217815366L859.1255996704102,310.06503516311636" fill="none"></path></g></g></g></g></g></g><g transform="translate(51, 377)" clip-path="url(#clip_1)"><clipPath id="clip_1"><rect width="954" height="22"></rect></clipPath><g><g><line x1="0" y1="0" x2="0" y2="5" style="visibility: inherit;" fill="rgb(0, 0, 0)" stroke="rgb(204, 204, 204)" stroke-width="1px"></line><line x1="79.54866663614908" y1="0" x2="79.54866663614908" y2="5" style="visibility: inherit;" fill="rgb(0, 0, 0)" stroke="rgb(204, 204, 204)" stroke-width="1px"></line><line x1="159.09733327229816" y1="0" x2="159.09733327229816" y2="5" style="visibility: inherit;" fill="rgb(0, 0, 0)" stroke="rgb(204, 204, 204)" stroke-width="1px"></line><line x1="238.64599990844727" y1="0" x2="238.64599990844727" y2="5" style="visibility: inherit;" fill="rgb(0, 0, 0)" stroke="rgb(204, 204, 204)" stroke-width="1px"></line><line x1="318.1946665445963" y1="0" x2="318.1946665445963" y2="5" style="visibility: inherit;" fill="rgb(0, 0, 0)" stroke="rgb(204, 204, 204)" stroke-width="1px"></line><line x1="397.7433331807455" y1="0" x2="397.7433331807455" y2="5" style="visibility: inherit;" fill="rgb(0, 0, 0)" stroke="rgb(204, 204, 204)" stroke-width="1px"></line><line x1="477.29199981689453" y1="0" x2="477.29199981689453" y2="5" style="visibility: inherit;" fill="rgb(0, 0, 0)" stroke="rgb(204, 204, 204)" stroke-width="1px"></line><line x1="556.8406664530437" y1="0" x2="556.8406664530437" y2="5" style="visibility: inherit;" fill="rgb(0, 0, 0)" stroke="rgb(204, 204, 204)" stroke-width="1px"></line><line x1="636.3893330891926" y1="0" x2="636.3893330891926" y2="5" style="visibility: inherit;" fill="rgb(0, 0, 0)" stroke="rgb(204, 204, 204)" stroke-width="1px"></line><line x1="715.9379997253418" y1="0" x2="715.9379997253418" y2="5" style="visibility: inherit;" fill="rgb(0, 0, 0)" stroke="rgb(204, 204, 204)" stroke-width="1px"></line><line x1="795.486666361491" y1="0" x2="795.486666361491" y2="5" style="visibility: inherit;" fill="rgb(0, 0, 0)" stroke="rgb(204, 204, 204)" stroke-width="1px"></line><line x1="875.0353329976399" y1="0" x2="875.0353329976399" y2="5" style="visibility: inherit;" fill="rgb(0, 0, 0)" stroke="rgb(204, 204, 204)" stroke-width="1px"></line><line x1="954.5839996337891" y1="0" x2="954.5839996337891" y2="5" style="visibility: inherit;" fill="rgb(0, 0, 0)" stroke="rgb(204, 204, 204)" stroke-width="1px"></line></g><g transform="translate(0, 8)"><text style="text-anchor: middle; visibility: hidden; font-family: Roboto, sans-serif; font-size: 12px; font-weight: 200;" x="0" y="0" dx="0em" dy="0.95em" fill="rgb(50, 49, 63)" stroke="none" stroke-width="1px">-5</text><text style="text-anchor: middle; visibility: inherit; font-family: Roboto, sans-serif; font-size: 12px; font-weight: 200;" x="79.54866663614908" y="0" dx="0em" dy="0.95em" fill="rgb(50, 49, 63)" stroke="none" stroke-width="1px">0</text><text style="text-anchor: middle; visibility: inherit; font-family: Roboto, sans-serif; font-size: 12px; font-weight: 200;" x="159.09733327229816" y="0" dx="0em" dy="0.95em" fill="rgb(50, 49, 63)" stroke="none" stroke-width="1px">5</text><text style="text-anchor: middle; visibility: inherit; font-family: Roboto, sans-serif; font-size: 12px; font-weight: 200;" x="238.64599990844727" y="0" dx="0em" dy="0.95em" fill="rgb(50, 49, 63)" stroke="none" stroke-width="1px">10</text><text style="text-anchor: middle; visibility: inherit; font-family: Roboto, sans-serif; font-size: 12px; font-weight: 200;" x="318.1946665445963" y="0" dx="0em" dy="0.95em" fill="rgb(50, 49, 63)" stroke="none" stroke-width="1px">15</text><text style="text-anchor: middle; visibility: inherit; font-family: Roboto, sans-serif; font-size: 12px; font-weight: 200;" x="397.7433331807455" y="0" dx="0em" dy="0.95em" fill="rgb(50, 49, 63)" stroke="none" stroke-width="1px">20</text><text style="text-anchor: middle; visibility: inherit; font-family: Roboto, sans-serif; font-size: 12px; font-weight: 200;" x="477.29199981689453" y="0" dx="0em" dy="0.95em" fill="rgb(50, 49, 63)" stroke="none" stroke-width="1px">25</text><text style="text-anchor: middle; visibility: inherit; font-family: Roboto, sans-serif; font-size: 12px; font-weight: 200;" x="556.8406664530437" y="0" dx="0em" dy="0.95em" fill="rgb(50, 49, 63)" stroke="none" stroke-width="1px">30</text><text style="text-anchor: middle; visibility: inherit; font-family: Roboto, sans-serif; font-size: 12px; font-weight: 200;" x="636.3893330891926" y="0" dx="0em" dy="0.95em" fill="rgb(50, 49, 63)" stroke="none" stroke-width="1px">35</text><text style="text-anchor: middle; visibility: inherit; font-family: Roboto, sans-serif; font-size: 12px; font-weight: 200;" x="715.9379997253418" y="0" dx="0em" dy="0.95em" fill="rgb(50, 49, 63)" stroke="none" stroke-width="1px">40</text><text style="text-anchor: middle; visibility: inherit; font-family: Roboto, sans-serif; font-size: 12px; font-weight: 200;" x="795.486666361491" y="0" dx="0em" dy="0.95em" fill="rgb(50, 49, 63)" stroke="none" stroke-width="1px">45</text><text style="text-anchor: middle; visibility: inherit; font-family: Roboto, sans-serif; font-size: 12px; font-weight: 200;" x="875.0353329976399" y="0" dx="0em" dy="0.95em" fill="rgb(50, 49, 63)" stroke="none" stroke-width="1px">50</text><text style="text-anchor: middle; visibility: hidden; font-family: Roboto, sans-serif; font-size: 12px; font-weight: 200;" x="954.5839996337891" y="0" dx="0em" dy="0.95em" fill="rgb(50, 49, 63)" stroke="none" stroke-width="1px">55</text></g><line x1="0" y1="0" x2="954.5839996337891" y2="0" fill="rgb(0, 0, 0)" stroke="rgb(204, 204, 204)" stroke-width="1px"></line></g></g></g></g></svg>