<svg viewBox="0 0 1006 400" xmlns="http://www.w3.org/2000/svg"><g><g><g><g><g><line x1="51.41600036621094" y1="377.95999908447266" x2="46.41600036621094" y2="377.95999908447266" style="visibility: inherit;" fill="rgb(0, 0, 0)" stroke="rgb(204, 204, 204)" stroke-width="1px"></line><line x1="51.41600036621094" y1="330.7149991989135" x2="46.41600036621094" y2="330.7149991989135" style="visibility: inherit;" fill="rgb(0, 0, 0)" stroke="rgb(204, 204, 204)" stroke-width="1px"></line><line x1="51.41600036621094" y1="283.46999931335444" x2="46.41600036621094" y2="283.46999931335444" style="visibility: inherit;" fill="rgb(0, 0, 0)" stroke="rgb(204, 204, 204)" stroke-width="1px"></line><line x1="51.41600036621094" y1="236.22499942779532" x2="46.41600036621094" y2="236.22499942779532" style="visibility: inherit;" fill="rgb(0, 0, 0)" stroke="rgb(204, 204, 204)" stroke-width="1px"></line><line x1="51.41600036621094" y1="188.97999954223621" x2="46.41600036621094" y2="188.97999954223621" style="visibility: inherit;" fill="rgb(0, 0, 0)" stroke="rgb(204, 204, 204)" stroke-width="1px"></line><line x1="51.41600036621094" y1="141.73499965667708" x2="46.41600036621094" y2="141.73499965667708" style="visibility: inherit;" fill="rgb(0, 0, 0)" stroke="rgb(204, 204, 204)" stroke-width="1px"></line><line x1="51.41600036621094" y1="94.48999977111825" x2="46.41600036621094" y2="94.48999977111825" style="visibility: inherit;" fill="rgb(0, 0, 0)" stroke="rgb(204, 204, 204)" stroke-width="1px"></line><line x1="51.41600036621094" y1="47.244999885559125" x2="46.41600036621094" y2="47.244999885559125" style="visibility: inherit;" fill="rgb(0, 0, 0)" stroke="rgb(204, 204, 204)" stroke-width="1px"></line><line x1="51.41600036621094" y1="0" x2="46.41600036621094" y2="0" style="visibility: inherit;" fill="rgb(0, 0, 0)" stroke="rgb(204, 204, 204)" stroke-width="1px"></line></g><g transform="translate(41.41600036621094, 0)"><text style="text-anchor: end; visibility: hidden; font-family: Roboto, sans-serif; font-size: 12px; font-weight: 200;" x="0" y="377.95999908447266" dx="0em" dy="0.3em" fill="rgb(50, 49, 63)" stroke="none" stroke-width="1px">0.82</text><text style="text-anchor: end; visibility: inherit; font-family: Roboto, sans-serif; font-size: 12px; font-weight: 200;" x="0" y="330.7149991989135" dx="0em" dy="0.3em" fill="rgb(50, 49, 63)" stroke="none" stroke-width="1px">0.84</text><text style="text-anchor: end; visibility: inherit; font-family: Roboto, sans-serif; font-size: 12px; font-weight: 200;" x="0" y="283.46999931335444" dx="0em" dy="0.3em" fill="rgb(50, 49, 63)" stroke="none" stroke-width="1px">0.86</text><text style="text-anchor: end; visibility: inherit; font-family: Roboto, sans-serif; font-size: 12px; font-weight: 200;" x="0" y="236.22499942779532" dx="0em" dy="0.3em" fill="rgb(50, 49, 63)" stroke="none" stroke-width="1px">0.88</text><text style="text-anchor: end; visibility: inherit; font-family: Roboto, sans-serif; font-size: 12px; font-weight: 200;" x="0" y="188.97999954223621" dx="0em" dy="0.3em" fill="rgb(50, 49, 63)" stroke="none" stroke-width="1px">0.9</text><text style="text-anchor: end; visibility: inherit; font-family: Roboto, sans-serif; font-size: 12px; font-weight: 200;" x="0" y="141.73499965667708" dx="0em" dy="0.3em" fill="rgb(50, 49, 63)" stroke="none" stroke-width="1px">0.92</text><text style="text-anchor: end; visibility: inherit; font-family: Roboto, sans-serif; font-size: 12px; font-weight: 200;" x="0" y="94.48999977111825" dx="0em" dy="0.3em" fill="rgb(50, 49, 63)" stroke="none" stroke-width="1px">0.94</text><text style="text-anchor: end; visibility: inherit; font-family: Roboto, sans-serif; font-size: 12px; font-weight: 200;" x="0" y="47.244999885559125" dx="0em" dy="0.3em" fill="rgb(50, 49, 63)" stroke="none" stroke-width="1px">0.96</text><text style="text-anchor: end; visibility: hidden; font-family: Roboto, sans-serif; font-size: 12px; font-weight: 200;" x="0" y="0" dx="0em" dy="0.3em" fill="rgb(50, 49, 63)" stroke="none" stroke-width="1px">0.98</text></g><line x1="51.41600036621094" y1="0" x2="51.41600036621094" y2="377.95999908447266" fill="rgb(0, 0, 0)" stroke="rgb(204, 204, 204)" stroke-width="1px"></line></g></g><g transform="translate(51, 0)" clip-path="url(#clip_0)"><clipPath id="clip_0"><rect width="954" height="377"></rect></clipPath><g><g><g><line x1="0" y1="0" x2="0" y2="377.95999908447266" fill="rgb(0, 0, 0)" stroke="rgb(60, 60, 60)" stroke-width="1px" opacity="0.25"></line><line x1="79.54866663614908" y1="0" x2="79.54866663614908" y2="377.95999908447266" fill="rgb(0, 0, 0)" stroke="rgb(60, 60, 60)" stroke-width="1px" opacity="0.25"></line><line x1="159.09733327229816" y1="0" x2="159.09733327229816" y2="377.95999908447266" fill="rgb(0, 0, 0)" stroke="rgb(60, 60, 60)" stroke-width="1px" opacity="0.25"></line><line x1="238.64599990844727" y1="0" x2="238.64599990844727" y2="377.95999908447266" fill="rgb(0, 0, 0)" stroke="rgb(60, 60, 60)" stroke-width="1px" opacity="0.25"></line><line x1="318.1946665445963" y1="0" x2="318.1946665445963" y2="377.95999908447266" fill="rgb(0, 0, 0)" stroke="rgb(60, 60, 60)" stroke-width="1px" opacity="0.25"></line><line x1="397.7433331807455" y1="0" x2="397.7433331807455" y2="377.95999908447266" fill="rgb(0, 0, 0)" stroke="rgb(60, 60, 60)" stroke-width="1px" opacity="0.25"></line><line x1="477.29199981689453" y1="0" x2="477.29199981689453" y2="377.95999908447266" fill="rgb(0, 0, 0)" stroke="rgb(60, 60, 60)" stroke-width="1px" opacity="0.25"></line><line x1="556.8406664530437" y1="0" x2="556.8406664530437" y2="377.95999908447266" fill="rgb(0, 0, 0)" stroke="rgb(60, 60, 60)" stroke-width="1px" opacity="0.25"></line><line x1="636.3893330891926" y1="0" x2="636.3893330891926" y2="377.95999908447266" fill="rgb(0, 0, 0)" stroke="rgb(60, 60, 60)" stroke-width="1px" opacity="0.25"></line><line x1="715.9379997253418" y1="0" x2="715.9379997253418" y2="377.95999908447266" fill="rgb(0, 0, 0)" stroke="rgb(60, 60, 60)" stroke-width="1px" opacity="0.25"></line><line x1="795.486666361491" y1="0" x2="795.486666361491" y2="377.95999908447266" fill="rgb(0, 0, 0)" stroke="rgb(60, 60, 60)" stroke-width="1px" opacity="0.25"></line><line x1="875.0353329976399" y1="0" x2="875.0353329976399" y2="377.95999908447266" fill="rgb(0, 0, 0)" stroke="rgb(60, 60, 60)" stroke-width="1px" opacity="0.25"></line><line x1="954.5839996337891" y1="0" x2="954.5839996337891" y2="377.95999908447266" fill="rgb(0, 0, 0)" stroke="rgb(60, 60, 60)" stroke-width="1px" opacity="0.25"></line></g><g><line x1="0" y1="377.95999908447266" x2="954.5839996337891" y2="377.95999908447266" fill="rgb(0, 0, 0)" stroke="rgb(60, 60, 60)" stroke-width="1px" opacity="0.25"></line><line x1="0" y1="330.7149991989135" x2="954.5839996337891" y2="330.7149991989135" fill="rgb(0, 0, 0)" stroke="rgb(60, 60, 60)" stroke-width="1px" opacity="0.25"></line><line x1="0" y1="283.46999931335444" x2="954.5839996337891" y2="283.46999931335444" fill="rgb(0, 0, 0)" stroke="rgb(60, 60, 60)" stroke-width="1px" opacity="0.25"></line><line x1="0" y1="236.22499942779532" x2="954.5839996337891" y2="236.22499942779532" fill="rgb(0, 0, 0)" stroke="rgb(60, 60, 60)" stroke-width="1px" opacity="0.25"></line><line x1="0" y1="188.97999954223621" x2="954.5839996337891" y2="188.97999954223621" fill="rgb(0, 0, 0)" stroke="rgb(60, 60, 60)" stroke-width="1px" opacity="0.25"></line><line x1="0" y1="141.73499965667708" x2="954.5839996337891" y2="141.73499965667708" fill="rgb(0, 0, 0)" stroke="rgb(60, 60, 60)" stroke-width="1px" opacity="0.25"></line><line x1="0" y1="94.48999977111825" x2="954.5839996337891" y2="94.48999977111825" fill="rgb(0, 0, 0)" stroke="rgb(60, 60, 60)" stroke-width="1px" opacity="0.25"></line><line x1="0" y1="47.244999885559125" x2="954.5839996337891" y2="47.244999885559125" fill="rgb(0, 0, 0)" stroke="rgb(60, 60, 60)" stroke-width="1px" opacity="0.25"></line><line x1="0" y1="0" x2="954.5839996337891" y2="0" fill="rgb(0, 0, 0)" stroke="rgb(60, 60, 60)" stroke-width="1px" opacity="0.25"></line></g></g></g><g><g><line x1="0" y1="2315.0049943923946" x2="954.5839996337891" y2="2315.0049943923946" fill="rgb(0, 0, 0)" stroke="rgb(153, 153, 153)" stroke-width="1.5px"></line></g></g><g><g><line x1="79.54866663614908" y1="0" x2="79.54866663614908" y2="377.95999908447266" fill="rgb(0, 0, 0)" stroke="rgb(153, 153, 153)" stroke-width="1.5px"></line></g></g><g><g><g><g><g><path style="fill: none;" stroke="rgb(0, 153, 136)" stroke-width="2px" d="M95.45839996337891,383.6873283769783L111.36813329060872,361.4539321972993L127.27786661783854,330.7357335440376L143.18759994506834,326.2679242768196L159.09733327229816,312.21153867397226L175.00706659952797,313.82437030199844L190.91679992675782,317.26409496208726L206.82653325398763,312.08571936658683L222.73626658121745,294.4135718121313L238.64599990844727,296.46754547098465L254.55573323567708,291.04026006448464L270.4654665629069,282.86628241594514L286.3751998901367,277.47644528373354L302.28493321736653,273.7531134261199L318.1946665445963,273.2423237317607L334.10439987182616,278.10156879655796L350.01413319905595,277.32711395248936L365.92386652628585,270.71361549720666L381.83359985351564,272.89450036308443L397.7433331807455,273.95702354233947L413.65306650797527,260.08387996694637L429.5627998352051,271.6813668509152L445.4725331624349,281.0992124987701L461.38226648966474,288.4714990866256L477.29199981689453,282.07348831361367L493.2017331441244,277.0049873355873L509.11146647135416,268.7991346230048L525.021199798584,262.64592552693756L540.9309331258138,264.85655271548654L556.8406664530437,266.1829287158401L572.7503997802734,273.61915855878146L588.6601331075033,281.2780943355649L604.5698664347331,283.1681036968838L620.479599761963,281.59681375976754L636.3893330891926,276.2270851110869L652.2990664164225,274.7268508328433L668.2087997436523,274.31861289803476L684.1185330708822,281.4518152770955L700.0282663981119,280.3210894212103L715.9379997253418,279.15075128388276L731.8477330525717,275.00539899113147L747.7574663798014,278.9126401332601L763.6671997070313,277.5678840956932L779.5769330342611,272.0881808230232L795.486666361491,274.7029087504415L811.3963996887206,274.30424765009485L827.3061330159505,276.2785001587499L843.2158663431803,278.4468005922378L859.1255996704102,272.36957940928585" fill="none"></path></g><g><path style="fill: none;" stroke="rgb(51, 187, 238)" stroke-width="2px" d="M79.54866663614908,396.0611201664438L95.45839996337891,363.397295528982L111.36813329060872,327.04746046621335L127.27786661783854,318.92248169199763L143.18759994506834,312.3780946510714L159.09733327229816,315.5004847079691L175.00706659952797,306.6510651730244L190.91679992675782,305.2547892097508L206.82653325398763,310.3948253178838L222.73626658121745,301.07368347618103L238.64599990844727,293.7893294647056L254.55573323567708,287.4638774909796L270.4654665629069,286.1400469052352L286.3751998901367,280.6703416297989L302.28493321736653,272.224081174351L318.1946665445963,271.5870711564341L334.10439987182616,278.5843743854362L350.01413319905595,274.17327855941676L365.92386652628585,272.51071667298817L381.83359985351564,275.4484402924562L397.7433331807455,268.6029152029011L413.65306650797527,264.495696259198L429.5627998352051,272.6068825494614L445.4725331624349,267.3899523111855L461.38226648966474,269.1786249352499L477.29199981689453,274.432835733017L493.2017331441244,281.02850940886054L509.11146647135416,276.62395378767025L525.021199798584,271.76777216167216L540.9309331258138,273.0350122809424L556.8406664530437,268.13875684478757L572.7503997802734,267.90635600723283L588.6601331075033,273.42351436475354L604.5698664347331,263.2071061776609L620.479599761963,256.09351250751973L636.3893330891926,264.1223589154796L652.2990664164225,270.1693669553596L668.2087997436523,270.60031732592216L684.1185330708822,268.89138968623286L700.0282663981119,269.09573334699394L715.9379997253418,268.4805419265591L731.8477330525717,271.0626738609633L747.7574663798014,272.3660017085553L763.6671997070313,266.26169959707937L779.5769330342611,261.8613207146688L795.486666361491,269.796492926255L811.3963996887206,268.9009976745757L827.3061330159505,268.60959551535075L843.2158663431803,268.4347542198202L859.1255996704102,267.592051826372" fill="none"></path></g><g><path style="fill: none;" stroke="rgb(0, 119, 187)" stroke-width="2px" d="M79.54866663614908,375.15624423825386L95.45839996337891,375.54054316354234L111.36813329060872,360.28694705296857L127.27786661783854,338.2992032113858L143.18759994506834,315.0836838811666L159.09733327229816,303.65614820200005L175.00706659952797,296.1385976682153L190.91679992675782,295.51717383796955L206.82653325398763,287.9462090616786L222.73626658121745,286.66940583358934L238.64599990844727,290.59814724558015L254.55573323567708,287.27731141972475L270.4654665629069,277.16282938638994L286.3751998901367,268.64127205372563L302.28493321736653,268.94580595448434L318.1946665445963,272.32653494559094L334.10439987182616,271.6486083763833L350.01413319905595,269.2741718604624L365.92386652628585,270.06324835052845L381.83359985351564,275.4556442779395L397.7433331807455,272.78827627564044L413.65306650797527,268.9744146206799L429.5627998352051,266.44017650057185L445.4725331624349,267.6250110495224L461.38226648966474,270.3034116360841L477.29199981689453,265.2700882809089L493.2017331441244,264.95545432488194L509.11146647135416,267.7179227546361L525.021199798584,264.4565999524394L540.9309331258138,268.1564631892519L556.8406664530437,271.3601296666539L572.7503997802734,274.51202961949053L588.6601331075033,273.6978175082897L604.5698664347331,273.70119290491556L620.479599761963,271.24381761956164L636.3893330891926,270.999092728563L652.2990664164225,273.3116582917886L668.2087997436523,273.2235460624062L684.1185330708822,267.02217750881596L700.0282663981119,264.7770079401558L715.9379997253418,272.2837028831981L731.8477330525717,264.73666874661205L747.7574663798014,271.7676530591406L763.6671997070313,273.0349405394891L779.5769330342611,273.54936171534797L795.486666361491,279.022766695313L811.3963996887206,279.10961158584L827.3061330159505,276.4563667269203L843.2158663431803,276.58602267649314L859.1255996704102,276.90971123799346" fill="none"></path></g><g><path style="fill: none;" stroke="rgb(255, 112, 67)" stroke-width="2px" d="M79.54866663614908,275.55075003992505L95.45839996337891,254.0310662318095L111.36813329060872,253.4036753336525L127.27786661783854,256.51756398259243L143.18759994506834,263.9727565645753L159.09733327229816,268.5726135710233L175.00706659952797,265.3717135535682L190.91679992675782,271.7641456288404L206.82653325398763,274.5364258308715L222.73626658121745,269.00616625934816L238.64599990844727,269.90566024441193L254.55573323567708,270.1968321238012L270.4654665629069,262.2444597038233L286.3751998901367,269.2941030972446L302.28493321736653,271.05979445975794L318.1946665445963,264.0003321442717L334.10439987182616,268.3752885243156L350.01413319905595,264.35876639414914L365.92386652628585,264.900540832345L381.83359985351564,261.7823090649169L397.7433331807455,262.86281082022566L413.65306650797527,260.31380020244256L429.5627998352051,264.93296506369745L445.4725331624349,266.9666395217094L461.38226648966474,269.4165417658284L477.29199981689453,277.52683748825257L493.2017331441244,282.147054503587L509.11146647135416,282.9516826215382L525.021199798584,279.74535709531676L540.9309331258138,272.16496270704533L556.8406664530437,273.27332647503056L572.7503997802734,272.7086443033685L588.6601331075033,277.2886362259932L604.5698664347331,280.03663123959785L620.479599761963,278.7341813617079L636.3893330891926,276.23110856668245L652.2990664164225,279.15616327119534L668.2087997436523,277.71399797333225L684.1185330708822,276.35679617257665L700.0282663981119,271.11557675053206L715.9379997253418,277.0705930964891L731.8477330525717,276.9545584981768L747.7574663798014,280.81993345360047L763.6671997070313,282.64731212211456L779.5769330342611,280.792436217356L795.486666361491,283.3686113963374L811.3963996887206,282.7008673347362L827.3061330159505,281.0705206572694L843.2158663431803,279.6004100264371L859.1255996704102,281.4236954411453" fill="none"></path></g><g><path style="fill: none;" stroke="rgb(238, 51, 119)" stroke-width="2px" d="M95.45839996337891,378.8394418748029L111.36813329060872,274.9113062826749L127.27786661783854,225.41937168627382L143.18759994506834,192.2711505694825L159.09733327229816,167.7960780307852L175.00706659952797,152.77601937620278L190.91679992675782,144.68239430081195L206.82653325398763,135.85871859740183L222.73626658121745,128.07079922575002L238.64599990844727,124.17053166663379L254.55573323567708,120.25130197441429L270.4654665629069,117.79943603770735L286.3751998901367,113.58140973300002L302.28493321736653,111.89825232914276L318.1946665445963,109.93779473801928L334.10439987182616,107.49388672768893L350.01413319905595,106.45047812199802L365.92386652628585,106.03577158466742L381.83359985351564,102.82879412383502L397.7433331807455,101.85550502603162L413.65306650797527,101.06022820224804L429.5627998352051,98.04755940341293L445.4725331624349,94.97219449351265L461.38226648966474,96.50768453912318L477.29199981689453,99.22498098745076L493.2017331441244,95.99563008376732L509.11146647135416,96.4878554049547L525.021199798584,97.31141989973065L540.9309331258138,96.22087014939115L556.8406664530437,93.77059438450105L572.7503997802734,93.67380289701737L588.6601331075033,92.55926935723225L604.5698664347331,94.00346653151391L620.479599761963,92.86272469580506L636.3893330891926,93.5516532752341L652.2990664164225,91.11254964772198L668.2087997436523,88.90960024914283L684.1185330708822,88.2217170417949L700.0282663981119,91.40093510512347L715.9379997253418,92.9915508877852L731.8477330525717,93.62894898362258L747.7574663798014,93.37750141559378L763.6671997070313,93.22663287482318L779.5769330342611,93.03051094653222L795.486666361491,92.38460848864919L811.3963996887206,91.36318058876945L827.3061330159505,91.70112532640078L843.2158663431803,90.53051851481806L859.1255996704102,91.41284233055617" fill="none"></path></g><g><path style="fill: none;" stroke="rgb(204, 51, 17)" stroke-width="2px" d="M95.45839996337891,379.3346568443855L111.36813329060872,277.44467962388876L127.27786661783854,224.2395974352286L143.18759994506834,192.17584348675214L159.09733327229816,170.28956513927616L175.00706659952797,157.72144014527547L190.91679992675782,141.70606954720515L206.82653325398763,132.80436453932478L222.73626658121745,126.4582188938182L238.64599990844727,123.73548482520009L254.55573323567708,120.83764155873392L270.4654665629069,116.56417274585603L286.3751998901367,111.57187215401265L302.28493321736653,109.84736598693283L318.1946665445963,105.95991567816331L334.10439987182616,105.74142240530092L350.01413319905595,106.77258387595025L365.92386652628585,103.37644892825466L381.83359985351564,101.12757843563273L397.7433331807455,100.20089021023938L413.65306650797527,99.01099551696848L429.5627998352051,97.98015116935197L445.4725331624349,98.10119682464696L461.38226648966474,96.80038997146507L477.29199981689453,99.0836321336483L493.2017331441244,98.44631280458371L509.11146647135416,98.16957881375829L525.021199798584,96.63010804740856L540.9309331258138,97.71374279410838L556.8406664530437,97.730036979575L572.7503997802734,95.83815406266929L588.6601331075033,93.22399355986133L604.5698664347331,94.40230104547334L620.479599761963,94.05282689529629L636.3893330891926,92.99799804706768L652.2990664164225,92.68201579941686L668.2087997436523,94.18277148528247L684.1185330708822,93.60419411153882L700.0282663981119,92.51750413771387L715.9379997253418,92.07680440304487L731.8477330525717,91.91798536635521L747.7574663798014,92.13966531727193L763.6671997070313,92.06135903921766L779.5769330342611,91.9087181481193L795.486666361491,91.71153280962949L811.3963996887206,93.49482456164094L827.3061330159505,91.81799598403803L843.2158663431803,91.23447101413127L859.1255996704102,91.41258533308468" fill="none"></path></g><g><path style="fill: none;" stroke="rgb(255, 112, 67)" stroke-width="2px" d="M79.54866663614908,578.1806888629905L95.45839996337891,352.69199644010484L111.36813329060872,265.0689751668027L127.27786661783854,214.15274893635873L143.18759994506834,184.74562612173315L159.09733327229816,162.09832325403062L175.00706659952797,148.44481983322936L190.91679992675782,136.84820186123747L206.82653325398763,127.88173115947983L222.73626658121745,122.66627503941754L238.64599990844727,120.08741049238118L254.55573323567708,118.01671104594774L270.4654665629069,114.5557041971052L286.3751998901367,111.21328461390166L302.28493321736653,106.88418519352207L318.1946665445963,104.39371555424441L334.10439987182616,102.68853348064592L350.01413319905595,102.51089549962204L365.92386652628585,101.45340851497212L381.83359985351564,98.91728508346394L397.7433331807455,99.08605247842098L413.65306650797527,98.97599351601119L429.5627998352051,97.74783416199456L445.4725331624349,97.96180706055728L461.38226648966474,98.30144867951853L477.29199981689453,99.4560361323132L493.2017331441244,97.61329536826854L509.11146647135416,94.18341923752229L525.021199798584,94.44972721554454L540.9309331258138,95.77162792251309L556.8406664530437,94.76876577024031L572.7503997802734,93.95579061910088L588.6601331075033,94.63006503092801L604.5698664347331,94.08382815266327L620.479599761963,95.44643109170694L636.3893330891926,95.84142065915822L652.2990664164225,95.23321371811258L668.2087997436523,93.70623014596744L684.1185330708822,94.26907078800632L700.0282663981119,92.5995150904535L715.9379997253418,91.8090396016179L731.8477330525717,91.44041143303656L747.7574663798014,92.06437888549506L763.6671997070313,93.70653220737786L779.5769330342611,93.42405134989075L795.486666361491,91.88118918119329L811.3963996887206,91.16678612857078L827.3061330159505,92.42843300355231L843.2158663431803,92.65719182762753L859.1255996704102,91.52673059218559" fill="none"></path></g><g><path style="fill: none;" stroke="rgb(187, 187, 187)" stroke-width="2px" d="M79.54866663614908,512.6800302711177L95.45839996337891,264.5764857036809L111.36813329060872,176.49863566209373L127.27786661783854,138.49042005254168L143.18759994506834,119.10385622671156L159.09733327229816,109.2596112706256L175.00706659952797,106.26404644680034L190.91679992675782,102.15735611601038L206.82653325398763,98.88418820094817L222.73626658121745,96.19748442335283L238.64599990844727,93.5355917571399L254.55573323567708,90.88588699333653L270.4654665629069,89.40555567440333L286.3751998901367,87.14408814379004L302.28493321736653,87.16241839872644L318.1946665445963,87.91310693955164L334.10439987182616,89.31440327715977L350.01413319905595,89.20407488417706L365.92386652628585,87.55310054693963L381.83359985351564,87.61907756232759L397.7433331807455,88.71514400546837L413.65306650797527,90.11232176630402L429.5627998352051,91.16193257053499L445.4725331624349,90.62957251541411L461.38226648966474,90.73273147477512L477.29199981689453,91.11154225565195L493.2017331441244,91.23322739870477L509.11146647135416,89.8271503976988L525.021199798584,89.08916191290575L540.9309331258138,88.75202614367785L556.8406664530437,88.33843045328497L572.7503997802734,89.99193250096252L588.6601331075033,89.71626073450483L604.5698664347331,88.81131411245153L620.479599761963,88.47966040797293L636.3893330891926,89.02021174597724L652.2990664164225,89.45019967012895L668.2087997436523,87.80653314040046L684.1185330708822,89.67279398579342L700.0282663981119,90.05300693996394L715.9379997253418,90.49244896083744L731.8477330525717,89.1714262697082L747.7574663798014,90.0691576828539L763.6671997070313,89.97391010531412L779.5769330342611,89.28287513358306L795.486666361491,89.924712752433L811.3963996887206,90.52112957225212L827.3061330159505,90.03377899043144L843.2158663431803,89.53011071324569L859.1255996704102,88.69962412561688" fill="none"></path></g></g></g></g><g opacity="0.2"><g><g><g><path style="fill: none;" stroke="rgb(0, 153, 136)" stroke-width="2px" d="M79.54866663614908,450.1678744277671L95.45839996337891,343.79900074650493L111.36813329060872,340.1098718648075L127.27786661783854,294.6111319278021L143.18759994506834,320.4347524975407L159.09733327229816,292.7664970864175L175.00706659952797,316.13074533538173L190.91679992675782,322.27924653785357L206.82653325398763,304.4486212108996L222.73626658121745,268.17249227653014L238.64599990844727,299.52987656935085L254.55573323567708,282.9288670022482L270.4654665629069,270.6320053983763L286.3751998901367,269.4022488374532L302.28493321736653,268.17249227653014L318.1946665445963,272.47649943868913L334.10439987182616,285.38838012409434L350.01413319905595,276.1656283203866L365.92386652628585,260.794375314207L381.83359985351564,276.1656283203866L397.7433331807455,275.55075003992505L413.65306650797527,239.27462110555555L429.5627998352051,289.07736820472L445.4725331624349,295.22586940719185L461.38226648966474,299.52987656935085L477.29199981689453,272.47649943868913L493.2017331441244,269.4022488374532L509.11146647135416,256.490368152048L525.021199798584,253.41611755081206L540.9309331258138,268.17249227653014L556.8406664530437,268.17249227653014L572.7503997802734,284.7735018436328L588.6601331075033,292.7664970864175L604.5698664347331,286.0031176034841L620.479599761963,279.2398789216225L636.3893330891926,268.17249227653014L652.2990664164225,272.47649943868913L668.2087997436523,273.7062559996122L684.1185330708822,292.15161880595593L700.0282663981119,278.62500064116097L715.9379997253418,277.3952440802379L731.8477330525717,268.7873705569917L747.7574663798014,284.7735018436328L763.6671997070313,275.55075003992505L779.5769330342611,263.8686259154429L795.486666361491,278.62500064116097L811.3963996887206,273.7062559996122L827.3061330159505,279.2398789216225L843.2158663431803,281.6992512423969L859.1255996704102,263.2537476349814" fill="none"></path></g><g><path style="fill: none;" stroke="rgb(51, 187, 238)" stroke-width="2px" d="M79.54866663614908,396.0611201664438L95.45839996337891,343.79900074650493L111.36813329060872,292.15161880595593L127.27786661783854,309.36750665352014L143.18759994506834,303.83374293043806L159.09733327229816,319.8198742170792L175.00706659952797,293.99625364734055L190.91679992675782,303.2190054510483L206.82653325398763,317.97538017676635L222.73626658121745,287.2328741644072L238.64599990844727,282.9288670022482L254.55573323567708,278.0101223606994L270.4654665629069,284.15862356317126L286.3751998901367,272.47649943868913L302.28493321736653,259.5646187532839L318.1946665445963,270.6320053983763L334.10439987182616,289.07736820472L350.01413319905595,267.5577547971404L365.92386652628585,270.01712711791475L381.83359985351564,279.85475720208404L397.7433331807455,258.3350029934326L413.65306650797527,258.3350029934326L429.5627998352051,284.7735018436328L445.4725331624349,259.5646187532839L461.38226648966474,271.8616211582276L477.29199981689453,282.3141295228584L493.2017331441244,290.92200304610463L509.11146647135416,270.01712711791475L525.021199798584,264.48350419590446L540.9309331258138,274.9358717594635L556.8406664530437,260.794375314207L572.7503997802734,267.5577547971404L588.6601331075033,281.6992512423969L604.5698664347331,247.88249462880177L620.479599761963,245.4231223080274L636.3893330891926,276.1656283203866L652.2990664164225,279.2398789216225L668.2087997436523,271.24674287776605L684.1185330708822,266.3279982362173L700.0282663981119,269.4022488374532L715.9379997253418,267.5577547971404L731.8477330525717,274.9358717594635L747.7574663798014,274.32099347900197L763.6671997070313,257.10524643250955L779.5769330342611,255.26075239219668L795.486666361491,281.6992512423969L811.3963996887206,267.5577547971404L827.3061330159505,268.17249227653014L843.2158663431803,268.17249227653014L859.1255996704102,266.3279982362173" fill="none"></path></g><g><path style="fill: none;" stroke="rgb(0, 119, 187)" stroke-width="2px" d="M79.54866663614908,375.15624423825386L95.45839996337891,375.7711225187154L111.36813329060872,345.64349478681777L127.27786661783854,312.4416164536843L143.18759994506834,284.7735018436328L159.09733327229816,287.8477524448687L175.00706659952797,285.38838012409434L190.91679992675782,294.6111319278021L206.82653325398763,276.7805066008481L222.73626658121745,284.7735018436328L238.64599990844727,296.45562596811493L254.55573323567708,282.3141295228584L270.4654665629069,262.0241318751301L286.3751998901367,255.87563067265822L302.28493321736653,269.4022488374532L318.1946665445963,277.3952440802379L334.10439987182616,270.6320053983763L350.01413319905595,265.71311995575576L365.92386652628585,271.24674287776605L381.83359985351564,283.5437452827097L397.7433331807455,268.7873705569917L413.65306650797527,263.2537476349814L429.5627998352051,262.63886935451984L445.4725331624349,269.4022488374532L461.38226648966474,274.32099347900197L477.29199981689453,257.7201247129711L493.2017331441244,264.48350419590446L509.11146647135416,271.8616211582276L525.021199798584,259.5646187532839L540.9309331258138,273.7062559996122L556.8406664530437,276.1656283203866L572.7503997802734,279.2398789216225L588.6601331075033,272.47649943868913L604.5698664347331,273.7062559996122L620.479599761963,267.5577547971404L636.3893330891926,270.6320053983763L652.2990664164225,276.7805066008481L668.2087997436523,273.09137771915067L684.1185330708822,257.7201247129711L700.0282663981119,261.40925359466854L715.9379997253418,283.5437452827097L731.8477330525717,253.41611755081206L747.7574663798014,282.3141295228584L763.6671997070313,274.9358717594635L779.5769330342611,274.32099347900197L795.486666361491,287.2328741644072L811.3963996887206,279.2398789216225L827.3061330159505,272.47649943868913L843.2158663431803,276.7805066008481L859.1255996704102,277.3952440802379" fill="none"></path></g><g><path style="fill: none;" stroke="rgb(255, 112, 67)" stroke-width="2px" d="M79.54866663614908,275.55075003992505L95.45839996337891,241.11925594694017L111.36813329060872,252.8013800714223L127.27786661783854,260.17949703374546L143.18759994506834,273.7062559996122L159.09733327229816,274.9358717594635L175.00706659952797,260.794375314207L190.91679992675782,281.08437296193534L206.82653325398763,278.62500064116097L222.73626658121745,260.794375314207L238.64599990844727,271.24674287776605L254.55573323567708,270.6320053983763L270.4654665629069,250.34186694957614L286.3751998901367,279.85475720208404L302.28493321736653,273.7062559996122L318.1946665445963,253.41611755081206L334.10439987182616,274.9358717594635L350.01413319905595,258.3350029934326L365.92386652628585,265.71311995575576L381.83359985351564,257.10524643250955L397.7433331807455,264.48350419590446L413.65306650797527,256.490368152048L429.5627998352051,271.8616211582276L445.4725331624349,270.01712711791475L461.38226648966474,273.09137771915067L477.29199981689453,289.69224648518156L493.2017331441244,289.07736820472L509.11146647135416,284.15862356317126L525.021199798584,274.9358717594635L540.9309331258138,260.794375314207L556.8406664530437,274.9358717594635L572.7503997802734,271.8616211582276L588.6601331075033,284.15862356317126L604.5698664347331,284.15862356317126L620.479599761963,276.7805066008481L636.3893330891926,272.47649943868913L652.2990664164225,283.5437452827097L668.2087997436523,275.55075003992505L684.1185330708822,274.32099347900197L700.0282663981119,263.2537476349814L715.9379997253418,286.0031176034841L731.8477330525717,276.7805066008481L747.7574663798014,286.61799588394564L763.6671997070313,285.38838012409434L779.5769330342611,278.0101223606994L795.486666361491,287.2328741644072L811.3963996887206,281.6992512423969L827.3061330159505,278.62500064116097L843.2158663431803,277.3952440802379L859.1255996704102,284.15862356317126" fill="none"></path></g><g><path style="fill: none;" stroke="rgb(238, 51, 119)" stroke-width="2px" d="M79.54866663614908,606.969298402264L95.45839996337891,241.96152795832577L111.36813329060872,175.14029611423214L127.27786661783854,167.2168566009066L143.18759994506834,148.9928330794004L159.09733327229816,133.93824168365316L175.00706659952797,131.2970951792113L190.91679992675782,132.88181124209078L206.82653325398763,122.84551084564046L222.73626658121745,116.5066465941226L238.64599990844727,118.3555054676606L254.55573323567708,114.39378571099783L270.4654665629069,114.12964290033929L286.3751998901367,107.26263382857617L302.28493321736653,109.3754947117009L318.1946665445963,106.99849101791763L334.10439987182616,103.8290588921587L350.01413319905595,104.88563013479286L365.92386652628585,105.41377495503816L381.83359985351564,98.0186210630297L397.7433331807455,100.395624756813L413.65306650797527,99.86733913549593L429.5627998352051,93.52861568504984L445.4725331624349,90.35918355929091L461.38226648966474,98.81090869393354L477.29199981689453,103.3009140719134L493.2017331441244,91.15161199126653L509.11146647135416,97.22619263105408L525.021199798584,98.546765883275L540.9309331258138,94.58504612661223L556.8406664530437,90.09518154970415L572.7503997802734,93.52861568504984L588.6601331075033,90.887469180608L604.5698664347331,96.16976218949169L620.479599761963,91.15161199126653L636.3893330891926,94.58504612661223L652.2990664164225,87.45389424419052L668.2087997436523,85.6051761717243L684.1185330708822,87.18989223460376L700.0282663981119,96.16976218949169L715.9379997253418,95.37747455858785L731.8477330525717,94.58504612661223L747.7574663798014,93.00033006373276L763.6671997070313,93.00033006373276L779.5769330342611,92.736328054146L795.486666361491,91.41575480192508L811.3963996887206,89.83103873904561L827.3061330159505,92.20804243282892L843.2158663431803,88.77460829748323L859.1255996704102,92.736328054146" fill="none"></path></g><g><path style="fill: none;" stroke="rgb(204, 51, 17)" stroke-width="2px" d="M79.54866663614908,608.289871654485L95.45839996337891,241.96152795832577L111.36813329060872,179.630301492212L127.27786661783854,161.67042078136436L143.18759994506834,150.31340633162134L159.09733327229816,140.01296312451248L175.00706659952797,139.74882031385394L190.91679992675782,118.3555054676606L206.82653325398763,119.67607871988153L222.73626658121745,117.03493221543968L238.64599990844727,119.67607871988153L254.55573323567708,116.5066465941226L270.4654665629069,110.16792314367652L286.3751998901367,104.09320170281724L302.28493321736653,107.26263382857617L318.1946665445963,100.13148194615447L334.10439987182616,105.41377495503816L350.01413319905595,108.31906427013851L365.92386652628585,98.28276387368824L381.83359985351564,97.75447825237116L397.7433331807455,98.81090869393354L413.65306650797527,97.22619263105408L429.5627998352051,96.43390500015023L445.4725331624349,98.28276387368824L461.38226648966474,94.84918893727077L477.29199981689453,102.50848563993777L493.2017331441244,97.49033544171262L509.11146647135416,97.75447825237116L525.021199798584,94.32090331595369L540.9309331258138,99.33919431525062L556.8406664530437,97.75447825237116L572.7503997802734,93.00033006373276L588.6601331075033,89.30275311772853L604.5698664347331,96.16976218949169L620.479599761963,93.52861568504984L636.3893330891926,91.41575480192508L652.2990664164225,92.20804243282892L668.2087997436523,96.43390500015023L684.1185330708822,92.736328054146L700.0282663981119,90.887469180608L715.9379997253418,91.41575480192508L731.8477330525717,91.67975681151184L747.7574663798014,92.47218524348746L763.6671997070313,91.94389962217038L779.5769330342611,91.67975681151184L795.486666361491,91.41575480192508L811.3963996887206,96.16976218949169L827.3061330159505,89.30275311772853L843.2158663431803,90.35918355929091L859.1255996704102,91.67975681151184" fill="none"></path></g><g><path style="fill: none;" stroke="rgb(255, 112, 67)" stroke-width="2px" d="M79.54866663614908,578.1806888629905L95.45839996337891,217.3987809863735L111.36813329060872,180.95087474443292L127.27786661783854,154.2752668893559L143.18759994506834,146.35168657495856L159.09733327229816,130.768950358966L175.00706659952797,128.920091485428L190.91679992675782,119.94022153054007L206.82653325398763,114.65792852165637L222.73626658121745,114.92193053124313L238.64599990844727,116.24250378346406L254.55573323567708,114.92193053124313L270.4654665629069,109.3754947117009L286.3751998901367,106.20620338701379L302.28493321736653,100.395624756813L318.1946665445963,100.65976756747155L334.10439987182616,100.13148194615447L350.01413319905595,102.24448363035101L365.92386652628585,99.86733913549593L381.83359985351564,95.11333174792931L397.7433331807455,99.33919431525062L413.65306650797527,98.81090869393354L429.5627998352051,95.90561937883315L445.4725331624349,98.28276387368824L461.38226648966474,98.81090869393354L477.29199981689453,101.18791238771685L493.2017331441244,94.84918893727077L509.11146647135416,89.03861030706999L525.021199798584,94.84918893727077L540.9309331258138,97.75447825237116L556.8406664530437,93.2644728743913L572.7503997802734,92.736328054146L588.6601331075033,95.64147656817461L604.5698664347331,93.2644728743913L620.479599761963,97.49033544171262L636.3893330891926,96.43390500015023L652.2990664164225,94.32090331595369L668.2087997436523,91.41575480192508L684.1185330708822,95.11333174792931L700.0282663981119,90.09518154970415L715.9379997253418,90.62332636994945L731.8477330525717,90.887469180608L747.7574663798014,93.00033006373276L763.6671997070313,96.16976218949169L779.5769330342611,93.00033006373276L795.486666361491,89.56689592838707L811.3963996887206,90.09518154970415L827.3061330159505,94.32090331595369L843.2158663431803,93.00033006373276L859.1255996704102,89.83103873904561" fill="none"></path></g><g><path style="fill: none;" stroke="rgb(187, 187, 187)" stroke-width="2px" d="M79.54866663614908,512.6800302711177L95.45839996337891,115.71435896321876L111.36813329060872,91.94389962217038L127.27786661783854,93.79275849570838L143.18759994506834,93.79275849570838L159.09733327229816,95.64147656817461L175.00706659952797,101.98034081969247L190.91679992675782,96.16976218949169L206.82653325398763,94.05690130636692L222.73626658121745,92.20804243282892L238.64599990844727,89.56689592838707L254.55573323567708,86.92574942394522L270.4654665629069,87.18989223460376L286.3751998901367,83.75631729818629L302.28493321736653,87.18989223460376L318.1946665445963,89.03861030706999L334.10439987182616,91.41575480192508L350.01413319905595,89.03861030706999L365.92386652628585,85.07689055040721L381.83359985351564,87.71803705484906L397.7433331807455,90.35918355929091L413.65306650797527,92.20804243282892L429.5627998352051,92.736328054146L445.4725331624349,89.83103873904561L461.38226648966474,90.887469180608L477.29199981689453,91.67975681151184L493.2017331441244,91.41575480192508L509.11146647135416,87.71803705484906L525.021199798584,87.9821798655076L540.9309331258138,88.24632267616614L556.8406664530437,87.71803705484906L572.7503997802734,92.47218524348746L588.6601331075033,89.30275311772853L604.5698664347331,87.45389424419052L620.479599761963,87.9821798655076L636.3893330891926,89.83103873904561L652.2990664164225,90.09518154970415L668.2087997436523,85.34103336106575L684.1185330708822,92.47218524348746L700.0282663981119,90.62332636994945L715.9379997253418,91.15161199126653L731.8477330525717,87.18989223460376L747.7574663798014,91.41575480192508L763.6671997070313,89.83103873904561L779.5769330342611,88.24632267616614L795.486666361491,90.887469180608L811.3963996887206,91.41575480192508L827.3061330159505,89.30275311772853L843.2158663431803,88.77460829748323L859.1255996704102,87.45389424419052" fill="none"></path></g></g></g></g></g></g><g transform="translate(51, 377)" clip-path="url(#clip_1)"><clipPath id="clip_1"><rect width="954" height="22"></rect></clipPath><g><g><line x1="0" y1="0" x2="0" y2="5" style="visibility: inherit;" fill="rgb(0, 0, 0)" stroke="rgb(204, 204, 204)" stroke-width="1px"></line><line x1="79.54866663614908" y1="0" x2="79.54866663614908" y2="5" style="visibility: inherit;" fill="rgb(0, 0, 0)" stroke="rgb(204, 204, 204)" stroke-width="1px"></line><line x1="159.09733327229816" y1="0" x2="159.09733327229816" y2="5" style="visibility: inherit;" fill="rgb(0, 0, 0)" stroke="rgb(204, 204, 204)" stroke-width="1px"></line><line x1="238.64599990844727" y1="0" x2="238.64599990844727" y2="5" style="visibility: inherit;" fill="rgb(0, 0, 0)" stroke="rgb(204, 204, 204)" stroke-width="1px"></line><line x1="318.1946665445963" y1="0" x2="318.1946665445963" y2="5" style="visibility: inherit;" fill="rgb(0, 0, 0)" stroke="rgb(204, 204, 204)" stroke-width="1px"></line><line x1="397.7433331807455" y1="0" x2="397.7433331807455" y2="5" style="visibility: inherit;" fill="rgb(0, 0, 0)" stroke="rgb(204, 204, 204)" stroke-width="1px"></line><line x1="477.29199981689453" y1="0" x2="477.29199981689453" y2="5" style="visibility: inherit;" fill="rgb(0, 0, 0)" stroke="rgb(204, 204, 204)" stroke-width="1px"></line><line x1="556.8406664530437" y1="0" x2="556.8406664530437" y2="5" style="visibility: inherit;" fill="rgb(0, 0, 0)" stroke="rgb(204, 204, 204)" stroke-width="1px"></line><line x1="636.3893330891926" y1="0" x2="636.3893330891926" y2="5" style="visibility: inherit;" fill="rgb(0, 0, 0)" stroke="rgb(204, 204, 204)" stroke-width="1px"></line><line x1="715.9379997253418" y1="0" x2="715.9379997253418" y2="5" style="visibility: inherit;" fill="rgb(0, 0, 0)" stroke="rgb(204, 204, 204)" stroke-width="1px"></line><line x1="795.486666361491" y1="0" x2="795.486666361491" y2="5" style="visibility: inherit;" fill="rgb(0, 0, 0)" stroke="rgb(204, 204, 204)" stroke-width="1px"></line><line x1="875.0353329976399" y1="0" x2="875.0353329976399" y2="5" style="visibility: inherit;" fill="rgb(0, 0, 0)" stroke="rgb(204, 204, 204)" stroke-width="1px"></line><line x1="954.5839996337891" y1="0" x2="954.5839996337891" y2="5" style="visibility: inherit;" fill="rgb(0, 0, 0)" stroke="rgb(204, 204, 204)" stroke-width="1px"></line></g><g transform="translate(0, 8)"><text style="text-anchor: middle; visibility: hidden; font-family: Roboto, sans-serif; font-size: 12px; font-weight: 200;" x="0" y="0" dx="0em" dy="0.95em" fill="rgb(50, 49, 63)" stroke="none" stroke-width="1px">-5</text><text style="text-anchor: middle; visibility: inherit; font-family: Roboto, sans-serif; font-size: 12px; font-weight: 200;" x="79.54866663614908" y="0" dx="0em" dy="0.95em" fill="rgb(50, 49, 63)" stroke="none" stroke-width="1px">0</text><text style="text-anchor: middle; visibility: inherit; font-family: Roboto, sans-serif; font-size: 12px; font-weight: 200;" x="159.09733327229816" y="0" dx="0em" dy="0.95em" fill="rgb(50, 49, 63)" stroke="none" stroke-width="1px">5</text><text style="text-anchor: middle; visibility: inherit; font-family: Roboto, sans-serif; font-size: 12px; font-weight: 200;" x="238.64599990844727" y="0" dx="0em" dy="0.95em" fill="rgb(50, 49, 63)" stroke="none" stroke-width="1px">10</text><text style="text-anchor: middle; visibility: inherit; font-family: Roboto, sans-serif; font-size: 12px; font-weight: 200;" x="318.1946665445963" y="0" dx="0em" dy="0.95em" fill="rgb(50, 49, 63)" stroke="none" stroke-width="1px">15</text><text style="text-anchor: middle; visibility: inherit; font-family: Roboto, sans-serif; font-size: 12px; font-weight: 200;" x="397.7433331807455" y="0" dx="0em" dy="0.95em" fill="rgb(50, 49, 63)" stroke="none" stroke-width="1px">20</text><text style="text-anchor: middle; visibility: inherit; font-family: Roboto, sans-serif; font-size: 12px; font-weight: 200;" x="477.29199981689453" y="0" dx="0em" dy="0.95em" fill="rgb(50, 49, 63)" stroke="none" stroke-width="1px">25</text><text style="text-anchor: middle; visibility: inherit; font-family: Roboto, sans-serif; font-size: 12px; font-weight: 200;" x="556.8406664530437" y="0" dx="0em" dy="0.95em" fill="rgb(50, 49, 63)" stroke="none" stroke-width="1px">30</text><text style="text-anchor: middle; visibility: inherit; font-family: Roboto, sans-serif; font-size: 12px; font-weight: 200;" x="636.3893330891926" y="0" dx="0em" dy="0.95em" fill="rgb(50, 49, 63)" stroke="none" stroke-width="1px">35</text><text style="text-anchor: middle; visibility: inherit; font-family: Roboto, sans-serif; font-size: 12px; font-weight: 200;" x="715.9379997253418" y="0" dx="0em" dy="0.95em" fill="rgb(50, 49, 63)" stroke="none" stroke-width="1px">40</text><text style="text-anchor: middle; visibility: inherit; font-family: Roboto, sans-serif; font-size: 12px; font-weight: 200;" x="795.486666361491" y="0" dx="0em" dy="0.95em" fill="rgb(50, 49, 63)" stroke="none" stroke-width="1px">45</text><text style="text-anchor: middle; visibility: inherit; font-family: Roboto, sans-serif; font-size: 12px; font-weight: 200;" x="875.0353329976399" y="0" dx="0em" dy="0.95em" fill="rgb(50, 49, 63)" stroke="none" stroke-width="1px">50</text><text style="text-anchor: middle; visibility: hidden; font-family: Roboto, sans-serif; font-size: 12px; font-weight: 200;" x="954.5839996337891" y="0" dx="0em" dy="0.95em" fill="rgb(50, 49, 63)" stroke="none" stroke-width="1px">55</text></g><line x1="0" y1="0" x2="954.5839996337891" y2="0" fill="rgb(0, 0, 0)" stroke="rgb(204, 204, 204)" stroke-width="1px"></line></g></g></g></g></svg>