<svg viewBox="0 0 1374 400" xmlns="http://www.w3.org/2000/svg"><g><g><g><g><g><line x1="50" y1="378" x2="45" y2="378" style="visibility: inherit;" fill="rgb(0, 0, 0)" stroke="rgb(204, 204, 204)" stroke-width="1px"></line><line x1="50" y1="346.50000000000017" x2="45" y2="346.50000000000017" style="visibility: inherit;" fill="rgb(0, 0, 0)" stroke="rgb(204, 204, 204)" stroke-width="1px"></line><line x1="50" y1="315.0000000000001" x2="45" y2="315.0000000000001" style="visibility: inherit;" fill="rgb(0, 0, 0)" stroke="rgb(204, 204, 204)" stroke-width="1px"></line><line x1="50" y1="283.50000000000006" x2="45" y2="283.50000000000006" style="visibility: inherit;" fill="rgb(0, 0, 0)" stroke="rgb(204, 204, 204)" stroke-width="1px"></line><line x1="50" y1="252.00000000000003" x2="45" y2="252.00000000000003" style="visibility: inherit;" fill="rgb(0, 0, 0)" stroke="rgb(204, 204, 204)" stroke-width="1px"></line><line x1="50" y1="220.50000000000006" x2="45" y2="220.50000000000006" style="visibility: inherit;" fill="rgb(0, 0, 0)" stroke="rgb(204, 204, 204)" stroke-width="1px"></line><line x1="50" y1="189" x2="45" y2="189" style="visibility: inherit;" fill="rgb(0, 0, 0)" stroke="rgb(204, 204, 204)" stroke-width="1px"></line><line x1="50" y1="157.50000000000014" x2="45" y2="157.50000000000014" style="visibility: inherit;" fill="rgb(0, 0, 0)" stroke="rgb(204, 204, 204)" stroke-width="1px"></line><line x1="50" y1="126.0000000000001" x2="45" y2="126.0000000000001" style="visibility: inherit;" fill="rgb(0, 0, 0)" stroke="rgb(204, 204, 204)" stroke-width="1px"></line><line x1="50" y1="94.50000000000009" x2="45" y2="94.50000000000009" style="visibility: inherit;" fill="rgb(0, 0, 0)" stroke="rgb(204, 204, 204)" stroke-width="1px"></line><line x1="50" y1="63.00000000000007" x2="45" y2="63.00000000000007" style="visibility: inherit;" fill="rgb(0, 0, 0)" stroke="rgb(204, 204, 204)" stroke-width="1px"></line><line x1="50" y1="31.500000000000014" x2="45" y2="31.500000000000014" style="visibility: inherit;" fill="rgb(0, 0, 0)" stroke="rgb(204, 204, 204)" stroke-width="1px"></line><line x1="50" y1="0" x2="45" y2="0" style="visibility: inherit;" fill="rgb(0, 0, 0)" stroke="rgb(204, 204, 204)" stroke-width="1px"></line></g><g transform="translate(40, 0)"><text x="0" y="378" dx="0em" dy="0.3em" style="text-anchor: end; visibility: hidden; font-family: Roboto, sans-serif; font-size: 12px; font-weight: 200;" fill="rgb(50, 49, 63)" stroke="none" stroke-width="1px">0.68</text><text x="0" y="346.50000000000017" dx="0em" dy="0.3em" style="text-anchor: end; visibility: inherit; font-family: Roboto, sans-serif; font-size: 12px; font-weight: 200;" fill="rgb(50, 49, 63)" stroke="none" stroke-width="1px">0.7</text><text x="0" y="315.0000000000001" dx="0em" dy="0.3em" style="text-anchor: end; visibility: inherit; font-family: Roboto, sans-serif; font-size: 12px; font-weight: 200;" fill="rgb(50, 49, 63)" stroke="none" stroke-width="1px">0.72</text><text x="0" y="283.50000000000006" dx="0em" dy="0.3em" style="text-anchor: end; visibility: inherit; font-family: Roboto, sans-serif; font-size: 12px; font-weight: 200;" fill="rgb(50, 49, 63)" stroke="none" stroke-width="1px">0.74</text><text x="0" y="252.00000000000003" dx="0em" dy="0.3em" style="text-anchor: end; visibility: inherit; font-family: Roboto, sans-serif; font-size: 12px; font-weight: 200;" fill="rgb(50, 49, 63)" stroke="none" stroke-width="1px">0.76</text><text x="0" y="220.50000000000006" dx="0em" dy="0.3em" style="text-anchor: end; visibility: inherit; font-family: Roboto, sans-serif; font-size: 12px; font-weight: 200;" fill="rgb(50, 49, 63)" stroke="none" stroke-width="1px">0.78</text><text x="0" y="189" dx="0em" dy="0.3em" style="text-anchor: end; visibility: inherit; font-family: Roboto, sans-serif; font-size: 12px; font-weight: 200;" fill="rgb(50, 49, 63)" stroke="none" stroke-width="1px">0.8</text><text x="0" y="157.50000000000014" dx="0em" dy="0.3em" style="text-anchor: end; visibility: inherit; font-family: Roboto, sans-serif; font-size: 12px; font-weight: 200;" fill="rgb(50, 49, 63)" stroke="none" stroke-width="1px">0.82</text><text x="0" y="126.0000000000001" dx="0em" dy="0.3em" style="text-anchor: end; visibility: inherit; font-family: Roboto, sans-serif; font-size: 12px; font-weight: 200;" fill="rgb(50, 49, 63)" stroke="none" stroke-width="1px">0.84</text><text x="0" y="94.50000000000009" dx="0em" dy="0.3em" style="text-anchor: end; visibility: inherit; font-family: Roboto, sans-serif; font-size: 12px; font-weight: 200;" fill="rgb(50, 49, 63)" stroke="none" stroke-width="1px">0.86</text><text x="0" y="63.00000000000007" dx="0em" dy="0.3em" style="text-anchor: end; visibility: inherit; font-family: Roboto, sans-serif; font-size: 12px; font-weight: 200;" fill="rgb(50, 49, 63)" stroke="none" stroke-width="1px">0.88</text><text x="0" y="31.500000000000014" dx="0em" dy="0.3em" style="text-anchor: end; visibility: inherit; font-family: Roboto, sans-serif; font-size: 12px; font-weight: 200;" fill="rgb(50, 49, 63)" stroke="none" stroke-width="1px">0.9</text><text x="0" y="0" dx="0em" dy="0.3em" style="text-anchor: end; visibility: hidden; font-family: Roboto, sans-serif; font-size: 12px; font-weight: 200;" fill="rgb(50, 49, 63)" stroke="none" stroke-width="1px">0.92</text></g><line x1="50" y1="0" x2="50" y2="378" fill="rgb(0, 0, 0)" stroke="rgb(204, 204, 204)" stroke-width="1px"></line></g></g><g transform="translate(50, 0)" clip-path="url(#clip_0)"><clipPath id="clip_0"><rect width="1324" height="378"></rect></clipPath><g><g><g><line x1="0" y1="0" x2="0" y2="378" fill="rgb(0, 0, 0)" stroke="rgb(60, 60, 60)" stroke-width="1px" opacity="0.25"></line><line x1="110.33333333333333" y1="0" x2="110.33333333333333" y2="378" fill="rgb(0, 0, 0)" stroke="rgb(60, 60, 60)" stroke-width="1px" opacity="0.25"></line><line x1="220.66666666666666" y1="0" x2="220.66666666666666" y2="378" fill="rgb(0, 0, 0)" stroke="rgb(60, 60, 60)" stroke-width="1px" opacity="0.25"></line><line x1="331" y1="0" x2="331" y2="378" fill="rgb(0, 0, 0)" stroke="rgb(60, 60, 60)" stroke-width="1px" opacity="0.25"></line><line x1="441.3333333333333" y1="0" x2="441.3333333333333" y2="378" fill="rgb(0, 0, 0)" stroke="rgb(60, 60, 60)" stroke-width="1px" opacity="0.25"></line><line x1="551.6666666666667" y1="0" x2="551.6666666666667" y2="378" fill="rgb(0, 0, 0)" stroke="rgb(60, 60, 60)" stroke-width="1px" opacity="0.25"></line><line x1="662" y1="0" x2="662" y2="378" fill="rgb(0, 0, 0)" stroke="rgb(60, 60, 60)" stroke-width="1px" opacity="0.25"></line><line x1="772.3333333333334" y1="0" x2="772.3333333333334" y2="378" fill="rgb(0, 0, 0)" stroke="rgb(60, 60, 60)" stroke-width="1px" opacity="0.25"></line><line x1="882.6666666666666" y1="0" x2="882.6666666666666" y2="378" fill="rgb(0, 0, 0)" stroke="rgb(60, 60, 60)" stroke-width="1px" opacity="0.25"></line><line x1="993" y1="0" x2="993" y2="378" fill="rgb(0, 0, 0)" stroke="rgb(60, 60, 60)" stroke-width="1px" opacity="0.25"></line><line x1="1103.3333333333335" y1="0" x2="1103.3333333333335" y2="378" fill="rgb(0, 0, 0)" stroke="rgb(60, 60, 60)" stroke-width="1px" opacity="0.25"></line><line x1="1213.6666666666665" y1="0" x2="1213.6666666666665" y2="378" fill="rgb(0, 0, 0)" stroke="rgb(60, 60, 60)" stroke-width="1px" opacity="0.25"></line><line x1="1324" y1="0" x2="1324" y2="378" fill="rgb(0, 0, 0)" stroke="rgb(60, 60, 60)" stroke-width="1px" opacity="0.25"></line></g><g><line x1="0" y1="378" x2="1324" y2="378" fill="rgb(0, 0, 0)" stroke="rgb(60, 60, 60)" stroke-width="1px" opacity="0.25"></line><line x1="0" y1="346.50000000000017" x2="1324" y2="346.50000000000017" fill="rgb(0, 0, 0)" stroke="rgb(60, 60, 60)" stroke-width="1px" opacity="0.25"></line><line x1="0" y1="315.0000000000001" x2="1324" y2="315.0000000000001" fill="rgb(0, 0, 0)" stroke="rgb(60, 60, 60)" stroke-width="1px" opacity="0.25"></line><line x1="0" y1="283.50000000000006" x2="1324" y2="283.50000000000006" fill="rgb(0, 0, 0)" stroke="rgb(60, 60, 60)" stroke-width="1px" opacity="0.25"></line><line x1="0" y1="252.00000000000003" x2="1324" y2="252.00000000000003" fill="rgb(0, 0, 0)" stroke="rgb(60, 60, 60)" stroke-width="1px" opacity="0.25"></line><line x1="0" y1="220.50000000000006" x2="1324" y2="220.50000000000006" fill="rgb(0, 0, 0)" stroke="rgb(60, 60, 60)" stroke-width="1px" opacity="0.25"></line><line x1="0" y1="189" x2="1324" y2="189" fill="rgb(0, 0, 0)" stroke="rgb(60, 60, 60)" stroke-width="1px" opacity="0.25"></line><line x1="0" y1="157.50000000000014" x2="1324" y2="157.50000000000014" fill="rgb(0, 0, 0)" stroke="rgb(60, 60, 60)" stroke-width="1px" opacity="0.25"></line><line x1="0" y1="126.0000000000001" x2="1324" y2="126.0000000000001" fill="rgb(0, 0, 0)" stroke="rgb(60, 60, 60)" stroke-width="1px" opacity="0.25"></line><line x1="0" y1="94.50000000000009" x2="1324" y2="94.50000000000009" fill="rgb(0, 0, 0)" stroke="rgb(60, 60, 60)" stroke-width="1px" opacity="0.25"></line><line x1="0" y1="63.00000000000007" x2="1324" y2="63.00000000000007" fill="rgb(0, 0, 0)" stroke="rgb(60, 60, 60)" stroke-width="1px" opacity="0.25"></line><line x1="0" y1="31.500000000000014" x2="1324" y2="31.500000000000014" fill="rgb(0, 0, 0)" stroke="rgb(60, 60, 60)" stroke-width="1px" opacity="0.25"></line><line x1="0" y1="0" x2="1324" y2="0" fill="rgb(0, 0, 0)" stroke="rgb(60, 60, 60)" stroke-width="1px" opacity="0.25"></line></g></g></g><g><g><line x1="0" y1="1449" x2="1324" y2="1449" fill="rgb(0, 0, 0)" stroke="rgb(153, 153, 153)" stroke-width="1.5px"></line></g></g><g><g><line x1="110.33333333333333" y1="0" x2="110.33333333333333" y2="378" fill="rgb(0, 0, 0)" stroke="rgb(153, 153, 153)" stroke-width="1.5px"></line></g></g><g><g><g><g><g><path stroke="rgb(255, 112, 67)" stroke-width="2px" d="M110.33333333333333,176.11297273635873L132.4,135.21391206979757L154.46666666666667,132.1271320581437L176.53333333333333,123.25281554460531L198.6,108.2050328850747L220.66666666666666,139.07226973772055L242.73333333333332,98.94488060474401L264.8,122.86697977781301L286.8666666666667,104.73251098394402L308.93333333333334,115.53600633144386L331,110.90588325262078L353.06666666666666,124.0244870781899L375.1333333333333,124.7961586117745L397.2,103.57500368356713L419.26666666666665,99.71655213832861L441.3333333333333,105.11834675073632L463.4,115.15017056465156L485.46666666666664,127.49710285663613L507.53333333333336,103.57500368356713L529.6,122.09530824422842L551.6666666666667,111.67764866352088L573.7333333333333,111.67764866352088L595.8000000000001,125.5678301453591L617.8666666666667,96.62986600399023L639.9333333333334,111.29181289672859L662,89.68472832441337L684.0666666666667,98.17320907115942L706.1333333333333,90.45639985799797L728.2,94.70059329271324L750.2666666666667,99.71655213832861L772.3333333333334,105.11834675073632L794.4,111.67764866352088L816.4666666666667,108.9767044186593L838.5333333333333,108.2050328850747L860.6,92.38557869195945L882.6666666666666,114.76433479785926L904.7333333333333,91.61390715837486L926.8,95.47235870361334L948.8666666666667,91.99974292516715L970.9333333333333,83.8970979452134L993,90.45639985799797L1015.0666666666667,96.62986600399023L1037.1333333333332,86.21211254596719L1059.2,85.82627677917489L1081.2666666666667,91.61390715837486L1103.3333333333335,90.07056409120567L1125.3999999999999,76.9519602656365L1147.4666666666667,76.5661244988442L1169.5333333333333,91.61390715837486L1191.6000000000001,96.62986600399023" style="fill: none;" fill="none"></path></g><g><path stroke="rgb(0, 119, 187)" stroke-width="2px" d="M110.33333333333333,149.1040935516358L132.4,109.36254018545159L154.46666666666667,98.17320907115942L176.53333333333333,93.92892175912864L198.6,84.2829337120057L220.66666666666666,84.2829337120057L242.73333333333332,80.42457604408273L264.8,80.81041181087502L286.8666666666667,82.73959064483651L308.93333333333334,76.5661244988442L331,69.23515105247505L353.06666666666666,71.93609529733664L375.1333333333333,80.42457604408273L397.2,82.73959064483651L419.26666666666665,80.03874027729043L441.3333333333333,79.65290451049813L463.4,82.35375487804421L485.46666666666664,75.79445296525961L507.53333333333336,78.1094675660134L529.6,76.5661244988442L551.6666666666667,79.65290451049813L573.7333333333333,82.35375487804421L595.8000000000001,81.58208334445962L617.8666666666667,90.45639985799797L639.9333333333334,87.75554949045188L662,72.70776683092123L684.0666666666667,79.26706874370583L706.1333333333333,80.81041181087502L728.2,83.12542641162881L750.2666666666667,75.40861719846731L772.3333333333334,79.65290451049813L794.4,83.8970979452134L816.4666666666667,81.58208334445962L838.5333333333333,77.3377960324288L860.6,79.26706874370583L882.6666666666666,85.82627677917489L904.7333333333333,81.96791911125192L926.8,77.7236317992211L948.8666666666667,78.1094675660134L970.9333333333333,81.19624757766732L993,84.2829337120057L1015.0666666666667,83.8970979452134L1037.1333333333332,88.91305679082878L1059.2,83.8970979452134L1081.2666666666667,91.61390715837486L1103.3333333333335,89.29889255762107L1125.3999999999999,89.29889255762107L1147.4666666666667,86.98387795686729L1169.5333333333333,80.42457604408273L1191.6000000000001,85.0546052455903" style="fill: none;" fill="none"></path></g><g><path stroke="rgb(204, 51, 17)" stroke-width="2px" d="M110.33333333333333,279.51808476448065L132.4,207.75188112258917L154.46666666666667,182.28634500503549L176.53333333333333,168.01032775640493L198.6,159.13591736555108L220.66666666666666,145.24573588371283L242.73333333333332,138.68643397092825L264.8,130.1979532241822L286.8666666666667,122.86697977781301L308.93333333333334,119.39445787668234L331,116.69351363182075L353.06666666666666,111.67764866352088L375.1333333333333,107.8191971182824L397.2,104.73251098394402L419.26666666666665,103.96083945035943L441.3333333333333,103.18916791677484L463.4,98.94488060474401L485.46666666666664,97.40153753757482L507.53333333333336,96.62986600399023L529.6,95.08652293682104L551.6666666666667,86.98387795686729L573.7333333333333,88.52722102403648L595.8000000000001,87.75554949045188L617.8666666666667,85.82627677917489L639.9333333333334,83.8970979452134L662,83.5112621784211L684.0666666666667,83.12542641162881L706.1333333333333,81.58208334445962L728.2,79.65290451049813L750.2666666666667,79.65290451049813L772.3333333333334,76.9519602656365L794.4,78.49530333280569L816.4666666666667,75.79445296525961L838.5333333333333,73.86527413129812L860.6,73.86527413129812L882.6666666666666,72.32193106412893L904.7333333333333,73.09360259771353L926.8,70.00682258605964L948.8666666666667,71.55025953054434L970.9333333333333,71.16442376375204L993,68.46347951889045L1015.0666666666667,68.07764375209815L1037.1333333333332,68.46347951889045L1059.2,70.39265835285194L1081.2666666666667,69.62098681926734L1103.3333333333335,68.84931528568275L1125.3999999999999,68.84931528568275L1147.4666666666667,67.30597221851356L1169.5333333333333,67.69180798530586L1191.6000000000001,69.23515105247505" style="fill: none;" fill="none"></path></g><g><path stroke="rgb(51, 187, 238)" stroke-width="2px" d="M220.66666666666666,384.08079797029507L242.73333333333332,347.811860382557L264.8,321.5747466087342L286.8666666666667,296.109304368496L308.93333333333334,281.44735747575766L331,271.0296040177346L353.06666666666666,258.29692983627325L375.1333333333333,253.2809709906579L397.2,242.47747564315802L419.26666666666665,238.23318833112722L441.3333333333333,231.28805065155038L463.4,226.6580214500428L485.46666666666664,223.95717108249673L507.53333333333336,217.39786916971212L529.6,215.46859645843512L551.6666666666667,211.99607455730444L573.7333333333333,208.13771688938147L595.8000000000001,205.0509368777276L617.8666666666667,204.279265344143L639.9333333333334,202.7359222769738L662,200.03507190942773L684.0666666666667,197.7199634313584L706.1333333333333,195.4049488306046L728.2,194.63327729702002L750.2666666666667,193.08993422985083L772.3333333333334,191.16066151857382L794.4,190.00315421819693L816.4666666666667,188.07397538423544L838.5333333333333,186.53063231706625L860.6,184.60145348310476L882.6666666666666,183.44394618272787L904.7333333333333,182.28634500503549L926.8,178.4279873371125L948.8666666666667,178.04215157032021L970.9333333333333,178.04215157032021L993,175.72713696956643L1015.0666666666667,174.1837000250817L1037.1333333333332,171.8686854243279L1059.2,171.0970138907433L1081.2666666666667,170.71117812395102L1103.3333333333335,170.71117812395102L1125.3999999999999,169.55367082357412L1147.4666666666667,167.62449198961264L1169.5333333333333,166.85272657871252L1191.6000000000001,165.69521927833563" style="fill: none;" fill="none"></path></g></g></g></g></g></g><g transform="translate(50, 378)" clip-path="url(#clip_1)"><clipPath id="clip_1"><rect width="1324" height="22"></rect></clipPath><g><g><line x1="0" y1="0" x2="0" y2="5" style="visibility: inherit;" fill="rgb(0, 0, 0)" stroke="rgb(204, 204, 204)" stroke-width="1px"></line><line x1="110.33333333333333" y1="0" x2="110.33333333333333" y2="5" style="visibility: inherit;" fill="rgb(0, 0, 0)" stroke="rgb(204, 204, 204)" stroke-width="1px"></line><line x1="220.66666666666666" y1="0" x2="220.66666666666666" y2="5" style="visibility: inherit;" fill="rgb(0, 0, 0)" stroke="rgb(204, 204, 204)" stroke-width="1px"></line><line x1="331" y1="0" x2="331" y2="5" style="visibility: inherit;" fill="rgb(0, 0, 0)" stroke="rgb(204, 204, 204)" stroke-width="1px"></line><line x1="441.3333333333333" y1="0" x2="441.3333333333333" y2="5" style="visibility: inherit;" fill="rgb(0, 0, 0)" stroke="rgb(204, 204, 204)" stroke-width="1px"></line><line x1="551.6666666666667" y1="0" x2="551.6666666666667" y2="5" style="visibility: inherit;" fill="rgb(0, 0, 0)" stroke="rgb(204, 204, 204)" stroke-width="1px"></line><line x1="662" y1="0" x2="662" y2="5" style="visibility: inherit;" fill="rgb(0, 0, 0)" stroke="rgb(204, 204, 204)" stroke-width="1px"></line><line x1="772.3333333333334" y1="0" x2="772.3333333333334" y2="5" style="visibility: inherit;" fill="rgb(0, 0, 0)" stroke="rgb(204, 204, 204)" stroke-width="1px"></line><line x1="882.6666666666666" y1="0" x2="882.6666666666666" y2="5" style="visibility: inherit;" fill="rgb(0, 0, 0)" stroke="rgb(204, 204, 204)" stroke-width="1px"></line><line x1="993" y1="0" x2="993" y2="5" style="visibility: inherit;" fill="rgb(0, 0, 0)" stroke="rgb(204, 204, 204)" stroke-width="1px"></line><line x1="1103.3333333333335" y1="0" x2="1103.3333333333335" y2="5" style="visibility: inherit;" fill="rgb(0, 0, 0)" stroke="rgb(204, 204, 204)" stroke-width="1px"></line><line x1="1213.6666666666665" y1="0" x2="1213.6666666666665" y2="5" style="visibility: inherit;" fill="rgb(0, 0, 0)" stroke="rgb(204, 204, 204)" stroke-width="1px"></line><line x1="1324" y1="0" x2="1324" y2="5" style="visibility: inherit;" fill="rgb(0, 0, 0)" stroke="rgb(204, 204, 204)" stroke-width="1px"></line></g><g transform="translate(0, 8)"><text x="0" y="0" dx="0em" dy="0.95em" style="text-anchor: middle; visibility: hidden; font-family: Roboto, sans-serif; font-size: 12px; font-weight: 200;" fill="rgb(50, 49, 63)" stroke="none" stroke-width="1px">-5</text><text x="110.33333333333333" y="0" dx="0em" dy="0.95em" style="text-anchor: middle; visibility: inherit; font-family: Roboto, sans-serif; font-size: 12px; font-weight: 200;" fill="rgb(50, 49, 63)" stroke="none" stroke-width="1px">0</text><text x="220.66666666666666" y="0" dx="0em" dy="0.95em" style="text-anchor: middle; visibility: inherit; font-family: Roboto, sans-serif; font-size: 12px; font-weight: 200;" fill="rgb(50, 49, 63)" stroke="none" stroke-width="1px">5</text><text x="331" y="0" dx="0em" dy="0.95em" style="text-anchor: middle; visibility: inherit; font-family: Roboto, sans-serif; font-size: 12px; font-weight: 200;" fill="rgb(50, 49, 63)" stroke="none" stroke-width="1px">10</text><text x="441.3333333333333" y="0" dx="0em" dy="0.95em" style="text-anchor: middle; visibility: inherit; font-family: Roboto, sans-serif; font-size: 12px; font-weight: 200;" fill="rgb(50, 49, 63)" stroke="none" stroke-width="1px">15</text><text x="551.6666666666667" y="0" dx="0em" dy="0.95em" style="text-anchor: middle; visibility: inherit; font-family: Roboto, sans-serif; font-size: 12px; font-weight: 200;" fill="rgb(50, 49, 63)" stroke="none" stroke-width="1px">20</text><text x="662" y="0" dx="0em" dy="0.95em" style="text-anchor: middle; visibility: inherit; font-family: Roboto, sans-serif; font-size: 12px; font-weight: 200;" fill="rgb(50, 49, 63)" stroke="none" stroke-width="1px">25</text><text x="772.3333333333334" y="0" dx="0em" dy="0.95em" style="text-anchor: middle; visibility: inherit; font-family: Roboto, sans-serif; font-size: 12px; font-weight: 200;" fill="rgb(50, 49, 63)" stroke="none" stroke-width="1px">30</text><text x="882.6666666666666" y="0" dx="0em" dy="0.95em" style="text-anchor: middle; visibility: inherit; font-family: Roboto, sans-serif; font-size: 12px; font-weight: 200;" fill="rgb(50, 49, 63)" stroke="none" stroke-width="1px">35</text><text x="993" y="0" dx="0em" dy="0.95em" style="text-anchor: middle; visibility: inherit; font-family: Roboto, sans-serif; font-size: 12px; font-weight: 200;" fill="rgb(50, 49, 63)" stroke="none" stroke-width="1px">40</text><text x="1103.3333333333335" y="0" dx="0em" dy="0.95em" style="text-anchor: middle; visibility: inherit; font-family: Roboto, sans-serif; font-size: 12px; font-weight: 200;" fill="rgb(50, 49, 63)" stroke="none" stroke-width="1px">45</text><text x="1213.6666666666665" y="0" dx="0em" dy="0.95em" style="text-anchor: middle; visibility: inherit; font-family: Roboto, sans-serif; font-size: 12px; font-weight: 200;" fill="rgb(50, 49, 63)" stroke="none" stroke-width="1px">50</text><text x="1324" y="0" dx="0em" dy="0.95em" style="text-anchor: middle; visibility: hidden; font-family: Roboto, sans-serif; font-size: 12px; font-weight: 200;" fill="rgb(50, 49, 63)" stroke="none" stroke-width="1px">55</text></g><line x1="0" y1="0" x2="1324" y2="0" fill="rgb(0, 0, 0)" stroke="rgb(204, 204, 204)" stroke-width="1px"></line></g></g></g></g></svg>