<svg viewBox="0 0 1006 400" xmlns="http://www.w3.org/2000/svg"><g><g><g><g><g><line x1="51.41600036621094" y1="377.95999908447266" x2="46.41600036621094" y2="377.95999908447266" style="visibility: inherit;" fill="rgb(0, 0, 0)" stroke="rgb(204, 204, 204)" stroke-width="1px"></line><line x1="51.41600036621094" y1="350.96285629272455" x2="46.41600036621094" y2="350.96285629272455" style="visibility: inherit;" fill="rgb(0, 0, 0)" stroke="rgb(204, 204, 204)" stroke-width="1px"></line><line x1="51.41600036621094" y1="323.9657135009765" x2="46.41600036621094" y2="323.9657135009765" style="visibility: inherit;" fill="rgb(0, 0, 0)" stroke="rgb(204, 204, 204)" stroke-width="1px"></line><line x1="51.41600036621094" y1="296.96857070922846" x2="46.41600036621094" y2="296.96857070922846" style="visibility: inherit;" fill="rgb(0, 0, 0)" stroke="rgb(204, 204, 204)" stroke-width="1px"></line><line x1="51.41600036621094" y1="269.9714279174804" x2="46.41600036621094" y2="269.9714279174804" style="visibility: inherit;" fill="rgb(0, 0, 0)" stroke="rgb(204, 204, 204)" stroke-width="1px"></line><line x1="51.41600036621094" y1="242.9742851257323" x2="46.41600036621094" y2="242.9742851257323" style="visibility: inherit;" fill="rgb(0, 0, 0)" stroke="rgb(204, 204, 204)" stroke-width="1px"></line><line x1="51.41600036621094" y1="215.97714233398423" x2="46.41600036621094" y2="215.97714233398423" style="visibility: inherit;" fill="rgb(0, 0, 0)" stroke="rgb(204, 204, 204)" stroke-width="1px"></line><line x1="51.41600036621094" y1="188.97999954223616" x2="46.41600036621094" y2="188.97999954223616" style="visibility: inherit;" fill="rgb(0, 0, 0)" stroke="rgb(204, 204, 204)" stroke-width="1px"></line><line x1="51.41600036621094" y1="161.98285675048814" x2="46.41600036621094" y2="161.98285675048814" style="visibility: inherit;" fill="rgb(0, 0, 0)" stroke="rgb(204, 204, 204)" stroke-width="1px"></line><line x1="51.41600036621094" y1="134.98571395874004" x2="46.41600036621094" y2="134.98571395874004" style="visibility: inherit;" fill="rgb(0, 0, 0)" stroke="rgb(204, 204, 204)" stroke-width="1px"></line><line x1="51.41600036621094" y1="107.98857116699197" x2="46.41600036621094" y2="107.98857116699197" style="visibility: inherit;" fill="rgb(0, 0, 0)" stroke="rgb(204, 204, 204)" stroke-width="1px"></line><line x1="51.41600036621094" y1="80.9914283752439" x2="46.41600036621094" y2="80.9914283752439" style="visibility: inherit;" fill="rgb(0, 0, 0)" stroke="rgb(204, 204, 204)" stroke-width="1px"></line><line x1="51.41600036621094" y1="53.99428558349615" x2="46.41600036621094" y2="53.99428558349615" style="visibility: inherit;" fill="rgb(0, 0, 0)" stroke="rgb(204, 204, 204)" stroke-width="1px"></line><line x1="51.41600036621094" y1="26.997142791748075" x2="46.41600036621094" y2="26.997142791748075" style="visibility: inherit;" fill="rgb(0, 0, 0)" stroke="rgb(204, 204, 204)" stroke-width="1px"></line><line x1="51.41600036621094" y1="0" x2="46.41600036621094" y2="0" style="visibility: inherit;" fill="rgb(0, 0, 0)" stroke="rgb(204, 204, 204)" stroke-width="1px"></line></g><g transform="translate(41.41600036621094, 0)"><text style="text-anchor: end; visibility: hidden; font-family: Roboto, sans-serif; font-size: 12px; font-weight: 200;" x="0" y="377.95999908447266" dx="0em" dy="0.3em" fill="rgb(50, 49, 63)" stroke="none" stroke-width="1px">0.82</text><text style="text-anchor: end; visibility: inherit; font-family: Roboto, sans-serif; font-size: 12px; font-weight: 200;" x="0" y="350.96285629272455" dx="0em" dy="0.3em" fill="rgb(50, 49, 63)" stroke="none" stroke-width="1px">0.83</text><text style="text-anchor: end; visibility: inherit; font-family: Roboto, sans-serif; font-size: 12px; font-weight: 200;" x="0" y="323.9657135009765" dx="0em" dy="0.3em" fill="rgb(50, 49, 63)" stroke="none" stroke-width="1px">0.84</text><text style="text-anchor: end; visibility: inherit; font-family: Roboto, sans-serif; font-size: 12px; font-weight: 200;" x="0" y="296.96857070922846" dx="0em" dy="0.3em" fill="rgb(50, 49, 63)" stroke="none" stroke-width="1px">0.85</text><text style="text-anchor: end; visibility: inherit; font-family: Roboto, sans-serif; font-size: 12px; font-weight: 200;" x="0" y="269.9714279174804" dx="0em" dy="0.3em" fill="rgb(50, 49, 63)" stroke="none" stroke-width="1px">0.86</text><text style="text-anchor: end; visibility: inherit; font-family: Roboto, sans-serif; font-size: 12px; font-weight: 200;" x="0" y="242.9742851257323" dx="0em" dy="0.3em" fill="rgb(50, 49, 63)" stroke="none" stroke-width="1px">0.87</text><text style="text-anchor: end; visibility: inherit; font-family: Roboto, sans-serif; font-size: 12px; font-weight: 200;" x="0" y="215.97714233398423" dx="0em" dy="0.3em" fill="rgb(50, 49, 63)" stroke="none" stroke-width="1px">0.88</text><text style="text-anchor: end; visibility: inherit; font-family: Roboto, sans-serif; font-size: 12px; font-weight: 200;" x="0" y="188.97999954223616" dx="0em" dy="0.3em" fill="rgb(50, 49, 63)" stroke="none" stroke-width="1px">0.89</text><text style="text-anchor: end; visibility: inherit; font-family: Roboto, sans-serif; font-size: 12px; font-weight: 200;" x="0" y="161.98285675048814" dx="0em" dy="0.3em" fill="rgb(50, 49, 63)" stroke="none" stroke-width="1px">0.9</text><text style="text-anchor: end; visibility: inherit; font-family: Roboto, sans-serif; font-size: 12px; font-weight: 200;" x="0" y="134.98571395874004" dx="0em" dy="0.3em" fill="rgb(50, 49, 63)" stroke="none" stroke-width="1px">0.91</text><text style="text-anchor: end; visibility: inherit; font-family: Roboto, sans-serif; font-size: 12px; font-weight: 200;" x="0" y="107.98857116699197" dx="0em" dy="0.3em" fill="rgb(50, 49, 63)" stroke="none" stroke-width="1px">0.92</text><text style="text-anchor: end; visibility: inherit; font-family: Roboto, sans-serif; font-size: 12px; font-weight: 200;" x="0" y="80.9914283752439" dx="0em" dy="0.3em" fill="rgb(50, 49, 63)" stroke="none" stroke-width="1px">0.93</text><text style="text-anchor: end; visibility: inherit; font-family: Roboto, sans-serif; font-size: 12px; font-weight: 200;" x="0" y="53.99428558349615" dx="0em" dy="0.3em" fill="rgb(50, 49, 63)" stroke="none" stroke-width="1px">0.94</text><text style="text-anchor: end; visibility: inherit; font-family: Roboto, sans-serif; font-size: 12px; font-weight: 200;" x="0" y="26.997142791748075" dx="0em" dy="0.3em" fill="rgb(50, 49, 63)" stroke="none" stroke-width="1px">0.95</text><text style="text-anchor: end; visibility: hidden; font-family: Roboto, sans-serif; font-size: 12px; font-weight: 200;" x="0" y="0" dx="0em" dy="0.3em" fill="rgb(50, 49, 63)" stroke="none" stroke-width="1px">0.96</text></g><line x1="51.41600036621094" y1="0" x2="51.41600036621094" y2="377.95999908447266" fill="rgb(0, 0, 0)" stroke="rgb(204, 204, 204)" stroke-width="1px"></line></g></g><g transform="translate(51, 0)" clip-path="url(#clip_0)"><clipPath id="clip_0"><rect width="954" height="377"></rect></clipPath><g><g><g><line x1="0" y1="0" x2="0" y2="377.95999908447266" fill="rgb(0, 0, 0)" stroke="rgb(60, 60, 60)" stroke-width="1px" opacity="0.25"></line><line x1="79.54866663614908" y1="0" x2="79.54866663614908" y2="377.95999908447266" fill="rgb(0, 0, 0)" stroke="rgb(60, 60, 60)" stroke-width="1px" opacity="0.25"></line><line x1="159.09733327229816" y1="0" x2="159.09733327229816" y2="377.95999908447266" fill="rgb(0, 0, 0)" stroke="rgb(60, 60, 60)" stroke-width="1px" opacity="0.25"></line><line x1="238.64599990844727" y1="0" x2="238.64599990844727" y2="377.95999908447266" fill="rgb(0, 0, 0)" stroke="rgb(60, 60, 60)" stroke-width="1px" opacity="0.25"></line><line x1="318.1946665445963" y1="0" x2="318.1946665445963" y2="377.95999908447266" fill="rgb(0, 0, 0)" stroke="rgb(60, 60, 60)" stroke-width="1px" opacity="0.25"></line><line x1="397.7433331807455" y1="0" x2="397.7433331807455" y2="377.95999908447266" fill="rgb(0, 0, 0)" stroke="rgb(60, 60, 60)" stroke-width="1px" opacity="0.25"></line><line x1="477.29199981689453" y1="0" x2="477.29199981689453" y2="377.95999908447266" fill="rgb(0, 0, 0)" stroke="rgb(60, 60, 60)" stroke-width="1px" opacity="0.25"></line><line x1="556.8406664530437" y1="0" x2="556.8406664530437" y2="377.95999908447266" fill="rgb(0, 0, 0)" stroke="rgb(60, 60, 60)" stroke-width="1px" opacity="0.25"></line><line x1="636.3893330891926" y1="0" x2="636.3893330891926" y2="377.95999908447266" fill="rgb(0, 0, 0)" stroke="rgb(60, 60, 60)" stroke-width="1px" opacity="0.25"></line><line x1="715.9379997253418" y1="0" x2="715.9379997253418" y2="377.95999908447266" fill="rgb(0, 0, 0)" stroke="rgb(60, 60, 60)" stroke-width="1px" opacity="0.25"></line><line x1="795.486666361491" y1="0" x2="795.486666361491" y2="377.95999908447266" fill="rgb(0, 0, 0)" stroke="rgb(60, 60, 60)" stroke-width="1px" opacity="0.25"></line><line x1="875.0353329976399" y1="0" x2="875.0353329976399" y2="377.95999908447266" fill="rgb(0, 0, 0)" stroke="rgb(60, 60, 60)" stroke-width="1px" opacity="0.25"></line><line x1="954.5839996337891" y1="0" x2="954.5839996337891" y2="377.95999908447266" fill="rgb(0, 0, 0)" stroke="rgb(60, 60, 60)" stroke-width="1px" opacity="0.25"></line></g><g><line x1="0" y1="377.95999908447266" x2="954.5839996337891" y2="377.95999908447266" fill="rgb(0, 0, 0)" stroke="rgb(60, 60, 60)" stroke-width="1px" opacity="0.25"></line><line x1="0" y1="350.96285629272455" x2="954.5839996337891" y2="350.96285629272455" fill="rgb(0, 0, 0)" stroke="rgb(60, 60, 60)" stroke-width="1px" opacity="0.25"></line><line x1="0" y1="323.9657135009765" x2="954.5839996337891" y2="323.9657135009765" fill="rgb(0, 0, 0)" stroke="rgb(60, 60, 60)" stroke-width="1px" opacity="0.25"></line><line x1="0" y1="296.96857070922846" x2="954.5839996337891" y2="296.96857070922846" fill="rgb(0, 0, 0)" stroke="rgb(60, 60, 60)" stroke-width="1px" opacity="0.25"></line><line x1="0" y1="269.9714279174804" x2="954.5839996337891" y2="269.9714279174804" fill="rgb(0, 0, 0)" stroke="rgb(60, 60, 60)" stroke-width="1px" opacity="0.25"></line><line x1="0" y1="242.9742851257323" x2="954.5839996337891" y2="242.9742851257323" fill="rgb(0, 0, 0)" stroke="rgb(60, 60, 60)" stroke-width="1px" opacity="0.25"></line><line x1="0" y1="215.97714233398423" x2="954.5839996337891" y2="215.97714233398423" fill="rgb(0, 0, 0)" stroke="rgb(60, 60, 60)" stroke-width="1px" opacity="0.25"></line><line x1="0" y1="188.97999954223616" x2="954.5839996337891" y2="188.97999954223616" fill="rgb(0, 0, 0)" stroke="rgb(60, 60, 60)" stroke-width="1px" opacity="0.25"></line><line x1="0" y1="161.98285675048814" x2="954.5839996337891" y2="161.98285675048814" fill="rgb(0, 0, 0)" stroke="rgb(60, 60, 60)" stroke-width="1px" opacity="0.25"></line><line x1="0" y1="134.98571395874004" x2="954.5839996337891" y2="134.98571395874004" fill="rgb(0, 0, 0)" stroke="rgb(60, 60, 60)" stroke-width="1px" opacity="0.25"></line><line x1="0" y1="107.98857116699197" x2="954.5839996337891" y2="107.98857116699197" fill="rgb(0, 0, 0)" stroke="rgb(60, 60, 60)" stroke-width="1px" opacity="0.25"></line><line x1="0" y1="80.9914283752439" x2="954.5839996337891" y2="80.9914283752439" fill="rgb(0, 0, 0)" stroke="rgb(60, 60, 60)" stroke-width="1px" opacity="0.25"></line><line x1="0" y1="53.99428558349615" x2="954.5839996337891" y2="53.99428558349615" fill="rgb(0, 0, 0)" stroke="rgb(60, 60, 60)" stroke-width="1px" opacity="0.25"></line><line x1="0" y1="26.997142791748075" x2="954.5839996337891" y2="26.997142791748075" fill="rgb(0, 0, 0)" stroke="rgb(60, 60, 60)" stroke-width="1px" opacity="0.25"></line><line x1="0" y1="0" x2="954.5839996337891" y2="0" fill="rgb(0, 0, 0)" stroke="rgb(60, 60, 60)" stroke-width="1px" opacity="0.25"></line></g></g></g><g><g><line x1="0" y1="2591.725708007812" x2="954.5839996337891" y2="2591.725708007812" fill="rgb(0, 0, 0)" stroke="rgb(153, 153, 153)" stroke-width="1.5px"></line></g></g><g><g><line x1="79.54866663614908" y1="0" x2="79.54866663614908" y2="377.95999908447266" fill="rgb(0, 0, 0)" stroke="rgb(153, 153, 153)" stroke-width="1.5px"></line></g></g><g><g><g><g><g><path style="fill: none;" stroke="rgb(0, 153, 136)" stroke-width="2px" d="M79.54866663614908,386.1493305600569L95.45839996337891,327.1582072331378L111.36813329060872,282.1888797365225L127.27786661783854,252.46233646231548L143.18759994506834,235.79491932093777L159.09733327229816,225.49975022825225L175.00706659952797,217.35412773915263L190.91679992675782,212.61518347735165L206.82653325398763,209.82327700160025L222.73626658121745,207.88694942959995L238.64599990844727,206.73267343946586L254.55573323567708,206.0427938068972L270.4654665629069,205.62982838365133L286.3751998901367,205.38239459178428L302.28493321736653,205.23405847066994L318.1946665445963,205.14510144766388L334.10439987182616,205.09174329786202L350.01413319905595,205.05973418888988L365.92386652628585,205.04053080417256L381.83359985351564,205.02900952228333L397.7433331807455,205.02209702274706L413.65306650797527,205.01794962007548L429.5627998352051,205.01546121341002L445.4725331624349,205.01396818198725L461.38226648966474,205.0130723676611L477.29199981689453,205.01253488069636L493.2017331441244,205.01221238910352L509.11146647135416,205.01201889435893L525.021199798584,205.0119027975889L540.9309331258138,205.0118331395536L556.8406664530437,205.01179134474293L572.7503997802734,205.01176626785949L588.6601331075033,205.01175122173092L604.5698664347331,205.01174219405462L620.479599761963,205.01173677744848L636.3893330891926,205.01173352748518L652.2990664164225,205.01173157750674L668.2087997436523,205.01173040751988L684.1185330708822,205.01172970552818L700.0282663981119,205.01172928433263L715.9379997253418,205.0117290316159L731.8477330525717,205.01172887998504L747.7574663798014,205.01172878900726L763.6671997070313,205.01172873442042L779.5769330342611,205.0117287016682L795.486666361491,205.0117286820171L811.3963996887206,205.01172867022638L827.3061330159505,205.0117286631516L843.2158663431803,205.01172865890712L859.1255996704102,205.01172865636002" fill="none"></path></g><g><path style="fill: none;" stroke="rgb(0, 119, 187)" stroke-width="2px" d="M79.54866663614908,445.1404740014149L95.45839996337891,362.29262050532407L111.36813329060872,308.95800577518133L127.27786661783854,274.9030006725422L143.18759994506834,250.3085131189968L159.09733327229816,235.37978014512805L175.00706659952797,225.1675084439649L190.91679992675782,214.42634768890565L206.82653325398763,206.41566361830525L222.73626658121745,201.6612341981505L238.64599990844727,196.5981288204499L254.55573323567708,195.519502161693L270.4654665629069,194.3179462749305L286.3751998901367,193.59801789239222L302.28493321736653,191.7777119537275L318.1946665445963,191.79683542157358L334.10439987182616,191.2529891745462L350.01413319905595,190.92674034751545L365.92386652628585,191.00864061468232L381.83359985351564,190.78015599165352L397.7433331807455,190.92068809333833L413.65306650797527,191.00500538130183L429.5627998352051,191.05559504380355L445.4725331624349,191.08594858560917L461.38226648966474,191.1041606186431L477.29199981689453,191.11508780532614L493.2017331441244,191.12164410540618L509.11146647135416,191.12557788115976L525.021199798584,191.1279381450661L540.9309331258138,191.1293543028531L556.8406664530437,191.13020399732497L572.7503997802734,191.13071381393598L588.6601331075033,191.1310197038765L604.5698664347331,191.1312032378315L620.479599761963,191.13131335820145L636.3893330891926,191.13137943042202L652.2990664164225,191.13141907375362L668.2087997436523,191.1314428597526L684.1185330708822,191.13145713135225L700.0282663981119,191.1314656943118L715.9379997253418,191.13147083208742L731.8477330525717,191.13147391475275L747.7574663798014,191.13147576435207L763.6671997070313,191.13147687411154L779.5769330342611,191.13147753996736L795.486666361491,191.13147793948087L811.3963996887206,191.13147817918875L827.3061330159505,191.13147832301377L843.2158663431803,191.13147840930858L859.1255996704102,191.1314784610852" fill="none"></path></g><g><path style="fill: none;" stroke="rgb(51, 187, 238)" stroke-width="2px" d="M95.45839996337891,379.81652075462523L111.36813329060872,367.8217369720403L127.27786661783854,326.17070601542537L143.18759994506834,302.8190180946444L159.09733327229816,292.9389166024331L175.00706659952797,278.1751580241234L190.91679992675782,267.6095157042999L206.82653325398763,253.81317710722908L222.73626658121745,243.1112602727337L238.64599990844727,226.98008989674526L254.55573323567708,224.29422177208028L270.4654665629069,219.35081811877072L286.3751998901367,221.9453655959944L302.28493321736653,221.5566624184191L318.1946665445963,214.38144182568465L334.10439987182616,213.96475892648155L350.01413319905595,214.27007360299305L365.92386652628585,213.34272913693158L381.83359985351564,207.51167716681434L397.7433331807455,205.95644076616824L413.65306650797527,204.46809057521313L429.5627998352051,208.01684673229383L445.4725331624349,205.70434278728183L461.38226648966474,204.59445966126694L477.29199981689453,198.93164611363943L493.2017331441244,200.8084581723064L509.11146647135416,203.87782544376137L525.021199798584,206.27460331645028L540.9309331258138,205.49184183894164L556.8406664530437,204.18935063602814L572.7503997802734,203.68546748584166L588.6601331075033,202.55036763114492L604.5698664347331,204.92296930216193L620.479599761963,204.68086159925514L636.3893330891926,206.75642414804645L652.2990664164225,204.11533022742964L668.2087997436523,205.0291124786591L684.1185330708822,202.80133179828283L700.0282663981119,201.4646633932336L715.9379997253418,203.99393525456944L731.8477330525717,205.78910980910285L747.7574663798014,205.47815734638777L763.6671997070313,206.12442018564946L779.5769330342611,206.23456645020966L795.486666361491,206.85587708676553L811.3963996887206,206.67344059086068L827.3061330159505,207.6743600827276L843.2158663431803,209.38535753343328L859.1255996704102,208.46874029775708" fill="none"></path></g><g><path style="fill: none;" stroke="rgb(238, 51, 119)" stroke-width="2px" d="M79.54866663614908,561.477399788192L95.45839996337891,370.85718764177864L111.36813329060872,260.94426888407327L127.27786661783854,194.74125477607916L143.18759994506834,152.68115759180807L159.09733327229816,126.58479752669018L175.00706659952797,114.47612164773719L190.91679992675782,106.44387777276725L206.82653325398763,103.91903726135229L222.73626658121745,99.00091776048446L238.64599990844727,96.92193983940415L254.55573323567708,96.16602874834018L270.4654665629069,94.61962024618434L286.3751998901367,92.72114985165759L302.28493321736653,92.79747346741692L318.1946665445963,92.47902229468069L334.10439987182616,91.92376345924083L350.01413319905595,91.95488928948926L365.92386652628585,90.51673805694664L381.83359985351564,92.44601833152028L397.7433331807455,92.51096543265719L413.65306650797527,90.97184578103884L429.5627998352051,91.62646564735803L445.4725331624349,90.31976531516955L461.38226648966474,90.74969914182108L477.29199981689453,89.9151048410272L493.2017331441244,92.08497008526119L509.11146647135416,92.77991413172353L525.021199798584,95.50331533290222L540.9309331258138,96.53038197120921L556.8406664530437,95.08297666093947L572.7503997802734,93.6076246095508L588.6601331075033,94.54326909261924L604.5698664347331,90.85597122252344L620.479599761963,88.88638189465426L636.3893330891926,92.31743239419048L652.2990664164225,94.9830359810228L668.2087997436523,95.73263549100488L684.1185330708822,93.75463069820046L700.0282663981119,92.93201180942637L715.9379997253418,92.6812297994616L731.8477330525717,92.4093659323522L747.7574663798014,90.66818138231127L763.6671997070313,90.83735289862067L779.5769330342611,92.1527380543155L795.486666361491,90.87832427331033L811.3963996887206,88.41421511408984L827.3061330159505,92.762500257764L843.2158663431803,92.82224782486317L859.1255996704102,93.95064831593669" fill="none"></path></g><g><path style="fill: none;" stroke="rgb(255, 112, 67)" stroke-width="2px" d="M95.45839996337891,401.6598760551041L111.36813329060872,295.850015468707L127.27786661783854,220.71843015501508L143.18759994506834,174.23583423510087L159.09733327229816,138.33164129483941L175.00706659952797,115.26952062244446L190.91679992675782,98.5189679169235L206.82653325398763,86.93376824595369L222.73626658121745,80.17995751411762L238.64599990844727,74.57009012270903L254.55573323567708,70.36560724915003L270.4654665629069,66.02554579579545L286.3751998901367,66.09785218775723L302.28493321736653,65.53394091201656L318.1946665445963,64.95290605046526L334.10439987182616,65.45429654692073L350.01413319905595,64.17685000931391L365.92386652628585,65.23143163792814L381.83359985351564,64.52874938875473L397.7433331807455,63.378836903854626L413.65306650797527,61.23221481607894L429.5627998352051,60.18705088604523L445.4725331624349,61.01663628109522L461.38226648966474,61.63578000867728L477.29199981689453,59.82222185597769L493.2017331441244,61.04046113521587L509.11146647135416,61.7714039047705L525.021199798584,63.666705750379215L540.9309331258138,60.31241168584686L556.8406664530437,59.75650748313996L572.7503997802734,59.05884536233125L588.6601331075033,60.582434064926254L604.5698664347331,61.496587239920856L620.479599761963,60.70980219819796L636.3893330891926,62.30137607731198L652.2990664164225,61.79964881705593L668.2087997436523,61.13442847793536L684.1185330708822,61.34226958339933L700.0282663981119,61.102790262292736L715.9379997253418,61.687470637621786L731.8477330525717,63.25216110890461L747.7574663798014,64.43376471366409L763.6671997070313,61.379621110838954L779.5769330342611,61.61077982390294L795.486666361491,60.65692310085276L811.3963996887206,60.93437169549672L827.3061330159505,62.436117759308466L843.2158663431803,61.88049382935179L859.1255996704102,61.6685141325833" fill="none"></path></g><g><path style="fill: none;" stroke="rgb(204, 51, 17)" stroke-width="2px" d="M95.45839996337891,425.6344366069165L111.36813329060872,339.1788943079431L127.27786661783854,281.51168710568135L143.18759994506834,236.6976314381958L159.09733327229816,201.8347972547198L175.00706659952797,180.48945252589502L190.91679992675782,160.91029111831494L206.82653325398763,148.63962095056365L222.73626658121745,136.7159771923647L238.64599990844727,129.4862648067572L254.55573323567708,115.91952666912864L270.4654665629069,107.79840887903423L286.3751998901367,103.90438635362904L302.28493321736653,95.49759601478834L318.1946665445963,88.3918250677818L334.10439987182616,82.91555792076726L350.01413319905595,82.42262299440483L365.92386652628585,80.30592756633463L381.83359985351564,76.72947433498577L397.7433331807455,74.94787805778569L413.65306650797527,72.9078395995205L429.5627998352051,70.71266875036308L445.4725331624349,70.48813446367228L461.38226648966474,67.6827887996992L477.29199981689453,68.67020924156223L493.2017331441244,68.41289693055998L509.11146647135416,66.19486357102781L525.021199798584,64.4999246754811L540.9309331258138,65.06102831611335L556.8406664530437,61.755978834441244L572.7503997802734,60.865437097560076L588.6601331075033,60.20971743379404L604.5698664347331,60.666048308325536L620.479599761963,60.090084181664366L636.3893330891926,61.808150607495584L652.2990664164225,62.83899045165287L668.2087997436523,61.272454810544446L684.1185330708822,59.7256244884515L700.0282663981119,56.733881420435964L715.9379997253418,57.00248045804799L731.8477330525717,55.22138966653677L747.7574663798014,56.823289006954575L763.6671997070313,57.54170365467041L779.5769330342611,58.45826672186906L795.486666361491,57.551532993833185L811.3963996887206,57.12888741825309L827.3061330159505,55.90420714949246L843.2158663431803,56.99025454008326L859.1255996704102,57.27769899082358" fill="none"></path></g></g></g></g><g opacity="0.2"><g><g><g><path style="fill: none;" stroke="rgb(0, 153, 136)" stroke-width="2px" d="M79.54866663614908,386.1493305600569L95.45839996337891,291.7635332369863L111.36813329060872,239.01832533977168L127.27786661783854,217.50392157184788L143.18759994506834,214.03393950115594L159.09733327229816,211.25782511219393L175.00706659952797,205.7057572497805L190.91679992675782,205.7057572497805L206.82653325398763,205.7057572497805L222.73626658121745,205.01172865253997L238.64599990844727,205.01172865253997L254.55573323567708,205.01172865253997L270.4654665629069,205.01172865253997L286.3751998901367,205.01172865253997L302.28493321736653,205.01172865253997L318.1946665445963,205.01172865253997L334.10439987182616,205.01172865253997L350.01413319905595,205.01172865253997L365.92386652628585,205.01172865253997L381.83359985351564,205.01172865253997L397.7433331807455,205.01172865253997L413.65306650797527,205.01172865253997L429.5627998352051,205.01172865253997L445.4725331624349,205.01172865253997L461.38226648966474,205.01172865253997L477.29199981689453,205.01172865253997L493.2017331441244,205.01172865253997L509.11146647135416,205.01172865253997L525.021199798584,205.01172865253997L540.9309331258138,205.01172865253997L556.8406664530437,205.01172865253997L572.7503997802734,205.01172865253997L588.6601331075033,205.01172865253997L604.5698664347331,205.01172865253997L620.479599761963,205.01172865253997L636.3893330891926,205.01172865253997L652.2990664164225,205.01172865253997L668.2087997436523,205.01172865253997L684.1185330708822,205.01172865253997L700.0282663981119,205.01172865253997L715.9379997253418,205.01172865253997L731.8477330525717,205.01172865253997L747.7574663798014,205.01172865253997L763.6671997070313,205.01172865253997L779.5769330342611,205.01172865253997L795.486666361491,205.01172865253997L811.3963996887206,205.01172865253997L827.3061330159505,205.01172865253997L843.2158663431803,205.01172865253997L859.1255996704102,205.01172865253997" fill="none"></path></g><g><path style="fill: none;" stroke="rgb(0, 119, 187)" stroke-width="2px" d="M79.54866663614908,445.1404740014149L95.45839996337891,312.5839084076696L111.36813329060872,257.75677563424404L127.27786661783854,234.8543146718392L143.18759994506834,218.19795016908836L159.09733327229816,214.72796809839645L175.00706659952797,210.5637965149534L190.91679992675782,198.76563219288607L206.82653325398763,194.60146060944302L222.73626658121745,194.60146060944302L238.64599990844727,189.0493927470296L254.55573323567708,193.90743201220255L270.4654665629069,192.51953573323217L286.3751998901367,192.51953573323217L302.28493321736653,189.0493927470296L318.1946665445963,191.82550713599161L334.10439987182616,190.43744994151066L350.01413319905595,190.43744994151066L365.92386652628585,191.13147853875114L381.83359985351564,190.43744994151066L397.7433331807455,191.13147853875114L413.65306650797527,191.13147853875114L429.5627998352051,191.13147853875114L445.4725331624349,191.13147853875114L461.38226648966474,191.13147853875114L477.29199981689453,191.13147853875114L493.2017331441244,191.13147853875114L509.11146647135416,191.13147853875114L525.021199798584,191.13147853875114L540.9309331258138,191.13147853875114L556.8406664530437,191.13147853875114L572.7503997802734,191.13147853875114L588.6601331075033,191.13147853875114L604.5698664347331,191.13147853875114L620.479599761963,191.13147853875114L636.3893330891926,191.13147853875114L652.2990664164225,191.13147853875114L668.2087997436523,191.13147853875114L684.1185330708822,191.13147853875114L700.0282663981119,191.13147853875114L715.9379997253418,191.13147853875114L731.8477330525717,191.13147853875114L747.7574663798014,191.13147853875114L763.6671997070313,191.13147853875114L779.5769330342611,191.13147853875114L795.486666361491,191.13147853875114L811.3963996887206,191.13147853875114L827.3061330159505,191.13147853875114L843.2158663431803,191.13147853875114L859.1255996704102,191.13147853875114" fill="none"></path></g><g><path style="fill: none;" stroke="rgb(51, 187, 238)" stroke-width="2px" d="M79.54866663614908,388.9254449490189L95.45839996337891,374.35116623798956L111.36813329060872,356.3067445407577L127.27786661783854,277.1890936104463L143.18759994506834,272.33105434527334L159.09733327229816,279.27117940216783L175.00706659952797,257.06274703700353L190.91679992675782,252.2047077718306L206.82653325398763,233.46625747735825L222.73626658121745,227.2201610177043L238.64599990844727,202.92964286081846L254.55573323567708,220.28003596080987L270.4654665629069,211.95185370943446L286.3751998901367,225.8321038232233L302.28493321736653,220.97406455805034L318.1946665445963,203.62367145805902L334.10439987182616,213.3399109039154L350.01413319905595,214.72796809839645L365.92386652628585,211.95185370943446L381.83359985351564,198.76563219288607L397.7433331807455,203.62367145805902L413.65306650797527,202.235614263578L429.5627998352051,213.3399109039154L445.4725331624349,202.235614263578L461.38226648966474,202.92964286081846L477.29199981689453,190.43744994151066L493.2017331441244,203.62367145805902L509.11146647135416,208.48187163874252L525.021199798584,209.86976791771292L540.9309331258138,204.3177000552995L556.8406664530437,202.235614263578L572.7503997802734,202.92964286081846L588.6601331075033,200.8477179846076L604.5698664347331,208.48187163874252L620.479599761963,204.3177000552995L636.3893330891926,209.86976791771292L652.2990664164225,200.15368938736708L668.2087997436523,206.39978584702104L684.1185330708822,199.45966079012655L700.0282663981119,199.45966079012655L715.9379997253418,207.787843041502L731.8477330525717,208.48187163874252L747.7574663798014,205.01172865253997L763.6671997070313,207.0938144442615L779.5769330342611,206.39978584702104L795.486666361491,207.787843041502L811.3963996887206,206.39978584702104L827.3061330159505,209.17573932047242L843.2158663431803,211.95185370943446L859.1255996704102,207.0938144442615" fill="none"></path></g><g><path style="fill: none;" stroke="rgb(238, 51, 119)" stroke-width="2px" d="M79.54866663614908,561.477399788192L95.45839996337891,256.48506035393063L111.36813329060872,155.42786687667638L127.27786661783854,116.88651018507778L143.18759994506834,97.76749470802397L159.09733327229816,90.48413686700852L175.00706659952797,97.16052140202089L190.91679992675782,94.73278909351927L206.82653325398763,100.19538793203617L222.73626658121745,91.69808347901463L238.64599990844727,93.8223291345147L254.55573323567708,95.03627574652081L270.4654665629069,92.30505678501767L286.3751998901367,89.87716356100543L302.28493321736653,92.91186917551012L318.1946665445963,92.00157013201613L334.10439987182616,91.09111017301154L350.01413319905595,92.00157013201613L365.92386652628585,88.35973029599782L381.83359985351564,95.33976239952231L397.7433331807455,92.60838252250858L413.65306650797527,88.66321694899932L429.5627998352051,92.60838252250858L445.4725331624349,88.35973029599782L461.38226648966474,91.39459682601309L477.29199981689453,88.66321694899932L493.2017331441244,95.33976239952231L509.11146647135416,93.8223291345147L525.021199798584,99.58841462603313L540.9309331258138,98.07098136102547L556.8406664530437,92.91186917551012L572.7503997802734,91.39459682601309L588.6601331075033,95.9467357055254L604.5698664347331,85.32502468149312L620.479599761963,85.9319979874962L636.3893330891926,97.46400805502243L652.2990664164225,98.98144132003004L668.2087997436523,96.85703474901935L684.1185330708822,90.78762352001002L700.0282663981119,91.69808347901463L715.9379997253418,92.30505678501767L731.8477330525717,92.00157013201613L747.7574663798014,88.0564045585069L763.6671997070313,91.09111017301154L779.5769330342611,94.12581578751625L795.486666361491,88.96670360200085L811.3963996887206,84.71805137549009L827.3061330159505,99.28492797303159L843.2158663431803,92.91186917551012L859.1255996704102,95.64324905252386" fill="none"></path></g><g><path style="fill: none;" stroke="rgb(255, 112, 67)" stroke-width="2px" d="M79.54866663614908,564.2087796652057L95.45839996337891,304.13053388904325L111.36813329060872,194.27254930576586L127.27786661783854,132.36368582611328L143.18759994506834,113.54815700206096L159.09733327229816,88.66321694899932L175.00706659952797,82.29031906698847L190.91679992675782,74.0965012669684L206.82653325398763,69.84784904045763L222.73626658121745,70.15133569345917L238.64599990844727,66.2061701199499L254.55573323567708,64.08176354893921L270.4654665629069,59.5296246694269L286.3751998901367,66.2061701199499L302.28493321736653,64.68873685494225L318.1946665445963,64.08176354893921L334.10439987182616,66.2061701199499L350.01413319905595,62.26100454644063L365.92386652628585,66.81314342595294L381.83359985351564,63.474790242936166L397.7433331807455,61.6540312404376L413.65306650797527,58.01235231992987L429.5627998352051,58.6193256259329L445.4725331624349,62.26100454644063L461.38226648966474,62.56449119944217L477.29199981689453,57.101892360925284L493.2017331441244,62.86781693693309L509.11146647135416,62.86781693693309L525.021199798584,66.50965677295144L540.9309331258138,55.28097244291609L556.8406664530437,58.92265136342382L572.7503997802734,58.01235231992987L588.6601331075033,62.86781693693309L604.5698664347331,62.86781693693309L620.479599761963,59.5296246694269L636.3893330891926,64.68873685494225L652.2990664164225,61.04705793443451L668.2087997436523,60.136597975429936L684.1185330708822,61.6540312404376L700.0282663981119,60.74357128143301L715.9379997253418,62.56449119944217L731.8477330525717,65.59919681394686L747.7574663798014,66.2061701199499L763.6671997070313,56.79840570792375L779.5769330342611,61.95751789343913L795.486666361491,59.22613801642536L811.3963996887206,61.350544587436055L827.3061330159505,64.68873685494225L843.2158663431803,61.04705793443451L859.1255996704102,61.350544587436055" fill="none"></path></g><g><path style="fill: none;" stroke="rgb(204, 51, 17)" stroke-width="2px" d="M79.54866663614908,554.8010152531796L95.45839996337891,348.13448941915874L111.36813329060872,256.1815737009291L127.27786661783854,213.69505143582126L143.18759994506834,178.18840035872734L159.09733327229816,153.60694695866724L175.00706659952797,149.9652680381595L190.91679992675782,132.36368582611328L206.82653325398763,130.54276590810412L222.73626658121745,119.01075584057789L238.64599990844727,118.70726918757634L254.55573323567708,95.64324905252386L270.4654665629069,95.64324905252386L286.3751998901367,98.07098136102547L302.28493321736653,82.89729237299152L318.1946665445963,77.73818018747613L334.10439987182616,74.70347457297147L350.01413319905595,81.68334576098539L365.92386652628585,77.13120688147309L381.83359985351564,71.36512138995467L397.7433331807455,72.27558134895924L413.65306650797527,69.84784904045763L429.5627998352051,67.4199558164454L445.4725331624349,70.15133569345917L461.38226648966474,63.474790242936166L477.29199981689453,70.15133569345917L493.2017331441244,68.02692912244848L509.11146647135416,62.86781693693309L525.021199798584,61.95751789343913L540.9309331258138,65.90268346694836L556.8406664530437,56.79840570792375L572.7503997802734,59.5296246694269L588.6601331075033,59.22613801642536L604.5698664347331,61.350544587436055L620.479599761963,59.22613801642536L636.3893330891926,64.38525020194075L652.2990664164225,64.38525020194075L668.2087997436523,58.92265136342382L684.1185330708822,57.40537901392678L700.0282663981119,52.24626682841144L715.9379997253418,57.40537901392678L731.8477330525717,52.54975348141298L747.7574663798014,59.22613801642536L763.6671997070313,58.6193256259329L779.5769330342611,59.83311132242844L795.486666361491,56.19143240192071L811.3963996887206,56.49491905492221L827.3061330159505,54.067186746420596L843.2158663431803,58.6193256259329L859.1255996704102,57.708865666928325" fill="none"></path></g></g></g></g></g></g><g transform="translate(51, 377)" clip-path="url(#clip_1)"><clipPath id="clip_1"><rect width="954" height="22"></rect></clipPath><g><g><line x1="0" y1="0" x2="0" y2="5" style="visibility: inherit;" fill="rgb(0, 0, 0)" stroke="rgb(204, 204, 204)" stroke-width="1px"></line><line x1="79.54866663614908" y1="0" x2="79.54866663614908" y2="5" style="visibility: inherit;" fill="rgb(0, 0, 0)" stroke="rgb(204, 204, 204)" stroke-width="1px"></line><line x1="159.09733327229816" y1="0" x2="159.09733327229816" y2="5" style="visibility: inherit;" fill="rgb(0, 0, 0)" stroke="rgb(204, 204, 204)" stroke-width="1px"></line><line x1="238.64599990844727" y1="0" x2="238.64599990844727" y2="5" style="visibility: inherit;" fill="rgb(0, 0, 0)" stroke="rgb(204, 204, 204)" stroke-width="1px"></line><line x1="318.1946665445963" y1="0" x2="318.1946665445963" y2="5" style="visibility: inherit;" fill="rgb(0, 0, 0)" stroke="rgb(204, 204, 204)" stroke-width="1px"></line><line x1="397.7433331807455" y1="0" x2="397.7433331807455" y2="5" style="visibility: inherit;" fill="rgb(0, 0, 0)" stroke="rgb(204, 204, 204)" stroke-width="1px"></line><line x1="477.29199981689453" y1="0" x2="477.29199981689453" y2="5" style="visibility: inherit;" fill="rgb(0, 0, 0)" stroke="rgb(204, 204, 204)" stroke-width="1px"></line><line x1="556.8406664530437" y1="0" x2="556.8406664530437" y2="5" style="visibility: inherit;" fill="rgb(0, 0, 0)" stroke="rgb(204, 204, 204)" stroke-width="1px"></line><line x1="636.3893330891926" y1="0" x2="636.3893330891926" y2="5" style="visibility: inherit;" fill="rgb(0, 0, 0)" stroke="rgb(204, 204, 204)" stroke-width="1px"></line><line x1="715.9379997253418" y1="0" x2="715.9379997253418" y2="5" style="visibility: inherit;" fill="rgb(0, 0, 0)" stroke="rgb(204, 204, 204)" stroke-width="1px"></line><line x1="795.486666361491" y1="0" x2="795.486666361491" y2="5" style="visibility: inherit;" fill="rgb(0, 0, 0)" stroke="rgb(204, 204, 204)" stroke-width="1px"></line><line x1="875.0353329976399" y1="0" x2="875.0353329976399" y2="5" style="visibility: inherit;" fill="rgb(0, 0, 0)" stroke="rgb(204, 204, 204)" stroke-width="1px"></line><line x1="954.5839996337891" y1="0" x2="954.5839996337891" y2="5" style="visibility: inherit;" fill="rgb(0, 0, 0)" stroke="rgb(204, 204, 204)" stroke-width="1px"></line></g><g transform="translate(0, 8)"><text style="text-anchor: middle; visibility: hidden; font-family: Roboto, sans-serif; font-size: 12px; font-weight: 200;" x="0" y="0" dx="0em" dy="0.95em" fill="rgb(50, 49, 63)" stroke="none" stroke-width="1px">-5</text><text style="text-anchor: middle; visibility: inherit; font-family: Roboto, sans-serif; font-size: 12px; font-weight: 200;" x="79.54866663614908" y="0" dx="0em" dy="0.95em" fill="rgb(50, 49, 63)" stroke="none" stroke-width="1px">0</text><text style="text-anchor: middle; visibility: inherit; font-family: Roboto, sans-serif; font-size: 12px; font-weight: 200;" x="159.09733327229816" y="0" dx="0em" dy="0.95em" fill="rgb(50, 49, 63)" stroke="none" stroke-width="1px">5</text><text style="text-anchor: middle; visibility: inherit; font-family: Roboto, sans-serif; font-size: 12px; font-weight: 200;" x="238.64599990844727" y="0" dx="0em" dy="0.95em" fill="rgb(50, 49, 63)" stroke="none" stroke-width="1px">10</text><text style="text-anchor: middle; visibility: inherit; font-family: Roboto, sans-serif; font-size: 12px; font-weight: 200;" x="318.1946665445963" y="0" dx="0em" dy="0.95em" fill="rgb(50, 49, 63)" stroke="none" stroke-width="1px">15</text><text style="text-anchor: middle; visibility: inherit; font-family: Roboto, sans-serif; font-size: 12px; font-weight: 200;" x="397.7433331807455" y="0" dx="0em" dy="0.95em" fill="rgb(50, 49, 63)" stroke="none" stroke-width="1px">20</text><text style="text-anchor: middle; visibility: inherit; font-family: Roboto, sans-serif; font-size: 12px; font-weight: 200;" x="477.29199981689453" y="0" dx="0em" dy="0.95em" fill="rgb(50, 49, 63)" stroke="none" stroke-width="1px">25</text><text style="text-anchor: middle; visibility: inherit; font-family: Roboto, sans-serif; font-size: 12px; font-weight: 200;" x="556.8406664530437" y="0" dx="0em" dy="0.95em" fill="rgb(50, 49, 63)" stroke="none" stroke-width="1px">30</text><text style="text-anchor: middle; visibility: inherit; font-family: Roboto, sans-serif; font-size: 12px; font-weight: 200;" x="636.3893330891926" y="0" dx="0em" dy="0.95em" fill="rgb(50, 49, 63)" stroke="none" stroke-width="1px">35</text><text style="text-anchor: middle; visibility: inherit; font-family: Roboto, sans-serif; font-size: 12px; font-weight: 200;" x="715.9379997253418" y="0" dx="0em" dy="0.95em" fill="rgb(50, 49, 63)" stroke="none" stroke-width="1px">40</text><text style="text-anchor: middle; visibility: inherit; font-family: Roboto, sans-serif; font-size: 12px; font-weight: 200;" x="795.486666361491" y="0" dx="0em" dy="0.95em" fill="rgb(50, 49, 63)" stroke="none" stroke-width="1px">45</text><text style="text-anchor: middle; visibility: inherit; font-family: Roboto, sans-serif; font-size: 12px; font-weight: 200;" x="875.0353329976399" y="0" dx="0em" dy="0.95em" fill="rgb(50, 49, 63)" stroke="none" stroke-width="1px">50</text><text style="text-anchor: middle; visibility: hidden; font-family: Roboto, sans-serif; font-size: 12px; font-weight: 200;" x="954.5839996337891" y="0" dx="0em" dy="0.95em" fill="rgb(50, 49, 63)" stroke="none" stroke-width="1px">55</text></g><line x1="0" y1="0" x2="954.5839996337891" y2="0" fill="rgb(0, 0, 0)" stroke="rgb(204, 204, 204)" stroke-width="1px"></line></g></g></g></g></svg>