<svg viewBox="0 0 1006 400" xmlns="http://www.w3.org/2000/svg"><g><g><g><g><g><line x1="51.41600036621094" y1="377.95999908447266" x2="46.41600036621094" y2="377.95999908447266" style="visibility: inherit;" fill="rgb(0, 0, 0)" stroke="rgb(204, 204, 204)" stroke-width="1px"></line><line x1="51.41600036621094" y1="340.1639991760254" x2="46.41600036621094" y2="340.1639991760254" style="visibility: inherit;" fill="rgb(0, 0, 0)" stroke="rgb(204, 204, 204)" stroke-width="1px"></line><line x1="51.41600036621094" y1="302.3679992675781" x2="46.41600036621094" y2="302.3679992675781" style="visibility: inherit;" fill="rgb(0, 0, 0)" stroke="rgb(204, 204, 204)" stroke-width="1px"></line><line x1="51.41600036621094" y1="264.57199935913087" x2="46.41600036621094" y2="264.57199935913087" style="visibility: inherit;" fill="rgb(0, 0, 0)" stroke="rgb(204, 204, 204)" stroke-width="1px"></line><line x1="51.41600036621094" y1="226.7759994506836" x2="46.41600036621094" y2="226.7759994506836" style="visibility: inherit;" fill="rgb(0, 0, 0)" stroke="rgb(204, 204, 204)" stroke-width="1px"></line><line x1="51.41600036621094" y1="188.97999954223633" x2="46.41600036621094" y2="188.97999954223633" style="visibility: inherit;" fill="rgb(0, 0, 0)" stroke="rgb(204, 204, 204)" stroke-width="1px"></line><line x1="51.41600036621094" y1="151.18399963378906" x2="46.41600036621094" y2="151.18399963378906" style="visibility: inherit;" fill="rgb(0, 0, 0)" stroke="rgb(204, 204, 204)" stroke-width="1px"></line><line x1="51.41600036621094" y1="113.38799972534181" x2="46.41600036621094" y2="113.38799972534181" style="visibility: inherit;" fill="rgb(0, 0, 0)" stroke="rgb(204, 204, 204)" stroke-width="1px"></line><line x1="51.41600036621094" y1="75.59199981689451" x2="46.41600036621094" y2="75.59199981689451" style="visibility: inherit;" fill="rgb(0, 0, 0)" stroke="rgb(204, 204, 204)" stroke-width="1px"></line><line x1="51.41600036621094" y1="37.79599990844726" x2="46.41600036621094" y2="37.79599990844726" style="visibility: inherit;" fill="rgb(0, 0, 0)" stroke="rgb(204, 204, 204)" stroke-width="1px"></line><line x1="51.41600036621094" y1="0" x2="46.41600036621094" y2="0" style="visibility: inherit;" fill="rgb(0, 0, 0)" stroke="rgb(204, 204, 204)" stroke-width="1px"></line></g><g transform="translate(41.41600036621094, 0)"><text style="text-anchor: end; visibility: hidden; font-family: Roboto, sans-serif; font-size: 12px; font-weight: 200;" x="0" y="377.95999908447266" dx="0em" dy="0.3em" fill="rgb(50, 49, 63)" stroke="none" stroke-width="1px">-100</text><text style="text-anchor: end; visibility: inherit; font-family: Roboto, sans-serif; font-size: 12px; font-weight: 200;" x="0" y="340.1639991760254" dx="0em" dy="0.3em" fill="rgb(50, 49, 63)" stroke="none" stroke-width="1px">0</text><text style="text-anchor: end; visibility: inherit; font-family: Roboto, sans-serif; font-size: 12px; font-weight: 200;" x="0" y="302.3679992675781" dx="0em" dy="0.3em" fill="rgb(50, 49, 63)" stroke="none" stroke-width="1px">100</text><text style="text-anchor: end; visibility: inherit; font-family: Roboto, sans-serif; font-size: 12px; font-weight: 200;" x="0" y="264.57199935913087" dx="0em" dy="0.3em" fill="rgb(50, 49, 63)" stroke="none" stroke-width="1px">200</text><text style="text-anchor: end; visibility: inherit; font-family: Roboto, sans-serif; font-size: 12px; font-weight: 200;" x="0" y="226.7759994506836" dx="0em" dy="0.3em" fill="rgb(50, 49, 63)" stroke="none" stroke-width="1px">300</text><text style="text-anchor: end; visibility: inherit; font-family: Roboto, sans-serif; font-size: 12px; font-weight: 200;" x="0" y="188.97999954223633" dx="0em" dy="0.3em" fill="rgb(50, 49, 63)" stroke="none" stroke-width="1px">400</text><text style="text-anchor: end; visibility: inherit; font-family: Roboto, sans-serif; font-size: 12px; font-weight: 200;" x="0" y="151.18399963378906" dx="0em" dy="0.3em" fill="rgb(50, 49, 63)" stroke="none" stroke-width="1px">500</text><text style="text-anchor: end; visibility: inherit; font-family: Roboto, sans-serif; font-size: 12px; font-weight: 200;" x="0" y="113.38799972534181" dx="0em" dy="0.3em" fill="rgb(50, 49, 63)" stroke="none" stroke-width="1px">600</text><text style="text-anchor: end; visibility: inherit; font-family: Roboto, sans-serif; font-size: 12px; font-weight: 200;" x="0" y="75.59199981689451" dx="0em" dy="0.3em" fill="rgb(50, 49, 63)" stroke="none" stroke-width="1px">700</text><text style="text-anchor: end; visibility: inherit; font-family: Roboto, sans-serif; font-size: 12px; font-weight: 200;" x="0" y="37.79599990844726" dx="0em" dy="0.3em" fill="rgb(50, 49, 63)" stroke="none" stroke-width="1px">800</text><text style="text-anchor: end; visibility: hidden; font-family: Roboto, sans-serif; font-size: 12px; font-weight: 200;" x="0" y="0" dx="0em" dy="0.3em" fill="rgb(50, 49, 63)" stroke="none" stroke-width="1px">900</text></g><line x1="51.41600036621094" y1="0" x2="51.41600036621094" y2="377.95999908447266" fill="rgb(0, 0, 0)" stroke="rgb(204, 204, 204)" stroke-width="1px"></line></g></g><g transform="translate(51, 0)" clip-path="url(#clip_0)"><clipPath id="clip_0"><rect width="954" height="377"></rect></clipPath><g><g><g><line x1="0" y1="0" x2="0" y2="377.95999908447266" fill="rgb(0, 0, 0)" stroke="rgb(60, 60, 60)" stroke-width="1px" opacity="0.25"></line><line x1="79.54866663614908" y1="0" x2="79.54866663614908" y2="377.95999908447266" fill="rgb(0, 0, 0)" stroke="rgb(60, 60, 60)" stroke-width="1px" opacity="0.25"></line><line x1="159.09733327229816" y1="0" x2="159.09733327229816" y2="377.95999908447266" fill="rgb(0, 0, 0)" stroke="rgb(60, 60, 60)" stroke-width="1px" opacity="0.25"></line><line x1="238.64599990844727" y1="0" x2="238.64599990844727" y2="377.95999908447266" fill="rgb(0, 0, 0)" stroke="rgb(60, 60, 60)" stroke-width="1px" opacity="0.25"></line><line x1="318.1946665445963" y1="0" x2="318.1946665445963" y2="377.95999908447266" fill="rgb(0, 0, 0)" stroke="rgb(60, 60, 60)" stroke-width="1px" opacity="0.25"></line><line x1="397.7433331807455" y1="0" x2="397.7433331807455" y2="377.95999908447266" fill="rgb(0, 0, 0)" stroke="rgb(60, 60, 60)" stroke-width="1px" opacity="0.25"></line><line x1="477.29199981689453" y1="0" x2="477.29199981689453" y2="377.95999908447266" fill="rgb(0, 0, 0)" stroke="rgb(60, 60, 60)" stroke-width="1px" opacity="0.25"></line><line x1="556.8406664530437" y1="0" x2="556.8406664530437" y2="377.95999908447266" fill="rgb(0, 0, 0)" stroke="rgb(60, 60, 60)" stroke-width="1px" opacity="0.25"></line><line x1="636.3893330891926" y1="0" x2="636.3893330891926" y2="377.95999908447266" fill="rgb(0, 0, 0)" stroke="rgb(60, 60, 60)" stroke-width="1px" opacity="0.25"></line><line x1="715.9379997253418" y1="0" x2="715.9379997253418" y2="377.95999908447266" fill="rgb(0, 0, 0)" stroke="rgb(60, 60, 60)" stroke-width="1px" opacity="0.25"></line><line x1="795.486666361491" y1="0" x2="795.486666361491" y2="377.95999908447266" fill="rgb(0, 0, 0)" stroke="rgb(60, 60, 60)" stroke-width="1px" opacity="0.25"></line><line x1="875.0353329976399" y1="0" x2="875.0353329976399" y2="377.95999908447266" fill="rgb(0, 0, 0)" stroke="rgb(60, 60, 60)" stroke-width="1px" opacity="0.25"></line><line x1="954.5839996337891" y1="0" x2="954.5839996337891" y2="377.95999908447266" fill="rgb(0, 0, 0)" stroke="rgb(60, 60, 60)" stroke-width="1px" opacity="0.25"></line></g><g><line x1="0" y1="377.95999908447266" x2="954.5839996337891" y2="377.95999908447266" fill="rgb(0, 0, 0)" stroke="rgb(60, 60, 60)" stroke-width="1px" opacity="0.25"></line><line x1="0" y1="340.1639991760254" x2="954.5839996337891" y2="340.1639991760254" fill="rgb(0, 0, 0)" stroke="rgb(60, 60, 60)" stroke-width="1px" opacity="0.25"></line><line x1="0" y1="302.3679992675781" x2="954.5839996337891" y2="302.3679992675781" fill="rgb(0, 0, 0)" stroke="rgb(60, 60, 60)" stroke-width="1px" opacity="0.25"></line><line x1="0" y1="264.57199935913087" x2="954.5839996337891" y2="264.57199935913087" fill="rgb(0, 0, 0)" stroke="rgb(60, 60, 60)" stroke-width="1px" opacity="0.25"></line><line x1="0" y1="226.7759994506836" x2="954.5839996337891" y2="226.7759994506836" fill="rgb(0, 0, 0)" stroke="rgb(60, 60, 60)" stroke-width="1px" opacity="0.25"></line><line x1="0" y1="188.97999954223633" x2="954.5839996337891" y2="188.97999954223633" fill="rgb(0, 0, 0)" stroke="rgb(60, 60, 60)" stroke-width="1px" opacity="0.25"></line><line x1="0" y1="151.18399963378906" x2="954.5839996337891" y2="151.18399963378906" fill="rgb(0, 0, 0)" stroke="rgb(60, 60, 60)" stroke-width="1px" opacity="0.25"></line><line x1="0" y1="113.38799972534181" x2="954.5839996337891" y2="113.38799972534181" fill="rgb(0, 0, 0)" stroke="rgb(60, 60, 60)" stroke-width="1px" opacity="0.25"></line><line x1="0" y1="75.59199981689451" x2="954.5839996337891" y2="75.59199981689451" fill="rgb(0, 0, 0)" stroke="rgb(60, 60, 60)" stroke-width="1px" opacity="0.25"></line><line x1="0" y1="37.79599990844726" x2="954.5839996337891" y2="37.79599990844726" fill="rgb(0, 0, 0)" stroke="rgb(60, 60, 60)" stroke-width="1px" opacity="0.25"></line><line x1="0" y1="0" x2="954.5839996337891" y2="0" fill="rgb(0, 0, 0)" stroke="rgb(60, 60, 60)" stroke-width="1px" opacity="0.25"></line></g></g></g><g><g><line x1="0" y1="340.1639991760254" x2="954.5839996337891" y2="340.1639991760254" fill="rgb(0, 0, 0)" stroke="rgb(153, 153, 153)" stroke-width="1.5px"></line></g></g><g><g><line x1="79.54866663614908" y1="0" x2="79.54866663614908" y2="377.95999908447266" fill="rgb(0, 0, 0)" stroke="rgb(153, 153, 153)" stroke-width="1.5px"></line></g></g><g><g><g><g><g><path style="fill: none;" stroke="rgb(0, 153, 136)" stroke-width="2px" d="M79.54866663614908,225.25577392824297L95.45839996337891,229.8627309292601L111.36813329060872,225.160762054644L127.27786661783854,228.060170827349L143.18759994506834,222.47631698130078L159.09733327229816,209.74065813627118L175.00706659952797,196.597705800584L190.91679992675782,179.1759449469156L206.82653325398763,175.14311080150569L222.73626658121745,174.7567141522653L238.64599990844727,166.16307365417813L254.55573323567708,159.07423186860825L270.4654665629069,155.7034085343539L286.3751998901367,146.78244327160098L302.28493321736653,144.52105627182476L318.1946665445963,136.54755682136562L334.10439987182616,123.86845955747633L350.01413319905595,115.44391976846873L365.92386652628585,111.67400914846293L381.83359985351564,100.89155782801964L397.7433331807455,97.81939394989537L413.65306650797527,95.89234237072323L429.5627998352051,90.59520912745542L445.4725331624349,79.60863078541988L461.38226648966474,73.62366020371843L477.29199981689453,73.61600663746833L493.2017331441244,75.22632776633834L509.11146647135416,71.13121111720345L525.021199798584,71.00179954524387L540.9309331258138,64.96608622535187L556.8406664530437,61.66378433988817L572.7503997802734,48.16249369084451L588.6601331075033,37.20434779611208L604.5698664347331,39.425132604165L620.479599761963,35.103733313018246L636.3893330891926,33.92950796992192L652.2990664164225,28.59681748973563L668.2087997436523,23.453274476095267L684.1185330708822,3.754902384535142L700.0282663981119,0.3810982217609075L715.9379997253418,-8.02644513962797" fill="none"></path></g><g><path style="fill: none;" stroke="rgb(51, 187, 238)" stroke-width="2px" d="M79.54866663614908,331.2946083202818L95.45839996337891,331.2115086541261L111.36813329060872,330.8417277072344L127.27786661783854,329.6252247630299L143.18759994506834,328.72097393841483L159.09733327229816,327.8237043005054L175.00706659952797,327.08136807298405L190.91679992675782,325.342607104398L206.82653325398763,323.9814268760934L222.73626658121745,323.24018495466544L238.64599990844727,322.3196475427979L254.55573323567708,321.92092663752527L270.4654665629069,321.24423808175214L286.3751998901367,320.94133108986904L302.28493321736653,321.092175987507L318.1946665445963,320.06138802121063L334.10439987182616,318.91095140650435L350.01413319905595,318.9816154304854L365.92386652628585,318.6128090920847L381.83359985351564,318.2580763191667L397.7433331807455,318.0181736463372L413.65306650797527,317.63262123204464L429.5627998352051,317.52990921633307L445.4725331624349,317.09004102492906L461.38226648966474,316.8244178047802L477.29199981689453,315.8062519807871L493.2017331441244,314.8816746216541L509.11146647135416,314.7895067813956L525.021199798584,314.45541783405014L540.9309331258138,312.86785173319606L556.8406664530437,312.47574234147584L572.7503997802734,311.9729818960917L588.6601331075033,312.2299954979091L604.5698664347331,312.18635021370443L620.479599761963,311.25565081565793L636.3893330891926,310.1644134688753L652.2990664164225,309.43004317281185L668.2087997436523,309.26368537477924L684.1185330708822,308.35625340891437L700.0282663981119,307.6068367470251L715.9379997253418,307.2433915737572L731.8477330525717,306.35857479500777L747.7574663798014,306.8871526973278L763.6671997070313,306.6792236310872L779.5769330342611,305.3028566371387L795.486666361491,304.0960302004272L811.3963996887206,303.40209570324475L827.3061330159505,303.0571480830276L843.2158663431803,302.7644822023929L859.1255996704102,302.20143907167846" fill="none"></path></g><g><path style="fill: none;" stroke="rgb(0, 119, 187)" stroke-width="2px" d="M79.54866663614908,339.2488713283962L95.45839996337891,339.1177409811103L111.36813329060872,339.0813468522573L127.27786661783854,339.0127235740929L143.18759994506834,338.98304973528303L159.09733327229816,338.9297129664521L175.00706659952797,338.8654020608776L190.91679992675782,338.7033998645426L206.82653325398763,338.6811370805695L222.73626658121745,338.62364908899855L238.64599990844727,338.5262915422604L254.55573323567708,338.46974162761825L270.4654665629069,338.4492720406724L286.3751998901367,338.3733114839933L302.28493321736653,338.31242396616756L318.1946665445963,338.23851998798574L334.10439987182616,338.1512482272142L350.01413319905595,338.1388059113087L365.92386652628585,338.0748917368027L381.83359985351564,337.98063777034076L397.7433331807455,337.9539939130904L413.65306650797527,337.9522510830647L429.5627998352051,337.9144943550032L445.4725331624349,337.8400481775702L461.38226648966474,337.73828838080453L477.29199981689453,337.6083838831551L493.2017331441244,337.5741800503821L509.11146647135416,337.53575950836046L525.021199798584,337.414707525566L540.9309331258138,337.3510241956759L556.8406664530437,337.27160235385907L572.7503997802734,337.1349608804499L588.6601331075033,337.12965137759807L604.5698664347331,337.1272409335311L620.479599761963,337.05250219762314L636.3893330891926,336.9853934816883L652.2990664164225,336.83802276446556L668.2087997436523,336.774613597901L684.1185330708822,336.72981123263577L700.0282663981119,336.7009215261739L715.9379997253418,336.5667977683829L731.8477330525717,336.5866982324392L747.7574663798014,336.55392661461514L763.6671997070313,336.4682036919269L779.5769330342611,336.36923643365765L795.486666361491,336.2678557813164L811.3963996887206,336.1839895410785L827.3061330159505,336.11886161530214L843.2158663431803,336.0594617818223L859.1255996704102,336.0251855389886" fill="none"></path></g><g><path style="fill: none;" stroke="rgb(255, 112, 67)" stroke-width="2px" d="M79.54866663614908,340.04729553183574L95.45839996337891,340.0516919678615L111.36813329060872,340.0468523038545L127.27786661783854,340.0418152064676L143.18759994506834,340.02855612716485L159.09733327229816,340.01173969005913L175.00706659952797,340.00208476821126L190.91679992675782,339.9864811288867L206.82653325398763,339.9729487816463L222.73626658121745,339.95844482253875L238.64599990844727,339.94558754811504L254.55573323567708,339.93361099131454L270.4654665629069,339.92752250931864L286.3751998901367,339.9123998084458L302.28493321736653,339.9048843531315L318.1946665445963,339.89533304194805L334.10439987182616,339.8855242125739L350.01413319905595,339.8807449705305L365.92386652628585,339.8781255068832L381.83359985351564,339.87419690232133L397.7433331807455,339.86680492705153L413.65306650797527,339.8564522749572L429.5627998352051,339.84283818058117L445.4725331624349,339.8324845137315L461.38226648966474,339.81897331385403L477.29199981689453,339.80706482088567L493.2017331441244,339.7979713917061L509.11146647135416,339.78310510087647L525.021199798584,339.771177784175L540.9309331258138,339.76759126587706L556.8406664530437,339.7568361519576L572.7503997802734,339.75374690124016L588.6601331075033,339.73777460279507L604.5698664347331,339.7263727141168L620.479599761963,339.71608332901945L636.3893330891926,339.70774131649017L652.2990664164225,339.69862848441653L668.2087997436523,339.69106908953466L684.1185330708822,339.6844226530634L700.0282663981119,339.67424394152255L715.9379997253418,339.6705070386996L731.8477330525717,339.66072825042556L747.7574663798014,339.64970714459315L763.6671997070313,339.6414285318254L779.5769330342611,339.63667235400857L795.486666361491,339.63396830646764L811.3963996887206,339.6218483447746L827.3061330159505,339.6116610421435L843.2158663431803,339.60128496080716L859.1255996704102,339.58971557566167" fill="none"></path></g><g><path style="fill: none;" stroke="rgb(238, 51, 119)" stroke-width="2px" d="M79.54866663614908,222.20538021004592L95.45839996337891,271.00890783497863L111.36813329060872,293.34278790927294L127.27786661783854,302.52575321776044L143.18759994506834,308.6276950618883L159.09733327229816,313.7687320619031L175.00706659952797,315.078959739755L190.91679992675782,316.2717621738941L206.82653325398763,317.51829847799786L222.73626658121745,318.46838063684334L238.64599990844727,317.6965204661212L254.55573323567708,318.017497784984L270.4654665629069,317.46447947629997L286.3751998901367,320.40962321616576L302.28493321736653,319.47831573556584L318.1946665445963,319.7320139658479L334.10439987182616,320.85538560068545L350.01413319905595,320.7254260274865L365.92386652628585,320.0769867330529L381.83359985351564,321.4514584957201L397.7433331807455,320.65202573882965L413.65306650797527,321.60865459062666L429.5627998352051,322.48036369937626L445.4725331624349,322.78022605063325L461.38226648966474,322.33464857957216L477.29199981689453,319.42389970771785L493.2017331441244,320.6651815070568L509.11146647135416,320.77392337629885L525.021199798584,320.49142102087296L540.9309331258138,319.939394265644L556.8406664530437,321.5958314107148L572.7503997802734,319.31199703218346L588.6601331075033,319.8983657020679L604.5698664347331,319.75152547157086L620.479599761963,322.08934831197786L636.3893330891926,320.41713412968573L652.2990664164225,323.1886886429422L668.2087997436523,322.4424221947799L684.1185330708822,323.2831814640632L700.0282663981119,321.62488872819813L715.9379997253418,320.6507038870143L731.8477330525717,322.06326542741397L747.7574663798014,322.28312323012136L763.6671997070313,319.45643802120344L779.5769330342611,316.84957536397604L795.486666361491,317.25215603867025L811.3963996887206,318.66282325891984L827.3061330159505,317.4473155744386L843.2158663431803,318.18190178366643L859.1255996704102,317.63783690775347" fill="none"></path></g><g><path style="fill: none;" stroke="rgb(204, 51, 17)" stroke-width="2px" d="M79.54866663614908,328.34168697130974L95.45839996337891,333.22295397205824L111.36813329060872,335.50410891664774L127.27786661783854,336.53714185758224L143.18759994506834,336.9769530284033L159.09733327229816,337.3662828741741L175.00706659952797,337.46052907095446L190.91679992675782,337.800302557144L206.82653325398763,337.9853123227996L222.73626658121745,337.9319984340739L238.64599990844727,337.9387134041553L254.55573323567708,337.9706859325709L270.4654665629069,338.0236482337364L286.3751998901367,338.115530867148L302.28493321736653,337.9513750145835L318.1946665445963,338.2326137827978L334.10439987182616,338.1993381923616L350.01413319905595,338.0763496619016L365.92386652628585,338.12986331269474L381.83359985351564,338.30208426618816L397.7433331807455,338.3344519810746L413.65306650797527,338.23740228288153L429.5627998352051,338.1675939982706L445.4725331624349,338.1736913688987L461.38226648966474,338.2270552786713L477.29199981689453,338.2163485790873L493.2017331441244,338.22616419127564L509.11146647135416,338.2170491319248L525.021199798584,338.1525807795186L540.9309331258138,338.02564491305094L556.8406664530437,337.8788839331103L572.7503997802734,338.00915974366916L588.6601331075033,338.20799685703554L604.5698664347331,338.15912671052257L620.479599761963,338.1036989779456L636.3893330891926,338.1902810385711L652.2990664164225,338.20743697312685L668.2087997436523,337.9576070002763L684.1185330708822,338.06590067847884L700.0282663981119,338.1044701916329L715.9379997253418,337.96238372948727L731.8477330525717,337.9366631041485L747.7574663798014,337.93678958531194L763.6671997070313,337.9518987210922L779.5769330342611,337.95790721980063L795.486666361491,338.00763437066655L811.3963996887206,337.881102731038L827.3061330159505,338.04333694190564L843.2158663431803,337.9189506629888L859.1255996704102,337.80209973256416" fill="none"></path></g><g><path style="fill: none;" stroke="rgb(255, 112, 67)" stroke-width="2px" d="M79.54866663614908,338.99044319394187L95.45839996337891,339.52915029106737L111.36813329060872,339.70877346538174L127.27786661783854,339.81057292361305L143.18759994506834,339.85150735957114L159.09733327229816,339.9014012210244L175.00706659952797,339.9118705274569L190.91679992675782,339.93595417568054L206.82653325398763,339.9480533641901L222.73626658121745,339.95147261059515L238.64599990844727,339.94717075198025L254.55573323567708,339.95472585390036L270.4654665629069,339.96399393807724L286.3751998901367,339.96067666806687L302.28493321736653,339.96447442982884L318.1946665445963,339.96743088205614L334.10439987182616,339.9727751922045L350.01413319905595,339.9700304227297L365.92386652628585,339.9671678920475L381.83359985351564,339.9758145980586L397.7433331807455,339.9811350365765L413.65306650797527,339.9760997158302L429.5627998352051,339.95934287797854L445.4725331624349,339.9571862199864L461.38226648966474,339.9618155987227L477.29199981689453,339.93841610445634L493.2017331441244,339.9411149450661L509.11146647135416,339.96671132421073L525.021199798584,339.9751601093484L540.9309331258138,339.97412043535473L556.8406664530437,339.964721925171L572.7503997802734,339.94287180769476L588.6601331075033,339.9343953418655L604.5698664347331,339.9425566315946L620.479599761963,339.955766129489L636.3893330891926,339.9354916574686L652.2990664164225,339.91948146055034L668.2087997436523,339.93270501305693L684.1185330708822,339.9405433637553L700.0282663981119,339.9506576589836L715.9379997253418,339.96224671047105L731.8477330525717,339.95175020720166L747.7574663798014,339.94736542460004L763.6671997070313,339.93929445218885L779.5769330342611,339.9321289799697L795.486666361491,339.92899632250476L811.3963996887206,339.92141479375533L827.3061330159505,339.922065693879L843.2158663431803,339.9244435430839L859.1255996704102,339.9221925196006" fill="none"></path></g><g><path style="fill: none;" stroke="rgb(187, 187, 187)" stroke-width="2px" d="M79.54866663614908,339.9289573336358L95.45839996337891,340.0589722231508L111.36813329060872,340.10341844957406L127.27786661783854,340.1231484822731L143.18759994506834,340.1328138394876L159.09733327229816,340.13731991386015L175.00706659952797,340.13719202988113L190.91679992675782,340.1387002454142L206.82653325398763,340.139884410917L222.73626658121745,340.13964348954215L238.64599990844727,340.14083959522105L254.55573323567708,340.14167187117226L270.4654665629069,340.14015339062183L286.3751998901367,340.14051993367264L302.28493321736653,340.14041220248595L318.1946665445963,340.13925926184186L334.10439987182616,340.1375554325527L350.01413319905595,340.13712096015064L365.92386652628585,340.1382537955691L381.83359985351564,340.1384317217783L397.7433331807455,340.1367719837668L413.65306650797527,340.13615697760054L429.5627998352051,340.1371223974221L445.4725331624349,340.137415241308L461.38226648966474,340.13678356295026L477.29199981689453,340.13694744076105L493.2017331441244,340.13510106593117L509.11146647135416,340.13634213109447L525.021199798584,340.1372742492169L540.9309331258138,340.13567186812213L556.8406664530437,340.13462400359214L572.7503997802734,340.1343572113309L588.6601331075033,340.1346384933012L604.5698664347331,340.13345288904173L620.479599761963,340.1326872662794L636.3893330891926,340.1329922340725L652.2990664164225,340.1333230006786L668.2087997436523,340.1362059507941L684.1185330708822,340.1316104562849L700.0282663981119,340.13079965781003L715.9379997253418,340.1300027371433L731.8477330525717,340.13288700895765L747.7574663798014,340.1304878901259L763.6671997070313,340.13028642295194L779.5769330342611,340.1301907775789L795.486666361491,340.1313212186097L811.3963996887206,340.12940836390766L827.3061330159505,340.13064871611243L843.2158663431803,340.12828654265024L859.1255996704102,340.1314710850583" fill="none"></path></g></g></g></g><g opacity="0.2"><g><g><g><path style="fill: none;" stroke="rgb(0, 153, 136)" stroke-width="2px" d="M79.54866663614908,225.25577392824297L95.45839996337891,232.6269051298704L111.36813329060872,220.64687193501254L127.27786661783854,231.46987554405004L143.18759994506834,215.18603739990039L159.09733327229816,192.12265711641106L175.00706659952797,177.80307367331395L190.91679992675782,153.77485037336288L206.82653325398763,169.19546377473046L222.73626658121745,174.18296016035438L238.64599990844727,153.35055659387308L254.55573323567708,148.4795463542072L270.4654665629069,150.65817985601004L286.3751998901367,133.41847247711522L302.28493321736653,141.13163394768955L318.1946665445963,124.59293117525101L334.10439987182616,104.85517903067871L350.01413319905595,102.80924907469704L365.92386652628585,106.01971752639302L381.83359985351564,84.71886640611477L397.7433331807455,93.21131661747722L413.65306650797527,93.00182841241825L429.5627998352051,82.6496138452091L445.4725331624349,63.12889341886108L461.38226648966474,64.64624686977545L477.29199981689453,73.60452632073222L493.2017331441244,77.64180533927309L509.11146647135416,64.98854243046979L525.021199798584,70.80768230651084L540.9309331258138,55.91251958136075L556.8406664530437,56.710332606771985L572.7503997802734,27.91056040358402L588.6601331075033,20.76713026219607L604.5698664347331,42.75630965717417L620.479599761963,28.62163456201786L636.3893330891926,32.16816998555602L652.2990664164225,20.597781851961738L668.2087997436523,15.737960003382073L684.1185330708822,-25.792655643089216" fill="none"></path></g><g><path style="fill: none;" stroke="rgb(51, 187, 238)" stroke-width="2px" d="M79.54866663614908,331.2946083202818L95.45839996337891,331.1616488544326L111.36813329060872,330.4867379982183L127.27786661783854,328.1946173006455L143.18759994506834,327.5403840617975L159.09733327229816,326.58245737420697L175.00706659952797,326.0198153902488L190.91679992675782,322.80747692009425L206.82653325398763,321.9739504349917L222.73626658121745,322.1395270886433L238.64599990844727,320.9471906315706L254.55573323567708,321.3250151011754L270.4654665629069,320.2314147536352L286.3751998901367,320.48756402837483L302.28493321736653,321.31826602144935L318.1946665445963,318.51593306330204L334.10439987182616,317.1857833106647L350.01413319905595,319.087593524869L365.92386652628585,318.0596557684173L381.83359985351564,317.7260095837702L397.7433331807455,317.6583327939256L413.65306650797527,317.0543052973723L429.5627998352051,317.37584322063526L445.4725331624349,316.4302439484811L461.38226648966474,316.42598486249295L477.29199981689453,314.27900758680977L493.2017331441244,313.49481094869464L509.11146647135416,314.65125516250714L525.021199798584,313.95428472077504L540.9309331258138,310.48650345933856L556.8406664530437,311.8875783839233L572.7503997802734,311.21884132804803L588.6601331075033,312.61551586995296L604.5698664347331,312.12088229052364L620.479599761963,309.85960175858656L636.3893330891926,308.52755747684L652.2990664164225,308.32848774007863L668.2087997436523,309.0141486792747L684.1185330708822,306.9951054651712L700.0282663981119,306.48271175669555L715.9379997253418,306.6982238145842L731.8477330525717,305.031349627948L747.7574663798014,307.6800195504262L763.6671997070313,306.3673300318164L779.5769330342611,303.2383061465735L795.486666361491,302.28579054554825L811.3963996887206,302.36119395753605L827.3061330159505,302.5397266527212L843.2158663431803,302.3254833814506L859.1255996704102,301.3568743756182" fill="none"></path></g><g><path style="fill: none;" stroke="rgb(0, 119, 187)" stroke-width="2px" d="M79.54866663614908,339.2488713283962L95.45839996337891,339.0390627727387L111.36813329060872,339.0464084885584L127.27786661783854,338.9320225989715L143.18759994506834,338.9443075713329L159.09733327229816,338.85592901392215L175.00706659952797,338.77343643693155L190.91679992675782,338.467199107065L206.82653325398763,338.6483037985323L222.73626658121745,338.5382861213963L238.64599990844727,338.3811382479366L254.55573323567708,338.38522449779316L270.4654665629069,338.41863449700656L286.3751998901367,338.25951946361283L302.28493321736653,338.2211642604205L318.1946665445963,338.12771614352425L334.10439987182616,338.0203775165412L350.01413319905595,338.12014559655313L365.92386652628585,337.979030211725L381.83359985351564,337.8392654358337L397.7433331807455,337.91402958842735L413.65306650797527,337.9496368953747L429.5627998352051,337.8578600083518L445.4725331624349,337.7283797933067L461.38226648966474,337.58564940892114L477.29199981689453,337.41352769066435L493.2017331441244,337.52287438874083L509.11146647135416,337.4781287543125L525.021199798584,337.23312966288023L540.9309331258138,337.2554992360377L556.8406664530437,337.1524696174709L572.7503997802734,336.92999869752333L588.6601331075033,337.12168712395413L604.5698664347331,337.1236252676033L620.479599761963,336.9403940969732L636.3893330891926,336.8847304095165L652.2990664164225,336.61696669091157L668.2087997436523,336.6794998486428L684.1185330708822,336.6626076849874L700.0282663981119,336.65758696657764L715.9379997253418,336.36561213196535L731.8477330525717,336.6165489284996L747.7574663798014,336.5047691879027L763.6671997070313,336.3396193079316L779.5769330342611,336.2207855462795L795.486666361491,336.1157848028205L811.3963996887206,336.0581901807294L827.3061330159505,336.02116972664123L843.2158663431803,335.9703620316044L859.1255996704102,335.97377117473883" fill="none"></path></g><g><path style="fill: none;" stroke="rgb(255, 112, 67)" stroke-width="2px" d="M79.54866663614908,340.04729553183574L95.45839996337891,340.05432982947684L111.36813329060872,340.04220622640787L127.27786661783854,340.03589157994065L143.18759994506834,340.0112450732272L159.09733327229816,339.9884765036245L175.00706659952797,339.9882780754901L190.91679992675782,339.96373087295643L206.82653325398763,339.9529911979899L222.73626658121745,339.9369081336134L238.64599990844727,339.92641825101225L254.55573323567708,339.91571133200705L270.4654665629069,339.91840966627484L286.3751998901367,339.88974538408195L302.28493321736653,339.8936200042956L318.1946665445963,339.8810128114975L334.10439987182616,339.8708151192805L350.01413319905595,339.8735773209144L365.92386652628585,339.8741967104612L381.83359985351564,339.8683043545685L397.7433331807455,339.85571736954023L413.65306650797527,339.84092363747413L429.5627998352051,339.82241730780373L445.4725331624349,339.816954136106L461.38226648966474,339.7987066100696L477.29199981689453,339.7892021322174L493.2017331441244,339.7843312712043L509.11146647135416,339.7608056874553L525.021199798584,339.75328682010957L540.9309331258138,339.76221149041226L556.8406664530437,339.74070348464505L572.7503997802734,339.74911302577857L588.6601331075033,339.71381615703433L604.5698664347331,339.70926988191604L620.479599761963,339.7006492518157L636.3893330891926,339.6952282979113L652.2990664164225,339.68495923644707L668.2087997436523,339.67972999728204L684.1185330708822,339.67445299839346L700.0282663981119,339.6589758742454L715.9379997253418,339.66490168447274L731.8477330525717,339.6460600680261L747.7574663798014,339.6331754858525L763.6671997070313,339.6290106126774L779.5769330342611,339.6295380872846L795.486666361491,339.6299122351566L811.3963996887206,339.60366840223617L827.3061330159505,339.59638008819746L843.2158663431803,339.58572083880307L859.1255996704102,339.57236149794363" fill="none"></path></g><g><path style="fill: none;" stroke="rgb(238, 51, 119)" stroke-width="2px" d="M79.54866663614908,222.20538021004592L95.45839996337891,300.29102440993825L111.36813329060872,314.7833127805955L127.27786661783854,313.32492042054173L143.18759994506834,316.5943903335816L159.09733327229816,320.88063700624355L175.00706659952797,316.9526062827261L190.91679992675782,318.0108795737723L206.82653325398763,319.3566973993392L222.73626658121745,319.8791419163537L238.64599990844727,316.54573092497753L254.55573323567708,318.4972170188833L270.4654665629069,316.63675771400267L286.3751998901367,324.8215689827814L302.28493321736653,318.0824492316495L318.1946665445963,320.11238238362324L334.10439987182616,322.5399676797144L350.01413319905595,320.5305196644097L365.92386652628585,319.1044265746024L381.83359985351564,323.5130405075575L397.7433331807455,319.4529204462863L413.65306650797527,323.0435663900424L429.5627998352051,323.7879101521249L445.4725331624349,323.23001602536345L461.38226648966474,321.66628553995446L477.29199981689453,315.05778881295066L493.2017331441244,322.52710102996525L509.11146647135416,320.9370360132175L525.021199798584,320.06766774795886L540.9309331258138,319.1113544378974L556.8406664530437,324.08048657902845L572.7503997802734,315.886245918793L588.6601331075033,320.77791863689396L604.5698664347331,319.53126513634317L620.479599761963,325.5960824721163L636.3893330891926,317.9088128993674L652.2990664164225,327.34602036994653L668.2087997436523,321.3230225294639L684.1185330708822,324.5443203633053L700.0282663981119,319.13744962994235L715.9379997253418,319.1894266271919L731.8477330525717,324.18210773631404L747.7574663798014,322.6129099340238L763.6671997070313,315.2164102090508L779.5769330342611,312.93928137881227L795.486666361491,317.85602705064883L811.3963996887206,320.77882408916224L827.3061330159505,315.6240540477851L843.2158663431803,319.28378109748337L859.1255996704102,316.82173959389513" fill="none"></path></g><g><path style="fill: none;" stroke="rgb(204, 51, 17)" stroke-width="2px" d="M79.54866663614908,328.34168697130974L95.45839996337891,336.1517141725073L111.36813329060872,337.69401766345374L127.27786661783854,337.7519885961212L143.18759994506834,337.55117049302714L159.09733327229816,337.9048662096196L175.00706659952797,337.5953026402896L190.91679992675782,338.2956955618338L206.82653325398763,338.25816579084466L222.73626658121745,337.8528335227301L238.64599990844727,337.94872495499294L254.55573323567708,338.0184707321067L270.4654665629069,338.1029187543822L286.3751998901367,338.25317480962127L302.28493321736653,337.7053341947793L318.1946665445963,338.6542735837504L334.10439987182616,338.14943888782204L350.01413319905595,337.89189809298614L365.92386652628585,338.2101256366184L381.83359985351564,338.5603999547511L397.7433331807455,338.3830017782818L413.65306650797527,338.0918309290535L429.5627998352051,338.0628829495971L445.4725331624349,338.18283735261156L461.38226648966474,338.30710076404233L477.29199981689453,338.2002885753705L493.2017331441244,338.2408875844427L509.11146647135416,338.2033765568923L525.021199798584,338.0558783102937L540.9309331258138,337.835241183505L556.8406664530437,337.65874251186676L572.7503997802734,338.2045734335869L588.6601331075033,338.5062525033479L604.5698664347331,338.08582149425365L620.479599761963,338.02055738146237L636.3893330891926,338.3201541272767L652.2990664164225,338.233170874695L668.2087997436523,337.58286204331966L684.1185330708822,338.22834119517944L700.0282663981119,338.1623244612352L715.9379997253418,337.7492540365537L731.8477330525717,337.8980821661714L747.7574663798014,337.9369793070569L763.6671997070313,337.97456242475613L779.5769330342611,337.9669199678616L795.486666361491,338.0822250969578L811.3963996887206,337.69130527160695L827.3061330159505,338.28668825819807L843.2158663431803,337.73237124461764L859.1255996704102,337.6268233369296" fill="none"></path></g><g><path style="fill: none;" stroke="rgb(255, 112, 67)" stroke-width="2px" d="M79.54866663614908,338.99044319394187L95.45839996337891,339.85237454934264L111.36813329060872,339.8812117127235L127.27786661783854,339.93028908649313L143.18759994506834,339.904951359158L159.09733327229816,339.9704223932044L175.00706659952797,339.9268418031644L190.91679992675782,339.9710683659935L206.82653325398763,339.9658973170954L222.73626658121745,339.95654979301395L238.64599990844727,339.9407569815989L254.55573323567708,339.96601739224946L270.4654665629069,339.9778658024397L286.3751998901367,339.95570726192864L302.28493321736653,339.9701666083454L318.1946665445963,339.9718634752779L334.10439987182616,339.98078939589413L350.01413319905595,339.96591396541413L365.92386652628585,339.962874532102L381.83359985351564,339.98878386673215L397.7433331807455,339.9891154025678L413.65306650797527,339.9685469004001L429.5627998352051,339.9342079520356L445.4725331624349,339.9539512585459L461.38226648966474,339.96875963392347L477.29199981689453,339.90331696284494L493.2017331441244,339.94516319907507L509.11146647135416,340.00510585363133L525.021199798584,339.98783327927225L540.9309331258138,339.97256092493893L556.8406664530437,339.950624163012L572.7503997802734,339.9100966358279L588.6601331075033,339.9216806441335L604.5698664347331,339.9547985656036L620.479599761963,339.975580375763L636.3893330891926,339.90507994996085L652.2990664164225,339.8954661654206L668.2087997436523,339.952540341694L684.1185330708822,339.9523008897593L700.0282663981119,339.96582910179217L715.9379997253418,339.97963028767896L731.8477330525717,339.9360054523102L747.7574663798014,339.9407882507009L763.6671997070313,339.92718799357556L779.5769330342611,339.92138077164293L795.486666361491,339.92429733630786L811.3963996887206,339.91004250063185L827.3061330159505,339.9230420440645L843.2158663431803,339.92801031689106L859.1255996704102,339.9188159843757" fill="none"></path></g><g><path style="fill: none;" stroke="rgb(187, 187, 187)" stroke-width="2px" d="M79.54866663614908,339.9289573336358L95.45839996337891,340.13698115685986L111.36813329060872,340.14608682694035L127.27786661783854,340.14635100072724L143.18759994506834,340.14543292986684L159.09733327229816,340.14355343690414L175.00706659952797,340.137009153745L190.91679992675782,340.1408992381404L206.82653325398763,340.1416308250212L222.73626658121745,340.1392857493785L238.64599990844727,340.1426229051489L254.55573323567708,340.1429157558901L270.4654665629069,340.13788062789865L286.3751998901367,340.14106903015283L302.28493321736653,340.14025073233995L318.1946665445963,340.13753066401875L334.10439987182616,340.1350004096224L350.01413319905595,340.1364693618601L365.92386652628585,340.1399528761206L381.83359985351564,340.13869859482907L397.7433331807455,340.1342824677734L413.65306650797527,340.1352344885882L429.5627998352051,340.138570508094L445.4725331624349,340.1378545036678L461.38226648966474,340.1358360499033L477.29199981689453,340.1371932567784L493.2017331441244,340.1323315084107L509.11146647135416,340.1382037269341L525.021199798584,340.1386724255418L540.9309331258138,340.13326829736553L556.8406664530437,340.13305220714466L572.7503997802734,340.1339570229921L588.6601331075033,340.13506041622315L604.5698664347331,340.1316744827374L620.479599761963,340.1315388321688L636.3893330891926,340.1334496857543L652.2990664164225,340.13381915058267L668.2087997436523,340.14053037594056L684.1185330708822,340.12471721454654L700.0282663981119,340.1295834601005L715.9379997253418,340.1288073561448L731.8477330525717,340.1372134166758L747.7574663798014,340.12688921187987L763.6671997070313,340.1299842221911L779.5769330342611,340.13004730951934L795.486666361491,340.13301688015576L811.3963996887206,340.1265390818547L827.3061330159505,340.1325092444196L843.2158663431803,340.124743282457L859.1255996704102,340.1362478986703" fill="none"></path></g></g></g></g></g><g><g opacity="0.0671282"><span fill="rgb(0, 0, 0)" stroke="none" stroke-width="1px">Alt + Scroll to Zoom</span></g></g></g><g transform="translate(51, 377)" clip-path="url(#clip_1)"><clipPath id="clip_1"><rect width="954" height="22"></rect></clipPath><g><g><line x1="0" y1="0" x2="0" y2="5" style="visibility: inherit;" fill="rgb(0, 0, 0)" stroke="rgb(204, 204, 204)" stroke-width="1px"></line><line x1="79.54866663614908" y1="0" x2="79.54866663614908" y2="5" style="visibility: inherit;" fill="rgb(0, 0, 0)" stroke="rgb(204, 204, 204)" stroke-width="1px"></line><line x1="159.09733327229816" y1="0" x2="159.09733327229816" y2="5" style="visibility: inherit;" fill="rgb(0, 0, 0)" stroke="rgb(204, 204, 204)" stroke-width="1px"></line><line x1="238.64599990844727" y1="0" x2="238.64599990844727" y2="5" style="visibility: inherit;" fill="rgb(0, 0, 0)" stroke="rgb(204, 204, 204)" stroke-width="1px"></line><line x1="318.1946665445963" y1="0" x2="318.1946665445963" y2="5" style="visibility: inherit;" fill="rgb(0, 0, 0)" stroke="rgb(204, 204, 204)" stroke-width="1px"></line><line x1="397.7433331807455" y1="0" x2="397.7433331807455" y2="5" style="visibility: inherit;" fill="rgb(0, 0, 0)" stroke="rgb(204, 204, 204)" stroke-width="1px"></line><line x1="477.29199981689453" y1="0" x2="477.29199981689453" y2="5" style="visibility: inherit;" fill="rgb(0, 0, 0)" stroke="rgb(204, 204, 204)" stroke-width="1px"></line><line x1="556.8406664530437" y1="0" x2="556.8406664530437" y2="5" style="visibility: inherit;" fill="rgb(0, 0, 0)" stroke="rgb(204, 204, 204)" stroke-width="1px"></line><line x1="636.3893330891926" y1="0" x2="636.3893330891926" y2="5" style="visibility: inherit;" fill="rgb(0, 0, 0)" stroke="rgb(204, 204, 204)" stroke-width="1px"></line><line x1="715.9379997253418" y1="0" x2="715.9379997253418" y2="5" style="visibility: inherit;" fill="rgb(0, 0, 0)" stroke="rgb(204, 204, 204)" stroke-width="1px"></line><line x1="795.486666361491" y1="0" x2="795.486666361491" y2="5" style="visibility: inherit;" fill="rgb(0, 0, 0)" stroke="rgb(204, 204, 204)" stroke-width="1px"></line><line x1="875.0353329976399" y1="0" x2="875.0353329976399" y2="5" style="visibility: inherit;" fill="rgb(0, 0, 0)" stroke="rgb(204, 204, 204)" stroke-width="1px"></line><line x1="954.5839996337891" y1="0" x2="954.5839996337891" y2="5" style="visibility: inherit;" fill="rgb(0, 0, 0)" stroke="rgb(204, 204, 204)" stroke-width="1px"></line></g><g transform="translate(0, 8)"><text style="text-anchor: middle; visibility: hidden; font-family: Roboto, sans-serif; font-size: 12px; font-weight: 200;" x="0" y="0" dx="0em" dy="0.95em" fill="rgb(50, 49, 63)" stroke="none" stroke-width="1px">-5</text><text style="text-anchor: middle; visibility: inherit; font-family: Roboto, sans-serif; font-size: 12px; font-weight: 200;" x="79.54866663614908" y="0" dx="0em" dy="0.95em" fill="rgb(50, 49, 63)" stroke="none" stroke-width="1px">0</text><text style="text-anchor: middle; visibility: inherit; font-family: Roboto, sans-serif; font-size: 12px; font-weight: 200;" x="159.09733327229816" y="0" dx="0em" dy="0.95em" fill="rgb(50, 49, 63)" stroke="none" stroke-width="1px">5</text><text style="text-anchor: middle; visibility: inherit; font-family: Roboto, sans-serif; font-size: 12px; font-weight: 200;" x="238.64599990844727" y="0" dx="0em" dy="0.95em" fill="rgb(50, 49, 63)" stroke="none" stroke-width="1px">10</text><text style="text-anchor: middle; visibility: inherit; font-family: Roboto, sans-serif; font-size: 12px; font-weight: 200;" x="318.1946665445963" y="0" dx="0em" dy="0.95em" fill="rgb(50, 49, 63)" stroke="none" stroke-width="1px">15</text><text style="text-anchor: middle; visibility: inherit; font-family: Roboto, sans-serif; font-size: 12px; font-weight: 200;" x="397.7433331807455" y="0" dx="0em" dy="0.95em" fill="rgb(50, 49, 63)" stroke="none" stroke-width="1px">20</text><text style="text-anchor: middle; visibility: inherit; font-family: Roboto, sans-serif; font-size: 12px; font-weight: 200;" x="477.29199981689453" y="0" dx="0em" dy="0.95em" fill="rgb(50, 49, 63)" stroke="none" stroke-width="1px">25</text><text style="text-anchor: middle; visibility: inherit; font-family: Roboto, sans-serif; font-size: 12px; font-weight: 200;" x="556.8406664530437" y="0" dx="0em" dy="0.95em" fill="rgb(50, 49, 63)" stroke="none" stroke-width="1px">30</text><text style="text-anchor: middle; visibility: inherit; font-family: Roboto, sans-serif; font-size: 12px; font-weight: 200;" x="636.3893330891926" y="0" dx="0em" dy="0.95em" fill="rgb(50, 49, 63)" stroke="none" stroke-width="1px">35</text><text style="text-anchor: middle; visibility: inherit; font-family: Roboto, sans-serif; font-size: 12px; font-weight: 200;" x="715.9379997253418" y="0" dx="0em" dy="0.95em" fill="rgb(50, 49, 63)" stroke="none" stroke-width="1px">40</text><text style="text-anchor: middle; visibility: inherit; font-family: Roboto, sans-serif; font-size: 12px; font-weight: 200;" x="795.486666361491" y="0" dx="0em" dy="0.95em" fill="rgb(50, 49, 63)" stroke="none" stroke-width="1px">45</text><text style="text-anchor: middle; visibility: inherit; font-family: Roboto, sans-serif; font-size: 12px; font-weight: 200;" x="875.0353329976399" y="0" dx="0em" dy="0.95em" fill="rgb(50, 49, 63)" stroke="none" stroke-width="1px">50</text><text style="text-anchor: middle; visibility: hidden; font-family: Roboto, sans-serif; font-size: 12px; font-weight: 200;" x="954.5839996337891" y="0" dx="0em" dy="0.95em" fill="rgb(50, 49, 63)" stroke="none" stroke-width="1px">55</text></g><line x1="0" y1="0" x2="954.5839996337891" y2="0" fill="rgb(0, 0, 0)" stroke="rgb(204, 204, 204)" stroke-width="1px"></line></g></g></g></g></svg>