<svg viewBox="0 0 330 200" xmlns="http://www.w3.org/2000/svg"><g><g><g><g><g><line x1="50" y1="178" x2="45" y2="178" style="visibility: inherit;" fill="rgb(0, 0, 0)" stroke="rgb(204, 204, 204)" stroke-width="1px"></line><line x1="50" y1="158.2222222222223" x2="45" y2="158.2222222222223" style="visibility: inherit;" fill="rgb(0, 0, 0)" stroke="rgb(204, 204, 204)" stroke-width="1px"></line><line x1="50" y1="138.4444444444445" x2="45" y2="138.4444444444445" style="visibility: inherit;" fill="rgb(0, 0, 0)" stroke="rgb(204, 204, 204)" stroke-width="1px"></line><line x1="50" y1="118.6666666666667" x2="45" y2="118.6666666666667" style="visibility: inherit;" fill="rgb(0, 0, 0)" stroke="rgb(204, 204, 204)" stroke-width="1px"></line><line x1="50" y1="98.8888888888889" x2="45" y2="98.8888888888889" style="visibility: inherit;" fill="rgb(0, 0, 0)" stroke="rgb(204, 204, 204)" stroke-width="1px"></line><line x1="50" y1="79.1111111111111" x2="45" y2="79.1111111111111" style="visibility: inherit;" fill="rgb(0, 0, 0)" stroke="rgb(204, 204, 204)" stroke-width="1px"></line><line x1="50" y1="59.3333333333333" x2="45" y2="59.3333333333333" style="visibility: inherit;" fill="rgb(0, 0, 0)" stroke="rgb(204, 204, 204)" stroke-width="1px"></line><line x1="50" y1="39.555555555555614" x2="45" y2="39.555555555555614" style="visibility: inherit;" fill="rgb(0, 0, 0)" stroke="rgb(204, 204, 204)" stroke-width="1px"></line><line x1="50" y1="19.777777777777807" x2="45" y2="19.777777777777807" style="visibility: inherit;" fill="rgb(0, 0, 0)" stroke="rgb(204, 204, 204)" stroke-width="1px"></line><line x1="50" y1="0" x2="45" y2="0" style="visibility: inherit;" fill="rgb(0, 0, 0)" stroke="rgb(204, 204, 204)" stroke-width="1px"></line></g><g transform="translate(40, 0)"><text x="0" y="178" dx="0em" dy="0.3em" style="text-anchor: end; visibility: hidden; font-family: Roboto, sans-serif; font-size: 12px; font-weight: 200;" fill="rgb(50, 49, 63)" stroke="none" stroke-width="1px">0.8</text><text x="0" y="158.2222222222223" dx="0em" dy="0.3em" style="text-anchor: end; visibility: inherit; font-family: Roboto, sans-serif; font-size: 12px; font-weight: 200;" fill="rgb(50, 49, 63)" stroke="none" stroke-width="1px">0.82</text><text x="0" y="138.4444444444445" dx="0em" dy="0.3em" style="text-anchor: end; visibility: hidden; font-family: Roboto, sans-serif; font-size: 12px; font-weight: 200;" fill="rgb(50, 49, 63)" stroke="none" stroke-width="1px">0.84</text><text x="0" y="118.6666666666667" dx="0em" dy="0.3em" style="text-anchor: end; visibility: inherit; font-family: Roboto, sans-serif; font-size: 12px; font-weight: 200;" fill="rgb(50, 49, 63)" stroke="none" stroke-width="1px">0.86</text><text x="0" y="98.8888888888889" dx="0em" dy="0.3em" style="text-anchor: end; visibility: hidden; font-family: Roboto, sans-serif; font-size: 12px; font-weight: 200;" fill="rgb(50, 49, 63)" stroke="none" stroke-width="1px">0.88</text><text x="0" y="79.1111111111111" dx="0em" dy="0.3em" style="text-anchor: end; visibility: inherit; font-family: Roboto, sans-serif; font-size: 12px; font-weight: 200;" fill="rgb(50, 49, 63)" stroke="none" stroke-width="1px">0.9</text><text x="0" y="59.3333333333333" dx="0em" dy="0.3em" style="text-anchor: end; visibility: hidden; font-family: Roboto, sans-serif; font-size: 12px; font-weight: 200;" fill="rgb(50, 49, 63)" stroke="none" stroke-width="1px">0.92</text><text x="0" y="39.555555555555614" dx="0em" dy="0.3em" style="text-anchor: end; visibility: inherit; font-family: Roboto, sans-serif; font-size: 12px; font-weight: 200;" fill="rgb(50, 49, 63)" stroke="none" stroke-width="1px">0.94</text><text x="0" y="19.777777777777807" dx="0em" dy="0.3em" style="text-anchor: end; visibility: hidden; font-family: Roboto, sans-serif; font-size: 12px; font-weight: 200;" fill="rgb(50, 49, 63)" stroke="none" stroke-width="1px">0.96</text><text x="0" y="0" dx="0em" dy="0.3em" style="text-anchor: end; visibility: hidden; font-family: Roboto, sans-serif; font-size: 12px; font-weight: 200;" fill="rgb(50, 49, 63)" stroke="none" stroke-width="1px">0.98</text></g><line x1="50" y1="0" x2="50" y2="178" fill="rgb(0, 0, 0)" stroke="rgb(204, 204, 204)" stroke-width="1px"></line></g></g><g transform="translate(50, 0)" clip-path="url(#clip_0)"><clipPath id="clip_0"><rect width="280" height="178"></rect></clipPath><g><g><g><line x1="0" y1="0" x2="0" y2="178" fill="rgb(0, 0, 0)" stroke="rgb(60, 60, 60)" stroke-width="1px" opacity="0.25"></line><line x1="23.333333333333332" y1="0" x2="23.333333333333332" y2="178" fill="rgb(0, 0, 0)" stroke="rgb(60, 60, 60)" stroke-width="1px" opacity="0.25"></line><line x1="46.666666666666664" y1="0" x2="46.666666666666664" y2="178" fill="rgb(0, 0, 0)" stroke="rgb(60, 60, 60)" stroke-width="1px" opacity="0.25"></line><line x1="70" y1="0" x2="70" y2="178" fill="rgb(0, 0, 0)" stroke="rgb(60, 60, 60)" stroke-width="1px" opacity="0.25"></line><line x1="93.33333333333333" y1="0" x2="93.33333333333333" y2="178" fill="rgb(0, 0, 0)" stroke="rgb(60, 60, 60)" stroke-width="1px" opacity="0.25"></line><line x1="116.66666666666667" y1="0" x2="116.66666666666667" y2="178" fill="rgb(0, 0, 0)" stroke="rgb(60, 60, 60)" stroke-width="1px" opacity="0.25"></line><line x1="140" y1="0" x2="140" y2="178" fill="rgb(0, 0, 0)" stroke="rgb(60, 60, 60)" stroke-width="1px" opacity="0.25"></line><line x1="163.33333333333334" y1="0" x2="163.33333333333334" y2="178" fill="rgb(0, 0, 0)" stroke="rgb(60, 60, 60)" stroke-width="1px" opacity="0.25"></line><line x1="186.66666666666666" y1="0" x2="186.66666666666666" y2="178" fill="rgb(0, 0, 0)" stroke="rgb(60, 60, 60)" stroke-width="1px" opacity="0.25"></line><line x1="210" y1="0" x2="210" y2="178" fill="rgb(0, 0, 0)" stroke="rgb(60, 60, 60)" stroke-width="1px" opacity="0.25"></line><line x1="233.33333333333334" y1="0" x2="233.33333333333334" y2="178" fill="rgb(0, 0, 0)" stroke="rgb(60, 60, 60)" stroke-width="1px" opacity="0.25"></line><line x1="256.66666666666663" y1="0" x2="256.66666666666663" y2="178" fill="rgb(0, 0, 0)" stroke="rgb(60, 60, 60)" stroke-width="1px" opacity="0.25"></line><line x1="280" y1="0" x2="280" y2="178" fill="rgb(0, 0, 0)" stroke="rgb(60, 60, 60)" stroke-width="1px" opacity="0.25"></line></g><g><line x1="0" y1="178" x2="280" y2="178" fill="rgb(0, 0, 0)" stroke="rgb(60, 60, 60)" stroke-width="1px" opacity="0.25"></line><line x1="0" y1="158.2222222222223" x2="280" y2="158.2222222222223" fill="rgb(0, 0, 0)" stroke="rgb(60, 60, 60)" stroke-width="1px" opacity="0.25"></line><line x1="0" y1="138.4444444444445" x2="280" y2="138.4444444444445" fill="rgb(0, 0, 0)" stroke="rgb(60, 60, 60)" stroke-width="1px" opacity="0.25"></line><line x1="0" y1="118.6666666666667" x2="280" y2="118.6666666666667" fill="rgb(0, 0, 0)" stroke="rgb(60, 60, 60)" stroke-width="1px" opacity="0.25"></line><line x1="0" y1="98.8888888888889" x2="280" y2="98.8888888888889" fill="rgb(0, 0, 0)" stroke="rgb(60, 60, 60)" stroke-width="1px" opacity="0.25"></line><line x1="0" y1="79.1111111111111" x2="280" y2="79.1111111111111" fill="rgb(0, 0, 0)" stroke="rgb(60, 60, 60)" stroke-width="1px" opacity="0.25"></line><line x1="0" y1="59.3333333333333" x2="280" y2="59.3333333333333" fill="rgb(0, 0, 0)" stroke="rgb(60, 60, 60)" stroke-width="1px" opacity="0.25"></line><line x1="0" y1="39.555555555555614" x2="280" y2="39.555555555555614" fill="rgb(0, 0, 0)" stroke="rgb(60, 60, 60)" stroke-width="1px" opacity="0.25"></line><line x1="0" y1="19.777777777777807" x2="280" y2="19.777777777777807" fill="rgb(0, 0, 0)" stroke="rgb(60, 60, 60)" stroke-width="1px" opacity="0.25"></line><line x1="0" y1="0" x2="280" y2="0" fill="rgb(0, 0, 0)" stroke="rgb(60, 60, 60)" stroke-width="1px" opacity="0.25"></line></g></g></g><g><g><line x1="0" y1="969.1111111111114" x2="280" y2="969.1111111111114" fill="rgb(0, 0, 0)" stroke="rgb(153, 153, 153)" stroke-width="1.5px"></line></g></g><g><g><line x1="23.333333333333332" y1="0" x2="23.333333333333332" y2="178" fill="rgb(0, 0, 0)" stroke="rgb(153, 153, 153)" stroke-width="1.5px"></line></g></g><g><g><g><g><g><path stroke="rgb(0, 119, 187)" stroke-width="2px" d="M23.333333333333332,188.44999904102752L28,160.61980601482927L32.666666666666664,151.31242597562658L37.333333333333336,138.45312428932175L42,136.58280279382865L46.666666666666664,130.6984960632692L51.33333333333333,131.3736622313154L56,132.81360529637556L60.66666666666667,130.64582538261203L65.33333333333333,123.24788257311369L70,124.1077203270477L74.66666666666667,121.83574138818979L79.33333333333333,118.41393772886221L84,116.15763544676868L88.66666666666666,114.59896828090608L93.33333333333333,114.38514067818228L98,116.41932565632003L102.66666666666666,116.09512212489838L107.33333333333334,113.32656877324014L112,114.23953430061297L116.66666666666667,114.6843294614543L121.33333333333334,108.8767318029093L126,113.73169040016688L130.66666666666666,117.67420408034195L135.33333333333334,120.76040253947805L140,118.08205698767426L144.66666666666669,115.96027296285313L149.33333333333334,112.52512571299066L154,109.94925943260114L158.66666666666666,110.87467573888836L163.33333333333334,111.429925391726L168,114.54289187906699L172.66666666666669,117.74908788233533L177.33333333333331,118.54028663853452L182,117.88251071989721L186.66666666666666,115.63462628349501L191.33333333333334,115.00659579896586L196,114.83569857863228L200.66666666666666,117.82181122205935L205.33333333333331,117.34846494712113L210,116.85853611526615L214.66666666666669,115.12320207663285L219.33333333333334,116.75885764273289L224,116.19591370917915L228.66666666666666,113.90199151894639L233.33333333333334,114.99657312595438L238,114.82968497545384L242.66666666666669,115.65614973337493L247.33333333333331,116.56384714543671L252,114.01979104735285" style="fill: none;" fill="none"></path></g><g><path stroke="rgb(255, 112, 67)" stroke-width="2px" d="M23.333333333333332,254.0904631349776L28,158.59037597643018L32.666666666666664,115.08381283580584L37.333333333333336,94.36541963841007L42,80.48885804322367L46.666666666666664,70.24306384409381L51.33333333333333,63.955342751933976L56,60.567176415909536L60.66666666666667,56.87339511274639L65.33333333333333,53.61320378970946L70,51.980467516137054L74.66666666666667,50.33979328393162L79.33333333333333,49.31338922520465L84,47.54763227489462L88.66666666666666,46.84302621755212L93.33333333333333,46.02233631017741L98,44.999263611379114L102.66666666666666,44.56247022404155L107.33333333333334,44.38886510692474L112,43.04635504845669L116.66666666666667,42.63891520219745L121.33333333333334,42.305995140165315L126,41.04482688604882L130.66666666666666,39.75741268516158L135.33333333333334,40.40020199568411L140,41.537721001749226L144.66666666666669,40.18584493667933L149.33333333333334,40.39190109167183L154,40.73666298399487L158.66666666666666,40.280135294925735L163.33333333333334,39.25439691648024L168,39.2138779084398L172.66666666666669,38.747310086889506L177.33333333333331,39.35188222890294L182,38.87434304839465L186.66666666666666,39.16274343746676L191.33333333333334,38.14168195712478L196,37.2194797396134L200.66666666666666,36.93151696588184L205.33333333333331,38.26240634075575L210,38.92827247591316L214.66666666666669,39.19510109113143L219.33333333333334,39.089839706111164L224,39.02668287511855L228.66666666666666,38.94458199831712L233.33333333333334,38.67419327339225L238,38.24660148444576L242.66666666666669,38.388072453611414L247.33333333333331,37.898031148907926L252,38.26739096260204" style="fill: none;" fill="none"></path></g></g></g></g><g opacity="0.2"><g><g><g><path stroke="rgb(0, 119, 187)" stroke-width="2px" d="M23.333333333333332,188.44999904102752L28,143.9216901991103L32.666666666666664,142.37734113799203L37.333333333333336,123.33058550622731L42,134.14091104931305L46.666666666666664,122.55838150448272L51.33333333333333,132.33916065427994L56,134.91305610868667L60.66666666666667,127.44877107938133L65.33333333333333,112.26279968685577L70,125.38967829280432L74.66666666666667,118.44013698895775L79.33333333333333,113.29240502251523L84,112.77760235468548L88.66666666666666,112.26279968685577L93.33333333333333,114.06455008188885L98,119.4697423246172L102.66666666666666,115.6088991430071L107.33333333333334,109.17416050699025L112,115.6088991430071L116.66666666666667,115.35149780909222L121.33333333333334,100.16552641656666L126,121.01403244336448L130.66666666666666,123.58792789777122L135.33333333333334,125.38967829280432L140,114.06455008188885L144.66666666666669,112.77760235468548L149.33333333333334,107.37241011195715L154,106.08546238475377L158.66666666666666,112.26279968685577L163.33333333333334,112.26279968685577L168,119.21234099070233L172.66666666666669,122.55838150448272L177.33333333333331,119.72708471616112L182,116.89584687021046L186.66666666666666,112.26279968685577L191.33333333333334,114.06455008188885L196,114.5793527497186L200.66666666666666,122.30098017056785L205.33333333333331,116.63844553629559L210,116.12364286846588L214.66666666666669,112.52020102077063L219.33333333333334,119.21234099070233L224,115.35149780909222L228.66666666666666,110.46110823419362L233.33333333333334,116.63844553629559L238,114.5793527497186L242.66666666666669,116.89584687021046L247.33333333333331,117.92539326349896L252,110.20370690027875" style="fill: none;" fill="none"></path></g><g><path stroke="rgb(255, 112, 67)" stroke-width="2px" d="M23.333333333333332,254.0904631349776L28,101.29032368130156L32.666666666666664,73.31751222080656L37.333333333333336,70.00058923827278L42,62.37161922454834L46.666666666666664,56.06944198078579L51.33333333333333,54.96380098660788L56,55.62719737158882L60.66666666666667,51.42578517066109L65.33333333333333,48.772199630737305L70,49.54617190361023L74.66666666666667,47.88771041234335L79.33333333333333,47.77713452445137L84,44.902456151114556L88.66666666666666,45.78694536950854L93.33333333333333,44.79188026322258L98,43.46508749326071L102.66666666666666,43.90739104482862L107.33333333333334,44.12848387824163L112,41.03271267149183L116.66666666666667,42.027777777777764L121.33333333333334,41.806626001993806L126,39.15309940444097L130.66666666666666,37.8263066344791L135.33333333333334,41.364381392796844L140,43.24399465984768L144.66666666666669,38.15803429815504L149.33333333333334,40.700985007815895L154,41.25380550490484L158.66666666666666,39.59534401363796L163.33333333333334,37.715789688958054L168,39.15309940444097L172.66666666666669,38.04745841026306L177.33333333333331,40.258740398618905L182,38.15803429815504L186.66666666666666,39.59534401363796L191.33333333333334,36.61008975240919L196,35.83617642190722L200.66666666666666,36.49957280688816L205.33333333333331,40.258740398618905L210,39.9270716773139L214.66666666666669,39.59534401363796L219.33333333333334,38.931947628657014L224,38.931947628657014L228.66666666666666,38.821430683135986L233.33333333333334,38.26861018604702L238,37.60521380106607L242.66666666666669,38.60027890735203L247.33333333333331,37.16296919186909L252,38.821430683135986" style="fill: none;" fill="none"></path></g></g></g></g></g></g><g transform="translate(50, 178)" clip-path="url(#clip_1)"><clipPath id="clip_1"><rect width="280" height="22"></rect></clipPath><g><g><line x1="0" y1="0" x2="0" y2="5" style="visibility: inherit;" fill="rgb(0, 0, 0)" stroke="rgb(204, 204, 204)" stroke-width="1px"></line><line x1="23.333333333333332" y1="0" x2="23.333333333333332" y2="5" style="visibility: inherit;" fill="rgb(0, 0, 0)" stroke="rgb(204, 204, 204)" stroke-width="1px"></line><line x1="46.666666666666664" y1="0" x2="46.666666666666664" y2="5" style="visibility: inherit;" fill="rgb(0, 0, 0)" stroke="rgb(204, 204, 204)" stroke-width="1px"></line><line x1="70" y1="0" x2="70" y2="5" style="visibility: inherit;" fill="rgb(0, 0, 0)" stroke="rgb(204, 204, 204)" stroke-width="1px"></line><line x1="93.33333333333333" y1="0" x2="93.33333333333333" y2="5" style="visibility: inherit;" fill="rgb(0, 0, 0)" stroke="rgb(204, 204, 204)" stroke-width="1px"></line><line x1="116.66666666666667" y1="0" x2="116.66666666666667" y2="5" style="visibility: inherit;" fill="rgb(0, 0, 0)" stroke="rgb(204, 204, 204)" stroke-width="1px"></line><line x1="140" y1="0" x2="140" y2="5" style="visibility: inherit;" fill="rgb(0, 0, 0)" stroke="rgb(204, 204, 204)" stroke-width="1px"></line><line x1="163.33333333333334" y1="0" x2="163.33333333333334" y2="5" style="visibility: inherit;" fill="rgb(0, 0, 0)" stroke="rgb(204, 204, 204)" stroke-width="1px"></line><line x1="186.66666666666666" y1="0" x2="186.66666666666666" y2="5" style="visibility: inherit;" fill="rgb(0, 0, 0)" stroke="rgb(204, 204, 204)" stroke-width="1px"></line><line x1="210" y1="0" x2="210" y2="5" style="visibility: inherit;" fill="rgb(0, 0, 0)" stroke="rgb(204, 204, 204)" stroke-width="1px"></line><line x1="233.33333333333334" y1="0" x2="233.33333333333334" y2="5" style="visibility: inherit;" fill="rgb(0, 0, 0)" stroke="rgb(204, 204, 204)" stroke-width="1px"></line><line x1="256.66666666666663" y1="0" x2="256.66666666666663" y2="5" style="visibility: inherit;" fill="rgb(0, 0, 0)" stroke="rgb(204, 204, 204)" stroke-width="1px"></line><line x1="280" y1="0" x2="280" y2="5" style="visibility: inherit;" fill="rgb(0, 0, 0)" stroke="rgb(204, 204, 204)" stroke-width="1px"></line></g><g transform="translate(0, 8)"><text x="0" y="0" dx="0em" dy="0.95em" style="text-anchor: middle; visibility: hidden; font-family: Roboto, sans-serif; font-size: 12px; font-weight: 200;" fill="rgb(50, 49, 63)" stroke="none" stroke-width="1px">-5</text><text x="23.333333333333332" y="0" dx="0em" dy="0.95em" style="text-anchor: middle; visibility: inherit; font-family: Roboto, sans-serif; font-size: 12px; font-weight: 200;" fill="rgb(50, 49, 63)" stroke="none" stroke-width="1px">0</text><text x="46.666666666666664" y="0" dx="0em" dy="0.95em" style="text-anchor: middle; visibility: inherit; font-family: Roboto, sans-serif; font-size: 12px; font-weight: 200;" fill="rgb(50, 49, 63)" stroke="none" stroke-width="1px">5</text><text x="70" y="0" dx="0em" dy="0.95em" style="text-anchor: middle; visibility: inherit; font-family: Roboto, sans-serif; font-size: 12px; font-weight: 200;" fill="rgb(50, 49, 63)" stroke="none" stroke-width="1px">10</text><text x="93.33333333333333" y="0" dx="0em" dy="0.95em" style="text-anchor: middle; visibility: inherit; font-family: Roboto, sans-serif; font-size: 12px; font-weight: 200;" fill="rgb(50, 49, 63)" stroke="none" stroke-width="1px">15</text><text x="116.66666666666667" y="0" dx="0em" dy="0.95em" style="text-anchor: middle; visibility: inherit; font-family: Roboto, sans-serif; font-size: 12px; font-weight: 200;" fill="rgb(50, 49, 63)" stroke="none" stroke-width="1px">20</text><text x="140" y="0" dx="0em" dy="0.95em" style="text-anchor: middle; visibility: inherit; font-family: Roboto, sans-serif; font-size: 12px; font-weight: 200;" fill="rgb(50, 49, 63)" stroke="none" stroke-width="1px">25</text><text x="163.33333333333334" y="0" dx="0em" dy="0.95em" style="text-anchor: middle; visibility: inherit; font-family: Roboto, sans-serif; font-size: 12px; font-weight: 200;" fill="rgb(50, 49, 63)" stroke="none" stroke-width="1px">30</text><text x="186.66666666666666" y="0" dx="0em" dy="0.95em" style="text-anchor: middle; visibility: inherit; font-family: Roboto, sans-serif; font-size: 12px; font-weight: 200;" fill="rgb(50, 49, 63)" stroke="none" stroke-width="1px">35</text><text x="210" y="0" dx="0em" dy="0.95em" style="text-anchor: middle; visibility: inherit; font-family: Roboto, sans-serif; font-size: 12px; font-weight: 200;" fill="rgb(50, 49, 63)" stroke="none" stroke-width="1px">40</text><text x="233.33333333333334" y="0" dx="0em" dy="0.95em" style="text-anchor: middle; visibility: inherit; font-family: Roboto, sans-serif; font-size: 12px; font-weight: 200;" fill="rgb(50, 49, 63)" stroke="none" stroke-width="1px">45</text><text x="256.66666666666663" y="0" dx="0em" dy="0.95em" style="text-anchor: middle; visibility: inherit; font-family: Roboto, sans-serif; font-size: 12px; font-weight: 200;" fill="rgb(50, 49, 63)" stroke="none" stroke-width="1px">50</text><text x="280" y="0" dx="0em" dy="0.95em" style="text-anchor: middle; visibility: hidden; font-family: Roboto, sans-serif; font-size: 12px; font-weight: 200;" fill="rgb(50, 49, 63)" stroke="none" stroke-width="1px">55</text></g><line x1="0" y1="0" x2="280" y2="0" fill="rgb(0, 0, 0)" stroke="rgb(204, 204, 204)" stroke-width="1px"></line></g></g></g></g></svg>