<svg viewBox="0 0 1006 400" xmlns="http://www.w3.org/2000/svg"><g><g><g><g><g><line x1="51.41600036621094" y1="377.95999908447266" x2="46.41600036621094" y2="377.95999908447266" style="visibility: inherit;" fill="rgb(0, 0, 0)" stroke="rgb(204, 204, 204)" stroke-width="1px"></line><line x1="51.41600036621094" y1="340.1639991760254" x2="46.41600036621094" y2="340.1639991760254" style="visibility: inherit;" fill="rgb(0, 0, 0)" stroke="rgb(204, 204, 204)" stroke-width="1px"></line><line x1="51.41600036621094" y1="302.3679992675781" x2="46.41600036621094" y2="302.3679992675781" style="visibility: inherit;" fill="rgb(0, 0, 0)" stroke="rgb(204, 204, 204)" stroke-width="1px"></line><line x1="51.41600036621094" y1="264.57199935913087" x2="46.41600036621094" y2="264.57199935913087" style="visibility: inherit;" fill="rgb(0, 0, 0)" stroke="rgb(204, 204, 204)" stroke-width="1px"></line><line x1="51.41600036621094" y1="226.7759994506836" x2="46.41600036621094" y2="226.7759994506836" style="visibility: inherit;" fill="rgb(0, 0, 0)" stroke="rgb(204, 204, 204)" stroke-width="1px"></line><line x1="51.41600036621094" y1="188.97999954223633" x2="46.41600036621094" y2="188.97999954223633" style="visibility: inherit;" fill="rgb(0, 0, 0)" stroke="rgb(204, 204, 204)" stroke-width="1px"></line><line x1="51.41600036621094" y1="151.18399963378906" x2="46.41600036621094" y2="151.18399963378906" style="visibility: inherit;" fill="rgb(0, 0, 0)" stroke="rgb(204, 204, 204)" stroke-width="1px"></line><line x1="51.41600036621094" y1="113.38799972534181" x2="46.41600036621094" y2="113.38799972534181" style="visibility: inherit;" fill="rgb(0, 0, 0)" stroke="rgb(204, 204, 204)" stroke-width="1px"></line><line x1="51.41600036621094" y1="75.59199981689456" x2="46.41600036621094" y2="75.59199981689456" style="visibility: inherit;" fill="rgb(0, 0, 0)" stroke="rgb(204, 204, 204)" stroke-width="1px"></line><line x1="51.41600036621094" y1="37.79599990844726" x2="46.41600036621094" y2="37.79599990844726" style="visibility: inherit;" fill="rgb(0, 0, 0)" stroke="rgb(204, 204, 204)" stroke-width="1px"></line><line x1="51.41600036621094" y1="0" x2="46.41600036621094" y2="0" style="visibility: inherit;" fill="rgb(0, 0, 0)" stroke="rgb(204, 204, 204)" stroke-width="1px"></line></g><g transform="translate(41.41600036621094, 0)"><text style="text-anchor: end; visibility: hidden; font-family: Roboto, sans-serif; font-size: 12px; font-weight: 200;" x="0" y="377.95999908447266" dx="0em" dy="0.3em" fill="rgb(50, 49, 63)" stroke="none" stroke-width="1px">-0.2</text><text style="text-anchor: end; visibility: inherit; font-family: Roboto, sans-serif; font-size: 12px; font-weight: 200;" x="0" y="340.1639991760254" dx="0em" dy="0.3em" fill="rgb(50, 49, 63)" stroke="none" stroke-width="1px">0</text><text style="text-anchor: end; visibility: inherit; font-family: Roboto, sans-serif; font-size: 12px; font-weight: 200;" x="0" y="302.3679992675781" dx="0em" dy="0.3em" fill="rgb(50, 49, 63)" stroke="none" stroke-width="1px">0.2</text><text style="text-anchor: end; visibility: inherit; font-family: Roboto, sans-serif; font-size: 12px; font-weight: 200;" x="0" y="264.57199935913087" dx="0em" dy="0.3em" fill="rgb(50, 49, 63)" stroke="none" stroke-width="1px">0.4</text><text style="text-anchor: end; visibility: inherit; font-family: Roboto, sans-serif; font-size: 12px; font-weight: 200;" x="0" y="226.7759994506836" dx="0em" dy="0.3em" fill="rgb(50, 49, 63)" stroke="none" stroke-width="1px">0.6</text><text style="text-anchor: end; visibility: inherit; font-family: Roboto, sans-serif; font-size: 12px; font-weight: 200;" x="0" y="188.97999954223633" dx="0em" dy="0.3em" fill="rgb(50, 49, 63)" stroke="none" stroke-width="1px">0.8</text><text style="text-anchor: end; visibility: inherit; font-family: Roboto, sans-serif; font-size: 12px; font-weight: 200;" x="0" y="151.18399963378906" dx="0em" dy="0.3em" fill="rgb(50, 49, 63)" stroke="none" stroke-width="1px">1</text><text style="text-anchor: end; visibility: inherit; font-family: Roboto, sans-serif; font-size: 12px; font-weight: 200;" x="0" y="113.38799972534181" dx="0em" dy="0.3em" fill="rgb(50, 49, 63)" stroke="none" stroke-width="1px">1.2</text><text style="text-anchor: end; visibility: inherit; font-family: Roboto, sans-serif; font-size: 12px; font-weight: 200;" x="0" y="75.59199981689456" dx="0em" dy="0.3em" fill="rgb(50, 49, 63)" stroke="none" stroke-width="1px">1.4</text><text style="text-anchor: end; visibility: inherit; font-family: Roboto, sans-serif; font-size: 12px; font-weight: 200;" x="0" y="37.79599990844726" dx="0em" dy="0.3em" fill="rgb(50, 49, 63)" stroke="none" stroke-width="1px">1.6</text><text style="text-anchor: end; visibility: hidden; font-family: Roboto, sans-serif; font-size: 12px; font-weight: 200;" x="0" y="0" dx="0em" dy="0.3em" fill="rgb(50, 49, 63)" stroke="none" stroke-width="1px">1.8</text></g><line x1="51.41600036621094" y1="0" x2="51.41600036621094" y2="377.95999908447266" fill="rgb(0, 0, 0)" stroke="rgb(204, 204, 204)" stroke-width="1px"></line></g></g><g transform="translate(51, 0)" clip-path="url(#clip_0)"><clipPath id="clip_0"><rect width="954" height="377"></rect></clipPath><g><g><g><line x1="0" y1="0" x2="0" y2="377.95999908447266" fill="rgb(0, 0, 0)" stroke="rgb(60, 60, 60)" stroke-width="1px" opacity="0.25"></line><line x1="79.54866663614908" y1="0" x2="79.54866663614908" y2="377.95999908447266" fill="rgb(0, 0, 0)" stroke="rgb(60, 60, 60)" stroke-width="1px" opacity="0.25"></line><line x1="159.09733327229816" y1="0" x2="159.09733327229816" y2="377.95999908447266" fill="rgb(0, 0, 0)" stroke="rgb(60, 60, 60)" stroke-width="1px" opacity="0.25"></line><line x1="238.64599990844727" y1="0" x2="238.64599990844727" y2="377.95999908447266" fill="rgb(0, 0, 0)" stroke="rgb(60, 60, 60)" stroke-width="1px" opacity="0.25"></line><line x1="318.1946665445963" y1="0" x2="318.1946665445963" y2="377.95999908447266" fill="rgb(0, 0, 0)" stroke="rgb(60, 60, 60)" stroke-width="1px" opacity="0.25"></line><line x1="397.7433331807455" y1="0" x2="397.7433331807455" y2="377.95999908447266" fill="rgb(0, 0, 0)" stroke="rgb(60, 60, 60)" stroke-width="1px" opacity="0.25"></line><line x1="477.29199981689453" y1="0" x2="477.29199981689453" y2="377.95999908447266" fill="rgb(0, 0, 0)" stroke="rgb(60, 60, 60)" stroke-width="1px" opacity="0.25"></line><line x1="556.8406664530437" y1="0" x2="556.8406664530437" y2="377.95999908447266" fill="rgb(0, 0, 0)" stroke="rgb(60, 60, 60)" stroke-width="1px" opacity="0.25"></line><line x1="636.3893330891926" y1="0" x2="636.3893330891926" y2="377.95999908447266" fill="rgb(0, 0, 0)" stroke="rgb(60, 60, 60)" stroke-width="1px" opacity="0.25"></line><line x1="715.9379997253418" y1="0" x2="715.9379997253418" y2="377.95999908447266" fill="rgb(0, 0, 0)" stroke="rgb(60, 60, 60)" stroke-width="1px" opacity="0.25"></line><line x1="795.486666361491" y1="0" x2="795.486666361491" y2="377.95999908447266" fill="rgb(0, 0, 0)" stroke="rgb(60, 60, 60)" stroke-width="1px" opacity="0.25"></line><line x1="875.0353329976399" y1="0" x2="875.0353329976399" y2="377.95999908447266" fill="rgb(0, 0, 0)" stroke="rgb(60, 60, 60)" stroke-width="1px" opacity="0.25"></line><line x1="954.5839996337891" y1="0" x2="954.5839996337891" y2="377.95999908447266" fill="rgb(0, 0, 0)" stroke="rgb(60, 60, 60)" stroke-width="1px" opacity="0.25"></line></g><g><line x1="0" y1="377.95999908447266" x2="954.5839996337891" y2="377.95999908447266" fill="rgb(0, 0, 0)" stroke="rgb(60, 60, 60)" stroke-width="1px" opacity="0.25"></line><line x1="0" y1="340.1639991760254" x2="954.5839996337891" y2="340.1639991760254" fill="rgb(0, 0, 0)" stroke="rgb(60, 60, 60)" stroke-width="1px" opacity="0.25"></line><line x1="0" y1="302.3679992675781" x2="954.5839996337891" y2="302.3679992675781" fill="rgb(0, 0, 0)" stroke="rgb(60, 60, 60)" stroke-width="1px" opacity="0.25"></line><line x1="0" y1="264.57199935913087" x2="954.5839996337891" y2="264.57199935913087" fill="rgb(0, 0, 0)" stroke="rgb(60, 60, 60)" stroke-width="1px" opacity="0.25"></line><line x1="0" y1="226.7759994506836" x2="954.5839996337891" y2="226.7759994506836" fill="rgb(0, 0, 0)" stroke="rgb(60, 60, 60)" stroke-width="1px" opacity="0.25"></line><line x1="0" y1="188.97999954223633" x2="954.5839996337891" y2="188.97999954223633" fill="rgb(0, 0, 0)" stroke="rgb(60, 60, 60)" stroke-width="1px" opacity="0.25"></line><line x1="0" y1="151.18399963378906" x2="954.5839996337891" y2="151.18399963378906" fill="rgb(0, 0, 0)" stroke="rgb(60, 60, 60)" stroke-width="1px" opacity="0.25"></line><line x1="0" y1="113.38799972534181" x2="954.5839996337891" y2="113.38799972534181" fill="rgb(0, 0, 0)" stroke="rgb(60, 60, 60)" stroke-width="1px" opacity="0.25"></line><line x1="0" y1="75.59199981689456" x2="954.5839996337891" y2="75.59199981689456" fill="rgb(0, 0, 0)" stroke="rgb(60, 60, 60)" stroke-width="1px" opacity="0.25"></line><line x1="0" y1="37.79599990844726" x2="954.5839996337891" y2="37.79599990844726" fill="rgb(0, 0, 0)" stroke="rgb(60, 60, 60)" stroke-width="1px" opacity="0.25"></line><line x1="0" y1="0" x2="954.5839996337891" y2="0" fill="rgb(0, 0, 0)" stroke="rgb(60, 60, 60)" stroke-width="1px" opacity="0.25"></line></g></g></g><g><g><line x1="0" y1="340.1639991760254" x2="954.5839996337891" y2="340.1639991760254" fill="rgb(0, 0, 0)" stroke="rgb(153, 153, 153)" stroke-width="1.5px"></line></g></g><g><g><line x1="79.54866663614908" y1="0" x2="79.54866663614908" y2="377.95999908447266" fill="rgb(0, 0, 0)" stroke="rgb(153, 153, 153)" stroke-width="1.5px"></line></g></g><g><g><g><g><g><path style="fill: none;" stroke="rgb(0, 153, 136)" stroke-width="2px" d="M79.54866663614908,27.793577376275707L95.45839996337891,164.17947673153125L111.36813329060872,209.52894500427882L127.27786661783854,218.4650258258433L143.18759994506834,222.30964977917128L159.09733327229816,223.60048021298948L175.00706659952797,224.67545697172667L190.91679992675782,224.9260603513229L206.82653325398763,225.03364363424825L222.73626658121745,225.05901035534006L238.64599990844727,225.074228135178L254.55573323567708,225.0822594283123L270.4654665629069,225.08453477363227L286.3751998901367,225.0851542983481L302.28493321736653,225.08575129489245L318.1946665445963,225.08610048155046L334.10439987182616,225.08614553789343L350.01413319905595,225.08614553789343L365.92386652628585,225.08612300972194L381.83359985351564,225.08612300972194L397.7433331807455,225.08612300972194L413.65306650797527,225.08612300972194L429.5627998352051,225.08612300972194L445.4725331624349,225.08612300972194L461.38226648966474,225.08612300972194L477.29199981689453,225.08612300972194L493.2017331441244,225.08612300972194L509.11146647135416,225.08612300972194L525.021199798584,225.08612300972194L540.9309331258138,225.08612300972194L556.8406664530437,225.08612300972194L572.7503997802734,225.08612300972194L588.6601331075033,225.08612300972194L604.5698664347331,225.08612300972194L620.479599761963,225.08612300972194L636.3893330891926,225.08612300972194L652.2990664164225,225.08612300972194L668.2087997436523,225.08612300972194L684.1185330708822,225.08612300972194L700.0282663981119,225.08612300972194L715.9379997253418,225.08612300972194L731.8477330525717,225.08612300972194L747.7574663798014,225.08612300972194L763.6671997070313,225.08612300972194L779.5769330342611,225.08612300972194L795.486666361491,225.08612300972194L811.3963996887206,225.08612300972194L827.3061330159505,225.08612300972194L843.2158663431803,225.08612300972194L859.1255996704102,225.08612300972194" fill="none"></path></g><g><path style="fill: none;" stroke="rgb(0, 119, 187)" stroke-width="2px" d="M79.54866663614908,-37.58644285729628L95.45839996337891,107.72456610001073L111.36813329060872,155.600242146285L127.27786661783854,184.91119550164657L143.18759994506834,193.44037248985373L159.09733327229816,199.70766474056458L175.00706659952797,203.63786195327734L190.91679992675782,209.92583506541118L206.82653325398763,210.77822222579343L222.73626658121745,212.10712526942083L238.64599990844727,213.40814970083588L254.55573323567708,214.00504486840973L270.4654665629069,213.0648541596657L286.3751998901367,213.47989066292902L302.28493321736653,212.9727589946361L318.1946665445963,213.10577658316774L334.10439987182616,212.90631215284188L350.01413319905595,212.88710688665114L365.92386652628585,212.91827461190027L381.83359985351564,212.91677648849654L397.7433331807455,212.89917072248122L413.65306650797527,212.9405099171557L429.5627998352051,212.9401607304977L445.4725331624349,212.9428979033331L461.38226648966474,212.9356663602865L477.29199981689453,212.9408253115565L493.2017331441244,212.93472017708413L509.11146647135416,212.93487787428452L525.021199798584,212.93517074051383L540.9309331258138,212.93604933920173L556.8406664530437,212.93591417017282L572.7503997802734,212.93651116671717L588.6601331075033,212.93686035337518L604.5698664347331,212.93687161746092L620.479599761963,212.9369729942326L636.3893330891926,212.9369955224041L652.2990664164225,212.93700678648983L668.2087997436523,212.93702931466132L684.1185330708822,212.93701805057557L700.0282663981119,212.93702931466132L715.9379997253418,212.93702931466132L731.8477330525717,212.93702931466132L747.7574663798014,212.93702931466132L763.6671997070313,212.93702931466132L779.5769330342611,212.93702931466132L795.486666361491,212.93702931466132L811.3963996887206,212.93702931466132L827.3061330159505,212.93702931466132L843.2158663431803,212.93702931466132L859.1255996704102,212.93702931466132" fill="none"></path></g><g><path style="fill: none;" stroke="rgb(51, 187, 238)" stroke-width="2px" d="M79.54866663614908,-15.55736048363218L95.45839996337891,1.0751659953776735L111.36813329060872,-13.586550985804422L127.27786661783854,84.46021902749554L143.18759994506834,95.32494787395409L159.09733327229816,77.26487875247095L175.00706659952797,96.61193725453414L190.91679992675782,91.38100847663564L206.82653325398763,117.58760232957194L222.73626658121745,82.84781020981846L238.64599990844727,101.53404985771986L254.55573323567708,93.81105475017976L270.4654665629069,100.83488805569105L286.3751998901367,79.37058694114931L302.28493321736653,88.4407441753052L318.1946665445963,99.8324745373062L334.10439987182616,98.2288066501652L350.01413319905595,85.90668533401605L365.92386652628585,83.4760758561848L381.83359985351564,90.84012960745859L397.7433331807455,87.34371233668445L413.65306650797527,75.46289537174981L429.5627998352051,77.71406796370512L445.4725331624349,77.81114185463285L461.38226648966474,75.00541579340926L477.29199981689453,81.66692851693152L493.2017331441244,77.53690642314915L509.11146647135416,72.20433053551152L525.021199798584,76.87831785796435L540.9309331258138,72.33997265602112L556.8406664530437,73.17036105694852L572.7503997802734,75.13488519493204L588.6601331075033,73.57152020657723L604.5698664347331,72.28257087507801L620.479599761963,72.99207310781831L636.3893330891926,73.04438352200587L652.2990664164225,70.47486533879975L668.2087997436523,70.90751887216412L684.1185330708822,71.51404483304769L700.0282663981119,71.61332648478093L715.9379997253418,69.36199619562522L731.8477330525717,69.94207408318572L747.7574663798014,68.52638125891336L763.6671997070313,69.30096737907307L779.5769330342611,69.64580609998994L795.486666361491,68.67858158546424L811.3963996887206,68.82332508725368L827.3061330159505,69.05338277445581L843.2158663431803,67.88290909679482L859.1255996704102,67.8210917942407" fill="none"></path></g><g><path style="fill: none;" stroke="rgb(238, 51, 119)" stroke-width="2px" d="M79.54866663614908,-130.41580099558854L95.45839996337891,203.2093423393804L111.36813329060872,289.81149147607607L127.27786661783854,310.06174942930534L143.18759994506834,317.67745130412794L159.09733327229816,318.6885226804165L175.00706659952797,318.714375165206L190.91679992675782,319.0387977307148L206.82653325398763,317.4059671255868L222.73626658121745,319.9817706686372L238.64599990844727,320.420863035014L254.55573323567708,319.73283437373084L270.4654665629069,319.89440360359794L286.3751998901367,320.14780610850113L302.28493321736653,321.52299750447605L318.1946665445963,320.6789725197468L334.10439987182616,322.13425578938217L350.01413319905595,319.8763838824316L365.92386652628585,319.9951143862097L381.83359985351564,321.38835647958683L397.7433331807455,320.2646555099603L413.65306650797527,322.92826400938316L429.5627998352051,320.09798505726263L445.4725331624349,321.0169035400822L461.38226648966474,322.0802754744833L477.29199981689453,322.9124576810652L493.2017331441244,319.11891072453597L509.11146647135416,319.1689795856608L525.021199798584,318.4960560633581L540.9309331258138,316.6841631032051L556.8406664530437,319.692275216994L572.7503997802734,321.8705959263998L588.6601331075033,320.52248761658166L604.5698664347331,323.29925230535093L620.479599761963,323.11794558124177L636.3893330891926,318.47984141193194L652.2990664164225,321.5251123365742L668.2087997436523,319.25083428873984L684.1185330708822,320.62095684613075L700.0282663981119,321.8753902028939L715.9379997253418,320.1096138177809L731.8477330525717,318.849441409332L747.7574663798014,321.24286673211697L763.6671997070313,320.4705883415237L779.5769330342611,319.80591857804876L795.486666361491,321.90102726204356L811.3963996887206,323.6389630512336L827.3061330159505,320.0444665698792L843.2158663431803,320.05083218633433L859.1255996704102,319.242117294386" fill="none"></path></g><g><path style="fill: none;" stroke="rgb(255, 112, 67)" stroke-width="2px" d="M79.54866663614908,-117.94871089593511L95.45839996337891,143.58720734290645L111.36813329060872,250.1478182916753L127.27786661783854,295.92072889167144L143.18759994506834,312.0843033210121L159.09733327229816,322.5558240543653L175.00706659952797,324.8359749149036L190.91679992675782,327.49767555980384L206.82653325398763,328.13496796288194L222.73626658121745,326.83186530764743L238.64599990844727,328.8696482432779L254.55573323567708,328.85302104471145L270.4654665629069,330.00222953650155L286.3751998901367,329.3796642215262L302.28493321736653,329.27981443746836L318.1946665445963,328.2625281018714L334.10439987182616,330.4104611239658L350.01413319905595,331.7860657710864L365.92386652628585,327.71496822183843L381.83359985351564,331.2265821522897L397.7433331807455,329.3564693569666L413.65306650797527,331.4806429022035L429.5627998352051,330.75015919775194L445.4725331624349,331.9290098351785L461.38226648966474,329.93084480112003L477.29199981689453,331.401207865543L493.2017331441244,330.64096374255473L509.11146647135416,328.3313404016715L525.021199798584,328.8613557641554L540.9309331258138,331.20237774404546L556.8406664530437,329.143454935498L572.7503997802734,330.8370968195223L588.6601331075033,328.6454154964153L604.5698664347331,329.16351697621053L620.479599761963,329.92914392417293L636.3893330891926,329.3111581640572L652.2990664164225,330.7626982371993L668.2087997436523,329.0018991699737L684.1185330708822,330.1672624727344L700.0282663981119,330.24757470007216L715.9379997253418,329.5049293030456L731.8477330525717,328.5131849858749L747.7574663798014,329.9166506450739L763.6671997070313,329.6760476616008L779.5769330342611,330.7390218329742L795.486666361491,331.50097176094704L811.3963996887206,331.11361534038485L827.3061330159505,329.6755865380908L843.2158663431803,331.7654123658724L859.1255996704102,330.32095529064617" fill="none"></path></g><g><path style="fill: none;" stroke="rgb(204, 51, 17)" stroke-width="2px" d="M79.54866663614908,-111.6146451449435L95.45839996337891,89.07516001248688L111.36813329060872,187.443012789873L127.27786661783854,213.8191198691462L143.18759994506834,254.71076425687986L159.09733327229816,271.55882338452705L175.00706659952797,272.210760507081L190.91679992675782,278.82321250515236L206.82653325398763,284.6009394292855L222.73626658121745,292.7165217172044L238.64599990844727,293.2752851385189L254.55573323567708,303.1121351847505L270.4654665629069,305.0975457537218L286.3751998901367,303.0563413520471L302.28493321736653,311.02527087564323L318.1946665445963,314.8960359559578L334.10439987182616,318.26981971724405L350.01413319905595,312.4296292136373L365.92386652628585,313.7134730982738L381.83359985351564,317.65965686467644L397.7433331807455,319.06230165362695L413.65306650797527,321.3954598936581L429.5627998352051,320.1411532578595L445.4725331624349,315.50362637294404L461.38226648966474,321.2126057657701L477.29199981689453,317.0622111649119L493.2017331441244,319.0656780633282L509.11146647135416,321.7699344241631L525.021199798584,324.57411167359714L540.9309331258138,322.6669724204281L556.8406664530437,325.7293591233559L572.7503997802734,325.8584018976312L588.6601331075033,324.6533207245375L604.5698664347331,324.9591786687322L620.479599761963,323.1617839949403L636.3893330891926,322.2848143754361L652.2990664164225,320.51933648859523L668.2087997436523,325.9604502904249L684.1185330708822,325.19164546227245L700.0282663981119,327.6389159309274L715.9379997253418,324.5731471862555L731.8477330525717,329.5844481163439L747.7574663798014,321.4608802956391L763.6671997070313,325.18309179716186L779.5769330342611,324.60404316543605L795.486666361491,325.3064504321694L811.3963996887206,327.8693115407018L827.3061330159505,326.10848572127253L843.2158663431803,325.46046709254625L859.1255996704102,324.2566362329699" fill="none"></path></g></g></g></g></g></g><g transform="translate(51, 377)" clip-path="url(#clip_1)"><clipPath id="clip_1"><rect width="954" height="22"></rect></clipPath><g><g><line x1="0" y1="0" x2="0" y2="5" style="visibility: inherit;" fill="rgb(0, 0, 0)" stroke="rgb(204, 204, 204)" stroke-width="1px"></line><line x1="79.54866663614908" y1="0" x2="79.54866663614908" y2="5" style="visibility: inherit;" fill="rgb(0, 0, 0)" stroke="rgb(204, 204, 204)" stroke-width="1px"></line><line x1="159.09733327229816" y1="0" x2="159.09733327229816" y2="5" style="visibility: inherit;" fill="rgb(0, 0, 0)" stroke="rgb(204, 204, 204)" stroke-width="1px"></line><line x1="238.64599990844727" y1="0" x2="238.64599990844727" y2="5" style="visibility: inherit;" fill="rgb(0, 0, 0)" stroke="rgb(204, 204, 204)" stroke-width="1px"></line><line x1="318.1946665445963" y1="0" x2="318.1946665445963" y2="5" style="visibility: inherit;" fill="rgb(0, 0, 0)" stroke="rgb(204, 204, 204)" stroke-width="1px"></line><line x1="397.7433331807455" y1="0" x2="397.7433331807455" y2="5" style="visibility: inherit;" fill="rgb(0, 0, 0)" stroke="rgb(204, 204, 204)" stroke-width="1px"></line><line x1="477.29199981689453" y1="0" x2="477.29199981689453" y2="5" style="visibility: inherit;" fill="rgb(0, 0, 0)" stroke="rgb(204, 204, 204)" stroke-width="1px"></line><line x1="556.8406664530437" y1="0" x2="556.8406664530437" y2="5" style="visibility: inherit;" fill="rgb(0, 0, 0)" stroke="rgb(204, 204, 204)" stroke-width="1px"></line><line x1="636.3893330891926" y1="0" x2="636.3893330891926" y2="5" style="visibility: inherit;" fill="rgb(0, 0, 0)" stroke="rgb(204, 204, 204)" stroke-width="1px"></line><line x1="715.9379997253418" y1="0" x2="715.9379997253418" y2="5" style="visibility: inherit;" fill="rgb(0, 0, 0)" stroke="rgb(204, 204, 204)" stroke-width="1px"></line><line x1="795.486666361491" y1="0" x2="795.486666361491" y2="5" style="visibility: inherit;" fill="rgb(0, 0, 0)" stroke="rgb(204, 204, 204)" stroke-width="1px"></line><line x1="875.0353329976399" y1="0" x2="875.0353329976399" y2="5" style="visibility: inherit;" fill="rgb(0, 0, 0)" stroke="rgb(204, 204, 204)" stroke-width="1px"></line><line x1="954.5839996337891" y1="0" x2="954.5839996337891" y2="5" style="visibility: inherit;" fill="rgb(0, 0, 0)" stroke="rgb(204, 204, 204)" stroke-width="1px"></line></g><g transform="translate(0, 8)"><text style="text-anchor: middle; visibility: hidden; font-family: Roboto, sans-serif; font-size: 12px; font-weight: 200;" x="0" y="0" dx="0em" dy="0.95em" fill="rgb(50, 49, 63)" stroke="none" stroke-width="1px">-5</text><text style="text-anchor: middle; visibility: inherit; font-family: Roboto, sans-serif; font-size: 12px; font-weight: 200;" x="79.54866663614908" y="0" dx="0em" dy="0.95em" fill="rgb(50, 49, 63)" stroke="none" stroke-width="1px">0</text><text style="text-anchor: middle; visibility: inherit; font-family: Roboto, sans-serif; font-size: 12px; font-weight: 200;" x="159.09733327229816" y="0" dx="0em" dy="0.95em" fill="rgb(50, 49, 63)" stroke="none" stroke-width="1px">5</text><text style="text-anchor: middle; visibility: inherit; font-family: Roboto, sans-serif; font-size: 12px; font-weight: 200;" x="238.64599990844727" y="0" dx="0em" dy="0.95em" fill="rgb(50, 49, 63)" stroke="none" stroke-width="1px">10</text><text style="text-anchor: middle; visibility: inherit; font-family: Roboto, sans-serif; font-size: 12px; font-weight: 200;" x="318.1946665445963" y="0" dx="0em" dy="0.95em" fill="rgb(50, 49, 63)" stroke="none" stroke-width="1px">15</text><text style="text-anchor: middle; visibility: inherit; font-family: Roboto, sans-serif; font-size: 12px; font-weight: 200;" x="397.7433331807455" y="0" dx="0em" dy="0.95em" fill="rgb(50, 49, 63)" stroke="none" stroke-width="1px">20</text><text style="text-anchor: middle; visibility: inherit; font-family: Roboto, sans-serif; font-size: 12px; font-weight: 200;" x="477.29199981689453" y="0" dx="0em" dy="0.95em" fill="rgb(50, 49, 63)" stroke="none" stroke-width="1px">25</text><text style="text-anchor: middle; visibility: inherit; font-family: Roboto, sans-serif; font-size: 12px; font-weight: 200;" x="556.8406664530437" y="0" dx="0em" dy="0.95em" fill="rgb(50, 49, 63)" stroke="none" stroke-width="1px">30</text><text style="text-anchor: middle; visibility: inherit; font-family: Roboto, sans-serif; font-size: 12px; font-weight: 200;" x="636.3893330891926" y="0" dx="0em" dy="0.95em" fill="rgb(50, 49, 63)" stroke="none" stroke-width="1px">35</text><text style="text-anchor: middle; visibility: inherit; font-family: Roboto, sans-serif; font-size: 12px; font-weight: 200;" x="715.9379997253418" y="0" dx="0em" dy="0.95em" fill="rgb(50, 49, 63)" stroke="none" stroke-width="1px">40</text><text style="text-anchor: middle; visibility: inherit; font-family: Roboto, sans-serif; font-size: 12px; font-weight: 200;" x="795.486666361491" y="0" dx="0em" dy="0.95em" fill="rgb(50, 49, 63)" stroke="none" stroke-width="1px">45</text><text style="text-anchor: middle; visibility: inherit; font-family: Roboto, sans-serif; font-size: 12px; font-weight: 200;" x="875.0353329976399" y="0" dx="0em" dy="0.95em" fill="rgb(50, 49, 63)" stroke="none" stroke-width="1px">50</text><text style="text-anchor: middle; visibility: hidden; font-family: Roboto, sans-serif; font-size: 12px; font-weight: 200;" x="954.5839996337891" y="0" dx="0em" dy="0.95em" fill="rgb(50, 49, 63)" stroke="none" stroke-width="1px">55</text></g><line x1="0" y1="0" x2="954.5839996337891" y2="0" fill="rgb(0, 0, 0)" stroke="rgb(204, 204, 204)" stroke-width="1px"></line></g></g></g></g></svg>