<svg viewBox="0 0 1006 400" xmlns="http://www.w3.org/2000/svg"><g><g><g><g><g><line x1="51.41600036621094" y1="377.95999908447266" x2="46.41600036621094" y2="377.95999908447266" style="visibility: inherit;" fill="rgb(0, 0, 0)" stroke="rgb(204, 204, 204)" stroke-width="1px"></line><line x1="51.41600036621094" y1="335.96444363064256" x2="46.41600036621094" y2="335.96444363064256" style="visibility: inherit;" fill="rgb(0, 0, 0)" stroke="rgb(204, 204, 204)" stroke-width="1px"></line><line x1="51.41600036621094" y1="293.9688881768122" x2="46.41600036621094" y2="293.9688881768122" style="visibility: inherit;" fill="rgb(0, 0, 0)" stroke="rgb(204, 204, 204)" stroke-width="1px"></line><line x1="51.41600036621094" y1="251.97333272298184" x2="46.41600036621094" y2="251.97333272298184" style="visibility: inherit;" fill="rgb(0, 0, 0)" stroke="rgb(204, 204, 204)" stroke-width="1px"></line><line x1="51.41600036621094" y1="209.9777772691515" x2="46.41600036621094" y2="209.9777772691515" style="visibility: inherit;" fill="rgb(0, 0, 0)" stroke="rgb(204, 204, 204)" stroke-width="1px"></line><line x1="51.41600036621094" y1="167.98222181532117" x2="46.41600036621094" y2="167.98222181532117" style="visibility: inherit;" fill="rgb(0, 0, 0)" stroke="rgb(204, 204, 204)" stroke-width="1px"></line><line x1="51.41600036621094" y1="125.98666636149082" x2="46.41600036621094" y2="125.98666636149082" style="visibility: inherit;" fill="rgb(0, 0, 0)" stroke="rgb(204, 204, 204)" stroke-width="1px"></line><line x1="51.41600036621094" y1="83.99111090766071" x2="46.41600036621094" y2="83.99111090766071" style="visibility: inherit;" fill="rgb(0, 0, 0)" stroke="rgb(204, 204, 204)" stroke-width="1px"></line><line x1="51.41600036621094" y1="41.995555453830356" x2="46.41600036621094" y2="41.995555453830356" style="visibility: inherit;" fill="rgb(0, 0, 0)" stroke="rgb(204, 204, 204)" stroke-width="1px"></line><line x1="51.41600036621094" y1="0" x2="46.41600036621094" y2="0" style="visibility: inherit;" fill="rgb(0, 0, 0)" stroke="rgb(204, 204, 204)" stroke-width="1px"></line></g><g transform="translate(41.41600036621094, 0)"><text style="text-anchor: end; visibility: hidden; font-family: Roboto, sans-serif; font-size: 12px; font-weight: 200;" x="0" y="377.95999908447266" dx="0em" dy="0.3em" fill="rgb(50, 49, 63)" stroke="none" stroke-width="1px">0.8</text><text style="text-anchor: end; visibility: inherit; font-family: Roboto, sans-serif; font-size: 12px; font-weight: 200;" x="0" y="335.96444363064256" dx="0em" dy="0.3em" fill="rgb(50, 49, 63)" stroke="none" stroke-width="1px">0.82</text><text style="text-anchor: end; visibility: inherit; font-family: Roboto, sans-serif; font-size: 12px; font-weight: 200;" x="0" y="293.9688881768122" dx="0em" dy="0.3em" fill="rgb(50, 49, 63)" stroke="none" stroke-width="1px">0.84</text><text style="text-anchor: end; visibility: inherit; font-family: Roboto, sans-serif; font-size: 12px; font-weight: 200;" x="0" y="251.97333272298184" dx="0em" dy="0.3em" fill="rgb(50, 49, 63)" stroke="none" stroke-width="1px">0.86</text><text style="text-anchor: end; visibility: inherit; font-family: Roboto, sans-serif; font-size: 12px; font-weight: 200;" x="0" y="209.9777772691515" dx="0em" dy="0.3em" fill="rgb(50, 49, 63)" stroke="none" stroke-width="1px">0.88</text><text style="text-anchor: end; visibility: inherit; font-family: Roboto, sans-serif; font-size: 12px; font-weight: 200;" x="0" y="167.98222181532117" dx="0em" dy="0.3em" fill="rgb(50, 49, 63)" stroke="none" stroke-width="1px">0.9</text><text style="text-anchor: end; visibility: inherit; font-family: Roboto, sans-serif; font-size: 12px; font-weight: 200;" x="0" y="125.98666636149082" dx="0em" dy="0.3em" fill="rgb(50, 49, 63)" stroke="none" stroke-width="1px">0.92</text><text style="text-anchor: end; visibility: inherit; font-family: Roboto, sans-serif; font-size: 12px; font-weight: 200;" x="0" y="83.99111090766071" dx="0em" dy="0.3em" fill="rgb(50, 49, 63)" stroke="none" stroke-width="1px">0.94</text><text style="text-anchor: end; visibility: inherit; font-family: Roboto, sans-serif; font-size: 12px; font-weight: 200;" x="0" y="41.995555453830356" dx="0em" dy="0.3em" fill="rgb(50, 49, 63)" stroke="none" stroke-width="1px">0.96</text><text style="text-anchor: end; visibility: hidden; font-family: Roboto, sans-serif; font-size: 12px; font-weight: 200;" x="0" y="0" dx="0em" dy="0.3em" fill="rgb(50, 49, 63)" stroke="none" stroke-width="1px">0.98</text></g><line x1="51.41600036621094" y1="0" x2="51.41600036621094" y2="377.95999908447266" fill="rgb(0, 0, 0)" stroke="rgb(204, 204, 204)" stroke-width="1px"></line></g></g><g transform="translate(51, 0)" clip-path="url(#clip_0)"><clipPath id="clip_0"><rect width="954" height="377"></rect></clipPath><g><g><g><line x1="0" y1="0" x2="0" y2="377.95999908447266" fill="rgb(0, 0, 0)" stroke="rgb(60, 60, 60)" stroke-width="1px" opacity="0.25"></line><line x1="79.54866663614908" y1="0" x2="79.54866663614908" y2="377.95999908447266" fill="rgb(0, 0, 0)" stroke="rgb(60, 60, 60)" stroke-width="1px" opacity="0.25"></line><line x1="159.09733327229816" y1="0" x2="159.09733327229816" y2="377.95999908447266" fill="rgb(0, 0, 0)" stroke="rgb(60, 60, 60)" stroke-width="1px" opacity="0.25"></line><line x1="238.64599990844727" y1="0" x2="238.64599990844727" y2="377.95999908447266" fill="rgb(0, 0, 0)" stroke="rgb(60, 60, 60)" stroke-width="1px" opacity="0.25"></line><line x1="318.1946665445963" y1="0" x2="318.1946665445963" y2="377.95999908447266" fill="rgb(0, 0, 0)" stroke="rgb(60, 60, 60)" stroke-width="1px" opacity="0.25"></line><line x1="397.7433331807455" y1="0" x2="397.7433331807455" y2="377.95999908447266" fill="rgb(0, 0, 0)" stroke="rgb(60, 60, 60)" stroke-width="1px" opacity="0.25"></line><line x1="477.29199981689453" y1="0" x2="477.29199981689453" y2="377.95999908447266" fill="rgb(0, 0, 0)" stroke="rgb(60, 60, 60)" stroke-width="1px" opacity="0.25"></line><line x1="556.8406664530437" y1="0" x2="556.8406664530437" y2="377.95999908447266" fill="rgb(0, 0, 0)" stroke="rgb(60, 60, 60)" stroke-width="1px" opacity="0.25"></line><line x1="636.3893330891926" y1="0" x2="636.3893330891926" y2="377.95999908447266" fill="rgb(0, 0, 0)" stroke="rgb(60, 60, 60)" stroke-width="1px" opacity="0.25"></line><line x1="715.9379997253418" y1="0" x2="715.9379997253418" y2="377.95999908447266" fill="rgb(0, 0, 0)" stroke="rgb(60, 60, 60)" stroke-width="1px" opacity="0.25"></line><line x1="795.486666361491" y1="0" x2="795.486666361491" y2="377.95999908447266" fill="rgb(0, 0, 0)" stroke="rgb(60, 60, 60)" stroke-width="1px" opacity="0.25"></line><line x1="875.0353329976399" y1="0" x2="875.0353329976399" y2="377.95999908447266" fill="rgb(0, 0, 0)" stroke="rgb(60, 60, 60)" stroke-width="1px" opacity="0.25"></line><line x1="954.5839996337891" y1="0" x2="954.5839996337891" y2="377.95999908447266" fill="rgb(0, 0, 0)" stroke="rgb(60, 60, 60)" stroke-width="1px" opacity="0.25"></line></g><g><line x1="0" y1="377.95999908447266" x2="954.5839996337891" y2="377.95999908447266" fill="rgb(0, 0, 0)" stroke="rgb(60, 60, 60)" stroke-width="1px" opacity="0.25"></line><line x1="0" y1="335.96444363064256" x2="954.5839996337891" y2="335.96444363064256" fill="rgb(0, 0, 0)" stroke="rgb(60, 60, 60)" stroke-width="1px" opacity="0.25"></line><line x1="0" y1="293.9688881768122" x2="954.5839996337891" y2="293.9688881768122" fill="rgb(0, 0, 0)" stroke="rgb(60, 60, 60)" stroke-width="1px" opacity="0.25"></line><line x1="0" y1="251.97333272298184" x2="954.5839996337891" y2="251.97333272298184" fill="rgb(0, 0, 0)" stroke="rgb(60, 60, 60)" stroke-width="1px" opacity="0.25"></line><line x1="0" y1="209.9777772691515" x2="954.5839996337891" y2="209.9777772691515" fill="rgb(0, 0, 0)" stroke="rgb(60, 60, 60)" stroke-width="1px" opacity="0.25"></line><line x1="0" y1="167.98222181532117" x2="954.5839996337891" y2="167.98222181532117" fill="rgb(0, 0, 0)" stroke="rgb(60, 60, 60)" stroke-width="1px" opacity="0.25"></line><line x1="0" y1="125.98666636149082" x2="954.5839996337891" y2="125.98666636149082" fill="rgb(0, 0, 0)" stroke="rgb(60, 60, 60)" stroke-width="1px" opacity="0.25"></line><line x1="0" y1="83.99111090766071" x2="954.5839996337891" y2="83.99111090766071" fill="rgb(0, 0, 0)" stroke="rgb(60, 60, 60)" stroke-width="1px" opacity="0.25"></line><line x1="0" y1="41.995555453830356" x2="954.5839996337891" y2="41.995555453830356" fill="rgb(0, 0, 0)" stroke="rgb(60, 60, 60)" stroke-width="1px" opacity="0.25"></line><line x1="0" y1="0" x2="954.5839996337891" y2="0" fill="rgb(0, 0, 0)" stroke="rgb(60, 60, 60)" stroke-width="1px" opacity="0.25"></line></g></g></g><g><g><line x1="0" y1="2057.782217237685" x2="954.5839996337891" y2="2057.782217237685" fill="rgb(0, 0, 0)" stroke="rgb(153, 153, 153)" stroke-width="1.5px"></line></g></g><g><g><line x1="79.54866663614908" y1="0" x2="79.54866663614908" y2="377.95999908447266" fill="rgb(0, 0, 0)" stroke="rgb(153, 153, 153)" stroke-width="1.5px"></line></g></g><g><g><g><g><g><path style="fill: none;" stroke="rgb(0, 119, 187)" stroke-width="2px" d="M79.54866663614908,334.23717367908534L95.45839996337891,330.5261267638809L111.36813329060872,326.6360102588389L127.27786661783854,326.1601316998038L143.18759994506834,300.86650584602614L159.09733327229816,292.672723588072L175.00706659952797,285.7868324381313L190.91679992675782,278.9259623802419L206.82653325398763,268.1223812870361L222.73626658121745,251.06614521941276L238.64599990844727,238.94834307694023L254.55573323567708,230.19112220095343L270.4654665629069,226.8947769931338L286.3751998901367,224.4875988055325L302.28493321736653,227.14880954673862L318.1946665445963,222.48143796823993L334.10439987182616,219.89781442483255L350.01413319905595,222.6666588590683L365.92386652628585,229.51003132837553L381.83359985351564,216.9897399231888L397.7433331807455,213.14847858751733L413.65306650797527,210.41193001669558L429.5627998352051,207.69046542334394L445.4725331624349,207.35307654646334L461.38226648966474,206.71880299969305L477.29199981689453,208.28147335018937L493.2017331441244,207.92360254300047L509.11146647135416,207.92480043373055L525.021199798584,208.3573593428731L540.9309331258138,202.78715320593832L556.8406664530437,202.0360206893326L572.7503997802734,197.69888091448433L588.6601331075033,198.33529742039255L604.5698664347331,198.28535733865934L620.479599761963,199.76678331012633L636.3893330891926,198.9283288572516L652.2990664164225,198.42525619106172L668.2087997436523,198.77112255723344L684.1185330708822,198.54685242169484L700.0282663981119,201.00323031531272L715.9379997253418,199.67019706794284L731.8477330525717,200.3817671145416L747.7574663798014,202.1041791282346L763.6671997070313,201.84215635032905L779.5769330342611,202.54862271582596L795.486666361491,203.18842254312068L811.3963996887206,203.78817238490743L827.3061330159505,201.55708231874874L843.2158663431803,202.37757829681522L859.1255996704102,203.30166583710903" fill="none"></path></g><g><path style="fill: none;" stroke="rgb(0, 153, 136)" stroke-width="2px" d="M79.54866663614908,349.3511987716869L95.45839996337891,328.4344173306501L111.36813329060872,317.90026222388815L127.27786661783854,280.7563791106798L143.18759994506834,256.19177262649345L159.09733327229816,252.70054596814364L175.00706659952797,240.05061952827378L190.91679992675782,227.85993395081164L206.82653325398763,219.3691921469069L222.73626658121745,214.76431023532632L238.64599990844727,213.1027469231591L254.55573323567708,211.46055237707068L270.4654665629069,209.3965145326733L286.3751998901367,208.59199716545842L302.28493321736653,205.51748157361195L318.1946665445963,203.8896785964899L334.10439987182616,202.91329076148384L350.01413319905595,201.67973802667038L365.92386652628585,203.314901331344L381.83359985351564,203.6482018983883L397.7433331807455,202.98447546036297L413.65306650797527,203.01809461624345L429.5627998352051,203.68598090325852L445.4725331624349,203.43899626917243L461.38226648966474,204.1544386625696L477.29199981689453,203.93599173046607L493.2017331441244,203.80492380968786L509.11146647135416,203.72628314307477L525.021199798584,203.89501886160224L540.9309331258138,203.78034019716387L556.8406664530437,203.71153301472643L572.7503997802734,204.10203869892717L588.6601331075033,204.12047213382215L604.5698664347331,204.13153219419556L620.479599761963,204.13816823021668L636.3893330891926,204.1421498517564L652.2990664164225,204.1445388246541L668.2087997436523,204.14597220838294L684.1185330708822,204.14683223861707L700.0282663981119,204.1473482567563L715.9379997253418,204.14765786763957L731.8477330525717,204.147843634169L747.7574663798014,204.1479550940867L763.6671997070313,204.1480219700374L779.5769330342611,204.14806209560805L795.486666361491,204.14808617095045L811.3963996887206,204.14810061615597L827.3061330159505,204.14810928327898L843.2158663431803,204.148114483553L859.1255996704102,204.14811760371717" fill="none"></path></g><g><path style="fill: none;" stroke="rgb(51, 187, 238)" stroke-width="2px" d="M79.54866663614908,384.4374491375742L95.45839996337891,307.8549639684702L111.36813329060872,273.94602703233517L127.27786661783854,247.0791361133126L143.18759994506834,233.60946934514172L159.09733327229816,221.47463776384024L175.00706659952797,215.2329337766729L190.91679992675782,211.60164748352167L206.82653325398763,209.46230775782033L222.73626658121745,207.75811894365762L238.64599990844727,206.09215620799057L254.55573323567708,205.3128462502292L270.4654665629069,204.8463473838273L286.3751998901367,204.56683830893164L302.28493321736653,204.39927311230505L318.1946665445963,204.29878443200738L334.10439987182616,204.23850937023542L350.01413319905595,204.20235086347034L365.92386652628585,204.18065810979857L381.83359985351564,204.16764330362267L397.7433331807455,204.15983472446268L413.65306650797527,204.15514968659755L429.5627998352051,204.152338703345L445.4725331624349,204.15065212760084L461.38226648966474,204.14964018726877L477.29199981689453,204.1490330249111L493.2017331441244,204.14866872815884L509.11146647135416,204.14845015034655L525.021199798584,204.148319003745L540.9309331258138,204.14824031581503L556.8406664530437,204.14819310306788L572.7503997802734,204.1481647754241L588.6601331075033,204.14814777883893L604.5698664347331,204.14813758088846L620.479599761963,204.1481314621185L636.3893330891926,204.1481277908566L652.2990664164225,204.14812558809925L668.2087997436523,204.1481242664451L684.1185330708822,204.14812347345253L700.0282663981119,204.1481229976565L715.9379997253418,204.14812271217932L731.8477330525717,204.14812254089279L747.7574663798014,204.1481224381211L763.6671997070313,204.14812237645796L779.5769330342611,204.14812233946031L795.486666361491,204.1481223172617L811.3963996887206,204.14812230394253L827.3061330159505,204.1481222959506L843.2158663431803,204.148122291156L859.1255996704102,204.14812228827859" fill="none"></path></g><g><path style="fill: none;" stroke="rgb(255, 112, 67)" stroke-width="2px" d="M79.54866663614908,492.6263644063503L95.45839996337891,370.1826234740984L111.36813329060872,318.007812531905L127.27786661783854,282.29820652290744L143.18759994506834,253.53941334526667L159.09733327229816,230.06068875095286L175.00706659952797,220.9686020141503L190.91679992675782,210.1094300217896L206.82653325398763,194.07889373130243L222.73626658121745,169.08142808285731L238.64599990844727,147.83124340000708L254.55573323567708,134.56283678263352L270.4654665629069,125.95856103793206L286.3751998901367,122.5984434457452L302.28493321736653,119.82840909395948L318.1946665445963,120.05606646994558L334.10439987182616,120.66473998549262L350.01413319905595,118.3860038085516L365.92386652628585,122.1175964389782L381.83359985351564,115.85881995239832L397.7433331807455,111.06512902682768L413.65306650797527,106.77274214858166L429.5627998352051,105.14148427184895L445.4725331624349,105.8622210376768L461.38226648966474,106.67228420176787L477.29199981689453,103.94825096432496L493.2017331441244,103.91889276289683L509.11146647135416,104.93982720448419L525.021199798584,103.47523922935363L540.9309331258138,101.08584740112026L556.8406664530437,98.4248276343517L572.7503997802734,96.54501183078652L588.6601331075033,95.03945014707116L604.5698664347331,93.19198252017999L620.479599761963,92.93321455832977L636.3893330891926,92.21144535928713L652.2990664164225,92.91140068951036L668.2087997436523,94.46434066434827L684.1185330708822,94.07430172770098L700.0282663981119,92.9905157367286L715.9379997253418,94.70064582792986L731.8477330525717,94.68812511322326L747.7574663798014,92.2258429935103L763.6671997070313,91.03172793165517L779.5769330342611,90.97613532089872L795.486666361491,90.37632139808038L811.3963996887206,91.14939981972475L827.3061330159505,89.72498560140299L843.2158663431803,91.04185255117538L859.1255996704102,88.81069461188292" fill="none"></path></g><g><path style="fill: none;" stroke="rgb(238, 51, 119)" stroke-width="2px" d="M95.45839996337891,378.4733660500064L111.36813329060872,328.4511831943266L127.27786661783854,256.70216879925806L143.18759994506834,206.2850049004083L159.09733327229816,179.5579294206964L175.00706659952797,163.66277343920828L190.91679992675782,143.5642226244068L206.82653325398763,130.19737458783214L222.73626658121745,118.74938270946832L238.64599990844727,112.68314564071282L254.55573323567708,106.9758404944301L270.4654665629069,102.61405353558231L286.3751998901367,98.39431426897109L302.28493321736653,95.86458803311608L318.1946665445963,94.9141820298515L334.10439987182616,92.36104498338555L350.01413319905595,92.24580419720685L365.92386652628585,92.08224339278931L381.83359985351564,91.9841132890836L397.7433331807455,91.16992645789774L413.65306650797527,90.77584510281929L429.5627998352051,88.83991099387639L445.4725331624349,87.96161586493804L461.38226648966474,88.09551975612004L477.29199981689453,88.45911653983492L493.2017331441244,88.20518338082216L509.11146647135416,88.14724177955407L525.021199798584,87.64043638112898L540.9309331258138,88.46932028732299L556.8406664530437,86.60629858031466L572.7503997802734,87.66000136780526L588.6601331075033,86.87600193426385L604.5698664347331,87.82182332341304L620.479599761963,89.23902871996738L636.3893330891926,86.50161543984964L652.2990664164225,84.95358556025649L668.2087997436523,85.91307897949379L684.1185330708822,85.1669721108971L700.0282663981119,84.81372606075185L715.9379997253418,84.6961464382622L731.8477330525717,84.53123065756338L747.7574663798014,83.96019083994526L763.6671997070313,83.71198501931875L779.5769330342611,84.79044637219006L795.486666361491,85.34310511401262L811.3963996887206,87.09092134387402L827.3061330159505,86.15688167803128L843.2158663431803,86.72947471642671L859.1255996704102,87.07303053945878" fill="none"></path></g><g><path style="fill: none;" stroke="rgb(204, 51, 17)" stroke-width="2px" d="M79.54866663614908,492.3903192317935L95.45839996337891,332.3282866152786L111.36813329060872,256.71542914445337L127.27786661783854,203.831767583057L143.18759994506834,173.27469279290938L159.09733327229816,153.66356539497326L175.00706659952797,141.1394682349156L190.91679992675782,134.5253898118498L206.82653325398763,129.77040198990233L222.73626658121745,129.13298991211448L238.64599990844727,128.4687327375887L254.55573323567708,125.7062233363178L270.4654665629069,126.22692663258108L286.3751998901367,125.40505770971609L302.28493321736653,125.38466116567315L318.1946665445963,124.1446981771171L334.10439987182616,123.1176421354239L350.01413319905595,125.99519299625727L365.92386652628585,126.21085541846008L381.83359985351564,124.64070712886709L397.7433331807455,125.96463815576855L413.65306650797527,125.15389993344236L429.5627998352051,124.28983863068083L445.4725331624349,124.99879687718332L461.38226648966474,124.85765964557686L477.29199981689453,125.15065048694994L493.2017331441244,124.38231306997511L509.11146647135416,124.67660608287794L525.021199798584,125.70289465383995L540.9309331258138,124.99686434727514L556.8406664530437,125.1397547573107L572.7503997802734,124.84781668185327L588.6601331075033,123.91735931940347L604.5698664347331,124.96414210073974L620.479599761963,125.49779367890068L636.3893330891926,125.6291484783328L652.2990664164225,125.99121556834585L668.2087997436523,125.45311125953337L684.1185330708822,126.16879738328515L700.0282663981119,125.65407841962981L715.9379997253418,123.17373155942L731.8477330525717,123.10174442998553L747.7574663798014,124.28593699779363L763.6671997070313,125.3740747550123L779.5769330342611,124.51636841710955L795.486666361491,124.75703911045012L811.3963996887206,124.52376924713991L827.3061330159505,125.04473381793338L843.2158663431803,123.46900122652592L859.1255996704102,123.37332430010588" fill="none"></path></g></g></g></g><g opacity="0.2"><g><g><g><path style="fill: none;" stroke="rgb(0, 119, 187)" stroke-width="2px" d="M79.54866663614908,334.23717367908534L95.45839996337891,328.2994986147582L111.36813329060872,322.9014984139987L127.27786661783854,325.60049851437844L143.18759994506834,267.84314793133456L159.09733327229816,281.3377729637085L175.00706659952797,275.9398979194573L190.91679992675782,268.92274797148644L206.82653325398763,252.18919766214856L222.73626658121745,225.73962246096838L238.64599990844727,220.88154743679308L254.55573323567708,217.10294729626148L270.4654665629069,221.96102232043677L286.3751998901367,220.88154743679308L302.28493321736653,231.1374975052196L318.1946665445963,215.48367239254188L334.10439987182616,216.02347241261782L350.01413319905595,226.8192225011203L365.92386652628585,239.77404751341828L381.83359985351564,198.2104472196363L397.7433331807455,207.38679724791095L413.65306650797527,206.30719720775903L429.5627998352051,203.60832226388754L445.4725331624349,206.84699722783498L461.38226648966474,205.76739718768306L477.29199981689453,210.62547221185835L493.2017331441244,207.38679724791095L509.11146647135416,207.92659726798686L525.021199798584,209.00619730813878L540.9309331258138,194.4318470791047L556.8406664530437,200.9093221635078L572.7503997802734,191.19317211515727L588.6601331075033,199.28992210327996L604.5698664347331,198.2104472196363L620.479599761963,201.9889222036597L636.3893330891926,197.67064719956034L652.2990664164225,197.67064719956034L668.2087997436523,199.28992210327996L684.1185330708822,198.2104472196363L700.0282663981119,204.6877971475312L715.9379997253418,197.67064719956034L731.8477330525717,201.44912218358377L747.7574663798014,204.6877971475312L763.6671997070313,201.44912218358377L779.5769330342611,203.60832226388754L795.486666361491,204.1481222839635L811.3963996887206,204.6877971475312L827.3061330159505,198.2104472196363L843.2158663431803,203.60832226388754L859.1255996704102,204.6877971475312" fill="none"></path></g><g><path style="fill: none;" stroke="rgb(0, 153, 136)" stroke-width="2px" d="M79.54866663614908,349.3511987716871L95.45839996337891,315.8843484660279L111.36813329060872,307.78747332139693L127.27786661783854,237.0751725695468L143.18759994506834,224.12022240074054L159.09733327229816,247.87092265804924L175.00706659952797,221.96102232043677L190.91679992675782,210.08579734829067L206.82653325398763,206.84699722783498L222.73626658121745,207.92659726798686L238.64599990844727,210.62547221185835L254.55573323567708,209.00619730813878L270.4654665629069,206.30719720775903L286.3751998901367,207.38679724791095L302.28493321736653,200.9093221635078L318.1946665445963,201.44912218358377L334.10439987182616,201.44912218358377L350.01413319905595,199.8297221233559L365.92386652628585,205.76739718768306L381.83359985351564,204.1481222839635L397.7433331807455,201.9889222036597L413.65306650797527,203.06852224381157L429.5627998352051,204.6877971475312L445.4725331624349,203.06852224381157L461.38226648966474,205.22759716760714L477.29199981689453,203.60832226388754L493.2017331441244,203.60832226388754L509.11146647135416,203.60832226388754L525.021199798584,204.1481222839635L540.9309331258138,203.60832226388754L556.8406664530437,203.60832226388754L572.7503997802734,204.6877971475312L588.6601331075033,204.1481222839635L604.5698664347331,204.1481222839635L620.479599761963,204.1481222839635L636.3893330891926,204.1481222839635L652.2990664164225,204.1481222839635L668.2087997436523,204.1481222839635L684.1185330708822,204.1481222839635L700.0282663981119,204.1481222839635L715.9379997253418,204.1481222839635L731.8477330525717,204.1481222839635L747.7574663798014,204.1481222839635L763.6671997070313,204.1481222839635L779.5769330342611,204.1481222839635L795.486666361491,204.1481222839635L811.3963996887206,204.1481222839635L827.3061330159505,204.1481222839635L843.2158663431803,204.1481222839635L859.1255996704102,204.1481222839635" fill="none"></path></g><g><path style="fill: none;" stroke="rgb(51, 187, 238)" stroke-width="2px" d="M79.54866663614908,384.4374491375742L95.45839996337891,261.9054728670074L111.36813329060872,241.3934475736461L127.27786661783854,215.48367239254188L143.18759994506834,216.02347241261782L159.09733327229816,204.6877971475312L175.00706659952797,206.30719720775903L190.91679992675782,206.30719720775903L206.82653325398763,206.30719720775903L222.73626658121745,205.22759716760714L238.64599990844727,203.60832226388754L254.55573323567708,204.1481222839635L270.4654665629069,204.1481222839635L286.3751998901367,204.1481222839635L302.28493321736653,204.1481222839635L318.1946665445963,204.1481222839635L334.10439987182616,204.1481222839635L350.01413319905595,204.1481222839635L365.92386652628585,204.1481222839635L381.83359985351564,204.1481222839635L397.7433331807455,204.1481222839635L413.65306650797527,204.1481222839635L429.5627998352051,204.1481222839635L445.4725331624349,204.1481222839635L461.38226648966474,204.1481222839635L477.29199981689453,204.1481222839635L493.2017331441244,204.1481222839635L509.11146647135416,204.1481222839635L525.021199798584,204.1481222839635L540.9309331258138,204.1481222839635L556.8406664530437,204.1481222839635L572.7503997802734,204.1481222839635L588.6601331075033,204.1481222839635L604.5698664347331,204.1481222839635L620.479599761963,204.1481222839635L636.3893330891926,204.1481222839635L652.2990664164225,204.1481222839635L668.2087997436523,204.1481222839635L684.1185330708822,204.1481222839635L700.0282663981119,204.1481222839635L715.9379997253418,204.1481222839635L731.8477330525717,204.1481222839635L747.7574663798014,204.1481222839635L763.6671997070313,204.1481222839635L779.5769330342611,204.1481222839635L795.486666361491,204.1481222839635L811.3963996887206,204.1481222839635L827.3061330159505,204.1481222839635L843.2158663431803,204.1481222839635L859.1255996704102,204.1481222839635" fill="none"></path></g><g><path style="fill: none;" stroke="rgb(255, 112, 67)" stroke-width="2px" d="M79.54866663614908,492.6263644063503L95.45839996337891,296.7163789147477L111.36813329060872,267.9199940273992L127.27786661783854,240.3037098563261L143.18759994506834,215.9919329725392L159.09733327229816,197.58116029616266L175.00706659952797,207.96677250713466L190.91679992675782,194.2766530088765L206.82653325398763,170.43696647420307L222.73626658121745,131.96310489955283L238.64599990844727,116.14870398679221L254.55573323567708,114.73243293945171L270.4654665629069,113.08024187406278L286.3751998901367,117.5648498776244L302.28493321736653,115.67661363767871L318.1946665445963,120.39739197230534L334.10439987182616,121.57749268858083L350.01413319905595,114.96847811400846L365.92386652628585,127.71441691403965L381.83359985351564,106.47122729949047L397.7433331807455,103.87485553587453L413.65306650797527,100.3343030740316L429.5627998352051,102.69462966309078L445.4725331624349,106.94331764860391L461.38226648966474,107.88737319032265L477.29199981689453,99.8622127249181L493.2017331441244,103.87485553587453L509.11146647135416,106.47122729949047L525.021199798584,101.27835861575034L540.9309331258138,97.50176097935065L556.8406664530437,94.43329886662123L572.7503997802734,93.72528849945928L588.6601331075033,92.78110780123228L604.5698664347331,90.4207812121731L620.479599761963,92.54506262667553L636.3893330891926,91.12879157933509L652.2990664164225,93.96133367401599L668.2087997436523,96.79375061218866L684.1185330708822,93.48924332490253L700.0282663981119,91.36483675389184L715.9379997253418,97.26584096130216L731.8477330525717,94.66934404117796L747.7574663798014,88.53241981571915L763.6671997070313,89.24055533938936L779.5769330342611,90.89274640477834L795.486666361491,89.4766005139461L811.3963996887206,92.30901745211878L827.3061330159505,87.58836427400041L843.2158663431803,93.01715297578903L859.1255996704102,85.46395770298972" fill="none"></path></g><g><path style="fill: none;" stroke="rgb(238, 51, 119)" stroke-width="2px" d="M79.54866663614908,490.7381281664046L95.45839996337891,311.11450878016785L111.36813329060872,280.4298876528736L127.27786661783854,172.32532787065705L143.18759994506834,140.46035571407083L159.09733327229816,142.58476228508152L175.00706659952797,140.93244606318433L190.91679992675782,114.26034259033827L206.82653325398763,110.48387011044684L222.73626658121745,101.75044896486384L238.64599990844727,103.63881036131778L254.55573323567708,98.44594167757765L270.4654665629069,96.08561508851847L286.3751998901367,92.07297227756203L302.28493321736653,92.07297227756203L318.1946665445963,93.48924332490253L334.10439987182616,88.53241981571915L350.01413319905595,92.07297227756203L365.92386652628585,91.8369271030053L381.83359985351564,91.8369271030053L397.7433331807455,89.9486908630596L413.65306650797527,90.18473603761635L429.5627998352051,85.93604805210322L445.4725331624349,86.64418357577343L461.38226648966474,88.2963746411624L477.29199981689453,89.00451016483265L493.2017331441244,87.8242842920489L509.11146647135416,88.06032946660565L525.021199798584,86.88022875033016L540.9309331258138,89.71264568850285L556.8406664530437,83.81176663760074L572.7503997802734,89.24055533938936L588.6601331075033,85.70000287754647L604.5698664347331,89.24055533938936L620.479599761963,91.36483675389184L636.3893330891926,82.39549559026028L652.2990664164225,82.63154076481703L668.2087997436523,87.35231909944366L684.1185330708822,84.04781181215749L700.0282663981119,84.28385698671423L715.9379997253418,84.51977700476273L731.8477330525717,84.28385698671423L747.7574663798014,83.10363111393053L763.6671997070313,83.33967628848728L779.5769330342611,86.40813840121668L795.486666361491,86.17209322665997L811.3963996887206,89.71264568850285L827.3061330159505,84.75582217931947L843.2158663431803,87.58836427400041L859.1255996704102,87.58836427400041" fill="none"></path></g><g><path style="fill: none;" stroke="rgb(204, 51, 17)" stroke-width="2px" d="M79.54866663614908,492.3903192317935L95.45839996337891,236.2910670453697L111.36813329060872,184.12708597246126L127.27786661783854,141.64058158685458L143.18759994506834,133.37937594689328L159.09733327229816,126.5343161977642L175.00706659952797,123.22980891047803L190.91679992675782,124.88199997586696L206.82653325398763,122.75771856136453L222.73626658121745,128.18650726315315L238.64599990844727,127.4783717394829L254.55573323567708,121.57749268858083L270.4654665629069,127.00628139036944L286.3751998901367,124.17386445219677L302.28493321736653,125.35409032498046L318.1946665445963,122.28562821225103L334.10439987182616,121.57749268858083L350.01413319905595,130.31078867765558L365.92386652628585,126.5343161977642L381.83359985351564,122.28562821225103L397.7433331807455,127.9504620885964L413.65306650797527,123.93781927764002L429.5627998352051,122.99376373592128L445.4725331624349,126.06222584865071L461.38226648966474,124.64595480131021L477.29199981689453,125.59013549953721L493.2017331441244,123.22980891047803L509.11146647135416,125.11804515042371L525.021199798584,127.24232656492615L540.9309331258138,123.93781927764002L556.8406664530437,125.35409032498046L572.7503997802734,124.4099096267535L588.6601331075033,122.52167338680778L604.5698664347331,126.5343161977642L620.479599761963,126.29827102320746L636.3893330891926,125.82618067409396L652.2990664164225,126.5343161977642L668.2087997436523,124.64595480131021L684.1185330708822,127.24232656492615L700.0282663981119,124.88199997586696L715.9379997253418,119.45321127407834L731.8477330525717,122.99376373592128L747.7574663798014,126.06222584865071L763.6671997070313,127.00628139036944L779.5769330342611,123.22980891047803L795.486666361491,125.11804515042371L811.3963996887206,124.17386445219677L827.3061330159505,125.82618067409396L843.2158663431803,121.10540233946733L859.1255996704102,123.22980891047803" fill="none"></path></g></g></g></g></g></g><g transform="translate(51, 377)" clip-path="url(#clip_1)"><clipPath id="clip_1"><rect width="954" height="22"></rect></clipPath><g><g><line x1="0" y1="0" x2="0" y2="5" style="visibility: inherit;" fill="rgb(0, 0, 0)" stroke="rgb(204, 204, 204)" stroke-width="1px"></line><line x1="79.54866663614908" y1="0" x2="79.54866663614908" y2="5" style="visibility: inherit;" fill="rgb(0, 0, 0)" stroke="rgb(204, 204, 204)" stroke-width="1px"></line><line x1="159.09733327229816" y1="0" x2="159.09733327229816" y2="5" style="visibility: inherit;" fill="rgb(0, 0, 0)" stroke="rgb(204, 204, 204)" stroke-width="1px"></line><line x1="238.64599990844727" y1="0" x2="238.64599990844727" y2="5" style="visibility: inherit;" fill="rgb(0, 0, 0)" stroke="rgb(204, 204, 204)" stroke-width="1px"></line><line x1="318.1946665445963" y1="0" x2="318.1946665445963" y2="5" style="visibility: inherit;" fill="rgb(0, 0, 0)" stroke="rgb(204, 204, 204)" stroke-width="1px"></line><line x1="397.7433331807455" y1="0" x2="397.7433331807455" y2="5" style="visibility: inherit;" fill="rgb(0, 0, 0)" stroke="rgb(204, 204, 204)" stroke-width="1px"></line><line x1="477.29199981689453" y1="0" x2="477.29199981689453" y2="5" style="visibility: inherit;" fill="rgb(0, 0, 0)" stroke="rgb(204, 204, 204)" stroke-width="1px"></line><line x1="556.8406664530437" y1="0" x2="556.8406664530437" y2="5" style="visibility: inherit;" fill="rgb(0, 0, 0)" stroke="rgb(204, 204, 204)" stroke-width="1px"></line><line x1="636.3893330891926" y1="0" x2="636.3893330891926" y2="5" style="visibility: inherit;" fill="rgb(0, 0, 0)" stroke="rgb(204, 204, 204)" stroke-width="1px"></line><line x1="715.9379997253418" y1="0" x2="715.9379997253418" y2="5" style="visibility: inherit;" fill="rgb(0, 0, 0)" stroke="rgb(204, 204, 204)" stroke-width="1px"></line><line x1="795.486666361491" y1="0" x2="795.486666361491" y2="5" style="visibility: inherit;" fill="rgb(0, 0, 0)" stroke="rgb(204, 204, 204)" stroke-width="1px"></line><line x1="875.0353329976399" y1="0" x2="875.0353329976399" y2="5" style="visibility: inherit;" fill="rgb(0, 0, 0)" stroke="rgb(204, 204, 204)" stroke-width="1px"></line><line x1="954.5839996337891" y1="0" x2="954.5839996337891" y2="5" style="visibility: inherit;" fill="rgb(0, 0, 0)" stroke="rgb(204, 204, 204)" stroke-width="1px"></line></g><g transform="translate(0, 8)"><text style="text-anchor: middle; visibility: hidden; font-family: Roboto, sans-serif; font-size: 12px; font-weight: 200;" x="0" y="0" dx="0em" dy="0.95em" fill="rgb(50, 49, 63)" stroke="none" stroke-width="1px">-5</text><text style="text-anchor: middle; visibility: inherit; font-family: Roboto, sans-serif; font-size: 12px; font-weight: 200;" x="79.54866663614908" y="0" dx="0em" dy="0.95em" fill="rgb(50, 49, 63)" stroke="none" stroke-width="1px">0</text><text style="text-anchor: middle; visibility: inherit; font-family: Roboto, sans-serif; font-size: 12px; font-weight: 200;" x="159.09733327229816" y="0" dx="0em" dy="0.95em" fill="rgb(50, 49, 63)" stroke="none" stroke-width="1px">5</text><text style="text-anchor: middle; visibility: inherit; font-family: Roboto, sans-serif; font-size: 12px; font-weight: 200;" x="238.64599990844727" y="0" dx="0em" dy="0.95em" fill="rgb(50, 49, 63)" stroke="none" stroke-width="1px">10</text><text style="text-anchor: middle; visibility: inherit; font-family: Roboto, sans-serif; font-size: 12px; font-weight: 200;" x="318.1946665445963" y="0" dx="0em" dy="0.95em" fill="rgb(50, 49, 63)" stroke="none" stroke-width="1px">15</text><text style="text-anchor: middle; visibility: inherit; font-family: Roboto, sans-serif; font-size: 12px; font-weight: 200;" x="397.7433331807455" y="0" dx="0em" dy="0.95em" fill="rgb(50, 49, 63)" stroke="none" stroke-width="1px">20</text><text style="text-anchor: middle; visibility: inherit; font-family: Roboto, sans-serif; font-size: 12px; font-weight: 200;" x="477.29199981689453" y="0" dx="0em" dy="0.95em" fill="rgb(50, 49, 63)" stroke="none" stroke-width="1px">25</text><text style="text-anchor: middle; visibility: inherit; font-family: Roboto, sans-serif; font-size: 12px; font-weight: 200;" x="556.8406664530437" y="0" dx="0em" dy="0.95em" fill="rgb(50, 49, 63)" stroke="none" stroke-width="1px">30</text><text style="text-anchor: middle; visibility: inherit; font-family: Roboto, sans-serif; font-size: 12px; font-weight: 200;" x="636.3893330891926" y="0" dx="0em" dy="0.95em" fill="rgb(50, 49, 63)" stroke="none" stroke-width="1px">35</text><text style="text-anchor: middle; visibility: inherit; font-family: Roboto, sans-serif; font-size: 12px; font-weight: 200;" x="715.9379997253418" y="0" dx="0em" dy="0.95em" fill="rgb(50, 49, 63)" stroke="none" stroke-width="1px">40</text><text style="text-anchor: middle; visibility: inherit; font-family: Roboto, sans-serif; font-size: 12px; font-weight: 200;" x="795.486666361491" y="0" dx="0em" dy="0.95em" fill="rgb(50, 49, 63)" stroke="none" stroke-width="1px">45</text><text style="text-anchor: middle; visibility: inherit; font-family: Roboto, sans-serif; font-size: 12px; font-weight: 200;" x="875.0353329976399" y="0" dx="0em" dy="0.95em" fill="rgb(50, 49, 63)" stroke="none" stroke-width="1px">50</text><text style="text-anchor: middle; visibility: hidden; font-family: Roboto, sans-serif; font-size: 12px; font-weight: 200;" x="954.5839996337891" y="0" dx="0em" dy="0.95em" fill="rgb(50, 49, 63)" stroke="none" stroke-width="1px">55</text></g><line x1="0" y1="0" x2="954.5839996337891" y2="0" fill="rgb(0, 0, 0)" stroke="rgb(204, 204, 204)" stroke-width="1px"></line></g></g></g></g></svg>