<svg viewBox="0 0 1006 400" xmlns="http://www.w3.org/2000/svg"><g><g><g><g><g><line x1="30.70800018310547" y1="377.95999908447266" x2="25.70800018310547" y2="377.95999908447266" style="visibility: inherit;" fill="rgb(0, 0, 0)" stroke="rgb(204, 204, 204)" stroke-width="1px"></line><line x1="30.70800018310547" y1="350.9628562927246" x2="25.70800018310547" y2="350.9628562927246" style="visibility: inherit;" fill="rgb(0, 0, 0)" stroke="rgb(204, 204, 204)" stroke-width="1px"></line><line x1="30.70800018310547" y1="323.96571350097656" x2="25.70800018310547" y2="323.96571350097656" style="visibility: inherit;" fill="rgb(0, 0, 0)" stroke="rgb(204, 204, 204)" stroke-width="1px"></line><line x1="30.70800018310547" y1="296.9685707092285" x2="25.70800018310547" y2="296.9685707092285" style="visibility: inherit;" fill="rgb(0, 0, 0)" stroke="rgb(204, 204, 204)" stroke-width="1px"></line><line x1="30.70800018310547" y1="269.97142791748047" x2="25.70800018310547" y2="269.97142791748047" style="visibility: inherit;" fill="rgb(0, 0, 0)" stroke="rgb(204, 204, 204)" stroke-width="1px"></line><line x1="30.70800018310547" y1="242.9742851257324" x2="25.70800018310547" y2="242.9742851257324" style="visibility: inherit;" fill="rgb(0, 0, 0)" stroke="rgb(204, 204, 204)" stroke-width="1px"></line><line x1="30.70800018310547" y1="215.97714233398438" x2="25.70800018310547" y2="215.97714233398438" style="visibility: inherit;" fill="rgb(0, 0, 0)" stroke="rgb(204, 204, 204)" stroke-width="1px"></line><line x1="30.70800018310547" y1="188.97999954223633" x2="25.70800018310547" y2="188.97999954223633" style="visibility: inherit;" fill="rgb(0, 0, 0)" stroke="rgb(204, 204, 204)" stroke-width="1px"></line><line x1="30.70800018310547" y1="161.98285675048828" x2="25.70800018310547" y2="161.98285675048828" style="visibility: inherit;" fill="rgb(0, 0, 0)" stroke="rgb(204, 204, 204)" stroke-width="1px"></line><line x1="30.70800018310547" y1="134.9857139587402" x2="25.70800018310547" y2="134.9857139587402" style="visibility: inherit;" fill="rgb(0, 0, 0)" stroke="rgb(204, 204, 204)" stroke-width="1px"></line><line x1="30.70800018310547" y1="107.98857116699219" x2="25.70800018310547" y2="107.98857116699219" style="visibility: inherit;" fill="rgb(0, 0, 0)" stroke="rgb(204, 204, 204)" stroke-width="1px"></line><line x1="30.70800018310547" y1="80.99142837524414" x2="25.70800018310547" y2="80.99142837524414" style="visibility: inherit;" fill="rgb(0, 0, 0)" stroke="rgb(204, 204, 204)" stroke-width="1px"></line><line x1="30.70800018310547" y1="53.994285583496115" x2="25.70800018310547" y2="53.994285583496115" style="visibility: inherit;" fill="rgb(0, 0, 0)" stroke="rgb(204, 204, 204)" stroke-width="1px"></line><line x1="30.70800018310547" y1="26.997142791748036" x2="25.70800018310547" y2="26.997142791748036" style="visibility: inherit;" fill="rgb(0, 0, 0)" stroke="rgb(204, 204, 204)" stroke-width="1px"></line><line x1="30.70800018310547" y1="0" x2="25.70800018310547" y2="0" style="visibility: inherit;" fill="rgb(0, 0, 0)" stroke="rgb(204, 204, 204)" stroke-width="1px"></line></g><g transform="translate(20.70800018310547, 0)"><text style="text-anchor: end; visibility: hidden; font-family: Roboto, sans-serif; font-size: 12px; font-weight: 200;" x="0" y="377.95999908447266" dx="0em" dy="0.3em" fill="rgb(50, 49, 63)" stroke="none" stroke-width="1px">-2</text><text style="text-anchor: end; visibility: inherit; font-family: Roboto, sans-serif; font-size: 12px; font-weight: 200;" x="0" y="350.9628562927246" dx="0em" dy="0.3em" fill="rgb(50, 49, 63)" stroke="none" stroke-width="1px">-1</text><text style="text-anchor: end; visibility: inherit; font-family: Roboto, sans-serif; font-size: 12px; font-weight: 200;" x="0" y="323.96571350097656" dx="0em" dy="0.3em" fill="rgb(50, 49, 63)" stroke="none" stroke-width="1px">0</text><text style="text-anchor: end; visibility: inherit; font-family: Roboto, sans-serif; font-size: 12px; font-weight: 200;" x="0" y="296.9685707092285" dx="0em" dy="0.3em" fill="rgb(50, 49, 63)" stroke="none" stroke-width="1px">1</text><text style="text-anchor: end; visibility: inherit; font-family: Roboto, sans-serif; font-size: 12px; font-weight: 200;" x="0" y="269.97142791748047" dx="0em" dy="0.3em" fill="rgb(50, 49, 63)" stroke="none" stroke-width="1px">2</text><text style="text-anchor: end; visibility: inherit; font-family: Roboto, sans-serif; font-size: 12px; font-weight: 200;" x="0" y="242.9742851257324" dx="0em" dy="0.3em" fill="rgb(50, 49, 63)" stroke="none" stroke-width="1px">3</text><text style="text-anchor: end; visibility: inherit; font-family: Roboto, sans-serif; font-size: 12px; font-weight: 200;" x="0" y="215.97714233398438" dx="0em" dy="0.3em" fill="rgb(50, 49, 63)" stroke="none" stroke-width="1px">4</text><text style="text-anchor: end; visibility: inherit; font-family: Roboto, sans-serif; font-size: 12px; font-weight: 200;" x="0" y="188.97999954223633" dx="0em" dy="0.3em" fill="rgb(50, 49, 63)" stroke="none" stroke-width="1px">5</text><text style="text-anchor: end; visibility: inherit; font-family: Roboto, sans-serif; font-size: 12px; font-weight: 200;" x="0" y="161.98285675048828" dx="0em" dy="0.3em" fill="rgb(50, 49, 63)" stroke="none" stroke-width="1px">6</text><text style="text-anchor: end; visibility: inherit; font-family: Roboto, sans-serif; font-size: 12px; font-weight: 200;" x="0" y="134.9857139587402" dx="0em" dy="0.3em" fill="rgb(50, 49, 63)" stroke="none" stroke-width="1px">7</text><text style="text-anchor: end; visibility: inherit; font-family: Roboto, sans-serif; font-size: 12px; font-weight: 200;" x="0" y="107.98857116699219" dx="0em" dy="0.3em" fill="rgb(50, 49, 63)" stroke="none" stroke-width="1px">8</text><text style="text-anchor: end; visibility: inherit; font-family: Roboto, sans-serif; font-size: 12px; font-weight: 200;" x="0" y="80.99142837524414" dx="0em" dy="0.3em" fill="rgb(50, 49, 63)" stroke="none" stroke-width="1px">9</text><text style="text-anchor: end; visibility: inherit; font-family: Roboto, sans-serif; font-size: 12px; font-weight: 200;" x="0" y="53.994285583496115" dx="0em" dy="0.3em" fill="rgb(50, 49, 63)" stroke="none" stroke-width="1px">10</text><text style="text-anchor: end; visibility: inherit; font-family: Roboto, sans-serif; font-size: 12px; font-weight: 200;" x="0" y="26.997142791748036" dx="0em" dy="0.3em" fill="rgb(50, 49, 63)" stroke="none" stroke-width="1px">11</text><text style="text-anchor: end; visibility: hidden; font-family: Roboto, sans-serif; font-size: 12px; font-weight: 200;" x="0" y="0" dx="0em" dy="0.3em" fill="rgb(50, 49, 63)" stroke="none" stroke-width="1px">12</text></g><line x1="30.70800018310547" y1="0" x2="30.70800018310547" y2="377.95999908447266" fill="rgb(0, 0, 0)" stroke="rgb(204, 204, 204)" stroke-width="1px"></line></g></g><g transform="translate(30, 0)" clip-path="url(#clip_0)"><clipPath id="clip_0"><rect width="975" height="377"></rect></clipPath><g><g><g><line x1="0" y1="0" x2="0" y2="377.95999908447266" fill="rgb(0, 0, 0)" stroke="rgb(60, 60, 60)" stroke-width="1px" opacity="0.25"></line><line x1="81.27433331807454" y1="0" x2="81.27433331807454" y2="377.95999908447266" fill="rgb(0, 0, 0)" stroke="rgb(60, 60, 60)" stroke-width="1px" opacity="0.25"></line><line x1="162.54866663614908" y1="0" x2="162.54866663614908" y2="377.95999908447266" fill="rgb(0, 0, 0)" stroke="rgb(60, 60, 60)" stroke-width="1px" opacity="0.25"></line><line x1="243.82299995422363" y1="0" x2="243.82299995422363" y2="377.95999908447266" fill="rgb(0, 0, 0)" stroke="rgb(60, 60, 60)" stroke-width="1px" opacity="0.25"></line><line x1="325.09733327229816" y1="0" x2="325.09733327229816" y2="377.95999908447266" fill="rgb(0, 0, 0)" stroke="rgb(60, 60, 60)" stroke-width="1px" opacity="0.25"></line><line x1="406.37166659037274" y1="0" x2="406.37166659037274" y2="377.95999908447266" fill="rgb(0, 0, 0)" stroke="rgb(60, 60, 60)" stroke-width="1px" opacity="0.25"></line><line x1="487.64599990844727" y1="0" x2="487.64599990844727" y2="377.95999908447266" fill="rgb(0, 0, 0)" stroke="rgb(60, 60, 60)" stroke-width="1px" opacity="0.25"></line><line x1="568.9203332265218" y1="0" x2="568.9203332265218" y2="377.95999908447266" fill="rgb(0, 0, 0)" stroke="rgb(60, 60, 60)" stroke-width="1px" opacity="0.25"></line><line x1="650.1946665445963" y1="0" x2="650.1946665445963" y2="377.95999908447266" fill="rgb(0, 0, 0)" stroke="rgb(60, 60, 60)" stroke-width="1px" opacity="0.25"></line><line x1="731.4689998626709" y1="0" x2="731.4689998626709" y2="377.95999908447266" fill="rgb(0, 0, 0)" stroke="rgb(60, 60, 60)" stroke-width="1px" opacity="0.25"></line><line x1="812.7433331807455" y1="0" x2="812.7433331807455" y2="377.95999908447266" fill="rgb(0, 0, 0)" stroke="rgb(60, 60, 60)" stroke-width="1px" opacity="0.25"></line><line x1="894.01766649882" y1="0" x2="894.01766649882" y2="377.95999908447266" fill="rgb(0, 0, 0)" stroke="rgb(60, 60, 60)" stroke-width="1px" opacity="0.25"></line><line x1="975.2919998168945" y1="0" x2="975.2919998168945" y2="377.95999908447266" fill="rgb(0, 0, 0)" stroke="rgb(60, 60, 60)" stroke-width="1px" opacity="0.25"></line></g><g><line x1="0" y1="377.95999908447266" x2="975.2919998168945" y2="377.95999908447266" fill="rgb(0, 0, 0)" stroke="rgb(60, 60, 60)" stroke-width="1px" opacity="0.25"></line><line x1="0" y1="350.9628562927246" x2="975.2919998168945" y2="350.9628562927246" fill="rgb(0, 0, 0)" stroke="rgb(60, 60, 60)" stroke-width="1px" opacity="0.25"></line><line x1="0" y1="323.96571350097656" x2="975.2919998168945" y2="323.96571350097656" fill="rgb(0, 0, 0)" stroke="rgb(60, 60, 60)" stroke-width="1px" opacity="0.25"></line><line x1="0" y1="296.9685707092285" x2="975.2919998168945" y2="296.9685707092285" fill="rgb(0, 0, 0)" stroke="rgb(60, 60, 60)" stroke-width="1px" opacity="0.25"></line><line x1="0" y1="269.97142791748047" x2="975.2919998168945" y2="269.97142791748047" fill="rgb(0, 0, 0)" stroke="rgb(60, 60, 60)" stroke-width="1px" opacity="0.25"></line><line x1="0" y1="242.9742851257324" x2="975.2919998168945" y2="242.9742851257324" fill="rgb(0, 0, 0)" stroke="rgb(60, 60, 60)" stroke-width="1px" opacity="0.25"></line><line x1="0" y1="215.97714233398438" x2="975.2919998168945" y2="215.97714233398438" fill="rgb(0, 0, 0)" stroke="rgb(60, 60, 60)" stroke-width="1px" opacity="0.25"></line><line x1="0" y1="188.97999954223633" x2="975.2919998168945" y2="188.97999954223633" fill="rgb(0, 0, 0)" stroke="rgb(60, 60, 60)" stroke-width="1px" opacity="0.25"></line><line x1="0" y1="161.98285675048828" x2="975.2919998168945" y2="161.98285675048828" fill="rgb(0, 0, 0)" stroke="rgb(60, 60, 60)" stroke-width="1px" opacity="0.25"></line><line x1="0" y1="134.9857139587402" x2="975.2919998168945" y2="134.9857139587402" fill="rgb(0, 0, 0)" stroke="rgb(60, 60, 60)" stroke-width="1px" opacity="0.25"></line><line x1="0" y1="107.98857116699219" x2="975.2919998168945" y2="107.98857116699219" fill="rgb(0, 0, 0)" stroke="rgb(60, 60, 60)" stroke-width="1px" opacity="0.25"></line><line x1="0" y1="80.99142837524414" x2="975.2919998168945" y2="80.99142837524414" fill="rgb(0, 0, 0)" stroke="rgb(60, 60, 60)" stroke-width="1px" opacity="0.25"></line><line x1="0" y1="53.994285583496115" x2="975.2919998168945" y2="53.994285583496115" fill="rgb(0, 0, 0)" stroke="rgb(60, 60, 60)" stroke-width="1px" opacity="0.25"></line><line x1="0" y1="26.997142791748036" x2="975.2919998168945" y2="26.997142791748036" fill="rgb(0, 0, 0)" stroke="rgb(60, 60, 60)" stroke-width="1px" opacity="0.25"></line><line x1="0" y1="0" x2="975.2919998168945" y2="0" fill="rgb(0, 0, 0)" stroke="rgb(60, 60, 60)" stroke-width="1px" opacity="0.25"></line></g></g></g><g><g><line x1="0" y1="323.96571350097656" x2="975.2919998168945" y2="323.96571350097656" fill="rgb(0, 0, 0)" stroke="rgb(153, 153, 153)" stroke-width="1.5px"></line></g></g><g><g><line x1="81.27433331807454" y1="0" x2="81.27433331807454" y2="377.95999908447266" fill="rgb(0, 0, 0)" stroke="rgb(153, 153, 153)" stroke-width="1.5px"></line></g></g><g><g><g><g><g><path style="fill: none;" stroke="rgb(0, 119, 187)" stroke-width="2px" d="M81.27433331807454,258.5994386703205L97.52919998168946,249.2329852927545L113.78406664530436,246.63340466039776L130.03893330891927,241.7317419343681L146.29379997253417,239.61218201937908L162.54866663614908,235.80241281717014L178.80353329976398,231.20877670470577L195.05839996337892,219.63719125220334L211.31326662699382,218.0469923969815L227.56813329060873,213.940707284775L243.82299995422363,206.98659680347907L260.07786661783854,202.94731718618004L276.33273328145344,201.48520383290514L292.58759994506835,196.0594497843974L308.84246660868325,191.71034136827345L325.09733327229816,186.43148578385683L341.35219993591306,180.19778858588919L357.60706659952797,179.30905173549766L373.86193326314293,174.74375355650014L390.11679992675784,168.01132738064467L406.37166659037274,166.10819471990663L422.62653325398765,165.98370686092596L438.88139991760255,163.28679771367942L455.13626658121746,157.9692136113227L471.39113324483236,150.7006566994887L487.64599990844727,141.4217640102444L503.9008665720622,138.97863309788661L520.1557332356771,136.2343086677662L536.410599899292,127.58773846815954L552.6654665629069,123.03892919030011L568.9203332265218,117.3659404890946L585.1751998901367,107.60583524558565L601.4300665537517,107.22658504188172L617.6849332173665,107.05441046566983L633.9397998809815,101.71592932938711L650.1946665445963,96.92244961975571L666.4495332082113,86.39596981813293L682.7043998718261,81.86674363494954L698.9592665354411,78.66657468743132L715.2141331990559,76.60302422586952L731.4689998626709,67.02275581222794L747.7238665262859,68.44421753053045L763.9787331899007,66.10338768595625L780.2335998535157,59.98032177965392L796.4884665171305,52.911231903279806L812.7433331807455,45.669756736051745L828.9981998443603,39.67931100477037L845.2530665079753,35.02731630645894L861.5079331715901,30.784471057895324L877.7627998352051,28.336167998350035" fill="none"></path></g><g><path style="fill: none;" stroke="rgb(255, 112, 67)" stroke-width="2px" d="M81.27433331807454,240.14028620929545L97.52919998168946,278.6193645754021L113.78406664530436,291.4495913121426L130.03893330891927,298.7209811858101L146.29379997253417,301.6448694685301L162.54866663614908,305.2087167151915L178.80353329976398,305.95652431751523L195.05839996337892,307.6767849049143L211.31326662699382,308.54101265560115L227.56813329060873,308.7852445416742L243.82299995422363,308.4779689263228L260.07786661783854,309.01761906347224L276.33273328145344,309.67962507610844L292.58759994506835,309.4426772182251L308.84246660868325,309.7139459155068L325.09733327229816,309.9251210746002L341.35219993591306,310.30685751377064L357.60706659952797,310.11080255128456L373.86193326314293,309.9063360739852L390.11679992675784,310.523957931923L406.37166659037274,310.90398925462773L422.62653325398765,310.5443234870341L438.88139991760255,309.3474064976298L455.13626658121746,309.1933594981921L471.39113324483236,309.52402940792547L487.64599990844727,307.8526369603293L503.9008665720622,308.0454112895958L520.1557332356771,309.87372408564573L536.410599899292,310.47720873833254L552.6654665629069,310.4029463102161L568.9203332265218,309.7316241542332L585.1751998901367,308.1709014773617L601.4300665537517,307.5654396324144L617.6849332173665,308.148388898776L633.9397998809815,309.0919244626654L650.1946665445963,307.64374788978L666.4495332082113,306.50016239561563L682.7043998718261,307.4447018603695L698.9592665354411,308.00458405311304L715.2141331990559,308.72703371227544L731.4689998626709,309.5548231042371L747.7238665262859,308.8050728707087L763.9787331899007,308.49187411345423L780.2335998535157,307.9153760840824L796.4884665171305,307.403556639859L812.7433331807455,307.17979539236205L828.9981998443603,306.6382576245434L845.2530665079753,306.684750490522L861.5079331715901,306.8545968622978L877.7627998352051,306.69380947063445" fill="none"></path></g></g></g></g><g opacity="0.2"><g><g><g><path style="fill: none;" stroke="rgb(0, 119, 187)" stroke-width="2px" d="M81.27433331807454,258.5994386703205L97.52919998168946,243.6131132662149L113.78406664530436,244.13780725333527L130.03893330891927,235.96738656855726L146.29379997253417,236.84488459436943L162.54866663614908,230.53213049360238L178.80353329976398,224.63980356570391L195.05839996337892,202.76570857523438L211.31326662699382,215.70175796575495L227.56813329060873,207.84335245604055L243.82299995422363,196.61850435177803L260.07786661783854,196.91037934153428L276.33273328145344,199.29680785677374L292.58759994506835,187.93144832865073L308.84246660868325,185.19179095777145L325.09733327229816,178.51692546517916L341.35219993591306,170.8498806806765L357.60706659952797,177.97617211010038L373.86193326314293,167.89650176523173L390.11679992675784,157.91330348728115L406.37166659037274,163.25360010111763L422.62653325398765,165.79697916878104L438.88139991760255,159.24148723857618L455.13626658121746,149.9929004496407L471.39113324483236,139.7978729935294L487.64599990844727,127.50346454661667L503.9008665720622,135.31394298065243L520.1557332356771,132.11782623576983L536.410599899292,114.61789113346276L552.6654665629069,116.21571778756879L568.9203332265218,108.85645931851103L585.1751998901367,92.96567932225663L601.4300665537517,106.6577097816007L617.6849332173665,106.79614861368464L633.9397998809815,93.70820785439356L650.1946665445963,89.7322301789136L666.4495332082113,70.60625027856078L682.7043998718261,75.07290440221915L698.9592665354411,73.86632128397832L715.2141331990559,73.50769854042302L731.4689998626709,52.65235321097497L747.7238665262859,70.57641010627411L763.9787331899007,62.592142920784674L780.2335998535157,50.79572292285228L796.4884665171305,42.30759709055564L812.7433331807455,34.80754398633873L828.9981998443603,30.693642408408778L845.2530665079753,28.049324259252906L861.5079331715901,24.420203185192822L877.7627998352051,24.66371340908153" fill="none"></path></g><g><path style="fill: none;" stroke="rgb(255, 112, 67)" stroke-width="2px" d="M81.27433331807454,240.14028620929545L97.52919998168946,301.70681159506603L113.78406664530436,303.7666089794136L130.03893330891927,307.2721356772431L146.29379997253417,305.46229801044933L162.54866663614908,310.1388004423329L178.80353329976398,307.02590115375983L195.05839996337892,310.1849413558439L211.31326662699382,309.81558072026587L227.56813329060873,309.1479004287319L243.82299995422363,308.0198424705113L260.07786661783854,309.82415751698113L276.33273328145344,310.6704725305707L292.58759994506835,309.0877196369206L308.84246660868325,310.1205300952588L325.09733327229816,310.2417348761569L341.35219993591306,310.8793006344587L357.60706659952797,309.81676988588924L373.86193326314293,309.59966750644594L390.11679992675784,311.4503342657456L406.37166659037274,311.4740153968638L422.62653325398765,310.00483667059893L438.88139991760255,307.5520546445614L455.13626658121746,308.9622908238691L471.39113324483236,310.0200319222654L487.64599990844727,305.3455554166603L503.9008665720622,308.33457229023884L520.1557332356771,312.61619047282977L536.410599899292,311.38243516146815L552.6654665629069,310.2915527090852L568.9203332265218,308.72464114287664L585.1751998901367,305.829817772586L601.4300665537517,306.6572469372734L617.6849332173665,309.02281275656287L633.9397998809815,310.5072277679494L650.1946665445963,305.4714830677947L666.4495332082113,304.78478417206225L682.7043998718261,308.86151104873215L698.9592665354411,308.8444073391099L715.2141331990559,309.81070819860474L731.4689998626709,310.7965071905196L747.7238665262859,307.68044752131823L763.9787331899007,308.0220759777985L780.2335998535157,307.05062904027454L796.4884665171305,306.6358274736567L812.7433331807455,306.8441535211516L828.9981998443603,305.82595097286617L845.2530665079753,306.75448978948725L861.5079331715901,307.1093664199557L877.7627998352051,306.45262838314284" fill="none"></path></g></g></g></g></g></g><g transform="translate(30, 377)" clip-path="url(#clip_1)"><clipPath id="clip_1"><rect width="975" height="22"></rect></clipPath><g><g><line x1="0" y1="0" x2="0" y2="5" style="visibility: inherit;" fill="rgb(0, 0, 0)" stroke="rgb(204, 204, 204)" stroke-width="1px"></line><line x1="81.27433331807454" y1="0" x2="81.27433331807454" y2="5" style="visibility: inherit;" fill="rgb(0, 0, 0)" stroke="rgb(204, 204, 204)" stroke-width="1px"></line><line x1="162.54866663614908" y1="0" x2="162.54866663614908" y2="5" style="visibility: inherit;" fill="rgb(0, 0, 0)" stroke="rgb(204, 204, 204)" stroke-width="1px"></line><line x1="243.82299995422363" y1="0" x2="243.82299995422363" y2="5" style="visibility: inherit;" fill="rgb(0, 0, 0)" stroke="rgb(204, 204, 204)" stroke-width="1px"></line><line x1="325.09733327229816" y1="0" x2="325.09733327229816" y2="5" style="visibility: inherit;" fill="rgb(0, 0, 0)" stroke="rgb(204, 204, 204)" stroke-width="1px"></line><line x1="406.37166659037274" y1="0" x2="406.37166659037274" y2="5" style="visibility: inherit;" fill="rgb(0, 0, 0)" stroke="rgb(204, 204, 204)" stroke-width="1px"></line><line x1="487.64599990844727" y1="0" x2="487.64599990844727" y2="5" style="visibility: inherit;" fill="rgb(0, 0, 0)" stroke="rgb(204, 204, 204)" stroke-width="1px"></line><line x1="568.9203332265218" y1="0" x2="568.9203332265218" y2="5" style="visibility: inherit;" fill="rgb(0, 0, 0)" stroke="rgb(204, 204, 204)" stroke-width="1px"></line><line x1="650.1946665445963" y1="0" x2="650.1946665445963" y2="5" style="visibility: inherit;" fill="rgb(0, 0, 0)" stroke="rgb(204, 204, 204)" stroke-width="1px"></line><line x1="731.4689998626709" y1="0" x2="731.4689998626709" y2="5" style="visibility: inherit;" fill="rgb(0, 0, 0)" stroke="rgb(204, 204, 204)" stroke-width="1px"></line><line x1="812.7433331807455" y1="0" x2="812.7433331807455" y2="5" style="visibility: inherit;" fill="rgb(0, 0, 0)" stroke="rgb(204, 204, 204)" stroke-width="1px"></line><line x1="894.01766649882" y1="0" x2="894.01766649882" y2="5" style="visibility: inherit;" fill="rgb(0, 0, 0)" stroke="rgb(204, 204, 204)" stroke-width="1px"></line><line x1="975.2919998168945" y1="0" x2="975.2919998168945" y2="5" style="visibility: inherit;" fill="rgb(0, 0, 0)" stroke="rgb(204, 204, 204)" stroke-width="1px"></line></g><g transform="translate(0, 8)"><text style="text-anchor: middle; visibility: hidden; font-family: Roboto, sans-serif; font-size: 12px; font-weight: 200;" x="0" y="0" dx="0em" dy="0.95em" fill="rgb(50, 49, 63)" stroke="none" stroke-width="1px">-5</text><text style="text-anchor: middle; visibility: inherit; font-family: Roboto, sans-serif; font-size: 12px; font-weight: 200;" x="81.27433331807454" y="0" dx="0em" dy="0.95em" fill="rgb(50, 49, 63)" stroke="none" stroke-width="1px">0</text><text style="text-anchor: middle; visibility: inherit; font-family: Roboto, sans-serif; font-size: 12px; font-weight: 200;" x="162.54866663614908" y="0" dx="0em" dy="0.95em" fill="rgb(50, 49, 63)" stroke="none" stroke-width="1px">5</text><text style="text-anchor: middle; visibility: inherit; font-family: Roboto, sans-serif; font-size: 12px; font-weight: 200;" x="243.82299995422363" y="0" dx="0em" dy="0.95em" fill="rgb(50, 49, 63)" stroke="none" stroke-width="1px">10</text><text style="text-anchor: middle; visibility: inherit; font-family: Roboto, sans-serif; font-size: 12px; font-weight: 200;" x="325.09733327229816" y="0" dx="0em" dy="0.95em" fill="rgb(50, 49, 63)" stroke="none" stroke-width="1px">15</text><text style="text-anchor: middle; visibility: inherit; font-family: Roboto, sans-serif; font-size: 12px; font-weight: 200;" x="406.37166659037274" y="0" dx="0em" dy="0.95em" fill="rgb(50, 49, 63)" stroke="none" stroke-width="1px">20</text><text style="text-anchor: middle; visibility: inherit; font-family: Roboto, sans-serif; font-size: 12px; font-weight: 200;" x="487.64599990844727" y="0" dx="0em" dy="0.95em" fill="rgb(50, 49, 63)" stroke="none" stroke-width="1px">25</text><text style="text-anchor: middle; visibility: inherit; font-family: Roboto, sans-serif; font-size: 12px; font-weight: 200;" x="568.9203332265218" y="0" dx="0em" dy="0.95em" fill="rgb(50, 49, 63)" stroke="none" stroke-width="1px">30</text><text style="text-anchor: middle; visibility: inherit; font-family: Roboto, sans-serif; font-size: 12px; font-weight: 200;" x="650.1946665445963" y="0" dx="0em" dy="0.95em" fill="rgb(50, 49, 63)" stroke="none" stroke-width="1px">35</text><text style="text-anchor: middle; visibility: inherit; font-family: Roboto, sans-serif; font-size: 12px; font-weight: 200;" x="731.4689998626709" y="0" dx="0em" dy="0.95em" fill="rgb(50, 49, 63)" stroke="none" stroke-width="1px">40</text><text style="text-anchor: middle; visibility: inherit; font-family: Roboto, sans-serif; font-size: 12px; font-weight: 200;" x="812.7433331807455" y="0" dx="0em" dy="0.95em" fill="rgb(50, 49, 63)" stroke="none" stroke-width="1px">45</text><text style="text-anchor: middle; visibility: inherit; font-family: Roboto, sans-serif; font-size: 12px; font-weight: 200;" x="894.01766649882" y="0" dx="0em" dy="0.95em" fill="rgb(50, 49, 63)" stroke="none" stroke-width="1px">50</text><text style="text-anchor: middle; visibility: hidden; font-family: Roboto, sans-serif; font-size: 12px; font-weight: 200;" x="975.2919998168945" y="0" dx="0em" dy="0.95em" fill="rgb(50, 49, 63)" stroke="none" stroke-width="1px">55</text></g><line x1="0" y1="0" x2="975.2919998168945" y2="0" fill="rgb(0, 0, 0)" stroke="rgb(204, 204, 204)" stroke-width="1px"></line></g></g></g></g></svg>