<svg viewBox="0 0 1006 400" xmlns="http://www.w3.org/2000/svg"><g><g><g><g><g><line x1="51.41600036621094" y1="377.95999908447266" x2="46.41600036621094" y2="377.95999908447266" style="visibility: inherit;" fill="rgb(0, 0, 0)" stroke="rgb(204, 204, 204)" stroke-width="1px"></line><line x1="51.41600036621094" y1="335.96444363064256" x2="46.41600036621094" y2="335.96444363064256" style="visibility: inherit;" fill="rgb(0, 0, 0)" stroke="rgb(204, 204, 204)" stroke-width="1px"></line><line x1="51.41600036621094" y1="293.9688881768122" x2="46.41600036621094" y2="293.9688881768122" style="visibility: inherit;" fill="rgb(0, 0, 0)" stroke="rgb(204, 204, 204)" stroke-width="1px"></line><line x1="51.41600036621094" y1="251.97333272298184" x2="46.41600036621094" y2="251.97333272298184" style="visibility: inherit;" fill="rgb(0, 0, 0)" stroke="rgb(204, 204, 204)" stroke-width="1px"></line><line x1="51.41600036621094" y1="209.9777772691515" x2="46.41600036621094" y2="209.9777772691515" style="visibility: inherit;" fill="rgb(0, 0, 0)" stroke="rgb(204, 204, 204)" stroke-width="1px"></line><line x1="51.41600036621094" y1="167.98222181532117" x2="46.41600036621094" y2="167.98222181532117" style="visibility: inherit;" fill="rgb(0, 0, 0)" stroke="rgb(204, 204, 204)" stroke-width="1px"></line><line x1="51.41600036621094" y1="125.98666636149082" x2="46.41600036621094" y2="125.98666636149082" style="visibility: inherit;" fill="rgb(0, 0, 0)" stroke="rgb(204, 204, 204)" stroke-width="1px"></line><line x1="51.41600036621094" y1="83.99111090766071" x2="46.41600036621094" y2="83.99111090766071" style="visibility: inherit;" fill="rgb(0, 0, 0)" stroke="rgb(204, 204, 204)" stroke-width="1px"></line><line x1="51.41600036621094" y1="41.995555453830356" x2="46.41600036621094" y2="41.995555453830356" style="visibility: inherit;" fill="rgb(0, 0, 0)" stroke="rgb(204, 204, 204)" stroke-width="1px"></line><line x1="51.41600036621094" y1="0" x2="46.41600036621094" y2="0" style="visibility: inherit;" fill="rgb(0, 0, 0)" stroke="rgb(204, 204, 204)" stroke-width="1px"></line></g><g transform="translate(41.41600036621094, 0)"><text style="text-anchor: end; visibility: hidden; font-family: Roboto, sans-serif; font-size: 12px; font-weight: 200;" x="0" y="377.95999908447266" dx="0em" dy="0.3em" fill="rgb(50, 49, 63)" stroke="none" stroke-width="1px">0.8</text><text style="text-anchor: end; visibility: inherit; font-family: Roboto, sans-serif; font-size: 12px; font-weight: 200;" x="0" y="335.96444363064256" dx="0em" dy="0.3em" fill="rgb(50, 49, 63)" stroke="none" stroke-width="1px">0.82</text><text style="text-anchor: end; visibility: inherit; font-family: Roboto, sans-serif; font-size: 12px; font-weight: 200;" x="0" y="293.9688881768122" dx="0em" dy="0.3em" fill="rgb(50, 49, 63)" stroke="none" stroke-width="1px">0.84</text><text style="text-anchor: end; visibility: inherit; font-family: Roboto, sans-serif; font-size: 12px; font-weight: 200;" x="0" y="251.97333272298184" dx="0em" dy="0.3em" fill="rgb(50, 49, 63)" stroke="none" stroke-width="1px">0.86</text><text style="text-anchor: end; visibility: inherit; font-family: Roboto, sans-serif; font-size: 12px; font-weight: 200;" x="0" y="209.9777772691515" dx="0em" dy="0.3em" fill="rgb(50, 49, 63)" stroke="none" stroke-width="1px">0.88</text><text style="text-anchor: end; visibility: inherit; font-family: Roboto, sans-serif; font-size: 12px; font-weight: 200;" x="0" y="167.98222181532117" dx="0em" dy="0.3em" fill="rgb(50, 49, 63)" stroke="none" stroke-width="1px">0.9</text><text style="text-anchor: end; visibility: inherit; font-family: Roboto, sans-serif; font-size: 12px; font-weight: 200;" x="0" y="125.98666636149082" dx="0em" dy="0.3em" fill="rgb(50, 49, 63)" stroke="none" stroke-width="1px">0.92</text><text style="text-anchor: end; visibility: inherit; font-family: Roboto, sans-serif; font-size: 12px; font-weight: 200;" x="0" y="83.99111090766071" dx="0em" dy="0.3em" fill="rgb(50, 49, 63)" stroke="none" stroke-width="1px">0.94</text><text style="text-anchor: end; visibility: inherit; font-family: Roboto, sans-serif; font-size: 12px; font-weight: 200;" x="0" y="41.995555453830356" dx="0em" dy="0.3em" fill="rgb(50, 49, 63)" stroke="none" stroke-width="1px">0.96</text><text style="text-anchor: end; visibility: hidden; font-family: Roboto, sans-serif; font-size: 12px; font-weight: 200;" x="0" y="0" dx="0em" dy="0.3em" fill="rgb(50, 49, 63)" stroke="none" stroke-width="1px">0.98</text></g><line x1="51.41600036621094" y1="0" x2="51.41600036621094" y2="377.95999908447266" fill="rgb(0, 0, 0)" stroke="rgb(204, 204, 204)" stroke-width="1px"></line></g></g><g transform="translate(51, 0)" clip-path="url(#clip_0)"><clipPath id="clip_0"><rect width="954" height="377"></rect></clipPath><g><g><g><line x1="0" y1="0" x2="0" y2="377.95999908447266" fill="rgb(0, 0, 0)" stroke="rgb(60, 60, 60)" stroke-width="1px" opacity="0.25"></line><line x1="79.54866663614908" y1="0" x2="79.54866663614908" y2="377.95999908447266" fill="rgb(0, 0, 0)" stroke="rgb(60, 60, 60)" stroke-width="1px" opacity="0.25"></line><line x1="159.09733327229816" y1="0" x2="159.09733327229816" y2="377.95999908447266" fill="rgb(0, 0, 0)" stroke="rgb(60, 60, 60)" stroke-width="1px" opacity="0.25"></line><line x1="238.64599990844727" y1="0" x2="238.64599990844727" y2="377.95999908447266" fill="rgb(0, 0, 0)" stroke="rgb(60, 60, 60)" stroke-width="1px" opacity="0.25"></line><line x1="318.1946665445963" y1="0" x2="318.1946665445963" y2="377.95999908447266" fill="rgb(0, 0, 0)" stroke="rgb(60, 60, 60)" stroke-width="1px" opacity="0.25"></line><line x1="397.7433331807455" y1="0" x2="397.7433331807455" y2="377.95999908447266" fill="rgb(0, 0, 0)" stroke="rgb(60, 60, 60)" stroke-width="1px" opacity="0.25"></line><line x1="477.29199981689453" y1="0" x2="477.29199981689453" y2="377.95999908447266" fill="rgb(0, 0, 0)" stroke="rgb(60, 60, 60)" stroke-width="1px" opacity="0.25"></line><line x1="556.8406664530437" y1="0" x2="556.8406664530437" y2="377.95999908447266" fill="rgb(0, 0, 0)" stroke="rgb(60, 60, 60)" stroke-width="1px" opacity="0.25"></line><line x1="636.3893330891926" y1="0" x2="636.3893330891926" y2="377.95999908447266" fill="rgb(0, 0, 0)" stroke="rgb(60, 60, 60)" stroke-width="1px" opacity="0.25"></line><line x1="715.9379997253418" y1="0" x2="715.9379997253418" y2="377.95999908447266" fill="rgb(0, 0, 0)" stroke="rgb(60, 60, 60)" stroke-width="1px" opacity="0.25"></line><line x1="795.486666361491" y1="0" x2="795.486666361491" y2="377.95999908447266" fill="rgb(0, 0, 0)" stroke="rgb(60, 60, 60)" stroke-width="1px" opacity="0.25"></line><line x1="875.0353329976399" y1="0" x2="875.0353329976399" y2="377.95999908447266" fill="rgb(0, 0, 0)" stroke="rgb(60, 60, 60)" stroke-width="1px" opacity="0.25"></line><line x1="954.5839996337891" y1="0" x2="954.5839996337891" y2="377.95999908447266" fill="rgb(0, 0, 0)" stroke="rgb(60, 60, 60)" stroke-width="1px" opacity="0.25"></line></g><g><line x1="0" y1="377.95999908447266" x2="954.5839996337891" y2="377.95999908447266" fill="rgb(0, 0, 0)" stroke="rgb(60, 60, 60)" stroke-width="1px" opacity="0.25"></line><line x1="0" y1="335.96444363064256" x2="954.5839996337891" y2="335.96444363064256" fill="rgb(0, 0, 0)" stroke="rgb(60, 60, 60)" stroke-width="1px" opacity="0.25"></line><line x1="0" y1="293.9688881768122" x2="954.5839996337891" y2="293.9688881768122" fill="rgb(0, 0, 0)" stroke="rgb(60, 60, 60)" stroke-width="1px" opacity="0.25"></line><line x1="0" y1="251.97333272298184" x2="954.5839996337891" y2="251.97333272298184" fill="rgb(0, 0, 0)" stroke="rgb(60, 60, 60)" stroke-width="1px" opacity="0.25"></line><line x1="0" y1="209.9777772691515" x2="954.5839996337891" y2="209.9777772691515" fill="rgb(0, 0, 0)" stroke="rgb(60, 60, 60)" stroke-width="1px" opacity="0.25"></line><line x1="0" y1="167.98222181532117" x2="954.5839996337891" y2="167.98222181532117" fill="rgb(0, 0, 0)" stroke="rgb(60, 60, 60)" stroke-width="1px" opacity="0.25"></line><line x1="0" y1="125.98666636149082" x2="954.5839996337891" y2="125.98666636149082" fill="rgb(0, 0, 0)" stroke="rgb(60, 60, 60)" stroke-width="1px" opacity="0.25"></line><line x1="0" y1="83.99111090766071" x2="954.5839996337891" y2="83.99111090766071" fill="rgb(0, 0, 0)" stroke="rgb(60, 60, 60)" stroke-width="1px" opacity="0.25"></line><line x1="0" y1="41.995555453830356" x2="954.5839996337891" y2="41.995555453830356" fill="rgb(0, 0, 0)" stroke="rgb(60, 60, 60)" stroke-width="1px" opacity="0.25"></line><line x1="0" y1="0" x2="954.5839996337891" y2="0" fill="rgb(0, 0, 0)" stroke="rgb(60, 60, 60)" stroke-width="1px" opacity="0.25"></line></g></g></g><g><g><line x1="0" y1="2057.782217237685" x2="954.5839996337891" y2="2057.782217237685" fill="rgb(0, 0, 0)" stroke="rgb(153, 153, 153)" stroke-width="1.5px"></line></g></g><g><g><line x1="79.54866663614908" y1="0" x2="79.54866663614908" y2="377.95999908447266" fill="rgb(0, 0, 0)" stroke="rgb(153, 153, 153)" stroke-width="1.5px"></line></g></g><g><g><g><g><g><path style="fill: none;" stroke="rgb(0, 119, 187)" stroke-width="2px" d="M79.54866663614908,333.47221710067026L95.45839996337891,333.81381614537116L111.36813329060872,320.25506404708335L127.27786661783854,300.7104028545653L143.18759994506834,280.07438567214825L159.09733327229816,269.9165761795557L175.00706659952797,263.23430903841376L190.91679992675782,262.68193230041754L206.82653325398763,255.9521858326033L222.73626658121745,254.81724962985734L238.64599990844727,258.3094642182936L254.55573323567708,255.3576101508666L270.4654665629069,246.36695945456898L286.3751998901367,238.79224182553406L302.28493321736653,239.06293862620845L318.1946665445963,242.06803106274765L334.10439987182616,241.46542966789642L350.01413319905595,239.35481943152226L365.92386652628585,240.05622075602545L381.83359985351564,244.84946158039077L397.7433331807455,242.47846780056943L413.65306650797527,239.08836855171555L429.5627998352051,236.83571244495292L445.4725331624349,237.8888987106867L461.38226648966474,240.26969923207486L477.29199981689453,235.79563402747476L493.2017331441244,235.5159593998952L509.11146647135416,237.97148689300997L525.021199798584,235.07253329105737L540.9309331258138,238.3613006126685L556.8406664530437,241.2090041481369L572.7503997802734,244.01069299510283L588.6601331075033,243.28694889625763L604.5698664347331,243.28994924881397L620.479599761963,241.1056156618327L636.3893330891926,240.88808242538948L652.2990664164225,242.94369625936778L668.2087997436523,242.86537427769457L684.1185330708822,237.3530466745032L700.0282663981119,235.3573403912497L715.9379997253418,242.0299581183985L731.8477330525717,235.32148333032188L747.7574663798014,241.57124716368068L763.6671997070313,242.69772492399045L779.5769330342611,243.15498819142053L795.486666361491,248.0202370625006L811.3963996887206,248.09743252074688L827.3061330159505,245.73899264615153L843.2158663431803,245.85424237910516L859.1255996704102,246.1419655448832" fill="none"></path></g><g><path style="fill: none;" stroke="rgb(255, 112, 67)" stroke-width="2px" d="M79.54866663614908,513.9383901004362L95.45839996337891,313.50399683564893L111.36813329060872,235.61686681493586L127.27786661783854,190.35799905454115L143.18759994506834,164.21833433042957L159.09733327229816,144.08739844802736L175.00706659952797,131.9509509628706L190.91679992675782,121.6428460988778L206.82653325398763,113.67264991953772L222.73626658121745,109.03668892392676L238.64599990844727,106.74436488211667L254.55573323567708,104.90374315195359L270.4654665629069,101.8272926196491L286.3751998901367,98.85625299013486L302.28493321736653,95.0081646164641L318.1946665445963,92.79441382599506L334.10439987182616,91.27869642724087L350.01413319905595,91.1207959996641L365.92386652628585,90.18080756886417L381.83359985351564,87.9264756297458L397.7433331807455,88.07649109192981L413.65306650797527,87.97866090312111L429.5627998352051,86.88696369955076L445.4725331624349,87.07716183160652L461.38226648966474,87.37906549290541L477.29199981689453,88.4053654509451L493.2017331441244,86.76737366068318L509.11146647135416,83.71859487779761L525.021199798584,83.95531308048406L540.9309331258138,85.13033593112279L556.8406664530437,84.2389029068803L572.7503997802734,83.5162583280897L588.6601331075033,84.11561336082494L604.5698664347331,83.63006946903404L620.479599761963,84.84127208151732L636.3893330891926,85.19237391925179L652.2990664164225,84.65174552721123L668.2087997436523,83.29442679641555L684.1185330708822,83.794729589339L700.0282663981119,82.31068008040313L715.9379997253418,81.60803520143816L731.8477330525717,81.28036571825476L747.7574663798014,81.83500345377341L763.6671997070313,83.29469529544701L779.5769330342611,83.04360119990295L795.486666361491,81.67216816106074L811.3963996887206,81.03714322539628L827.3061330159505,82.15860711426878L843.2158663431803,82.36194829122451L859.1255996704102,81.35709385972054" fill="none"></path></g></g></g></g><g opacity="0.2"><g><g><g><path style="fill: none;" stroke="rgb(0, 119, 187)" stroke-width="2px" d="M79.54866663614908,333.47221710067026L95.45839996337891,334.01877557219166L111.36813329060872,307.23866203272706L127.27786661783854,277.72588129216393L143.18759994506834,253.1320016387848L159.09733327229816,255.8646688398834L175.00706659952797,253.67856011030617L190.91679992675782,261.876561713602L206.82653325398763,246.02711697853178L222.73626658121745,253.1320016387848L238.64599990844727,263.51611197165784L254.55573323567708,250.94589290920757L270.4654665629069,232.91033944456015L286.3751998901367,227.44500504236296L302.28493321736653,239.46866563329183L318.1946665445963,246.5735502935449L334.10439987182616,240.5617825763346L350.01413319905595,236.18943996067188L365.92386652628585,241.10821589134773L381.83359985351564,252.0388846957421L397.7433331807455,238.92210716177047L413.65306650797527,234.00333123109465L429.5627998352051,233.45677275957328L445.4725331624349,239.46866563329183L461.38226648966474,243.84088309244632L477.29199981689453,229.08455530041883L493.2017331441244,235.0964481741374L509.11146647135416,241.65477436286906L525.021199798584,230.7241055584747L540.9309331258138,243.2944497774332L556.8406664530437,245.4805585070104L572.7503997802734,248.21322570810898L588.6601331075033,242.20133283439043L604.5698664347331,243.2944497774332L620.479599761963,237.829115375236L636.3893330891926,240.5617825763346L652.2990664164225,246.02711697853178L668.2087997436523,242.7478913059118L684.1185330708822,229.08455530041883L700.0282663981119,232.3637809730388L715.9379997253418,252.0388846957421L731.8477330525717,225.25877115627748L747.7574663798014,250.94589290920757L763.6671997070313,244.38744156396766L779.5769330342611,243.84088309244632L795.486666361491,255.31811036836203L811.3963996887206,248.21322570810898L827.3061330159505,242.20133283439043L843.2158663431803,246.02711697853178L859.1255996704102,246.5735502935449" fill="none"></path></g><g><path style="fill: none;" stroke="rgb(255, 112, 67)" stroke-width="2px" d="M79.54866663614908,513.9383901004362L95.45839996337891,193.24336087677656L111.36813329060872,160.8452219950516L127.27786661783854,137.13357056831643L143.18759994506834,130.09038806662994L159.09733327229816,116.23906698574763L175.00706659952797,114.59563687593607L190.91679992675782,106.61353024936903L206.82653325398763,101.91815868591686L222.73626658121745,102.15282713888286L238.64599990844727,103.32667002974591L254.55573323567708,102.15282713888286L270.4654665629069,97.22266196595643L286.3751998901367,94.40551412179008L302.28493321736653,89.24055533938936L318.1946665445963,89.47534894886365L334.10439987182616,89.0057617299151L350.01413319905595,90.88398544920092L365.92386652628585,88.77096812044084L381.83359985351564,84.54518377593718L397.7433331807455,88.3015060580006L413.65306650797527,87.8319188390521L429.5627998352051,85.24943944785173L445.4725331624349,87.3624567766118L461.38226648966474,87.8319188390521L477.29199981689453,89.9448110113039L493.2017331441244,84.31039016646292L509.11146647135416,79.14543138406225L525.021199798584,84.31039016646292L540.9309331258138,86.89286955766329L556.8406664530437,82.90175366612561L572.7503997802734,82.43229160368537L588.6601331075033,85.01464583837748L604.5698664347331,82.90175366612561L620.479599761963,86.65807594818904L636.3893330891926,85.71902666680023L652.2990664164225,83.84080294751442L668.2087997436523,81.25844871282231L684.1185330708822,84.54518377593718L700.0282663981119,80.08460582195926L715.9379997253418,80.55406788439956L731.8477330525717,80.78886149387381L747.7574663798014,82.66696005665136L763.6671997070313,85.48423305732598L779.5769330342611,82.66696005665136L795.486666361491,79.61501860301075L811.3963996887206,80.08460582195926L827.3061330159505,83.84080294751442L843.2158663431803,82.66696005665136L859.1255996704102,79.849812212485" fill="none"></path></g></g></g></g></g></g><g transform="translate(51, 377)" clip-path="url(#clip_1)"><clipPath id="clip_1"><rect width="954" height="22"></rect></clipPath><g><g><line x1="0" y1="0" x2="0" y2="5" style="visibility: inherit;" fill="rgb(0, 0, 0)" stroke="rgb(204, 204, 204)" stroke-width="1px"></line><line x1="79.54866663614908" y1="0" x2="79.54866663614908" y2="5" style="visibility: inherit;" fill="rgb(0, 0, 0)" stroke="rgb(204, 204, 204)" stroke-width="1px"></line><line x1="159.09733327229816" y1="0" x2="159.09733327229816" y2="5" style="visibility: inherit;" fill="rgb(0, 0, 0)" stroke="rgb(204, 204, 204)" stroke-width="1px"></line><line x1="238.64599990844727" y1="0" x2="238.64599990844727" y2="5" style="visibility: inherit;" fill="rgb(0, 0, 0)" stroke="rgb(204, 204, 204)" stroke-width="1px"></line><line x1="318.1946665445963" y1="0" x2="318.1946665445963" y2="5" style="visibility: inherit;" fill="rgb(0, 0, 0)" stroke="rgb(204, 204, 204)" stroke-width="1px"></line><line x1="397.7433331807455" y1="0" x2="397.7433331807455" y2="5" style="visibility: inherit;" fill="rgb(0, 0, 0)" stroke="rgb(204, 204, 204)" stroke-width="1px"></line><line x1="477.29199981689453" y1="0" x2="477.29199981689453" y2="5" style="visibility: inherit;" fill="rgb(0, 0, 0)" stroke="rgb(204, 204, 204)" stroke-width="1px"></line><line x1="556.8406664530437" y1="0" x2="556.8406664530437" y2="5" style="visibility: inherit;" fill="rgb(0, 0, 0)" stroke="rgb(204, 204, 204)" stroke-width="1px"></line><line x1="636.3893330891926" y1="0" x2="636.3893330891926" y2="5" style="visibility: inherit;" fill="rgb(0, 0, 0)" stroke="rgb(204, 204, 204)" stroke-width="1px"></line><line x1="715.9379997253418" y1="0" x2="715.9379997253418" y2="5" style="visibility: inherit;" fill="rgb(0, 0, 0)" stroke="rgb(204, 204, 204)" stroke-width="1px"></line><line x1="795.486666361491" y1="0" x2="795.486666361491" y2="5" style="visibility: inherit;" fill="rgb(0, 0, 0)" stroke="rgb(204, 204, 204)" stroke-width="1px"></line><line x1="875.0353329976399" y1="0" x2="875.0353329976399" y2="5" style="visibility: inherit;" fill="rgb(0, 0, 0)" stroke="rgb(204, 204, 204)" stroke-width="1px"></line><line x1="954.5839996337891" y1="0" x2="954.5839996337891" y2="5" style="visibility: inherit;" fill="rgb(0, 0, 0)" stroke="rgb(204, 204, 204)" stroke-width="1px"></line></g><g transform="translate(0, 8)"><text style="text-anchor: middle; visibility: hidden; font-family: Roboto, sans-serif; font-size: 12px; font-weight: 200;" x="0" y="0" dx="0em" dy="0.95em" fill="rgb(50, 49, 63)" stroke="none" stroke-width="1px">-5</text><text style="text-anchor: middle; visibility: inherit; font-family: Roboto, sans-serif; font-size: 12px; font-weight: 200;" x="79.54866663614908" y="0" dx="0em" dy="0.95em" fill="rgb(50, 49, 63)" stroke="none" stroke-width="1px">0</text><text style="text-anchor: middle; visibility: inherit; font-family: Roboto, sans-serif; font-size: 12px; font-weight: 200;" x="159.09733327229816" y="0" dx="0em" dy="0.95em" fill="rgb(50, 49, 63)" stroke="none" stroke-width="1px">5</text><text style="text-anchor: middle; visibility: inherit; font-family: Roboto, sans-serif; font-size: 12px; font-weight: 200;" x="238.64599990844727" y="0" dx="0em" dy="0.95em" fill="rgb(50, 49, 63)" stroke="none" stroke-width="1px">10</text><text style="text-anchor: middle; visibility: inherit; font-family: Roboto, sans-serif; font-size: 12px; font-weight: 200;" x="318.1946665445963" y="0" dx="0em" dy="0.95em" fill="rgb(50, 49, 63)" stroke="none" stroke-width="1px">15</text><text style="text-anchor: middle; visibility: inherit; font-family: Roboto, sans-serif; font-size: 12px; font-weight: 200;" x="397.7433331807455" y="0" dx="0em" dy="0.95em" fill="rgb(50, 49, 63)" stroke="none" stroke-width="1px">20</text><text style="text-anchor: middle; visibility: inherit; font-family: Roboto, sans-serif; font-size: 12px; font-weight: 200;" x="477.29199981689453" y="0" dx="0em" dy="0.95em" fill="rgb(50, 49, 63)" stroke="none" stroke-width="1px">25</text><text style="text-anchor: middle; visibility: inherit; font-family: Roboto, sans-serif; font-size: 12px; font-weight: 200;" x="556.8406664530437" y="0" dx="0em" dy="0.95em" fill="rgb(50, 49, 63)" stroke="none" stroke-width="1px">30</text><text style="text-anchor: middle; visibility: inherit; font-family: Roboto, sans-serif; font-size: 12px; font-weight: 200;" x="636.3893330891926" y="0" dx="0em" dy="0.95em" fill="rgb(50, 49, 63)" stroke="none" stroke-width="1px">35</text><text style="text-anchor: middle; visibility: inherit; font-family: Roboto, sans-serif; font-size: 12px; font-weight: 200;" x="715.9379997253418" y="0" dx="0em" dy="0.95em" fill="rgb(50, 49, 63)" stroke="none" stroke-width="1px">40</text><text style="text-anchor: middle; visibility: inherit; font-family: Roboto, sans-serif; font-size: 12px; font-weight: 200;" x="795.486666361491" y="0" dx="0em" dy="0.95em" fill="rgb(50, 49, 63)" stroke="none" stroke-width="1px">45</text><text style="text-anchor: middle; visibility: inherit; font-family: Roboto, sans-serif; font-size: 12px; font-weight: 200;" x="875.0353329976399" y="0" dx="0em" dy="0.95em" fill="rgb(50, 49, 63)" stroke="none" stroke-width="1px">50</text><text style="text-anchor: middle; visibility: hidden; font-family: Roboto, sans-serif; font-size: 12px; font-weight: 200;" x="954.5839996337891" y="0" dx="0em" dy="0.95em" fill="rgb(50, 49, 63)" stroke="none" stroke-width="1px">55</text></g><line x1="0" y1="0" x2="954.5839996337891" y2="0" fill="rgb(0, 0, 0)" stroke="rgb(204, 204, 204)" stroke-width="1px"></line></g></g></g></g></svg>